%TF.GenerationSoftware,KiCad,Pcbnew,(5.1.6)-1*%
%TF.CreationDate,2023-01-27T11:01:23-05:00*%
%TF.ProjectId,Amiga-Stereo-Digitizer,416d6967-612d-4537-9465-72656f2d4469,rev?*%
%TF.SameCoordinates,Original*%
%TF.FileFunction,Legend,Top*%
%TF.FilePolarity,Positive*%
%FSLAX46Y46*%
G04 Gerber Fmt 4.6, Leading zero omitted, Abs format (unit mm)*
G04 Created by KiCad (PCBNEW (5.1.6)-1) date 2023-01-27 11:01:23*
%MOMM*%
%LPD*%
G01*
G04 APERTURE LIST*
%ADD10C,0.150000*%
%ADD11C,0.500000*%
%ADD12C,0.120000*%
%ADD13C,0.200000*%
%ADD14C,0.100000*%
%ADD15C,0.254000*%
G04 APERTURE END LIST*
D10*
X199052380Y-95819047D02*
X199766666Y-95819047D01*
X199909523Y-95866666D01*
X200004761Y-95961904D01*
X200052380Y-96104761D01*
X200052380Y-96200000D01*
X200052380Y-94866666D02*
X200052380Y-95342857D01*
X199052380Y-95342857D01*
X199957142Y-93961904D02*
X200004761Y-94009523D01*
X200052380Y-94152380D01*
X200052380Y-94247619D01*
X200004761Y-94390476D01*
X199909523Y-94485714D01*
X199814285Y-94533333D01*
X199623809Y-94580952D01*
X199480952Y-94580952D01*
X199290476Y-94533333D01*
X199195238Y-94485714D01*
X199100000Y-94390476D01*
X199052380Y-94247619D01*
X199052380Y-94152380D01*
X199100000Y-94009523D01*
X199147619Y-93961904D01*
X199052380Y-93247619D02*
X199766666Y-93247619D01*
X199909523Y-93295238D01*
X200004761Y-93390476D01*
X200052380Y-93533333D01*
X200052380Y-93628571D01*
X200052380Y-92295238D02*
X200052380Y-92771428D01*
X199052380Y-92771428D01*
X199957142Y-91390476D02*
X200004761Y-91438095D01*
X200052380Y-91580952D01*
X200052380Y-91676190D01*
X200004761Y-91819047D01*
X199909523Y-91914285D01*
X199814285Y-91961904D01*
X199623809Y-92009523D01*
X199480952Y-92009523D01*
X199290476Y-91961904D01*
X199195238Y-91914285D01*
X199100000Y-91819047D01*
X199052380Y-91676190D01*
X199052380Y-91580952D01*
X199100000Y-91438095D01*
X199147619Y-91390476D01*
X199052380Y-90676190D02*
X199766666Y-90676190D01*
X199909523Y-90723809D01*
X200004761Y-90819047D01*
X200052380Y-90961904D01*
X200052380Y-91057142D01*
X200052380Y-89723809D02*
X200052380Y-90200000D01*
X199052380Y-90200000D01*
X199957142Y-88819047D02*
X200004761Y-88866666D01*
X200052380Y-89009523D01*
X200052380Y-89104761D01*
X200004761Y-89247619D01*
X199909523Y-89342857D01*
X199814285Y-89390476D01*
X199623809Y-89438095D01*
X199480952Y-89438095D01*
X199290476Y-89390476D01*
X199195238Y-89342857D01*
X199100000Y-89247619D01*
X199052380Y-89104761D01*
X199052380Y-89009523D01*
X199100000Y-88866666D01*
X199147619Y-88819047D01*
X199052380Y-88104761D02*
X199766666Y-88104761D01*
X199909523Y-88152380D01*
X200004761Y-88247619D01*
X200052380Y-88390476D01*
X200052380Y-88485714D01*
X200052380Y-87152380D02*
X200052380Y-87628571D01*
X199052380Y-87628571D01*
X199957142Y-86247619D02*
X200004761Y-86295238D01*
X200052380Y-86438095D01*
X200052380Y-86533333D01*
X200004761Y-86676190D01*
X199909523Y-86771428D01*
X199814285Y-86819047D01*
X199623809Y-86866666D01*
X199480952Y-86866666D01*
X199290476Y-86819047D01*
X199195238Y-86771428D01*
X199100000Y-86676190D01*
X199052380Y-86533333D01*
X199052380Y-86438095D01*
X199100000Y-86295238D01*
X199147619Y-86247619D01*
X188204761Y-117152380D02*
X188204761Y-116485714D01*
X188204761Y-116676190D02*
X188252380Y-116580952D01*
X188300000Y-116533333D01*
X188395238Y-116485714D01*
X188490476Y-116485714D01*
X189204761Y-117104761D02*
X189109523Y-117152380D01*
X188919047Y-117152380D01*
X188823809Y-117104761D01*
X188776190Y-117009523D01*
X188776190Y-116628571D01*
X188823809Y-116533333D01*
X188919047Y-116485714D01*
X189109523Y-116485714D01*
X189204761Y-116533333D01*
X189252380Y-116628571D01*
X189252380Y-116723809D01*
X188776190Y-116819047D01*
X189585714Y-116485714D02*
X189823809Y-117152380D01*
X190061904Y-116485714D01*
X190442857Y-117057142D02*
X190490476Y-117104761D01*
X190442857Y-117152380D01*
X190395238Y-117104761D01*
X190442857Y-117057142D01*
X190442857Y-117152380D01*
X190871428Y-116247619D02*
X190919047Y-116200000D01*
X191014285Y-116152380D01*
X191252380Y-116152380D01*
X191347619Y-116200000D01*
X191395238Y-116247619D01*
X191442857Y-116342857D01*
X191442857Y-116438095D01*
X191395238Y-116580952D01*
X190823809Y-117152380D01*
X191442857Y-117152380D01*
X136509523Y-116904761D02*
X136652380Y-116952380D01*
X136890476Y-116952380D01*
X136985714Y-116904761D01*
X137033333Y-116857142D01*
X137080952Y-116761904D01*
X137080952Y-116666666D01*
X137033333Y-116571428D01*
X136985714Y-116523809D01*
X136890476Y-116476190D01*
X136700000Y-116428571D01*
X136604761Y-116380952D01*
X136557142Y-116333333D01*
X136509523Y-116238095D01*
X136509523Y-116142857D01*
X136557142Y-116047619D01*
X136604761Y-116000000D01*
X136700000Y-115952380D01*
X136938095Y-115952380D01*
X137080952Y-116000000D01*
X137938095Y-116952380D02*
X137938095Y-116428571D01*
X137890476Y-116333333D01*
X137795238Y-116285714D01*
X137604761Y-116285714D01*
X137509523Y-116333333D01*
X137938095Y-116904761D02*
X137842857Y-116952380D01*
X137604761Y-116952380D01*
X137509523Y-116904761D01*
X137461904Y-116809523D01*
X137461904Y-116714285D01*
X137509523Y-116619047D01*
X137604761Y-116571428D01*
X137842857Y-116571428D01*
X137938095Y-116523809D01*
X138414285Y-116952380D02*
X138414285Y-116285714D01*
X138414285Y-116380952D02*
X138461904Y-116333333D01*
X138557142Y-116285714D01*
X138700000Y-116285714D01*
X138795238Y-116333333D01*
X138842857Y-116428571D01*
X138842857Y-116952380D01*
X138842857Y-116428571D02*
X138890476Y-116333333D01*
X138985714Y-116285714D01*
X139128571Y-116285714D01*
X139223809Y-116333333D01*
X139271428Y-116428571D01*
X139271428Y-116952380D01*
X139747619Y-116285714D02*
X139747619Y-117285714D01*
X139747619Y-116333333D02*
X139842857Y-116285714D01*
X140033333Y-116285714D01*
X140128571Y-116333333D01*
X140176190Y-116380952D01*
X140223809Y-116476190D01*
X140223809Y-116761904D01*
X140176190Y-116857142D01*
X140128571Y-116904761D01*
X140033333Y-116952380D01*
X139842857Y-116952380D01*
X139747619Y-116904761D01*
X141033333Y-116904761D02*
X140938095Y-116952380D01*
X140747619Y-116952380D01*
X140652380Y-116904761D01*
X140604761Y-116809523D01*
X140604761Y-116428571D01*
X140652380Y-116333333D01*
X140747619Y-116285714D01*
X140938095Y-116285714D01*
X141033333Y-116333333D01*
X141080952Y-116428571D01*
X141080952Y-116523809D01*
X140604761Y-116619047D01*
X141938095Y-116952380D02*
X141938095Y-115952380D01*
X141938095Y-116904761D02*
X141842857Y-116952380D01*
X141652380Y-116952380D01*
X141557142Y-116904761D01*
X141509523Y-116857142D01*
X141461904Y-116761904D01*
X141461904Y-116476190D01*
X141509523Y-116380952D01*
X141557142Y-116333333D01*
X141652380Y-116285714D01*
X141842857Y-116285714D01*
X141938095Y-116333333D01*
X142795238Y-116904761D02*
X142700000Y-116952380D01*
X142509523Y-116952380D01*
X142414285Y-116904761D01*
X142366666Y-116809523D01*
X142366666Y-116428571D01*
X142414285Y-116333333D01*
X142509523Y-116285714D01*
X142700000Y-116285714D01*
X142795238Y-116333333D01*
X142842857Y-116428571D01*
X142842857Y-116523809D01*
X142366666Y-116619047D01*
X143271428Y-116285714D02*
X143271428Y-116952380D01*
X143271428Y-116380952D02*
X143319047Y-116333333D01*
X143414285Y-116285714D01*
X143557142Y-116285714D01*
X143652380Y-116333333D01*
X143700000Y-116428571D01*
X143700000Y-116952380D01*
X144604761Y-116952380D02*
X144604761Y-116428571D01*
X144557142Y-116333333D01*
X144461904Y-116285714D01*
X144271428Y-116285714D01*
X144176190Y-116333333D01*
X144604761Y-116904761D02*
X144509523Y-116952380D01*
X144271428Y-116952380D01*
X144176190Y-116904761D01*
X144128571Y-116809523D01*
X144128571Y-116714285D01*
X144176190Y-116619047D01*
X144271428Y-116571428D01*
X144509523Y-116571428D01*
X144604761Y-116523809D01*
X144985714Y-116285714D02*
X145176190Y-116952380D01*
X145366666Y-116476190D01*
X145557142Y-116952380D01*
X145747619Y-116285714D01*
X146557142Y-116952380D02*
X146557142Y-116428571D01*
X146509523Y-116333333D01*
X146414285Y-116285714D01*
X146223809Y-116285714D01*
X146128571Y-116333333D01*
X146557142Y-116904761D02*
X146461904Y-116952380D01*
X146223809Y-116952380D01*
X146128571Y-116904761D01*
X146080952Y-116809523D01*
X146080952Y-116714285D01*
X146128571Y-116619047D01*
X146223809Y-116571428D01*
X146461904Y-116571428D01*
X146557142Y-116523809D01*
X147700000Y-116952380D02*
X148223809Y-116285714D01*
X147700000Y-116285714D02*
X148223809Y-116952380D01*
X149271428Y-116285714D02*
X149461904Y-116952380D01*
X149652380Y-116476190D01*
X149842857Y-116952380D01*
X150033333Y-116285714D01*
X150414285Y-116952380D02*
X150414285Y-116285714D01*
X150414285Y-115952380D02*
X150366666Y-116000000D01*
X150414285Y-116047619D01*
X150461904Y-116000000D01*
X150414285Y-115952380D01*
X150414285Y-116047619D01*
X150890476Y-116952380D02*
X150890476Y-116285714D01*
X150890476Y-116476190D02*
X150938095Y-116380952D01*
X150985714Y-116333333D01*
X151080952Y-116285714D01*
X151176190Y-116285714D01*
X151890476Y-116904761D02*
X151795238Y-116952380D01*
X151604761Y-116952380D01*
X151509523Y-116904761D01*
X151461904Y-116809523D01*
X151461904Y-116428571D01*
X151509523Y-116333333D01*
X151604761Y-116285714D01*
X151795238Y-116285714D01*
X151890476Y-116333333D01*
X151938095Y-116428571D01*
X151938095Y-116523809D01*
X151461904Y-116619047D01*
X152223809Y-116285714D02*
X152604761Y-116285714D01*
X152366666Y-115952380D02*
X152366666Y-116809523D01*
X152414285Y-116904761D01*
X152509523Y-116952380D01*
X152604761Y-116952380D01*
X153366666Y-116952380D02*
X153366666Y-116428571D01*
X153319047Y-116333333D01*
X153223809Y-116285714D01*
X153033333Y-116285714D01*
X152938095Y-116333333D01*
X153366666Y-116904761D02*
X153271428Y-116952380D01*
X153033333Y-116952380D01*
X152938095Y-116904761D01*
X152890476Y-116809523D01*
X152890476Y-116714285D01*
X152938095Y-116619047D01*
X153033333Y-116571428D01*
X153271428Y-116571428D01*
X153366666Y-116523809D01*
X153842857Y-116285714D02*
X153842857Y-117285714D01*
X153842857Y-116333333D02*
X153938095Y-116285714D01*
X154128571Y-116285714D01*
X154223809Y-116333333D01*
X154271428Y-116380952D01*
X154319047Y-116476190D01*
X154319047Y-116761904D01*
X154271428Y-116857142D01*
X154223809Y-116904761D01*
X154128571Y-116952380D01*
X153938095Y-116952380D01*
X153842857Y-116904761D01*
X155509523Y-116571428D02*
X156271428Y-116571428D01*
X157461904Y-116047619D02*
X157509523Y-116000000D01*
X157604761Y-115952380D01*
X157842857Y-115952380D01*
X157938095Y-116000000D01*
X157985714Y-116047619D01*
X158033333Y-116142857D01*
X158033333Y-116238095D01*
X157985714Y-116380952D01*
X157414285Y-116952380D01*
X158033333Y-116952380D01*
X158652380Y-115952380D02*
X158747619Y-115952380D01*
X158842857Y-116000000D01*
X158890476Y-116047619D01*
X158938095Y-116142857D01*
X158985714Y-116333333D01*
X158985714Y-116571428D01*
X158938095Y-116761904D01*
X158890476Y-116857142D01*
X158842857Y-116904761D01*
X158747619Y-116952380D01*
X158652380Y-116952380D01*
X158557142Y-116904761D01*
X158509523Y-116857142D01*
X158461904Y-116761904D01*
X158414285Y-116571428D01*
X158414285Y-116333333D01*
X158461904Y-116142857D01*
X158509523Y-116047619D01*
X158557142Y-116000000D01*
X158652380Y-115952380D01*
X159366666Y-116047619D02*
X159414285Y-116000000D01*
X159509523Y-115952380D01*
X159747619Y-115952380D01*
X159842857Y-116000000D01*
X159890476Y-116047619D01*
X159938095Y-116142857D01*
X159938095Y-116238095D01*
X159890476Y-116380952D01*
X159319047Y-116952380D01*
X159938095Y-116952380D01*
X160319047Y-116047619D02*
X160366666Y-116000000D01*
X160461904Y-115952380D01*
X160699999Y-115952380D01*
X160795238Y-116000000D01*
X160842857Y-116047619D01*
X160890476Y-116142857D01*
X160890476Y-116238095D01*
X160842857Y-116380952D01*
X160271428Y-116952380D01*
X160890476Y-116952380D01*
D11*
X137314285Y-111383333D02*
X138266666Y-111383333D01*
X137123809Y-111954761D02*
X137790476Y-109954761D01*
X138457142Y-111954761D01*
X139123809Y-111954761D02*
X139123809Y-109954761D01*
X139790476Y-111383333D01*
X140457142Y-109954761D01*
X140457142Y-111954761D01*
X141409523Y-111954761D02*
X141409523Y-109954761D01*
X143409523Y-110050000D02*
X143219047Y-109954761D01*
X142933333Y-109954761D01*
X142647619Y-110050000D01*
X142457142Y-110240476D01*
X142361904Y-110430952D01*
X142266666Y-110811904D01*
X142266666Y-111097619D01*
X142361904Y-111478571D01*
X142457142Y-111669047D01*
X142647619Y-111859523D01*
X142933333Y-111954761D01*
X143123809Y-111954761D01*
X143409523Y-111859523D01*
X143504761Y-111764285D01*
X143504761Y-111097619D01*
X143123809Y-111097619D01*
X144266666Y-111383333D02*
X145219047Y-111383333D01*
X144076190Y-111954761D02*
X144742857Y-109954761D01*
X145409523Y-111954761D01*
X147504761Y-111859523D02*
X147790476Y-111954761D01*
X148266666Y-111954761D01*
X148457142Y-111859523D01*
X148552380Y-111764285D01*
X148647619Y-111573809D01*
X148647619Y-111383333D01*
X148552380Y-111192857D01*
X148457142Y-111097619D01*
X148266666Y-111002380D01*
X147885714Y-110907142D01*
X147695238Y-110811904D01*
X147600000Y-110716666D01*
X147504761Y-110526190D01*
X147504761Y-110335714D01*
X147600000Y-110145238D01*
X147695238Y-110050000D01*
X147885714Y-109954761D01*
X148361904Y-109954761D01*
X148647619Y-110050000D01*
X149219047Y-109954761D02*
X150361904Y-109954761D01*
X149790476Y-111954761D02*
X149790476Y-109954761D01*
X151028571Y-110907142D02*
X151695238Y-110907142D01*
X151980952Y-111954761D02*
X151028571Y-111954761D01*
X151028571Y-109954761D01*
X151980952Y-109954761D01*
X153980952Y-111954761D02*
X153314285Y-111002380D01*
X152838095Y-111954761D02*
X152838095Y-109954761D01*
X153600000Y-109954761D01*
X153790476Y-110050000D01*
X153885714Y-110145238D01*
X153980952Y-110335714D01*
X153980952Y-110621428D01*
X153885714Y-110811904D01*
X153790476Y-110907142D01*
X153600000Y-111002380D01*
X152838095Y-111002380D01*
X154838095Y-110907142D02*
X155504761Y-110907142D01*
X155790476Y-111954761D02*
X154838095Y-111954761D01*
X154838095Y-109954761D01*
X155790476Y-109954761D01*
X157028571Y-109954761D02*
X157409523Y-109954761D01*
X157600000Y-110050000D01*
X157790476Y-110240476D01*
X157885714Y-110621428D01*
X157885714Y-111288095D01*
X157790476Y-111669047D01*
X157600000Y-111859523D01*
X157409523Y-111954761D01*
X157028571Y-111954761D01*
X156838095Y-111859523D01*
X156647619Y-111669047D01*
X156552380Y-111288095D01*
X156552380Y-110621428D01*
X156647619Y-110240476D01*
X156838095Y-110050000D01*
X157028571Y-109954761D01*
X141028571Y-115454761D02*
X141028571Y-113454761D01*
X141504761Y-113454761D01*
X141790476Y-113550000D01*
X141980952Y-113740476D01*
X142076190Y-113930952D01*
X142171428Y-114311904D01*
X142171428Y-114597619D01*
X142076190Y-114978571D01*
X141980952Y-115169047D01*
X141790476Y-115359523D01*
X141504761Y-115454761D01*
X141028571Y-115454761D01*
X143028571Y-115454761D02*
X143028571Y-113454761D01*
X145028571Y-113550000D02*
X144838095Y-113454761D01*
X144552380Y-113454761D01*
X144266666Y-113550000D01*
X144076190Y-113740476D01*
X143980952Y-113930952D01*
X143885714Y-114311904D01*
X143885714Y-114597619D01*
X143980952Y-114978571D01*
X144076190Y-115169047D01*
X144266666Y-115359523D01*
X144552380Y-115454761D01*
X144742857Y-115454761D01*
X145028571Y-115359523D01*
X145123809Y-115264285D01*
X145123809Y-114597619D01*
X144742857Y-114597619D01*
X145980952Y-115454761D02*
X145980952Y-113454761D01*
X146647619Y-113454761D02*
X147790476Y-113454761D01*
X147219047Y-115454761D02*
X147219047Y-113454761D01*
X148457142Y-115454761D02*
X148457142Y-113454761D01*
X149219047Y-113454761D02*
X150552380Y-113454761D01*
X149219047Y-115454761D01*
X150552380Y-115454761D01*
X151314285Y-114407142D02*
X151980952Y-114407142D01*
X152266666Y-115454761D02*
X151314285Y-115454761D01*
X151314285Y-113454761D01*
X152266666Y-113454761D01*
X154266666Y-115454761D02*
X153600000Y-114502380D01*
X153123809Y-115454761D02*
X153123809Y-113454761D01*
X153885714Y-113454761D01*
X154076190Y-113550000D01*
X154171428Y-113645238D01*
X154266666Y-113835714D01*
X154266666Y-114121428D01*
X154171428Y-114311904D01*
X154076190Y-114407142D01*
X153885714Y-114502380D01*
X153123809Y-114502380D01*
D10*
X167495238Y-72452380D02*
X167161904Y-71976190D01*
X166923809Y-72452380D02*
X166923809Y-71452380D01*
X167304761Y-71452380D01*
X167400000Y-71500000D01*
X167447619Y-71547619D01*
X167495238Y-71642857D01*
X167495238Y-71785714D01*
X167447619Y-71880952D01*
X167400000Y-71928571D01*
X167304761Y-71976190D01*
X166923809Y-71976190D01*
X167923809Y-72452380D02*
X167923809Y-71452380D01*
X168923809Y-71500000D02*
X168828571Y-71452380D01*
X168685714Y-71452380D01*
X168542857Y-71500000D01*
X168447619Y-71595238D01*
X168400000Y-71690476D01*
X168352380Y-71880952D01*
X168352380Y-72023809D01*
X168400000Y-72214285D01*
X168447619Y-72309523D01*
X168542857Y-72404761D01*
X168685714Y-72452380D01*
X168780952Y-72452380D01*
X168923809Y-72404761D01*
X168971428Y-72357142D01*
X168971428Y-72023809D01*
X168780952Y-72023809D01*
X169400000Y-72452380D02*
X169400000Y-71452380D01*
X169400000Y-71928571D02*
X169971428Y-71928571D01*
X169971428Y-72452380D02*
X169971428Y-71452380D01*
X170304761Y-71452380D02*
X170876190Y-71452380D01*
X170590476Y-72452380D02*
X170590476Y-71452380D01*
X172495238Y-71500000D02*
X172400000Y-71452380D01*
X172257142Y-71452380D01*
X172114285Y-71500000D01*
X172019047Y-71595238D01*
X171971428Y-71690476D01*
X171923809Y-71880952D01*
X171923809Y-72023809D01*
X171971428Y-72214285D01*
X172019047Y-72309523D01*
X172114285Y-72404761D01*
X172257142Y-72452380D01*
X172352380Y-72452380D01*
X172495238Y-72404761D01*
X172542857Y-72357142D01*
X172542857Y-72023809D01*
X172352380Y-72023809D01*
X172923809Y-72166666D02*
X173400000Y-72166666D01*
X172828571Y-72452380D02*
X173161904Y-71452380D01*
X173495238Y-72452380D01*
X173828571Y-72452380D02*
X173828571Y-71452380D01*
X174304761Y-72452380D02*
X174304761Y-71452380D01*
X174876190Y-72452380D01*
X174876190Y-71452380D01*
X159976190Y-95452380D02*
X159500000Y-95452380D01*
X159500000Y-94452380D01*
X160309523Y-94928571D02*
X160642857Y-94928571D01*
X160785714Y-95452380D02*
X160309523Y-95452380D01*
X160309523Y-94452380D01*
X160785714Y-94452380D01*
X161547619Y-94928571D02*
X161214285Y-94928571D01*
X161214285Y-95452380D02*
X161214285Y-94452380D01*
X161690476Y-94452380D01*
X161928571Y-94452380D02*
X162500000Y-94452380D01*
X162214285Y-95452380D02*
X162214285Y-94452380D01*
X164119047Y-94500000D02*
X164023809Y-94452380D01*
X163880952Y-94452380D01*
X163738095Y-94500000D01*
X163642857Y-94595238D01*
X163595238Y-94690476D01*
X163547619Y-94880952D01*
X163547619Y-95023809D01*
X163595238Y-95214285D01*
X163642857Y-95309523D01*
X163738095Y-95404761D01*
X163880952Y-95452380D01*
X163976190Y-95452380D01*
X164119047Y-95404761D01*
X164166666Y-95357142D01*
X164166666Y-95023809D01*
X163976190Y-95023809D01*
X164547619Y-95166666D02*
X165023809Y-95166666D01*
X164452380Y-95452380D02*
X164785714Y-94452380D01*
X165119047Y-95452380D01*
X165452380Y-95452380D02*
X165452380Y-94452380D01*
X165928571Y-95452380D02*
X165928571Y-94452380D01*
X166500000Y-95452380D01*
X166500000Y-94452380D01*
D12*
X184100000Y-65400000D02*
X184100000Y-67100000D01*
X171000000Y-65400000D02*
X184100000Y-65400000D01*
X171000000Y-70300000D02*
X171000000Y-65400000D01*
X184100000Y-70300000D02*
X171000000Y-70300000D01*
X184100000Y-67100000D02*
X184100000Y-70300000D01*
X171000000Y-67100000D02*
X184100000Y-67100000D01*
D10*
X171587976Y-68947619D02*
X171635595Y-68900000D01*
X171730833Y-68852380D01*
X171968928Y-68852380D01*
X172064166Y-68900000D01*
X172111785Y-68947619D01*
X172159404Y-69042857D01*
X172159404Y-69138095D01*
X172111785Y-69280952D01*
X171540357Y-69852380D01*
X172159404Y-69852380D01*
X172587976Y-69471428D02*
X173349880Y-69471428D01*
X173730833Y-68852380D02*
X174349880Y-68852380D01*
X174016547Y-69233333D01*
X174159404Y-69233333D01*
X174254642Y-69280952D01*
X174302261Y-69328571D01*
X174349880Y-69423809D01*
X174349880Y-69661904D01*
X174302261Y-69757142D01*
X174254642Y-69804761D01*
X174159404Y-69852380D01*
X173873690Y-69852380D01*
X173778452Y-69804761D01*
X173730833Y-69757142D01*
X175540357Y-69328571D02*
X176302261Y-69328571D01*
X176302261Y-69614285D02*
X175540357Y-69614285D01*
X177540357Y-69852380D02*
X177540357Y-68852380D01*
X177921309Y-68852380D01*
X178016547Y-68900000D01*
X178064166Y-68947619D01*
X178111785Y-69042857D01*
X178111785Y-69185714D01*
X178064166Y-69280952D01*
X178016547Y-69328571D01*
X177921309Y-69376190D01*
X177540357Y-69376190D01*
X179111785Y-69757142D02*
X179064166Y-69804761D01*
X178921309Y-69852380D01*
X178826071Y-69852380D01*
X178683214Y-69804761D01*
X178587976Y-69709523D01*
X178540357Y-69614285D01*
X178492738Y-69423809D01*
X178492738Y-69280952D01*
X178540357Y-69090476D01*
X178587976Y-68995238D01*
X178683214Y-68900000D01*
X178826071Y-68852380D01*
X178921309Y-68852380D01*
X179064166Y-68900000D01*
X179111785Y-68947619D01*
X179540357Y-69471428D02*
X180302261Y-69471428D01*
X180778452Y-69852380D02*
X180778452Y-68852380D01*
X181016547Y-68852380D01*
X181159404Y-68900000D01*
X181254642Y-68995238D01*
X181302261Y-69090476D01*
X181349880Y-69280952D01*
X181349880Y-69423809D01*
X181302261Y-69614285D01*
X181254642Y-69709523D01*
X181159404Y-69804761D01*
X181016547Y-69852380D01*
X180778452Y-69852380D01*
X181968928Y-68852380D02*
X182159404Y-68852380D01*
X182254642Y-68900000D01*
X182349880Y-68995238D01*
X182397500Y-69185714D01*
X182397500Y-69519047D01*
X182349880Y-69709523D01*
X182254642Y-69804761D01*
X182159404Y-69852380D01*
X181968928Y-69852380D01*
X181873690Y-69804761D01*
X181778452Y-69709523D01*
X181730833Y-69519047D01*
X181730833Y-69185714D01*
X181778452Y-68995238D01*
X181873690Y-68900000D01*
X181968928Y-68852380D01*
X182778452Y-69804761D02*
X182921309Y-69852380D01*
X183159404Y-69852380D01*
X183254642Y-69804761D01*
X183302261Y-69757142D01*
X183349880Y-69661904D01*
X183349880Y-69566666D01*
X183302261Y-69471428D01*
X183254642Y-69423809D01*
X183159404Y-69376190D01*
X182968928Y-69328571D01*
X182873690Y-69280952D01*
X182826071Y-69233333D01*
X182778452Y-69138095D01*
X182778452Y-69042857D01*
X182826071Y-68947619D01*
X182873690Y-68900000D01*
X182968928Y-68852380D01*
X183207023Y-68852380D01*
X183349880Y-68900000D01*
X172159404Y-68352380D02*
X171587976Y-68352380D01*
X171873690Y-68352380D02*
X171873690Y-67352380D01*
X171778452Y-67495238D01*
X171683214Y-67590476D01*
X171587976Y-67638095D01*
X172587976Y-67971428D02*
X173349880Y-67971428D01*
X173778452Y-67447619D02*
X173826071Y-67400000D01*
X173921309Y-67352380D01*
X174159404Y-67352380D01*
X174254642Y-67400000D01*
X174302261Y-67447619D01*
X174349880Y-67542857D01*
X174349880Y-67638095D01*
X174302261Y-67780952D01*
X173730833Y-68352380D01*
X174349880Y-68352380D01*
X175540357Y-67828571D02*
X176302261Y-67828571D01*
X176302261Y-68114285D02*
X175540357Y-68114285D01*
X177492738Y-68066666D02*
X177968928Y-68066666D01*
X177397500Y-68352380D02*
X177730833Y-67352380D01*
X178064166Y-68352380D01*
X178397500Y-68352380D02*
X178397500Y-67352380D01*
X178730833Y-68066666D01*
X179064166Y-67352380D01*
X179064166Y-68352380D01*
X179540357Y-68352380D02*
X179540357Y-67352380D01*
X180540357Y-67400000D02*
X180445119Y-67352380D01*
X180302261Y-67352380D01*
X180159404Y-67400000D01*
X180064166Y-67495238D01*
X180016547Y-67590476D01*
X179968928Y-67780952D01*
X179968928Y-67923809D01*
X180016547Y-68114285D01*
X180064166Y-68209523D01*
X180159404Y-68304761D01*
X180302261Y-68352380D01*
X180397500Y-68352380D01*
X180540357Y-68304761D01*
X180587976Y-68257142D01*
X180587976Y-67923809D01*
X180397500Y-67923809D01*
X180968928Y-68066666D02*
X181445119Y-68066666D01*
X180873690Y-68352380D02*
X181207023Y-67352380D01*
X181540357Y-68352380D01*
X171738095Y-65652380D02*
X171738095Y-66366666D01*
X171690476Y-66509523D01*
X171595238Y-66604761D01*
X171452380Y-66652380D01*
X171357142Y-66652380D01*
X172738095Y-66652380D02*
X172166666Y-66652380D01*
X172452380Y-66652380D02*
X172452380Y-65652380D01*
X172357142Y-65795238D01*
X172261904Y-65890476D01*
X172166666Y-65938095D01*
X173928571Y-66271428D02*
X174690476Y-66271428D01*
X176119047Y-65652380D02*
X176309523Y-65652380D01*
X176404761Y-65700000D01*
X176500000Y-65795238D01*
X176547619Y-65985714D01*
X176547619Y-66319047D01*
X176500000Y-66509523D01*
X176404761Y-66604761D01*
X176309523Y-66652380D01*
X176119047Y-66652380D01*
X176023809Y-66604761D01*
X175928571Y-66509523D01*
X175880952Y-66319047D01*
X175880952Y-65985714D01*
X175928571Y-65795238D01*
X176023809Y-65700000D01*
X176119047Y-65652380D01*
X176928571Y-66604761D02*
X177071428Y-66652380D01*
X177309523Y-66652380D01*
X177404761Y-66604761D01*
X177452380Y-66557142D01*
X177500000Y-66461904D01*
X177500000Y-66366666D01*
X177452380Y-66271428D01*
X177404761Y-66223809D01*
X177309523Y-66176190D01*
X177119047Y-66128571D01*
X177023809Y-66080952D01*
X176976190Y-66033333D01*
X176928571Y-65938095D01*
X176928571Y-65842857D01*
X176976190Y-65747619D01*
X177023809Y-65700000D01*
X177119047Y-65652380D01*
X177357142Y-65652380D01*
X177500000Y-65700000D01*
X178642857Y-66604761D02*
X178785714Y-66652380D01*
X179023809Y-66652380D01*
X179119047Y-66604761D01*
X179166666Y-66557142D01*
X179214285Y-66461904D01*
X179214285Y-66366666D01*
X179166666Y-66271428D01*
X179119047Y-66223809D01*
X179023809Y-66176190D01*
X178833333Y-66128571D01*
X178738095Y-66080952D01*
X178690476Y-66033333D01*
X178642857Y-65938095D01*
X178642857Y-65842857D01*
X178690476Y-65747619D01*
X178738095Y-65700000D01*
X178833333Y-65652380D01*
X179071428Y-65652380D01*
X179214285Y-65700000D01*
X179642857Y-66128571D02*
X179976190Y-66128571D01*
X180119047Y-66652380D02*
X179642857Y-66652380D01*
X179642857Y-65652380D01*
X180119047Y-65652380D01*
X181023809Y-66652380D02*
X180547619Y-66652380D01*
X180547619Y-65652380D01*
X181357142Y-66128571D02*
X181690476Y-66128571D01*
X181833333Y-66652380D02*
X181357142Y-66652380D01*
X181357142Y-65652380D01*
X181833333Y-65652380D01*
X182833333Y-66557142D02*
X182785714Y-66604761D01*
X182642857Y-66652380D01*
X182547619Y-66652380D01*
X182404761Y-66604761D01*
X182309523Y-66509523D01*
X182261904Y-66414285D01*
X182214285Y-66223809D01*
X182214285Y-66080952D01*
X182261904Y-65890476D01*
X182309523Y-65795238D01*
X182404761Y-65700000D01*
X182547619Y-65652380D01*
X182642857Y-65652380D01*
X182785714Y-65700000D01*
X182833333Y-65747619D01*
X183119047Y-65652380D02*
X183690476Y-65652380D01*
X183404761Y-66652380D02*
X183404761Y-65652380D01*
X185566666Y-77952380D02*
X186185714Y-77952380D01*
X185852380Y-78333333D01*
X185995238Y-78333333D01*
X186090476Y-78380952D01*
X186138095Y-78428571D01*
X186185714Y-78523809D01*
X186185714Y-78761904D01*
X186138095Y-78857142D01*
X186090476Y-78904761D01*
X185995238Y-78952380D01*
X185709523Y-78952380D01*
X185614285Y-78904761D01*
X185566666Y-78857142D01*
X185614285Y-80547619D02*
X185661904Y-80500000D01*
X185757142Y-80452380D01*
X185995238Y-80452380D01*
X186090476Y-80500000D01*
X186138095Y-80547619D01*
X186185714Y-80642857D01*
X186185714Y-80738095D01*
X186138095Y-80880952D01*
X185566666Y-81452380D01*
X186185714Y-81452380D01*
X186185714Y-84052380D02*
X185614285Y-84052380D01*
X185900000Y-84052380D02*
X185900000Y-83052380D01*
X185804761Y-83195238D01*
X185709523Y-83290476D01*
X185614285Y-83338095D01*
D12*
%TO.C,C1*%
X156363748Y-90010000D02*
X156886252Y-90010000D01*
X156363748Y-88590000D02*
X156886252Y-88590000D01*
%TO.C,C2*%
X151386252Y-100790000D02*
X150863748Y-100790000D01*
X151386252Y-102210000D02*
X150863748Y-102210000D01*
%TO.C,C3*%
X156313748Y-77590000D02*
X156836252Y-77590000D01*
X156313748Y-79010000D02*
X156836252Y-79010000D01*
%TO.C,C4*%
X151386252Y-80810000D02*
X150863748Y-80810000D01*
X151386252Y-79390000D02*
X150863748Y-79390000D01*
%TO.C,C5*%
X159090000Y-90886252D02*
X159090000Y-90363748D01*
X160510000Y-90886252D02*
X160510000Y-90363748D01*
%TO.C,C7*%
X158036252Y-105490000D02*
X157513748Y-105490000D01*
X158036252Y-106910000D02*
X157513748Y-106910000D01*
%TO.C,C8*%
X158036252Y-104310000D02*
X157513748Y-104310000D01*
X158036252Y-102890000D02*
X157513748Y-102890000D01*
D13*
%TO.C,D1*%
X186840000Y-70575000D02*
X189325000Y-70575000D01*
X187475000Y-71825000D02*
X189325000Y-71825000D01*
%TO.C,D2*%
X187475000Y-73825000D02*
X189325000Y-73825000D01*
X186840000Y-72575000D02*
X189325000Y-72575000D01*
%TO.C,IC1*%
X166898000Y-108552000D02*
X163702000Y-108552000D01*
X163702000Y-108552000D02*
X163702000Y-103648000D01*
X163702000Y-103648000D02*
X166898000Y-103648000D01*
X166898000Y-103648000D02*
X166898000Y-108552000D01*
X168775000Y-108680000D02*
X167248000Y-108680000D01*
%TO.C,IC4*%
X181950000Y-84700000D02*
X178250000Y-84700000D01*
X178250000Y-84700000D02*
X178250000Y-79700000D01*
X178250000Y-79700000D02*
X181950000Y-79700000D01*
X181950000Y-79700000D02*
X181950000Y-84700000D01*
X183750000Y-84725000D02*
X182300000Y-84725000D01*
%TO.C,J0*%
X213440000Y-110660000D02*
X207440000Y-110660000D01*
X213440000Y-71700000D02*
X213440000Y-110660000D01*
X207440000Y-71700000D02*
X213440000Y-71700000D01*
X207440000Y-110660000D02*
X207440000Y-71700000D01*
X213240000Y-69660000D02*
X207440000Y-69660000D01*
X213240000Y-65660000D02*
X213240000Y-69660000D01*
X207440000Y-65660000D02*
X213240000Y-65660000D01*
X207440000Y-69660000D02*
X207440000Y-65660000D01*
X213240000Y-116700000D02*
X207440000Y-116700000D01*
X213240000Y-112700000D02*
X213240000Y-116700000D01*
X207440000Y-112700000D02*
X213240000Y-112700000D01*
X207440000Y-116700000D02*
X207440000Y-112700000D01*
X207440000Y-117700000D02*
X192840000Y-117700000D01*
X207440000Y-64660000D02*
X207440000Y-117700000D01*
X192840000Y-64660000D02*
X207440000Y-64660000D01*
X192840000Y-117700000D02*
X192840000Y-64660000D01*
D12*
%TO.C,J1*%
X189630000Y-77090000D02*
X186970000Y-77090000D01*
X189630000Y-82230000D02*
X189630000Y-77090000D01*
X186970000Y-82230000D02*
X186970000Y-77090000D01*
X189630000Y-82230000D02*
X186970000Y-82230000D01*
X189630000Y-83500000D02*
X189630000Y-84830000D01*
X189630000Y-84830000D02*
X188300000Y-84830000D01*
D13*
%TO.C,J2*%
X141750000Y-95400000D02*
X141750000Y-95400000D01*
X141750000Y-95300000D02*
X141750000Y-95300000D01*
X141750000Y-95400000D02*
X141750000Y-95400000D01*
D14*
X147500000Y-106500000D02*
X140500000Y-106500000D01*
X147500000Y-103250000D02*
X147500000Y-106500000D01*
X147500000Y-96500000D02*
X147500000Y-99750000D01*
X140750000Y-96500000D02*
X147500000Y-96500000D01*
X128000000Y-96500000D02*
X136000000Y-96500000D01*
X128000000Y-106500000D02*
X128000000Y-96500000D01*
X136000000Y-106500000D02*
X128000000Y-106500000D01*
D13*
X141750000Y-95300000D02*
G75*
G02*
X141750000Y-95400000I0J-50000D01*
G01*
X141750000Y-95400000D02*
G75*
G02*
X141750000Y-95300000I0J50000D01*
G01*
X141750000Y-95300000D02*
G75*
G02*
X141750000Y-95400000I0J-50000D01*
G01*
%TO.C,J3*%
X141750000Y-74000000D02*
X141750000Y-74000000D01*
X141750000Y-73900000D02*
X141750000Y-73900000D01*
X141750000Y-74000000D02*
X141750000Y-74000000D01*
D14*
X147500000Y-85100000D02*
X140500000Y-85100000D01*
X147500000Y-81850000D02*
X147500000Y-85100000D01*
X147500000Y-75100000D02*
X147500000Y-78350000D01*
X140750000Y-75100000D02*
X147500000Y-75100000D01*
X128000000Y-75100000D02*
X136000000Y-75100000D01*
X128000000Y-85100000D02*
X128000000Y-75100000D01*
X136000000Y-85100000D02*
X128000000Y-85100000D01*
D13*
X141750000Y-73900000D02*
G75*
G02*
X141750000Y-74000000I0J-50000D01*
G01*
X141750000Y-74000000D02*
G75*
G02*
X141750000Y-73900000I0J50000D01*
G01*
X141750000Y-73900000D02*
G75*
G02*
X141750000Y-74000000I0J-50000D01*
G01*
D12*
%TO.C,R1*%
X156363748Y-92210000D02*
X156886252Y-92210000D01*
X156363748Y-90790000D02*
X156886252Y-90790000D01*
%TO.C,R2*%
X156886252Y-94410000D02*
X156363748Y-94410000D01*
X156886252Y-92990000D02*
X156363748Y-92990000D01*
%TO.C,R3*%
X161290000Y-90886252D02*
X161290000Y-90363748D01*
X162710000Y-90886252D02*
X162710000Y-90363748D01*
%TO.C,R4*%
X163490000Y-90363748D02*
X163490000Y-90886252D01*
X164910000Y-90363748D02*
X164910000Y-90886252D01*
%TO.C,R5*%
X152886252Y-86190000D02*
X152363748Y-86190000D01*
X152886252Y-87610000D02*
X152363748Y-87610000D01*
%TO.C,R6*%
X165690000Y-90886252D02*
X165690000Y-90363748D01*
X167110000Y-90886252D02*
X167110000Y-90363748D01*
%TO.C,R7*%
X167890000Y-90363748D02*
X167890000Y-90886252D01*
X169310000Y-90363748D02*
X169310000Y-90886252D01*
%TO.C,R8*%
X156313748Y-75390000D02*
X156836252Y-75390000D01*
X156313748Y-76810000D02*
X156836252Y-76810000D01*
%TO.C,R9*%
X156836252Y-74610000D02*
X156313748Y-74610000D01*
X156836252Y-73190000D02*
X156313748Y-73190000D01*
%TO.C,R10*%
X167186252Y-82590000D02*
X166663748Y-82590000D01*
X167186252Y-84010000D02*
X166663748Y-84010000D01*
%TO.C,R11*%
X166613748Y-80290000D02*
X167136252Y-80290000D01*
X166613748Y-81710000D02*
X167136252Y-81710000D01*
%TO.C,R12*%
X151890000Y-84061252D02*
X151890000Y-83538748D01*
X153310000Y-84061252D02*
X153310000Y-83538748D01*
%TO.C,R13*%
X163910000Y-77163748D02*
X163910000Y-77686252D01*
X162490000Y-77163748D02*
X162490000Y-77686252D01*
%TO.C,R14*%
X161710000Y-77661252D02*
X161710000Y-77138748D01*
X160290000Y-77661252D02*
X160290000Y-77138748D01*
%TO.C,R15*%
X158086252Y-109510000D02*
X157563748Y-109510000D01*
X158086252Y-108090000D02*
X157563748Y-108090000D01*
%TO.C,R16*%
X164913748Y-111010000D02*
X165436252Y-111010000D01*
X164913748Y-109590000D02*
X165436252Y-109590000D01*
%TO.C,R17*%
X188113748Y-69810000D02*
X188636252Y-69810000D01*
X188113748Y-68390000D02*
X188636252Y-68390000D01*
D13*
%TO.C,U3*%
X155475000Y-85400000D02*
X155475000Y-82200000D01*
X155475000Y-82200000D02*
X164125000Y-82200000D01*
X164125000Y-82200000D02*
X164125000Y-85400000D01*
X164125000Y-85400000D02*
X155475000Y-85400000D01*
X155315000Y-87275000D02*
X155315000Y-85750000D01*
D14*
%TO.C,VR1*%
X166050000Y-73000000D02*
X175750000Y-73000000D01*
X166050000Y-78000000D02*
X166050000Y-73000000D01*
X175750000Y-78000000D02*
X166050000Y-78000000D01*
X175750000Y-73000000D02*
X175750000Y-78000000D01*
%TO.C,VR2*%
X167850000Y-96000000D02*
X167850000Y-101000000D01*
X167850000Y-101000000D02*
X158150000Y-101000000D01*
X158150000Y-101000000D02*
X158150000Y-96000000D01*
X158150000Y-96000000D02*
X167850000Y-96000000D01*
D12*
%TO.C,IC2*%
X179100000Y-87660000D02*
X171860000Y-87660000D01*
X171860000Y-87660000D02*
X170860000Y-88660000D01*
X170860000Y-88660000D02*
X170860000Y-106140000D01*
X170860000Y-106140000D02*
X189340000Y-106140000D01*
X189340000Y-106140000D02*
X189340000Y-87660000D01*
X189340000Y-87660000D02*
X181100000Y-87660000D01*
D14*
X175315000Y-90465000D02*
X174815000Y-90465000D01*
X174815000Y-90465000D02*
X173665000Y-91615000D01*
X173665000Y-91615000D02*
X173665000Y-92115000D01*
X184885000Y-90465000D02*
X186535000Y-90465000D01*
X186535000Y-90465000D02*
X186535000Y-92115000D01*
X175315000Y-103335000D02*
X173665000Y-103335000D01*
X173665000Y-103335000D02*
X173665000Y-101685000D01*
X184885000Y-103335000D02*
X186535000Y-103335000D01*
X186535000Y-103335000D02*
X186535000Y-101685000D01*
D12*
%TO.C,C6*%
X187958578Y-111510000D02*
X187441422Y-111510000D01*
X187958578Y-110090000D02*
X187441422Y-110090000D01*
%TO.C,C1*%
D10*
X153683333Y-89657142D02*
X153635714Y-89704761D01*
X153492857Y-89752380D01*
X153397619Y-89752380D01*
X153254761Y-89704761D01*
X153159523Y-89609523D01*
X153111904Y-89514285D01*
X153064285Y-89323809D01*
X153064285Y-89180952D01*
X153111904Y-88990476D01*
X153159523Y-88895238D01*
X153254761Y-88800000D01*
X153397619Y-88752380D01*
X153492857Y-88752380D01*
X153635714Y-88800000D01*
X153683333Y-88847619D01*
X154635714Y-89752380D02*
X154064285Y-89752380D01*
X154350000Y-89752380D02*
X154350000Y-88752380D01*
X154254761Y-88895238D01*
X154159523Y-88990476D01*
X154064285Y-89038095D01*
%TO.C,C2*%
X150958333Y-100157142D02*
X150910714Y-100204761D01*
X150767857Y-100252380D01*
X150672619Y-100252380D01*
X150529761Y-100204761D01*
X150434523Y-100109523D01*
X150386904Y-100014285D01*
X150339285Y-99823809D01*
X150339285Y-99680952D01*
X150386904Y-99490476D01*
X150434523Y-99395238D01*
X150529761Y-99300000D01*
X150672619Y-99252380D01*
X150767857Y-99252380D01*
X150910714Y-99300000D01*
X150958333Y-99347619D01*
X151339285Y-99347619D02*
X151386904Y-99300000D01*
X151482142Y-99252380D01*
X151720238Y-99252380D01*
X151815476Y-99300000D01*
X151863095Y-99347619D01*
X151910714Y-99442857D01*
X151910714Y-99538095D01*
X151863095Y-99680952D01*
X151291666Y-100252380D01*
X151910714Y-100252380D01*
%TO.C,C3*%
X153633333Y-78757142D02*
X153585714Y-78804761D01*
X153442857Y-78852380D01*
X153347619Y-78852380D01*
X153204761Y-78804761D01*
X153109523Y-78709523D01*
X153061904Y-78614285D01*
X153014285Y-78423809D01*
X153014285Y-78280952D01*
X153061904Y-78090476D01*
X153109523Y-77995238D01*
X153204761Y-77900000D01*
X153347619Y-77852380D01*
X153442857Y-77852380D01*
X153585714Y-77900000D01*
X153633333Y-77947619D01*
X153966666Y-77852380D02*
X154585714Y-77852380D01*
X154252380Y-78233333D01*
X154395238Y-78233333D01*
X154490476Y-78280952D01*
X154538095Y-78328571D01*
X154585714Y-78423809D01*
X154585714Y-78661904D01*
X154538095Y-78757142D01*
X154490476Y-78804761D01*
X154395238Y-78852380D01*
X154109523Y-78852380D01*
X154014285Y-78804761D01*
X153966666Y-78757142D01*
%TO.C,C4*%
X150958333Y-78857142D02*
X150910714Y-78904761D01*
X150767857Y-78952380D01*
X150672619Y-78952380D01*
X150529761Y-78904761D01*
X150434523Y-78809523D01*
X150386904Y-78714285D01*
X150339285Y-78523809D01*
X150339285Y-78380952D01*
X150386904Y-78190476D01*
X150434523Y-78095238D01*
X150529761Y-78000000D01*
X150672619Y-77952380D01*
X150767857Y-77952380D01*
X150910714Y-78000000D01*
X150958333Y-78047619D01*
X151815476Y-78285714D02*
X151815476Y-78952380D01*
X151577380Y-77904761D02*
X151339285Y-78619047D01*
X151958333Y-78619047D01*
%TO.C,C5*%
X159633333Y-93582142D02*
X159585714Y-93629761D01*
X159442857Y-93677380D01*
X159347619Y-93677380D01*
X159204761Y-93629761D01*
X159109523Y-93534523D01*
X159061904Y-93439285D01*
X159014285Y-93248809D01*
X159014285Y-93105952D01*
X159061904Y-92915476D01*
X159109523Y-92820238D01*
X159204761Y-92725000D01*
X159347619Y-92677380D01*
X159442857Y-92677380D01*
X159585714Y-92725000D01*
X159633333Y-92772619D01*
X160538095Y-92677380D02*
X160061904Y-92677380D01*
X160014285Y-93153571D01*
X160061904Y-93105952D01*
X160157142Y-93058333D01*
X160395238Y-93058333D01*
X160490476Y-93105952D01*
X160538095Y-93153571D01*
X160585714Y-93248809D01*
X160585714Y-93486904D01*
X160538095Y-93582142D01*
X160490476Y-93629761D01*
X160395238Y-93677380D01*
X160157142Y-93677380D01*
X160061904Y-93629761D01*
X160014285Y-93582142D01*
%TO.C,C7*%
X154733333Y-106657142D02*
X154685714Y-106704761D01*
X154542857Y-106752380D01*
X154447619Y-106752380D01*
X154304761Y-106704761D01*
X154209523Y-106609523D01*
X154161904Y-106514285D01*
X154114285Y-106323809D01*
X154114285Y-106180952D01*
X154161904Y-105990476D01*
X154209523Y-105895238D01*
X154304761Y-105800000D01*
X154447619Y-105752380D01*
X154542857Y-105752380D01*
X154685714Y-105800000D01*
X154733333Y-105847619D01*
X155066666Y-105752380D02*
X155733333Y-105752380D01*
X155304761Y-106752380D01*
%TO.C,C8*%
X154733333Y-103957142D02*
X154685714Y-104004761D01*
X154542857Y-104052380D01*
X154447619Y-104052380D01*
X154304761Y-104004761D01*
X154209523Y-103909523D01*
X154161904Y-103814285D01*
X154114285Y-103623809D01*
X154114285Y-103480952D01*
X154161904Y-103290476D01*
X154209523Y-103195238D01*
X154304761Y-103100000D01*
X154447619Y-103052380D01*
X154542857Y-103052380D01*
X154685714Y-103100000D01*
X154733333Y-103147619D01*
X155304761Y-103480952D02*
X155209523Y-103433333D01*
X155161904Y-103385714D01*
X155114285Y-103290476D01*
X155114285Y-103242857D01*
X155161904Y-103147619D01*
X155209523Y-103100000D01*
X155304761Y-103052380D01*
X155495238Y-103052380D01*
X155590476Y-103100000D01*
X155638095Y-103147619D01*
X155685714Y-103242857D01*
X155685714Y-103290476D01*
X155638095Y-103385714D01*
X155590476Y-103433333D01*
X155495238Y-103480952D01*
X155304761Y-103480952D01*
X155209523Y-103528571D01*
X155161904Y-103576190D01*
X155114285Y-103671428D01*
X155114285Y-103861904D01*
X155161904Y-103957142D01*
X155209523Y-104004761D01*
X155304761Y-104052380D01*
X155495238Y-104052380D01*
X155590476Y-104004761D01*
X155638095Y-103957142D01*
X155685714Y-103861904D01*
X155685714Y-103671428D01*
X155638095Y-103576190D01*
X155590476Y-103528571D01*
X155495238Y-103480952D01*
%TO.C,D1*%
X184861904Y-71652380D02*
X184861904Y-70652380D01*
X185100000Y-70652380D01*
X185242857Y-70700000D01*
X185338095Y-70795238D01*
X185385714Y-70890476D01*
X185433333Y-71080952D01*
X185433333Y-71223809D01*
X185385714Y-71414285D01*
X185338095Y-71509523D01*
X185242857Y-71604761D01*
X185100000Y-71652380D01*
X184861904Y-71652380D01*
X186385714Y-71652380D02*
X185814285Y-71652380D01*
X186100000Y-71652380D02*
X186100000Y-70652380D01*
X186004761Y-70795238D01*
X185909523Y-70890476D01*
X185814285Y-70938095D01*
%TO.C,D2*%
X184861904Y-73652380D02*
X184861904Y-72652380D01*
X185100000Y-72652380D01*
X185242857Y-72700000D01*
X185338095Y-72795238D01*
X185385714Y-72890476D01*
X185433333Y-73080952D01*
X185433333Y-73223809D01*
X185385714Y-73414285D01*
X185338095Y-73509523D01*
X185242857Y-73604761D01*
X185100000Y-73652380D01*
X184861904Y-73652380D01*
X185814285Y-72747619D02*
X185861904Y-72700000D01*
X185957142Y-72652380D01*
X186195238Y-72652380D01*
X186290476Y-72700000D01*
X186338095Y-72747619D01*
X186385714Y-72842857D01*
X186385714Y-72938095D01*
X186338095Y-73080952D01*
X185766666Y-73652380D01*
X186385714Y-73652380D01*
%TO.C,IC1*%
X164323809Y-103152380D02*
X164323809Y-102152380D01*
X165371428Y-103057142D02*
X165323809Y-103104761D01*
X165180952Y-103152380D01*
X165085714Y-103152380D01*
X164942857Y-103104761D01*
X164847619Y-103009523D01*
X164800000Y-102914285D01*
X164752380Y-102723809D01*
X164752380Y-102580952D01*
X164800000Y-102390476D01*
X164847619Y-102295238D01*
X164942857Y-102200000D01*
X165085714Y-102152380D01*
X165180952Y-102152380D01*
X165323809Y-102200000D01*
X165371428Y-102247619D01*
X166323809Y-103152380D02*
X165752380Y-103152380D01*
X166038095Y-103152380D02*
X166038095Y-102152380D01*
X165942857Y-102295238D01*
X165847619Y-102390476D01*
X165752380Y-102438095D01*
%TO.C,IC4*%
X179123809Y-79252380D02*
X179123809Y-78252380D01*
X180171428Y-79157142D02*
X180123809Y-79204761D01*
X179980952Y-79252380D01*
X179885714Y-79252380D01*
X179742857Y-79204761D01*
X179647619Y-79109523D01*
X179600000Y-79014285D01*
X179552380Y-78823809D01*
X179552380Y-78680952D01*
X179600000Y-78490476D01*
X179647619Y-78395238D01*
X179742857Y-78300000D01*
X179885714Y-78252380D01*
X179980952Y-78252380D01*
X180123809Y-78300000D01*
X180171428Y-78347619D01*
X181028571Y-78585714D02*
X181028571Y-79252380D01*
X180790476Y-78204761D02*
X180552380Y-78919047D01*
X181171428Y-78919047D01*
%TO.C,J0*%
D15*
X202444523Y-91603333D02*
X203351666Y-91603333D01*
X203533095Y-91663809D01*
X203654047Y-91784761D01*
X203714523Y-91966190D01*
X203714523Y-92087142D01*
X202444523Y-90756666D02*
X202444523Y-90635714D01*
X202505000Y-90514761D01*
X202565476Y-90454285D01*
X202686428Y-90393809D01*
X202928333Y-90333333D01*
X203230714Y-90333333D01*
X203472619Y-90393809D01*
X203593571Y-90454285D01*
X203654047Y-90514761D01*
X203714523Y-90635714D01*
X203714523Y-90756666D01*
X203654047Y-90877619D01*
X203593571Y-90938095D01*
X203472619Y-90998571D01*
X203230714Y-91059047D01*
X202928333Y-91059047D01*
X202686428Y-90998571D01*
X202565476Y-90938095D01*
X202505000Y-90877619D01*
X202444523Y-90756666D01*
%TO.C,J1*%
D10*
X187966666Y-85282380D02*
X187966666Y-85996666D01*
X187919047Y-86139523D01*
X187823809Y-86234761D01*
X187680952Y-86282380D01*
X187585714Y-86282380D01*
X188966666Y-86282380D02*
X188395238Y-86282380D01*
X188680952Y-86282380D02*
X188680952Y-85282380D01*
X188585714Y-85425238D01*
X188490476Y-85520476D01*
X188395238Y-85568095D01*
%TO.C,J2*%
D15*
X137585666Y-100759523D02*
X137585666Y-101666666D01*
X137525190Y-101848095D01*
X137404238Y-101969047D01*
X137222809Y-102029523D01*
X137101857Y-102029523D01*
X138129952Y-100880476D02*
X138190428Y-100820000D01*
X138311380Y-100759523D01*
X138613761Y-100759523D01*
X138734714Y-100820000D01*
X138795190Y-100880476D01*
X138855666Y-101001428D01*
X138855666Y-101122380D01*
X138795190Y-101303809D01*
X138069476Y-102029523D01*
X138855666Y-102029523D01*
%TO.C,J3*%
X137585666Y-79359523D02*
X137585666Y-80266666D01*
X137525190Y-80448095D01*
X137404238Y-80569047D01*
X137222809Y-80629523D01*
X137101857Y-80629523D01*
X138069476Y-79359523D02*
X138855666Y-79359523D01*
X138432333Y-79843333D01*
X138613761Y-79843333D01*
X138734714Y-79903809D01*
X138795190Y-79964285D01*
X138855666Y-80085238D01*
X138855666Y-80387619D01*
X138795190Y-80508571D01*
X138734714Y-80569047D01*
X138613761Y-80629523D01*
X138250904Y-80629523D01*
X138129952Y-80569047D01*
X138069476Y-80508571D01*
%TO.C,R1*%
D10*
X153683333Y-91952380D02*
X153350000Y-91476190D01*
X153111904Y-91952380D02*
X153111904Y-90952380D01*
X153492857Y-90952380D01*
X153588095Y-91000000D01*
X153635714Y-91047619D01*
X153683333Y-91142857D01*
X153683333Y-91285714D01*
X153635714Y-91380952D01*
X153588095Y-91428571D01*
X153492857Y-91476190D01*
X153111904Y-91476190D01*
X154635714Y-91952380D02*
X154064285Y-91952380D01*
X154350000Y-91952380D02*
X154350000Y-90952380D01*
X154254761Y-91095238D01*
X154159523Y-91190476D01*
X154064285Y-91238095D01*
%TO.C,R2*%
X153658333Y-94152380D02*
X153325000Y-93676190D01*
X153086904Y-94152380D02*
X153086904Y-93152380D01*
X153467857Y-93152380D01*
X153563095Y-93200000D01*
X153610714Y-93247619D01*
X153658333Y-93342857D01*
X153658333Y-93485714D01*
X153610714Y-93580952D01*
X153563095Y-93628571D01*
X153467857Y-93676190D01*
X153086904Y-93676190D01*
X154039285Y-93247619D02*
X154086904Y-93200000D01*
X154182142Y-93152380D01*
X154420238Y-93152380D01*
X154515476Y-93200000D01*
X154563095Y-93247619D01*
X154610714Y-93342857D01*
X154610714Y-93438095D01*
X154563095Y-93580952D01*
X153991666Y-94152380D01*
X154610714Y-94152380D01*
%TO.C,R3*%
X161833333Y-93652380D02*
X161500000Y-93176190D01*
X161261904Y-93652380D02*
X161261904Y-92652380D01*
X161642857Y-92652380D01*
X161738095Y-92700000D01*
X161785714Y-92747619D01*
X161833333Y-92842857D01*
X161833333Y-92985714D01*
X161785714Y-93080952D01*
X161738095Y-93128571D01*
X161642857Y-93176190D01*
X161261904Y-93176190D01*
X162166666Y-92652380D02*
X162785714Y-92652380D01*
X162452380Y-93033333D01*
X162595238Y-93033333D01*
X162690476Y-93080952D01*
X162738095Y-93128571D01*
X162785714Y-93223809D01*
X162785714Y-93461904D01*
X162738095Y-93557142D01*
X162690476Y-93604761D01*
X162595238Y-93652380D01*
X162309523Y-93652380D01*
X162214285Y-93604761D01*
X162166666Y-93557142D01*
%TO.C,R4*%
X164033333Y-93602380D02*
X163700000Y-93126190D01*
X163461904Y-93602380D02*
X163461904Y-92602380D01*
X163842857Y-92602380D01*
X163938095Y-92650000D01*
X163985714Y-92697619D01*
X164033333Y-92792857D01*
X164033333Y-92935714D01*
X163985714Y-93030952D01*
X163938095Y-93078571D01*
X163842857Y-93126190D01*
X163461904Y-93126190D01*
X164890476Y-92935714D02*
X164890476Y-93602380D01*
X164652380Y-92554761D02*
X164414285Y-93269047D01*
X165033333Y-93269047D01*
%TO.C,R5*%
X149633333Y-87452380D02*
X149300000Y-86976190D01*
X149061904Y-87452380D02*
X149061904Y-86452380D01*
X149442857Y-86452380D01*
X149538095Y-86500000D01*
X149585714Y-86547619D01*
X149633333Y-86642857D01*
X149633333Y-86785714D01*
X149585714Y-86880952D01*
X149538095Y-86928571D01*
X149442857Y-86976190D01*
X149061904Y-86976190D01*
X150538095Y-86452380D02*
X150061904Y-86452380D01*
X150014285Y-86928571D01*
X150061904Y-86880952D01*
X150157142Y-86833333D01*
X150395238Y-86833333D01*
X150490476Y-86880952D01*
X150538095Y-86928571D01*
X150585714Y-87023809D01*
X150585714Y-87261904D01*
X150538095Y-87357142D01*
X150490476Y-87404761D01*
X150395238Y-87452380D01*
X150157142Y-87452380D01*
X150061904Y-87404761D01*
X150014285Y-87357142D01*
%TO.C,R6*%
X166233333Y-93552380D02*
X165900000Y-93076190D01*
X165661904Y-93552380D02*
X165661904Y-92552380D01*
X166042857Y-92552380D01*
X166138095Y-92600000D01*
X166185714Y-92647619D01*
X166233333Y-92742857D01*
X166233333Y-92885714D01*
X166185714Y-92980952D01*
X166138095Y-93028571D01*
X166042857Y-93076190D01*
X165661904Y-93076190D01*
X167090476Y-92552380D02*
X166900000Y-92552380D01*
X166804761Y-92600000D01*
X166757142Y-92647619D01*
X166661904Y-92790476D01*
X166614285Y-92980952D01*
X166614285Y-93361904D01*
X166661904Y-93457142D01*
X166709523Y-93504761D01*
X166804761Y-93552380D01*
X166995238Y-93552380D01*
X167090476Y-93504761D01*
X167138095Y-93457142D01*
X167185714Y-93361904D01*
X167185714Y-93123809D01*
X167138095Y-93028571D01*
X167090476Y-92980952D01*
X166995238Y-92933333D01*
X166804761Y-92933333D01*
X166709523Y-92980952D01*
X166661904Y-93028571D01*
X166614285Y-93123809D01*
%TO.C,R7*%
X168433333Y-93602380D02*
X168100000Y-93126190D01*
X167861904Y-93602380D02*
X167861904Y-92602380D01*
X168242857Y-92602380D01*
X168338095Y-92650000D01*
X168385714Y-92697619D01*
X168433333Y-92792857D01*
X168433333Y-92935714D01*
X168385714Y-93030952D01*
X168338095Y-93078571D01*
X168242857Y-93126190D01*
X167861904Y-93126190D01*
X168766666Y-92602380D02*
X169433333Y-92602380D01*
X169004761Y-93602380D01*
%TO.C,R8*%
X153633333Y-76652380D02*
X153300000Y-76176190D01*
X153061904Y-76652380D02*
X153061904Y-75652380D01*
X153442857Y-75652380D01*
X153538095Y-75700000D01*
X153585714Y-75747619D01*
X153633333Y-75842857D01*
X153633333Y-75985714D01*
X153585714Y-76080952D01*
X153538095Y-76128571D01*
X153442857Y-76176190D01*
X153061904Y-76176190D01*
X154204761Y-76080952D02*
X154109523Y-76033333D01*
X154061904Y-75985714D01*
X154014285Y-75890476D01*
X154014285Y-75842857D01*
X154061904Y-75747619D01*
X154109523Y-75700000D01*
X154204761Y-75652380D01*
X154395238Y-75652380D01*
X154490476Y-75700000D01*
X154538095Y-75747619D01*
X154585714Y-75842857D01*
X154585714Y-75890476D01*
X154538095Y-75985714D01*
X154490476Y-76033333D01*
X154395238Y-76080952D01*
X154204761Y-76080952D01*
X154109523Y-76128571D01*
X154061904Y-76176190D01*
X154014285Y-76271428D01*
X154014285Y-76461904D01*
X154061904Y-76557142D01*
X154109523Y-76604761D01*
X154204761Y-76652380D01*
X154395238Y-76652380D01*
X154490476Y-76604761D01*
X154538095Y-76557142D01*
X154585714Y-76461904D01*
X154585714Y-76271428D01*
X154538095Y-76176190D01*
X154490476Y-76128571D01*
X154395238Y-76080952D01*
%TO.C,R9*%
X153633333Y-74352380D02*
X153300000Y-73876190D01*
X153061904Y-74352380D02*
X153061904Y-73352380D01*
X153442857Y-73352380D01*
X153538095Y-73400000D01*
X153585714Y-73447619D01*
X153633333Y-73542857D01*
X153633333Y-73685714D01*
X153585714Y-73780952D01*
X153538095Y-73828571D01*
X153442857Y-73876190D01*
X153061904Y-73876190D01*
X154109523Y-74352380D02*
X154300000Y-74352380D01*
X154395238Y-74304761D01*
X154442857Y-74257142D01*
X154538095Y-74114285D01*
X154585714Y-73923809D01*
X154585714Y-73542857D01*
X154538095Y-73447619D01*
X154490476Y-73400000D01*
X154395238Y-73352380D01*
X154204761Y-73352380D01*
X154109523Y-73400000D01*
X154061904Y-73447619D01*
X154014285Y-73542857D01*
X154014285Y-73780952D01*
X154061904Y-73876190D01*
X154109523Y-73923809D01*
X154204761Y-73971428D01*
X154395238Y-73971428D01*
X154490476Y-73923809D01*
X154538095Y-73876190D01*
X154585714Y-73780952D01*
%TO.C,R10*%
X169457142Y-83752380D02*
X169123809Y-83276190D01*
X168885714Y-83752380D02*
X168885714Y-82752380D01*
X169266666Y-82752380D01*
X169361904Y-82800000D01*
X169409523Y-82847619D01*
X169457142Y-82942857D01*
X169457142Y-83085714D01*
X169409523Y-83180952D01*
X169361904Y-83228571D01*
X169266666Y-83276190D01*
X168885714Y-83276190D01*
X170409523Y-83752380D02*
X169838095Y-83752380D01*
X170123809Y-83752380D02*
X170123809Y-82752380D01*
X170028571Y-82895238D01*
X169933333Y-82990476D01*
X169838095Y-83038095D01*
X171028571Y-82752380D02*
X171123809Y-82752380D01*
X171219047Y-82800000D01*
X171266666Y-82847619D01*
X171314285Y-82942857D01*
X171361904Y-83133333D01*
X171361904Y-83371428D01*
X171314285Y-83561904D01*
X171266666Y-83657142D01*
X171219047Y-83704761D01*
X171123809Y-83752380D01*
X171028571Y-83752380D01*
X170933333Y-83704761D01*
X170885714Y-83657142D01*
X170838095Y-83561904D01*
X170790476Y-83371428D01*
X170790476Y-83133333D01*
X170838095Y-82942857D01*
X170885714Y-82847619D01*
X170933333Y-82800000D01*
X171028571Y-82752380D01*
%TO.C,R11*%
X169457142Y-81452380D02*
X169123809Y-80976190D01*
X168885714Y-81452380D02*
X168885714Y-80452380D01*
X169266666Y-80452380D01*
X169361904Y-80500000D01*
X169409523Y-80547619D01*
X169457142Y-80642857D01*
X169457142Y-80785714D01*
X169409523Y-80880952D01*
X169361904Y-80928571D01*
X169266666Y-80976190D01*
X168885714Y-80976190D01*
X170409523Y-81452380D02*
X169838095Y-81452380D01*
X170123809Y-81452380D02*
X170123809Y-80452380D01*
X170028571Y-80595238D01*
X169933333Y-80690476D01*
X169838095Y-80738095D01*
X171361904Y-81452380D02*
X170790476Y-81452380D01*
X171076190Y-81452380D02*
X171076190Y-80452380D01*
X170980952Y-80595238D01*
X170885714Y-80690476D01*
X170790476Y-80738095D01*
%TO.C,R12*%
X149557142Y-84252380D02*
X149223809Y-83776190D01*
X148985714Y-84252380D02*
X148985714Y-83252380D01*
X149366666Y-83252380D01*
X149461904Y-83300000D01*
X149509523Y-83347619D01*
X149557142Y-83442857D01*
X149557142Y-83585714D01*
X149509523Y-83680952D01*
X149461904Y-83728571D01*
X149366666Y-83776190D01*
X148985714Y-83776190D01*
X150509523Y-84252380D02*
X149938095Y-84252380D01*
X150223809Y-84252380D02*
X150223809Y-83252380D01*
X150128571Y-83395238D01*
X150033333Y-83490476D01*
X149938095Y-83538095D01*
X150890476Y-83347619D02*
X150938095Y-83300000D01*
X151033333Y-83252380D01*
X151271428Y-83252380D01*
X151366666Y-83300000D01*
X151414285Y-83347619D01*
X151461904Y-83442857D01*
X151461904Y-83538095D01*
X151414285Y-83680952D01*
X150842857Y-84252380D01*
X151461904Y-84252380D01*
%TO.C,R13*%
X162557142Y-75352380D02*
X162223809Y-74876190D01*
X161985714Y-75352380D02*
X161985714Y-74352380D01*
X162366666Y-74352380D01*
X162461904Y-74400000D01*
X162509523Y-74447619D01*
X162557142Y-74542857D01*
X162557142Y-74685714D01*
X162509523Y-74780952D01*
X162461904Y-74828571D01*
X162366666Y-74876190D01*
X161985714Y-74876190D01*
X163509523Y-75352380D02*
X162938095Y-75352380D01*
X163223809Y-75352380D02*
X163223809Y-74352380D01*
X163128571Y-74495238D01*
X163033333Y-74590476D01*
X162938095Y-74638095D01*
X163842857Y-74352380D02*
X164461904Y-74352380D01*
X164128571Y-74733333D01*
X164271428Y-74733333D01*
X164366666Y-74780952D01*
X164414285Y-74828571D01*
X164461904Y-74923809D01*
X164461904Y-75161904D01*
X164414285Y-75257142D01*
X164366666Y-75304761D01*
X164271428Y-75352380D01*
X163985714Y-75352380D01*
X163890476Y-75304761D01*
X163842857Y-75257142D01*
%TO.C,R14*%
X159657142Y-75352380D02*
X159323809Y-74876190D01*
X159085714Y-75352380D02*
X159085714Y-74352380D01*
X159466666Y-74352380D01*
X159561904Y-74400000D01*
X159609523Y-74447619D01*
X159657142Y-74542857D01*
X159657142Y-74685714D01*
X159609523Y-74780952D01*
X159561904Y-74828571D01*
X159466666Y-74876190D01*
X159085714Y-74876190D01*
X160609523Y-75352380D02*
X160038095Y-75352380D01*
X160323809Y-75352380D02*
X160323809Y-74352380D01*
X160228571Y-74495238D01*
X160133333Y-74590476D01*
X160038095Y-74638095D01*
X161466666Y-74685714D02*
X161466666Y-75352380D01*
X161228571Y-74304761D02*
X160990476Y-75019047D01*
X161609523Y-75019047D01*
%TO.C,R15*%
X153907142Y-109252380D02*
X153573809Y-108776190D01*
X153335714Y-109252380D02*
X153335714Y-108252380D01*
X153716666Y-108252380D01*
X153811904Y-108300000D01*
X153859523Y-108347619D01*
X153907142Y-108442857D01*
X153907142Y-108585714D01*
X153859523Y-108680952D01*
X153811904Y-108728571D01*
X153716666Y-108776190D01*
X153335714Y-108776190D01*
X154859523Y-109252380D02*
X154288095Y-109252380D01*
X154573809Y-109252380D02*
X154573809Y-108252380D01*
X154478571Y-108395238D01*
X154383333Y-108490476D01*
X154288095Y-108538095D01*
X155764285Y-108252380D02*
X155288095Y-108252380D01*
X155240476Y-108728571D01*
X155288095Y-108680952D01*
X155383333Y-108633333D01*
X155621428Y-108633333D01*
X155716666Y-108680952D01*
X155764285Y-108728571D01*
X155811904Y-108823809D01*
X155811904Y-109061904D01*
X155764285Y-109157142D01*
X155716666Y-109204761D01*
X155621428Y-109252380D01*
X155383333Y-109252380D01*
X155288095Y-109204761D01*
X155240476Y-109157142D01*
%TO.C,R16*%
X164457142Y-112452380D02*
X164123809Y-111976190D01*
X163885714Y-112452380D02*
X163885714Y-111452380D01*
X164266666Y-111452380D01*
X164361904Y-111500000D01*
X164409523Y-111547619D01*
X164457142Y-111642857D01*
X164457142Y-111785714D01*
X164409523Y-111880952D01*
X164361904Y-111928571D01*
X164266666Y-111976190D01*
X163885714Y-111976190D01*
X165409523Y-112452380D02*
X164838095Y-112452380D01*
X165123809Y-112452380D02*
X165123809Y-111452380D01*
X165028571Y-111595238D01*
X164933333Y-111690476D01*
X164838095Y-111738095D01*
X166266666Y-111452380D02*
X166076190Y-111452380D01*
X165980952Y-111500000D01*
X165933333Y-111547619D01*
X165838095Y-111690476D01*
X165790476Y-111880952D01*
X165790476Y-112261904D01*
X165838095Y-112357142D01*
X165885714Y-112404761D01*
X165980952Y-112452380D01*
X166171428Y-112452380D01*
X166266666Y-112404761D01*
X166314285Y-112357142D01*
X166361904Y-112261904D01*
X166361904Y-112023809D01*
X166314285Y-111928571D01*
X166266666Y-111880952D01*
X166171428Y-111833333D01*
X165980952Y-111833333D01*
X165885714Y-111880952D01*
X165838095Y-111928571D01*
X165790476Y-112023809D01*
%TO.C,R17*%
X187732142Y-67952380D02*
X187398809Y-67476190D01*
X187160714Y-67952380D02*
X187160714Y-66952380D01*
X187541666Y-66952380D01*
X187636904Y-67000000D01*
X187684523Y-67047619D01*
X187732142Y-67142857D01*
X187732142Y-67285714D01*
X187684523Y-67380952D01*
X187636904Y-67428571D01*
X187541666Y-67476190D01*
X187160714Y-67476190D01*
X188684523Y-67952380D02*
X188113095Y-67952380D01*
X188398809Y-67952380D02*
X188398809Y-66952380D01*
X188303571Y-67095238D01*
X188208333Y-67190476D01*
X188113095Y-67238095D01*
X189017857Y-66952380D02*
X189684523Y-66952380D01*
X189255952Y-67952380D01*
%TO.C,U3*%
X153892379Y-84561904D02*
X154701903Y-84561904D01*
X154797141Y-84514285D01*
X154844760Y-84466666D01*
X154892379Y-84371428D01*
X154892379Y-84180952D01*
X154844760Y-84085714D01*
X154797141Y-84038095D01*
X154701903Y-83990476D01*
X153892379Y-83990476D01*
X153892379Y-83609523D02*
X153892379Y-82990476D01*
X154273332Y-83323809D01*
X154273332Y-83180952D01*
X154320951Y-83085714D01*
X154368570Y-83038095D01*
X154463808Y-82990476D01*
X154701903Y-82990476D01*
X154797141Y-83038095D01*
X154844760Y-83085714D01*
X154892379Y-83180952D01*
X154892379Y-83466666D01*
X154844760Y-83561904D01*
X154797141Y-83609523D01*
%TO.C,VR1*%
X176152380Y-76809523D02*
X177152380Y-76476190D01*
X176152380Y-76142857D01*
X177152380Y-75238095D02*
X176676190Y-75571428D01*
X177152380Y-75809523D02*
X176152380Y-75809523D01*
X176152380Y-75428571D01*
X176200000Y-75333333D01*
X176247619Y-75285714D01*
X176342857Y-75238095D01*
X176485714Y-75238095D01*
X176580952Y-75285714D01*
X176628571Y-75333333D01*
X176676190Y-75428571D01*
X176676190Y-75809523D01*
X177152380Y-74285714D02*
X177152380Y-74857142D01*
X177152380Y-74571428D02*
X176152380Y-74571428D01*
X176295238Y-74666666D01*
X176390476Y-74761904D01*
X176438095Y-74857142D01*
%TO.C,VR2*%
X168352380Y-99809523D02*
X169352380Y-99476190D01*
X168352380Y-99142857D01*
X169352380Y-98238095D02*
X168876190Y-98571428D01*
X169352380Y-98809523D02*
X168352380Y-98809523D01*
X168352380Y-98428571D01*
X168400000Y-98333333D01*
X168447619Y-98285714D01*
X168542857Y-98238095D01*
X168685714Y-98238095D01*
X168780952Y-98285714D01*
X168828571Y-98333333D01*
X168876190Y-98428571D01*
X168876190Y-98809523D01*
X168447619Y-97857142D02*
X168400000Y-97809523D01*
X168352380Y-97714285D01*
X168352380Y-97476190D01*
X168400000Y-97380952D01*
X168447619Y-97333333D01*
X168542857Y-97285714D01*
X168638095Y-97285714D01*
X168780952Y-97333333D01*
X169352380Y-97904761D01*
X169352380Y-97285714D01*
%TO.C,IC2*%
X179123809Y-87262380D02*
X179123809Y-86262380D01*
X180171428Y-87167142D02*
X180123809Y-87214761D01*
X179980952Y-87262380D01*
X179885714Y-87262380D01*
X179742857Y-87214761D01*
X179647619Y-87119523D01*
X179600000Y-87024285D01*
X179552380Y-86833809D01*
X179552380Y-86690952D01*
X179600000Y-86500476D01*
X179647619Y-86405238D01*
X179742857Y-86310000D01*
X179885714Y-86262380D01*
X179980952Y-86262380D01*
X180123809Y-86310000D01*
X180171428Y-86357619D01*
X180552380Y-86357619D02*
X180600000Y-86310000D01*
X180695238Y-86262380D01*
X180933333Y-86262380D01*
X181028571Y-86310000D01*
X181076190Y-86357619D01*
X181123809Y-86452857D01*
X181123809Y-86548095D01*
X181076190Y-86690952D01*
X180504761Y-87262380D01*
X181123809Y-87262380D01*
%TO.C,C6*%
X187533333Y-112807142D02*
X187485714Y-112854761D01*
X187342857Y-112902380D01*
X187247619Y-112902380D01*
X187104761Y-112854761D01*
X187009523Y-112759523D01*
X186961904Y-112664285D01*
X186914285Y-112473809D01*
X186914285Y-112330952D01*
X186961904Y-112140476D01*
X187009523Y-112045238D01*
X187104761Y-111950000D01*
X187247619Y-111902380D01*
X187342857Y-111902380D01*
X187485714Y-111950000D01*
X187533333Y-111997619D01*
X188390476Y-111902380D02*
X188200000Y-111902380D01*
X188104761Y-111950000D01*
X188057142Y-111997619D01*
X187961904Y-112140476D01*
X187914285Y-112330952D01*
X187914285Y-112711904D01*
X187961904Y-112807142D01*
X188009523Y-112854761D01*
X188104761Y-112902380D01*
X188295238Y-112902380D01*
X188390476Y-112854761D01*
X188438095Y-112807142D01*
X188485714Y-112711904D01*
X188485714Y-112473809D01*
X188438095Y-112378571D01*
X188390476Y-112330952D01*
X188295238Y-112283333D01*
X188104761Y-112283333D01*
X188009523Y-112330952D01*
X187961904Y-112378571D01*
X187914285Y-112473809D01*
%TD*%
M02*
