%FSLAX45Y45*%
G04 Gerber Fmt 4.5, Leading zero omitted, Abs format (unit mm)*
G04 Created by KiCad (PCBNEW (5.1.6)-1) date 2022-10-16 07:02:32*
%MOMM*%
%LPD*%
G01*
G04 APERTURE LIST*
%TA.AperFunction,Profile*%
%ADD10C,0.050000*%
%TD*%
%ADD11C,0.200000*%
%ADD12C,0.300000*%
G04 APERTURE END LIST*
D10*
X13600000Y-6460000D02*
X13600000Y-6560000D01*
X20740000Y-6460000D02*
X13600000Y-6460000D01*
X13600000Y-11770000D02*
X13600000Y-6560000D01*
X20740000Y-11770000D02*
X13600000Y-11770000D01*
X20740000Y-6460000D02*
X20740000Y-11770000D01*
D11*
X15490000Y-10470000D02*
X15530000Y-10510000D01*
X15530000Y-10470000D02*
X15490000Y-10510000D01*
X15830000Y-8230000D02*
X15870000Y-8270000D01*
X15870000Y-8230000D02*
X15830000Y-8270000D01*
X15830000Y-8770000D02*
X15870000Y-8810000D01*
X15870000Y-8770000D02*
X15830000Y-8810000D01*
X15960000Y-7940000D02*
X16000000Y-7980000D01*
X16000000Y-7940000D02*
X15960000Y-7980000D01*
X15960000Y-9300000D02*
X16000000Y-9340000D01*
X16000000Y-9300000D02*
X15960000Y-9340000D01*
X16040000Y-8800000D02*
X16080000Y-8840000D01*
X16080000Y-8800000D02*
X16040000Y-8840000D01*
X16210000Y-8460000D02*
X16250000Y-8500000D01*
X16250000Y-8460000D02*
X16210000Y-8500000D01*
X16220000Y-11000000D02*
X16260000Y-11040000D01*
X16260000Y-11000000D02*
X16220000Y-11040000D01*
X16400000Y-9300000D02*
X16440000Y-9340000D01*
X16440000Y-9300000D02*
X16400000Y-9340000D01*
X16431856Y-8228144D02*
X16471856Y-8268144D01*
X16471856Y-8228144D02*
X16431856Y-8268144D01*
X16450000Y-8490000D02*
X16490000Y-8530000D01*
X16490000Y-8490000D02*
X16450000Y-8530000D01*
X16490000Y-7620000D02*
X16530000Y-7660000D01*
X16530000Y-7620000D02*
X16490000Y-7660000D01*
X16510000Y-10730000D02*
X16550000Y-10770000D01*
X16550000Y-10730000D02*
X16510000Y-10770000D01*
X16531200Y-8631200D02*
X16571200Y-8671200D01*
X16571200Y-8631200D02*
X16531200Y-8671200D01*
X16780000Y-10910000D02*
X16820000Y-10950000D01*
X16820000Y-10910000D02*
X16780000Y-10950000D01*
X16840000Y-9300000D02*
X16880000Y-9340000D01*
X16880000Y-9300000D02*
X16840000Y-9340000D01*
X16950000Y-10400000D02*
X16990000Y-10440000D01*
X16990000Y-10400000D02*
X16950000Y-10440000D01*
X16950000Y-11150000D02*
X16990000Y-11190000D01*
X16990000Y-11150000D02*
X16950000Y-11190000D01*
X17030000Y-8310000D02*
X17070000Y-8350000D01*
X17070000Y-8310000D02*
X17030000Y-8350000D01*
X17030000Y-9380000D02*
X17070000Y-9420000D01*
X17070000Y-9380000D02*
X17030000Y-9420000D01*
X17250000Y-9800000D02*
X17290000Y-9840000D01*
X17290000Y-9800000D02*
X17250000Y-9840000D01*
X17270000Y-9290000D02*
X17310000Y-9330000D01*
X17310000Y-9290000D02*
X17270000Y-9330000D01*
X17450000Y-10200000D02*
X17490000Y-10240000D01*
X17490000Y-10200000D02*
X17450000Y-10240000D01*
X17610000Y-8960000D02*
X17650000Y-9000000D01*
X17650000Y-8960000D02*
X17610000Y-9000000D01*
X17650000Y-9670000D02*
X17690000Y-9710000D01*
X17690000Y-9670000D02*
X17650000Y-9710000D01*
X17740000Y-8960000D02*
X17780000Y-9000000D01*
X17780000Y-8960000D02*
X17740000Y-9000000D01*
X17820000Y-10390000D02*
X17860000Y-10430000D01*
X17860000Y-10390000D02*
X17820000Y-10430000D01*
X17860000Y-8960000D02*
X17900000Y-9000000D01*
X17900000Y-8960000D02*
X17860000Y-9000000D01*
X17860000Y-10010000D02*
X17900000Y-10050000D01*
X17900000Y-10010000D02*
X17860000Y-10050000D01*
X17990000Y-8330000D02*
X18030000Y-8370000D01*
X18030000Y-8330000D02*
X17990000Y-8370000D01*
X17990000Y-10010000D02*
X18030000Y-10050000D01*
X18030000Y-10010000D02*
X17990000Y-10050000D01*
X18110000Y-10390000D02*
X18150000Y-10430000D01*
X18150000Y-10390000D02*
X18110000Y-10430000D01*
X18130000Y-8330000D02*
X18170000Y-8370000D01*
X18170000Y-8330000D02*
X18130000Y-8370000D01*
X18371000Y-8961000D02*
X18411000Y-9001000D01*
X18411000Y-8961000D02*
X18371000Y-9001000D01*
X18710000Y-9490000D02*
X18750000Y-9530000D01*
X18750000Y-9490000D02*
X18710000Y-9530000D01*
X19050000Y-7100000D02*
X19090000Y-7140000D01*
X19090000Y-7100000D02*
X19050000Y-7140000D01*
X19050000Y-7300000D02*
X19090000Y-7340000D01*
X19090000Y-7300000D02*
X19050000Y-7340000D01*
X19117500Y-9218985D02*
X19157500Y-9258985D01*
X19157500Y-9218985D02*
X19117500Y-9258985D01*
X19220000Y-10060000D02*
X19260000Y-10100000D01*
X19260000Y-10060000D02*
X19220000Y-10100000D01*
X14750000Y-9080000D02*
G75*
G03*
X14750000Y-9080000I-25000J0D01*
G01*
X14804917Y-8947418D02*
G75*
G03*
X14804917Y-8947418I-25000J0D01*
G01*
X14804917Y-9212583D02*
G75*
G03*
X14804917Y-9212583I-25000J0D01*
G01*
X14937500Y-8892500D02*
G75*
G03*
X14937500Y-8892500I-25000J0D01*
G01*
X14937500Y-9267500D02*
G75*
G03*
X14937500Y-9267500I-25000J0D01*
G01*
X15070082Y-8947418D02*
G75*
G03*
X15070082Y-8947418I-25000J0D01*
G01*
X15070082Y-9212583D02*
G75*
G03*
X15070082Y-9212583I-25000J0D01*
G01*
X15125000Y-9080000D02*
G75*
G03*
X15125000Y-9080000I-25000J0D01*
G01*
X16836000Y-7535000D02*
X16836000Y-7605000D01*
X16801000Y-7570000D02*
X16871000Y-7570000D01*
X17090000Y-7535000D02*
X17090000Y-7605000D01*
X17055000Y-7570000D02*
X17125000Y-7570000D01*
X17344000Y-7535000D02*
X17344000Y-7605000D01*
X17309000Y-7570000D02*
X17379000Y-7570000D01*
X16046000Y-9835000D02*
X16046000Y-9905000D01*
X16011000Y-9870000D02*
X16081000Y-9870000D01*
X16300000Y-9835000D02*
X16300000Y-9905000D01*
X16265000Y-9870000D02*
X16335000Y-9870000D01*
X16554000Y-9835000D02*
X16554000Y-9905000D01*
X16519000Y-9870000D02*
X16589000Y-9870000D01*
X18865356Y-7877356D02*
X18865356Y-7806644D01*
X18794644Y-7806644D01*
X18794644Y-7877356D01*
X18865356Y-7877356D01*
X18865356Y-8131356D02*
X18865356Y-8060644D01*
X18794644Y-8060644D01*
X18794644Y-8131356D01*
X18865356Y-8131356D01*
X18865356Y-8385356D02*
X18865356Y-8314644D01*
X18794644Y-8314644D01*
X18794644Y-8385356D01*
X18865356Y-8385356D01*
X19485356Y-7491356D02*
X19485356Y-7420644D01*
X19414644Y-7420644D01*
X19414644Y-7491356D01*
X19485356Y-7491356D01*
X19485356Y-7768356D02*
X19485356Y-7697644D01*
X19414644Y-7697644D01*
X19414644Y-7768356D01*
X19485356Y-7768356D01*
X19485356Y-8045356D02*
X19485356Y-7974644D01*
X19414644Y-7974644D01*
X19414644Y-8045356D01*
X19485356Y-8045356D01*
X19485356Y-8322356D02*
X19485356Y-8251644D01*
X19414644Y-8251644D01*
X19414644Y-8322356D01*
X19485356Y-8322356D01*
X19485356Y-8599356D02*
X19485356Y-8528644D01*
X19414644Y-8528644D01*
X19414644Y-8599356D01*
X19485356Y-8599356D01*
X19485356Y-8876356D02*
X19485356Y-8805644D01*
X19414644Y-8805644D01*
X19414644Y-8876356D01*
X19485356Y-8876356D01*
X19485356Y-9153356D02*
X19485356Y-9082644D01*
X19414644Y-9082644D01*
X19414644Y-9153356D01*
X19485356Y-9153356D01*
X19485356Y-9430356D02*
X19485356Y-9359644D01*
X19414644Y-9359644D01*
X19414644Y-9430356D01*
X19485356Y-9430356D01*
X19485356Y-9707356D02*
X19485356Y-9636644D01*
X19414644Y-9636644D01*
X19414644Y-9707356D01*
X19485356Y-9707356D01*
X19485356Y-9984356D02*
X19485356Y-9913644D01*
X19414644Y-9913644D01*
X19414644Y-9984356D01*
X19485356Y-9984356D01*
X19485356Y-10261356D02*
X19485356Y-10190644D01*
X19414644Y-10190644D01*
X19414644Y-10261356D01*
X19485356Y-10261356D01*
X19485356Y-10538356D02*
X19485356Y-10467644D01*
X19414644Y-10467644D01*
X19414644Y-10538356D01*
X19485356Y-10538356D01*
X19485356Y-10815356D02*
X19485356Y-10744644D01*
X19414644Y-10744644D01*
X19414644Y-10815356D01*
X19485356Y-10815356D01*
X19739356Y-7629856D02*
X19739356Y-7559144D01*
X19668644Y-7559144D01*
X19668644Y-7629856D01*
X19739356Y-7629856D01*
X19739356Y-7906856D02*
X19739356Y-7836144D01*
X19668644Y-7836144D01*
X19668644Y-7906856D01*
X19739356Y-7906856D01*
X19739356Y-8183856D02*
X19739356Y-8113144D01*
X19668644Y-8113144D01*
X19668644Y-8183856D01*
X19739356Y-8183856D01*
X19739356Y-8460856D02*
X19739356Y-8390144D01*
X19668644Y-8390144D01*
X19668644Y-8460856D01*
X19739356Y-8460856D01*
X19739356Y-8737856D02*
X19739356Y-8667144D01*
X19668644Y-8667144D01*
X19668644Y-8737856D01*
X19739356Y-8737856D01*
X19739356Y-9014856D02*
X19739356Y-8944144D01*
X19668644Y-8944144D01*
X19668644Y-9014856D01*
X19739356Y-9014856D01*
X19739356Y-9291856D02*
X19739356Y-9221144D01*
X19668644Y-9221144D01*
X19668644Y-9291856D01*
X19739356Y-9291856D01*
X19739356Y-9568856D02*
X19739356Y-9498144D01*
X19668644Y-9498144D01*
X19668644Y-9568856D01*
X19739356Y-9568856D01*
X19739356Y-9845856D02*
X19739356Y-9775144D01*
X19668644Y-9775144D01*
X19668644Y-9845856D01*
X19739356Y-9845856D01*
X19739356Y-10122856D02*
X19739356Y-10052144D01*
X19668644Y-10052144D01*
X19668644Y-10122856D01*
X19739356Y-10122856D01*
X19739356Y-10399856D02*
X19739356Y-10329144D01*
X19668644Y-10329144D01*
X19668644Y-10399856D01*
X19739356Y-10399856D01*
X19739356Y-10676856D02*
X19739356Y-10606144D01*
X19668644Y-10606144D01*
X19668644Y-10676856D01*
X19739356Y-10676856D01*
X13835000Y-9849000D02*
X13959000Y-9725000D01*
X13835000Y-9601000D01*
X13711000Y-9725000D01*
X13835000Y-9849000D01*
X13835000Y-10699000D02*
X13959000Y-10575000D01*
X13835000Y-10451000D01*
X13711000Y-10575000D01*
X13835000Y-10699000D01*
X13835000Y-7709000D02*
X13959000Y-7585000D01*
X13835000Y-7461000D01*
X13711000Y-7585000D01*
X13835000Y-7709000D01*
X13835000Y-8559000D02*
X13959000Y-8435000D01*
X13835000Y-8311000D01*
X13711000Y-8435000D01*
X13835000Y-8559000D01*
X14787500Y-8955000D02*
X15037500Y-9205000D01*
X15037500Y-8955000D02*
X14787500Y-9205000D01*
X15037500Y-9080000D02*
G75*
G03*
X15037500Y-9080000I-125000J0D01*
G01*
X14465500Y-10015500D02*
X14734500Y-10284500D01*
X14734500Y-10015500D02*
X14465500Y-10284500D01*
X14600000Y-10015500D02*
X14600000Y-10284500D01*
X14465500Y-10150000D02*
X14734500Y-10150000D01*
X14465500Y-7875500D02*
X14734500Y-8144500D01*
X14734500Y-7875500D02*
X14465500Y-8144500D01*
X14600000Y-7875500D02*
X14600000Y-8144500D01*
X14465500Y-8010000D02*
X14734500Y-8010000D01*
X14009000Y-10009000D02*
X14291000Y-10291000D01*
X14291000Y-10009000D02*
X14009000Y-10291000D01*
X14249703Y-10249703D02*
X14249703Y-10050297D01*
X14050297Y-10050297D01*
X14050297Y-10249703D01*
X14249703Y-10249703D01*
X14009000Y-7869000D02*
X14291000Y-8151000D01*
X14291000Y-7869000D02*
X14009000Y-8151000D01*
X14249703Y-8109703D02*
X14249703Y-7910297D01*
X14050297Y-7910297D01*
X14050297Y-8109703D01*
X14249703Y-8109703D01*
X19417000Y-6606000D02*
X19737000Y-6926000D01*
X19737000Y-6606000D02*
X19417000Y-6926000D01*
X19577000Y-6926000D02*
X19737000Y-6766000D01*
X19577000Y-6606000D01*
X19417000Y-6766000D01*
X19577000Y-6926000D01*
X19417000Y-11310000D02*
X19737000Y-11630000D01*
X19737000Y-11310000D02*
X19417000Y-11630000D01*
X19577000Y-11630000D02*
X19737000Y-11470000D01*
X19577000Y-11310000D01*
X19417000Y-11470000D01*
X19577000Y-11630000D01*
D12*
X13883928Y-12238214D02*
X13883928Y-11938214D01*
X13955357Y-11938214D01*
X13998214Y-11952500D01*
X14026786Y-11981071D01*
X14041071Y-12009643D01*
X14055357Y-12066786D01*
X14055357Y-12109643D01*
X14041071Y-12166786D01*
X14026786Y-12195357D01*
X13998214Y-12223929D01*
X13955357Y-12238214D01*
X13883928Y-12238214D01*
X14183928Y-12238214D02*
X14183928Y-12038214D01*
X14183928Y-12095357D02*
X14198214Y-12066786D01*
X14212500Y-12052500D01*
X14241071Y-12038214D01*
X14269643Y-12038214D01*
X14369643Y-12238214D02*
X14369643Y-12038214D01*
X14369643Y-11938214D02*
X14355357Y-11952500D01*
X14369643Y-11966786D01*
X14383928Y-11952500D01*
X14369643Y-11938214D01*
X14369643Y-11966786D01*
X14555357Y-12238214D02*
X14526786Y-12223929D01*
X14512500Y-12195357D01*
X14512500Y-11938214D01*
X14712500Y-12238214D02*
X14683928Y-12223929D01*
X14669643Y-12195357D01*
X14669643Y-11938214D01*
X15055357Y-12238214D02*
X15055357Y-11938214D01*
X15155357Y-12152500D01*
X15255357Y-11938214D01*
X15255357Y-12238214D01*
X15526786Y-12238214D02*
X15526786Y-12081071D01*
X15512500Y-12052500D01*
X15483928Y-12038214D01*
X15426786Y-12038214D01*
X15398214Y-12052500D01*
X15526786Y-12223929D02*
X15498214Y-12238214D01*
X15426786Y-12238214D01*
X15398214Y-12223929D01*
X15383928Y-12195357D01*
X15383928Y-12166786D01*
X15398214Y-12138214D01*
X15426786Y-12123929D01*
X15498214Y-12123929D01*
X15526786Y-12109643D01*
X15669643Y-12038214D02*
X15669643Y-12338214D01*
X15669643Y-12052500D02*
X15698214Y-12038214D01*
X15755357Y-12038214D01*
X15783928Y-12052500D01*
X15798214Y-12066786D01*
X15812500Y-12095357D01*
X15812500Y-12181071D01*
X15798214Y-12209643D01*
X15783928Y-12223929D01*
X15755357Y-12238214D01*
X15698214Y-12238214D01*
X15669643Y-12223929D01*
X15941071Y-12209643D02*
X15955357Y-12223929D01*
X15941071Y-12238214D01*
X15926786Y-12223929D01*
X15941071Y-12209643D01*
X15941071Y-12238214D01*
X15941071Y-12052500D02*
X15955357Y-12066786D01*
X15941071Y-12081071D01*
X15926786Y-12066786D01*
X15941071Y-12052500D01*
X15941071Y-12081071D01*
X13557500Y-12712500D02*
X13597500Y-12752500D01*
X13597500Y-12712500D02*
X13557500Y-12752500D01*
X13941071Y-12568214D02*
X13969643Y-12568214D01*
X13998214Y-12582500D01*
X14012500Y-12596786D01*
X14026786Y-12625357D01*
X14041071Y-12682500D01*
X14041071Y-12753929D01*
X14026786Y-12811071D01*
X14012500Y-12839643D01*
X13998214Y-12853929D01*
X13969643Y-12868214D01*
X13941071Y-12868214D01*
X13912500Y-12853929D01*
X13898214Y-12839643D01*
X13883928Y-12811071D01*
X13869643Y-12753929D01*
X13869643Y-12682500D01*
X13883928Y-12625357D01*
X13898214Y-12596786D01*
X13912500Y-12582500D01*
X13941071Y-12568214D01*
X14169643Y-12839643D02*
X14183928Y-12853929D01*
X14169643Y-12868214D01*
X14155357Y-12853929D01*
X14169643Y-12839643D01*
X14169643Y-12868214D01*
X14441071Y-12668214D02*
X14441071Y-12868214D01*
X14369643Y-12553929D02*
X14298214Y-12768214D01*
X14483928Y-12768214D01*
X14655357Y-12568214D02*
X14683928Y-12568214D01*
X14712500Y-12582500D01*
X14726786Y-12596786D01*
X14741071Y-12625357D01*
X14755357Y-12682500D01*
X14755357Y-12753929D01*
X14741071Y-12811071D01*
X14726786Y-12839643D01*
X14712500Y-12853929D01*
X14683928Y-12868214D01*
X14655357Y-12868214D01*
X14626786Y-12853929D01*
X14612500Y-12839643D01*
X14598214Y-12811071D01*
X14583928Y-12753929D01*
X14583928Y-12682500D01*
X14598214Y-12625357D01*
X14612500Y-12596786D01*
X14626786Y-12582500D01*
X14655357Y-12568214D01*
X14883928Y-12868214D02*
X14883928Y-12668214D01*
X14883928Y-12696786D02*
X14898214Y-12682500D01*
X14926786Y-12668214D01*
X14969643Y-12668214D01*
X14998214Y-12682500D01*
X15012500Y-12711071D01*
X15012500Y-12868214D01*
X15012500Y-12711071D02*
X15026786Y-12682500D01*
X15055357Y-12668214D01*
X15098214Y-12668214D01*
X15126786Y-12682500D01*
X15141071Y-12711071D01*
X15141071Y-12868214D01*
X15283928Y-12868214D02*
X15283928Y-12668214D01*
X15283928Y-12696786D02*
X15298214Y-12682500D01*
X15326786Y-12668214D01*
X15369643Y-12668214D01*
X15398214Y-12682500D01*
X15412500Y-12711071D01*
X15412500Y-12868214D01*
X15412500Y-12711071D02*
X15426786Y-12682500D01*
X15455357Y-12668214D01*
X15498214Y-12668214D01*
X15526786Y-12682500D01*
X15541071Y-12711071D01*
X15541071Y-12868214D01*
X16126786Y-12553929D02*
X15869643Y-12939643D01*
X16512500Y-12568214D02*
X16541071Y-12568214D01*
X16569643Y-12582500D01*
X16583928Y-12596786D01*
X16598214Y-12625357D01*
X16612500Y-12682500D01*
X16612500Y-12753929D01*
X16598214Y-12811071D01*
X16583928Y-12839643D01*
X16569643Y-12853929D01*
X16541071Y-12868214D01*
X16512500Y-12868214D01*
X16483928Y-12853929D01*
X16469643Y-12839643D01*
X16455357Y-12811071D01*
X16441071Y-12753929D01*
X16441071Y-12682500D01*
X16455357Y-12625357D01*
X16469643Y-12596786D01*
X16483928Y-12582500D01*
X16512500Y-12568214D01*
X16741071Y-12839643D02*
X16755357Y-12853929D01*
X16741071Y-12868214D01*
X16726786Y-12853929D01*
X16741071Y-12839643D01*
X16741071Y-12868214D01*
X16941071Y-12568214D02*
X16969643Y-12568214D01*
X16998214Y-12582500D01*
X17012500Y-12596786D01*
X17026786Y-12625357D01*
X17041071Y-12682500D01*
X17041071Y-12753929D01*
X17026786Y-12811071D01*
X17012500Y-12839643D01*
X16998214Y-12853929D01*
X16969643Y-12868214D01*
X16941071Y-12868214D01*
X16912500Y-12853929D01*
X16898214Y-12839643D01*
X16883928Y-12811071D01*
X16869643Y-12753929D01*
X16869643Y-12682500D01*
X16883928Y-12625357D01*
X16898214Y-12596786D01*
X16912500Y-12582500D01*
X16941071Y-12568214D01*
X17326786Y-12868214D02*
X17155357Y-12868214D01*
X17241071Y-12868214D02*
X17241071Y-12568214D01*
X17212500Y-12611071D01*
X17183928Y-12639643D01*
X17155357Y-12653929D01*
X17583928Y-12568214D02*
X17526786Y-12568214D01*
X17498214Y-12582500D01*
X17483928Y-12596786D01*
X17455357Y-12639643D01*
X17441071Y-12696786D01*
X17441071Y-12811071D01*
X17455357Y-12839643D01*
X17469643Y-12853929D01*
X17498214Y-12868214D01*
X17555357Y-12868214D01*
X17583928Y-12853929D01*
X17598214Y-12839643D01*
X17612500Y-12811071D01*
X17612500Y-12739643D01*
X17598214Y-12711071D01*
X17583928Y-12696786D01*
X17555357Y-12682500D01*
X17498214Y-12682500D01*
X17469643Y-12696786D01*
X17455357Y-12711071D01*
X17441071Y-12739643D01*
X17726786Y-12568214D02*
X17726786Y-12625357D01*
X17841071Y-12568214D02*
X17841071Y-12625357D01*
X18283928Y-12982500D02*
X18269643Y-12968214D01*
X18241071Y-12925357D01*
X18226786Y-12896786D01*
X18212500Y-12853929D01*
X18198214Y-12782500D01*
X18198214Y-12725357D01*
X18212500Y-12653929D01*
X18226786Y-12611071D01*
X18241071Y-12582500D01*
X18269643Y-12539643D01*
X18283928Y-12525357D01*
X18369643Y-12568214D02*
X18555357Y-12568214D01*
X18455357Y-12682500D01*
X18498214Y-12682500D01*
X18526786Y-12696786D01*
X18541071Y-12711071D01*
X18555357Y-12739643D01*
X18555357Y-12811071D01*
X18541071Y-12839643D01*
X18526786Y-12853929D01*
X18498214Y-12868214D01*
X18412500Y-12868214D01*
X18383928Y-12853929D01*
X18369643Y-12839643D01*
X18698214Y-12868214D02*
X18755357Y-12868214D01*
X18783928Y-12853929D01*
X18798214Y-12839643D01*
X18826786Y-12796786D01*
X18841071Y-12739643D01*
X18841071Y-12625357D01*
X18826786Y-12596786D01*
X18812500Y-12582500D01*
X18783928Y-12568214D01*
X18726786Y-12568214D01*
X18698214Y-12582500D01*
X18683928Y-12596786D01*
X18669643Y-12625357D01*
X18669643Y-12696786D01*
X18683928Y-12725357D01*
X18698214Y-12739643D01*
X18726786Y-12753929D01*
X18783928Y-12753929D01*
X18812500Y-12739643D01*
X18826786Y-12725357D01*
X18841071Y-12696786D01*
X19198214Y-12868214D02*
X19198214Y-12568214D01*
X19326786Y-12868214D02*
X19326786Y-12711071D01*
X19312500Y-12682500D01*
X19283928Y-12668214D01*
X19241071Y-12668214D01*
X19212500Y-12682500D01*
X19198214Y-12696786D01*
X19512500Y-12868214D02*
X19483928Y-12853929D01*
X19469643Y-12839643D01*
X19455357Y-12811071D01*
X19455357Y-12725357D01*
X19469643Y-12696786D01*
X19483928Y-12682500D01*
X19512500Y-12668214D01*
X19555357Y-12668214D01*
X19583928Y-12682500D01*
X19598214Y-12696786D01*
X19612500Y-12725357D01*
X19612500Y-12811071D01*
X19598214Y-12839643D01*
X19583928Y-12853929D01*
X19555357Y-12868214D01*
X19512500Y-12868214D01*
X19783928Y-12868214D02*
X19755357Y-12853929D01*
X19741071Y-12825357D01*
X19741071Y-12568214D01*
X20012500Y-12853929D02*
X19983928Y-12868214D01*
X19926786Y-12868214D01*
X19898214Y-12853929D01*
X19883928Y-12825357D01*
X19883928Y-12711071D01*
X19898214Y-12682500D01*
X19926786Y-12668214D01*
X19983928Y-12668214D01*
X20012500Y-12682500D01*
X20026786Y-12711071D01*
X20026786Y-12739643D01*
X19883928Y-12768214D01*
X20141071Y-12853929D02*
X20169643Y-12868214D01*
X20226786Y-12868214D01*
X20255357Y-12853929D01*
X20269643Y-12825357D01*
X20269643Y-12811071D01*
X20255357Y-12782500D01*
X20226786Y-12768214D01*
X20183928Y-12768214D01*
X20155357Y-12753929D01*
X20141071Y-12725357D01*
X20141071Y-12711071D01*
X20155357Y-12682500D01*
X20183928Y-12668214D01*
X20226786Y-12668214D01*
X20255357Y-12682500D01*
X20369643Y-12982500D02*
X20383928Y-12968214D01*
X20412500Y-12925357D01*
X20426786Y-12896786D01*
X20441071Y-12853929D01*
X20455357Y-12782500D01*
X20455357Y-12725357D01*
X20441071Y-12653929D01*
X20426786Y-12611071D01*
X20412500Y-12582500D01*
X20383928Y-12539643D01*
X20369643Y-12525357D01*
X13597500Y-13128500D02*
G75*
G03*
X13597500Y-13128500I-25000J0D01*
G01*
X13941071Y-12964214D02*
X13969643Y-12964214D01*
X13998214Y-12978500D01*
X14012500Y-12992786D01*
X14026786Y-13021357D01*
X14041071Y-13078500D01*
X14041071Y-13149929D01*
X14026786Y-13207071D01*
X14012500Y-13235643D01*
X13998214Y-13249929D01*
X13969643Y-13264214D01*
X13941071Y-13264214D01*
X13912500Y-13249929D01*
X13898214Y-13235643D01*
X13883928Y-13207071D01*
X13869643Y-13149929D01*
X13869643Y-13078500D01*
X13883928Y-13021357D01*
X13898214Y-12992786D01*
X13912500Y-12978500D01*
X13941071Y-12964214D01*
X14169643Y-13235643D02*
X14183928Y-13249929D01*
X14169643Y-13264214D01*
X14155357Y-13249929D01*
X14169643Y-13235643D01*
X14169643Y-13264214D01*
X14455357Y-12964214D02*
X14312500Y-12964214D01*
X14298214Y-13107071D01*
X14312500Y-13092786D01*
X14341071Y-13078500D01*
X14412500Y-13078500D01*
X14441071Y-13092786D01*
X14455357Y-13107071D01*
X14469643Y-13135643D01*
X14469643Y-13207071D01*
X14455357Y-13235643D01*
X14441071Y-13249929D01*
X14412500Y-13264214D01*
X14341071Y-13264214D01*
X14312500Y-13249929D01*
X14298214Y-13235643D01*
X14655357Y-12964214D02*
X14683928Y-12964214D01*
X14712500Y-12978500D01*
X14726786Y-12992786D01*
X14741071Y-13021357D01*
X14755357Y-13078500D01*
X14755357Y-13149929D01*
X14741071Y-13207071D01*
X14726786Y-13235643D01*
X14712500Y-13249929D01*
X14683928Y-13264214D01*
X14655357Y-13264214D01*
X14626786Y-13249929D01*
X14612500Y-13235643D01*
X14598214Y-13207071D01*
X14583928Y-13149929D01*
X14583928Y-13078500D01*
X14598214Y-13021357D01*
X14612500Y-12992786D01*
X14626786Y-12978500D01*
X14655357Y-12964214D01*
X14883928Y-13264214D02*
X14883928Y-13064214D01*
X14883928Y-13092786D02*
X14898214Y-13078500D01*
X14926786Y-13064214D01*
X14969643Y-13064214D01*
X14998214Y-13078500D01*
X15012500Y-13107071D01*
X15012500Y-13264214D01*
X15012500Y-13107071D02*
X15026786Y-13078500D01*
X15055357Y-13064214D01*
X15098214Y-13064214D01*
X15126786Y-13078500D01*
X15141071Y-13107071D01*
X15141071Y-13264214D01*
X15283928Y-13264214D02*
X15283928Y-13064214D01*
X15283928Y-13092786D02*
X15298214Y-13078500D01*
X15326786Y-13064214D01*
X15369643Y-13064214D01*
X15398214Y-13078500D01*
X15412500Y-13107071D01*
X15412500Y-13264214D01*
X15412500Y-13107071D02*
X15426786Y-13078500D01*
X15455357Y-13064214D01*
X15498214Y-13064214D01*
X15526786Y-13078500D01*
X15541071Y-13107071D01*
X15541071Y-13264214D01*
X16126786Y-12949929D02*
X15869643Y-13335643D01*
X16512500Y-12964214D02*
X16541071Y-12964214D01*
X16569643Y-12978500D01*
X16583928Y-12992786D01*
X16598214Y-13021357D01*
X16612500Y-13078500D01*
X16612500Y-13149929D01*
X16598214Y-13207071D01*
X16583928Y-13235643D01*
X16569643Y-13249929D01*
X16541071Y-13264214D01*
X16512500Y-13264214D01*
X16483928Y-13249929D01*
X16469643Y-13235643D01*
X16455357Y-13207071D01*
X16441071Y-13149929D01*
X16441071Y-13078500D01*
X16455357Y-13021357D01*
X16469643Y-12992786D01*
X16483928Y-12978500D01*
X16512500Y-12964214D01*
X16741071Y-13235643D02*
X16755357Y-13249929D01*
X16741071Y-13264214D01*
X16726786Y-13249929D01*
X16741071Y-13235643D01*
X16741071Y-13264214D01*
X16941071Y-12964214D02*
X16969643Y-12964214D01*
X16998214Y-12978500D01*
X17012500Y-12992786D01*
X17026786Y-13021357D01*
X17041071Y-13078500D01*
X17041071Y-13149929D01*
X17026786Y-13207071D01*
X17012500Y-13235643D01*
X16998214Y-13249929D01*
X16969643Y-13264214D01*
X16941071Y-13264214D01*
X16912500Y-13249929D01*
X16898214Y-13235643D01*
X16883928Y-13207071D01*
X16869643Y-13149929D01*
X16869643Y-13078500D01*
X16883928Y-13021357D01*
X16898214Y-12992786D01*
X16912500Y-12978500D01*
X16941071Y-12964214D01*
X17155357Y-12992786D02*
X17169643Y-12978500D01*
X17198214Y-12964214D01*
X17269643Y-12964214D01*
X17298214Y-12978500D01*
X17312500Y-12992786D01*
X17326786Y-13021357D01*
X17326786Y-13049929D01*
X17312500Y-13092786D01*
X17141071Y-13264214D01*
X17326786Y-13264214D01*
X17512500Y-12964214D02*
X17541071Y-12964214D01*
X17569643Y-12978500D01*
X17583928Y-12992786D01*
X17598214Y-13021357D01*
X17612500Y-13078500D01*
X17612500Y-13149929D01*
X17598214Y-13207071D01*
X17583928Y-13235643D01*
X17569643Y-13249929D01*
X17541071Y-13264214D01*
X17512500Y-13264214D01*
X17483928Y-13249929D01*
X17469643Y-13235643D01*
X17455357Y-13207071D01*
X17441071Y-13149929D01*
X17441071Y-13078500D01*
X17455357Y-13021357D01*
X17469643Y-12992786D01*
X17483928Y-12978500D01*
X17512500Y-12964214D01*
X17726786Y-12964214D02*
X17726786Y-13021357D01*
X17841071Y-12964214D02*
X17841071Y-13021357D01*
X18283928Y-13378500D02*
X18269643Y-13364214D01*
X18241071Y-13321357D01*
X18226786Y-13292786D01*
X18212500Y-13249929D01*
X18198214Y-13178500D01*
X18198214Y-13121357D01*
X18212500Y-13049929D01*
X18226786Y-13007071D01*
X18241071Y-12978500D01*
X18269643Y-12935643D01*
X18283928Y-12921357D01*
X18441071Y-13092786D02*
X18412500Y-13078500D01*
X18398214Y-13064214D01*
X18383928Y-13035643D01*
X18383928Y-13021357D01*
X18398214Y-12992786D01*
X18412500Y-12978500D01*
X18441071Y-12964214D01*
X18498214Y-12964214D01*
X18526786Y-12978500D01*
X18541071Y-12992786D01*
X18555357Y-13021357D01*
X18555357Y-13035643D01*
X18541071Y-13064214D01*
X18526786Y-13078500D01*
X18498214Y-13092786D01*
X18441071Y-13092786D01*
X18412500Y-13107071D01*
X18398214Y-13121357D01*
X18383928Y-13149929D01*
X18383928Y-13207071D01*
X18398214Y-13235643D01*
X18412500Y-13249929D01*
X18441071Y-13264214D01*
X18498214Y-13264214D01*
X18526786Y-13249929D01*
X18541071Y-13235643D01*
X18555357Y-13207071D01*
X18555357Y-13149929D01*
X18541071Y-13121357D01*
X18526786Y-13107071D01*
X18498214Y-13092786D01*
X18912500Y-13264214D02*
X18912500Y-12964214D01*
X19041071Y-13264214D02*
X19041071Y-13107071D01*
X19026786Y-13078500D01*
X18998214Y-13064214D01*
X18955357Y-13064214D01*
X18926786Y-13078500D01*
X18912500Y-13092786D01*
X19226786Y-13264214D02*
X19198214Y-13249929D01*
X19183928Y-13235643D01*
X19169643Y-13207071D01*
X19169643Y-13121357D01*
X19183928Y-13092786D01*
X19198214Y-13078500D01*
X19226786Y-13064214D01*
X19269643Y-13064214D01*
X19298214Y-13078500D01*
X19312500Y-13092786D01*
X19326786Y-13121357D01*
X19326786Y-13207071D01*
X19312500Y-13235643D01*
X19298214Y-13249929D01*
X19269643Y-13264214D01*
X19226786Y-13264214D01*
X19498214Y-13264214D02*
X19469643Y-13249929D01*
X19455357Y-13221357D01*
X19455357Y-12964214D01*
X19726786Y-13249929D02*
X19698214Y-13264214D01*
X19641071Y-13264214D01*
X19612500Y-13249929D01*
X19598214Y-13221357D01*
X19598214Y-13107071D01*
X19612500Y-13078500D01*
X19641071Y-13064214D01*
X19698214Y-13064214D01*
X19726786Y-13078500D01*
X19741071Y-13107071D01*
X19741071Y-13135643D01*
X19598214Y-13164214D01*
X19855357Y-13249929D02*
X19883928Y-13264214D01*
X19941071Y-13264214D01*
X19969643Y-13249929D01*
X19983928Y-13221357D01*
X19983928Y-13207071D01*
X19969643Y-13178500D01*
X19941071Y-13164214D01*
X19898214Y-13164214D01*
X19869643Y-13149929D01*
X19855357Y-13121357D01*
X19855357Y-13107071D01*
X19869643Y-13078500D01*
X19898214Y-13064214D01*
X19941071Y-13064214D01*
X19969643Y-13078500D01*
X20083928Y-13378500D02*
X20098214Y-13364214D01*
X20126786Y-13321357D01*
X20141071Y-13292786D01*
X20155357Y-13249929D01*
X20169643Y-13178500D01*
X20169643Y-13121357D01*
X20155357Y-13049929D01*
X20141071Y-13007071D01*
X20126786Y-12978500D01*
X20098214Y-12935643D01*
X20083928Y-12921357D01*
X13562500Y-13489500D02*
X13562500Y-13559500D01*
X13527500Y-13524500D02*
X13597500Y-13524500D01*
X13941071Y-13360214D02*
X13969643Y-13360214D01*
X13998214Y-13374500D01*
X14012500Y-13388786D01*
X14026786Y-13417357D01*
X14041071Y-13474500D01*
X14041071Y-13545929D01*
X14026786Y-13603071D01*
X14012500Y-13631643D01*
X13998214Y-13645929D01*
X13969643Y-13660214D01*
X13941071Y-13660214D01*
X13912500Y-13645929D01*
X13898214Y-13631643D01*
X13883928Y-13603071D01*
X13869643Y-13545929D01*
X13869643Y-13474500D01*
X13883928Y-13417357D01*
X13898214Y-13388786D01*
X13912500Y-13374500D01*
X13941071Y-13360214D01*
X14169643Y-13631643D02*
X14183928Y-13645929D01*
X14169643Y-13660214D01*
X14155357Y-13645929D01*
X14169643Y-13631643D01*
X14169643Y-13660214D01*
X14283928Y-13360214D02*
X14483928Y-13360214D01*
X14355357Y-13660214D01*
X14655357Y-13360214D02*
X14683928Y-13360214D01*
X14712500Y-13374500D01*
X14726786Y-13388786D01*
X14741071Y-13417357D01*
X14755357Y-13474500D01*
X14755357Y-13545929D01*
X14741071Y-13603071D01*
X14726786Y-13631643D01*
X14712500Y-13645929D01*
X14683928Y-13660214D01*
X14655357Y-13660214D01*
X14626786Y-13645929D01*
X14612500Y-13631643D01*
X14598214Y-13603071D01*
X14583928Y-13545929D01*
X14583928Y-13474500D01*
X14598214Y-13417357D01*
X14612500Y-13388786D01*
X14626786Y-13374500D01*
X14655357Y-13360214D01*
X14883928Y-13660214D02*
X14883928Y-13460214D01*
X14883928Y-13488786D02*
X14898214Y-13474500D01*
X14926786Y-13460214D01*
X14969643Y-13460214D01*
X14998214Y-13474500D01*
X15012500Y-13503071D01*
X15012500Y-13660214D01*
X15012500Y-13503071D02*
X15026786Y-13474500D01*
X15055357Y-13460214D01*
X15098214Y-13460214D01*
X15126786Y-13474500D01*
X15141071Y-13503071D01*
X15141071Y-13660214D01*
X15283928Y-13660214D02*
X15283928Y-13460214D01*
X15283928Y-13488786D02*
X15298214Y-13474500D01*
X15326786Y-13460214D01*
X15369643Y-13460214D01*
X15398214Y-13474500D01*
X15412500Y-13503071D01*
X15412500Y-13660214D01*
X15412500Y-13503071D02*
X15426786Y-13474500D01*
X15455357Y-13460214D01*
X15498214Y-13460214D01*
X15526786Y-13474500D01*
X15541071Y-13503071D01*
X15541071Y-13660214D01*
X16126786Y-13345929D02*
X15869643Y-13731643D01*
X16512500Y-13360214D02*
X16541071Y-13360214D01*
X16569643Y-13374500D01*
X16583928Y-13388786D01*
X16598214Y-13417357D01*
X16612500Y-13474500D01*
X16612500Y-13545929D01*
X16598214Y-13603071D01*
X16583928Y-13631643D01*
X16569643Y-13645929D01*
X16541071Y-13660214D01*
X16512500Y-13660214D01*
X16483928Y-13645929D01*
X16469643Y-13631643D01*
X16455357Y-13603071D01*
X16441071Y-13545929D01*
X16441071Y-13474500D01*
X16455357Y-13417357D01*
X16469643Y-13388786D01*
X16483928Y-13374500D01*
X16512500Y-13360214D01*
X16741071Y-13631643D02*
X16755357Y-13645929D01*
X16741071Y-13660214D01*
X16726786Y-13645929D01*
X16741071Y-13631643D01*
X16741071Y-13660214D01*
X16941071Y-13360214D02*
X16969643Y-13360214D01*
X16998214Y-13374500D01*
X17012500Y-13388786D01*
X17026786Y-13417357D01*
X17041071Y-13474500D01*
X17041071Y-13545929D01*
X17026786Y-13603071D01*
X17012500Y-13631643D01*
X16998214Y-13645929D01*
X16969643Y-13660214D01*
X16941071Y-13660214D01*
X16912500Y-13645929D01*
X16898214Y-13631643D01*
X16883928Y-13603071D01*
X16869643Y-13545929D01*
X16869643Y-13474500D01*
X16883928Y-13417357D01*
X16898214Y-13388786D01*
X16912500Y-13374500D01*
X16941071Y-13360214D01*
X17155357Y-13388786D02*
X17169643Y-13374500D01*
X17198214Y-13360214D01*
X17269643Y-13360214D01*
X17298214Y-13374500D01*
X17312500Y-13388786D01*
X17326786Y-13417357D01*
X17326786Y-13445929D01*
X17312500Y-13488786D01*
X17141071Y-13660214D01*
X17326786Y-13660214D01*
X17498214Y-13488786D02*
X17469643Y-13474500D01*
X17455357Y-13460214D01*
X17441071Y-13431643D01*
X17441071Y-13417357D01*
X17455357Y-13388786D01*
X17469643Y-13374500D01*
X17498214Y-13360214D01*
X17555357Y-13360214D01*
X17583928Y-13374500D01*
X17598214Y-13388786D01*
X17612500Y-13417357D01*
X17612500Y-13431643D01*
X17598214Y-13460214D01*
X17583928Y-13474500D01*
X17555357Y-13488786D01*
X17498214Y-13488786D01*
X17469643Y-13503071D01*
X17455357Y-13517357D01*
X17441071Y-13545929D01*
X17441071Y-13603071D01*
X17455357Y-13631643D01*
X17469643Y-13645929D01*
X17498214Y-13660214D01*
X17555357Y-13660214D01*
X17583928Y-13645929D01*
X17598214Y-13631643D01*
X17612500Y-13603071D01*
X17612500Y-13545929D01*
X17598214Y-13517357D01*
X17583928Y-13503071D01*
X17555357Y-13488786D01*
X17726786Y-13360214D02*
X17726786Y-13417357D01*
X17841071Y-13360214D02*
X17841071Y-13417357D01*
X18283928Y-13774500D02*
X18269643Y-13760214D01*
X18241071Y-13717357D01*
X18226786Y-13688786D01*
X18212500Y-13645929D01*
X18198214Y-13574500D01*
X18198214Y-13517357D01*
X18212500Y-13445929D01*
X18226786Y-13403071D01*
X18241071Y-13374500D01*
X18269643Y-13331643D01*
X18283928Y-13317357D01*
X18526786Y-13360214D02*
X18469643Y-13360214D01*
X18441071Y-13374500D01*
X18426786Y-13388786D01*
X18398214Y-13431643D01*
X18383928Y-13488786D01*
X18383928Y-13603071D01*
X18398214Y-13631643D01*
X18412500Y-13645929D01*
X18441071Y-13660214D01*
X18498214Y-13660214D01*
X18526786Y-13645929D01*
X18541071Y-13631643D01*
X18555357Y-13603071D01*
X18555357Y-13531643D01*
X18541071Y-13503071D01*
X18526786Y-13488786D01*
X18498214Y-13474500D01*
X18441071Y-13474500D01*
X18412500Y-13488786D01*
X18398214Y-13503071D01*
X18383928Y-13531643D01*
X18912500Y-13660214D02*
X18912500Y-13360214D01*
X19041071Y-13660214D02*
X19041071Y-13503071D01*
X19026786Y-13474500D01*
X18998214Y-13460214D01*
X18955357Y-13460214D01*
X18926786Y-13474500D01*
X18912500Y-13488786D01*
X19226786Y-13660214D02*
X19198214Y-13645929D01*
X19183928Y-13631643D01*
X19169643Y-13603071D01*
X19169643Y-13517357D01*
X19183928Y-13488786D01*
X19198214Y-13474500D01*
X19226786Y-13460214D01*
X19269643Y-13460214D01*
X19298214Y-13474500D01*
X19312500Y-13488786D01*
X19326786Y-13517357D01*
X19326786Y-13603071D01*
X19312500Y-13631643D01*
X19298214Y-13645929D01*
X19269643Y-13660214D01*
X19226786Y-13660214D01*
X19498214Y-13660214D02*
X19469643Y-13645929D01*
X19455357Y-13617357D01*
X19455357Y-13360214D01*
X19726786Y-13645929D02*
X19698214Y-13660214D01*
X19641071Y-13660214D01*
X19612500Y-13645929D01*
X19598214Y-13617357D01*
X19598214Y-13503071D01*
X19612500Y-13474500D01*
X19641071Y-13460214D01*
X19698214Y-13460214D01*
X19726786Y-13474500D01*
X19741071Y-13503071D01*
X19741071Y-13531643D01*
X19598214Y-13560214D01*
X19855357Y-13645929D02*
X19883928Y-13660214D01*
X19941071Y-13660214D01*
X19969643Y-13645929D01*
X19983928Y-13617357D01*
X19983928Y-13603071D01*
X19969643Y-13574500D01*
X19941071Y-13560214D01*
X19898214Y-13560214D01*
X19869643Y-13545929D01*
X19855357Y-13517357D01*
X19855357Y-13503071D01*
X19869643Y-13474500D01*
X19898214Y-13460214D01*
X19941071Y-13460214D01*
X19969643Y-13474500D01*
X20083928Y-13774500D02*
X20098214Y-13760214D01*
X20126786Y-13717357D01*
X20141071Y-13688786D01*
X20155357Y-13645929D01*
X20169643Y-13574500D01*
X20169643Y-13517357D01*
X20155357Y-13445929D01*
X20141071Y-13403071D01*
X20126786Y-13374500D01*
X20098214Y-13331643D01*
X20083928Y-13317357D01*
X13582856Y-13955856D02*
X13582856Y-13885144D01*
X13512144Y-13885144D01*
X13512144Y-13955856D01*
X13582856Y-13955856D01*
X14041071Y-14056214D02*
X13869643Y-14056214D01*
X13955357Y-14056214D02*
X13955357Y-13756214D01*
X13926786Y-13799071D01*
X13898214Y-13827643D01*
X13869643Y-13841929D01*
X14169643Y-14027643D02*
X14183928Y-14041929D01*
X14169643Y-14056214D01*
X14155357Y-14041929D01*
X14169643Y-14027643D01*
X14169643Y-14056214D01*
X14369643Y-13756214D02*
X14398214Y-13756214D01*
X14426786Y-13770500D01*
X14441071Y-13784786D01*
X14455357Y-13813357D01*
X14469643Y-13870500D01*
X14469643Y-13941929D01*
X14455357Y-13999071D01*
X14441071Y-14027643D01*
X14426786Y-14041929D01*
X14398214Y-14056214D01*
X14369643Y-14056214D01*
X14341071Y-14041929D01*
X14326786Y-14027643D01*
X14312500Y-13999071D01*
X14298214Y-13941929D01*
X14298214Y-13870500D01*
X14312500Y-13813357D01*
X14326786Y-13784786D01*
X14341071Y-13770500D01*
X14369643Y-13756214D01*
X14655357Y-13756214D02*
X14683928Y-13756214D01*
X14712500Y-13770500D01*
X14726786Y-13784786D01*
X14741071Y-13813357D01*
X14755357Y-13870500D01*
X14755357Y-13941929D01*
X14741071Y-13999071D01*
X14726786Y-14027643D01*
X14712500Y-14041929D01*
X14683928Y-14056214D01*
X14655357Y-14056214D01*
X14626786Y-14041929D01*
X14612500Y-14027643D01*
X14598214Y-13999071D01*
X14583928Y-13941929D01*
X14583928Y-13870500D01*
X14598214Y-13813357D01*
X14612500Y-13784786D01*
X14626786Y-13770500D01*
X14655357Y-13756214D01*
X14883928Y-14056214D02*
X14883928Y-13856214D01*
X14883928Y-13884786D02*
X14898214Y-13870500D01*
X14926786Y-13856214D01*
X14969643Y-13856214D01*
X14998214Y-13870500D01*
X15012500Y-13899071D01*
X15012500Y-14056214D01*
X15012500Y-13899071D02*
X15026786Y-13870500D01*
X15055357Y-13856214D01*
X15098214Y-13856214D01*
X15126786Y-13870500D01*
X15141071Y-13899071D01*
X15141071Y-14056214D01*
X15283928Y-14056214D02*
X15283928Y-13856214D01*
X15283928Y-13884786D02*
X15298214Y-13870500D01*
X15326786Y-13856214D01*
X15369643Y-13856214D01*
X15398214Y-13870500D01*
X15412500Y-13899071D01*
X15412500Y-14056214D01*
X15412500Y-13899071D02*
X15426786Y-13870500D01*
X15455357Y-13856214D01*
X15498214Y-13856214D01*
X15526786Y-13870500D01*
X15541071Y-13899071D01*
X15541071Y-14056214D01*
X16126786Y-13741929D02*
X15869643Y-14127643D01*
X16512500Y-13756214D02*
X16541071Y-13756214D01*
X16569643Y-13770500D01*
X16583928Y-13784786D01*
X16598214Y-13813357D01*
X16612500Y-13870500D01*
X16612500Y-13941929D01*
X16598214Y-13999071D01*
X16583928Y-14027643D01*
X16569643Y-14041929D01*
X16541071Y-14056214D01*
X16512500Y-14056214D01*
X16483928Y-14041929D01*
X16469643Y-14027643D01*
X16455357Y-13999071D01*
X16441071Y-13941929D01*
X16441071Y-13870500D01*
X16455357Y-13813357D01*
X16469643Y-13784786D01*
X16483928Y-13770500D01*
X16512500Y-13756214D01*
X16741071Y-14027643D02*
X16755357Y-14041929D01*
X16741071Y-14056214D01*
X16726786Y-14041929D01*
X16741071Y-14027643D01*
X16741071Y-14056214D01*
X16941071Y-13756214D02*
X16969643Y-13756214D01*
X16998214Y-13770500D01*
X17012500Y-13784786D01*
X17026786Y-13813357D01*
X17041071Y-13870500D01*
X17041071Y-13941929D01*
X17026786Y-13999071D01*
X17012500Y-14027643D01*
X16998214Y-14041929D01*
X16969643Y-14056214D01*
X16941071Y-14056214D01*
X16912500Y-14041929D01*
X16898214Y-14027643D01*
X16883928Y-13999071D01*
X16869643Y-13941929D01*
X16869643Y-13870500D01*
X16883928Y-13813357D01*
X16898214Y-13784786D01*
X16912500Y-13770500D01*
X16941071Y-13756214D01*
X17141071Y-13756214D02*
X17326786Y-13756214D01*
X17226786Y-13870500D01*
X17269643Y-13870500D01*
X17298214Y-13884786D01*
X17312500Y-13899071D01*
X17326786Y-13927643D01*
X17326786Y-13999071D01*
X17312500Y-14027643D01*
X17298214Y-14041929D01*
X17269643Y-14056214D01*
X17183928Y-14056214D01*
X17155357Y-14041929D01*
X17141071Y-14027643D01*
X17469643Y-14056214D02*
X17526786Y-14056214D01*
X17555357Y-14041929D01*
X17569643Y-14027643D01*
X17598214Y-13984786D01*
X17612500Y-13927643D01*
X17612500Y-13813357D01*
X17598214Y-13784786D01*
X17583928Y-13770500D01*
X17555357Y-13756214D01*
X17498214Y-13756214D01*
X17469643Y-13770500D01*
X17455357Y-13784786D01*
X17441071Y-13813357D01*
X17441071Y-13884786D01*
X17455357Y-13913357D01*
X17469643Y-13927643D01*
X17498214Y-13941929D01*
X17555357Y-13941929D01*
X17583928Y-13927643D01*
X17598214Y-13913357D01*
X17612500Y-13884786D01*
X17726786Y-13756214D02*
X17726786Y-13813357D01*
X17841071Y-13756214D02*
X17841071Y-13813357D01*
X18283928Y-14170500D02*
X18269643Y-14156214D01*
X18241071Y-14113357D01*
X18226786Y-14084786D01*
X18212500Y-14041929D01*
X18198214Y-13970500D01*
X18198214Y-13913357D01*
X18212500Y-13841929D01*
X18226786Y-13799071D01*
X18241071Y-13770500D01*
X18269643Y-13727643D01*
X18283928Y-13713357D01*
X18383928Y-13784786D02*
X18398214Y-13770500D01*
X18426786Y-13756214D01*
X18498214Y-13756214D01*
X18526786Y-13770500D01*
X18541071Y-13784786D01*
X18555357Y-13813357D01*
X18555357Y-13841929D01*
X18541071Y-13884786D01*
X18369643Y-14056214D01*
X18555357Y-14056214D01*
X18726786Y-13884786D02*
X18698214Y-13870500D01*
X18683928Y-13856214D01*
X18669643Y-13827643D01*
X18669643Y-13813357D01*
X18683928Y-13784786D01*
X18698214Y-13770500D01*
X18726786Y-13756214D01*
X18783928Y-13756214D01*
X18812500Y-13770500D01*
X18826786Y-13784786D01*
X18841071Y-13813357D01*
X18841071Y-13827643D01*
X18826786Y-13856214D01*
X18812500Y-13870500D01*
X18783928Y-13884786D01*
X18726786Y-13884786D01*
X18698214Y-13899071D01*
X18683928Y-13913357D01*
X18669643Y-13941929D01*
X18669643Y-13999071D01*
X18683928Y-14027643D01*
X18698214Y-14041929D01*
X18726786Y-14056214D01*
X18783928Y-14056214D01*
X18812500Y-14041929D01*
X18826786Y-14027643D01*
X18841071Y-13999071D01*
X18841071Y-13941929D01*
X18826786Y-13913357D01*
X18812500Y-13899071D01*
X18783928Y-13884786D01*
X19198214Y-14056214D02*
X19198214Y-13756214D01*
X19326786Y-14056214D02*
X19326786Y-13899071D01*
X19312500Y-13870500D01*
X19283928Y-13856214D01*
X19241071Y-13856214D01*
X19212500Y-13870500D01*
X19198214Y-13884786D01*
X19512500Y-14056214D02*
X19483928Y-14041929D01*
X19469643Y-14027643D01*
X19455357Y-13999071D01*
X19455357Y-13913357D01*
X19469643Y-13884786D01*
X19483928Y-13870500D01*
X19512500Y-13856214D01*
X19555357Y-13856214D01*
X19583928Y-13870500D01*
X19598214Y-13884786D01*
X19612500Y-13913357D01*
X19612500Y-13999071D01*
X19598214Y-14027643D01*
X19583928Y-14041929D01*
X19555357Y-14056214D01*
X19512500Y-14056214D01*
X19783928Y-14056214D02*
X19755357Y-14041929D01*
X19741071Y-14013357D01*
X19741071Y-13756214D01*
X20012500Y-14041929D02*
X19983928Y-14056214D01*
X19926786Y-14056214D01*
X19898214Y-14041929D01*
X19883928Y-14013357D01*
X19883928Y-13899071D01*
X19898214Y-13870500D01*
X19926786Y-13856214D01*
X19983928Y-13856214D01*
X20012500Y-13870500D01*
X20026786Y-13899071D01*
X20026786Y-13927643D01*
X19883928Y-13956214D01*
X20141071Y-14041929D02*
X20169643Y-14056214D01*
X20226786Y-14056214D01*
X20255357Y-14041929D01*
X20269643Y-14013357D01*
X20269643Y-13999071D01*
X20255357Y-13970500D01*
X20226786Y-13956214D01*
X20183928Y-13956214D01*
X20155357Y-13941929D01*
X20141071Y-13913357D01*
X20141071Y-13899071D01*
X20155357Y-13870500D01*
X20183928Y-13856214D01*
X20226786Y-13856214D01*
X20255357Y-13870500D01*
X20369643Y-14170500D02*
X20383928Y-14156214D01*
X20412500Y-14113357D01*
X20426786Y-14084786D01*
X20441071Y-14041929D01*
X20455357Y-13970500D01*
X20455357Y-13913357D01*
X20441071Y-13841929D01*
X20426786Y-13799071D01*
X20412500Y-13770500D01*
X20383928Y-13727643D01*
X20369643Y-13713357D01*
X13473500Y-14440500D02*
X13597500Y-14316500D01*
X13473500Y-14192500D01*
X13349500Y-14316500D01*
X13473500Y-14440500D01*
X13869643Y-14180786D02*
X13883928Y-14166500D01*
X13912500Y-14152214D01*
X13983928Y-14152214D01*
X14012500Y-14166500D01*
X14026786Y-14180786D01*
X14041071Y-14209357D01*
X14041071Y-14237929D01*
X14026786Y-14280786D01*
X13855357Y-14452214D01*
X14041071Y-14452214D01*
X14169643Y-14423643D02*
X14183928Y-14437929D01*
X14169643Y-14452214D01*
X14155357Y-14437929D01*
X14169643Y-14423643D01*
X14169643Y-14452214D01*
X14441071Y-14252214D02*
X14441071Y-14452214D01*
X14369643Y-14137929D02*
X14298214Y-14352214D01*
X14483928Y-14352214D01*
X14641071Y-14280786D02*
X14612500Y-14266500D01*
X14598214Y-14252214D01*
X14583928Y-14223643D01*
X14583928Y-14209357D01*
X14598214Y-14180786D01*
X14612500Y-14166500D01*
X14641071Y-14152214D01*
X14698214Y-14152214D01*
X14726786Y-14166500D01*
X14741071Y-14180786D01*
X14755357Y-14209357D01*
X14755357Y-14223643D01*
X14741071Y-14252214D01*
X14726786Y-14266500D01*
X14698214Y-14280786D01*
X14641071Y-14280786D01*
X14612500Y-14295071D01*
X14598214Y-14309357D01*
X14583928Y-14337929D01*
X14583928Y-14395071D01*
X14598214Y-14423643D01*
X14612500Y-14437929D01*
X14641071Y-14452214D01*
X14698214Y-14452214D01*
X14726786Y-14437929D01*
X14741071Y-14423643D01*
X14755357Y-14395071D01*
X14755357Y-14337929D01*
X14741071Y-14309357D01*
X14726786Y-14295071D01*
X14698214Y-14280786D01*
X14883928Y-14452214D02*
X14883928Y-14252214D01*
X14883928Y-14280786D02*
X14898214Y-14266500D01*
X14926786Y-14252214D01*
X14969643Y-14252214D01*
X14998214Y-14266500D01*
X15012500Y-14295071D01*
X15012500Y-14452214D01*
X15012500Y-14295071D02*
X15026786Y-14266500D01*
X15055357Y-14252214D01*
X15098214Y-14252214D01*
X15126786Y-14266500D01*
X15141071Y-14295071D01*
X15141071Y-14452214D01*
X15283928Y-14452214D02*
X15283928Y-14252214D01*
X15283928Y-14280786D02*
X15298214Y-14266500D01*
X15326786Y-14252214D01*
X15369643Y-14252214D01*
X15398214Y-14266500D01*
X15412500Y-14295071D01*
X15412500Y-14452214D01*
X15412500Y-14295071D02*
X15426786Y-14266500D01*
X15455357Y-14252214D01*
X15498214Y-14252214D01*
X15526786Y-14266500D01*
X15541071Y-14295071D01*
X15541071Y-14452214D01*
X16126786Y-14137929D02*
X15869643Y-14523643D01*
X16512500Y-14152214D02*
X16541071Y-14152214D01*
X16569643Y-14166500D01*
X16583928Y-14180786D01*
X16598214Y-14209357D01*
X16612500Y-14266500D01*
X16612500Y-14337929D01*
X16598214Y-14395071D01*
X16583928Y-14423643D01*
X16569643Y-14437929D01*
X16541071Y-14452214D01*
X16512500Y-14452214D01*
X16483928Y-14437929D01*
X16469643Y-14423643D01*
X16455357Y-14395071D01*
X16441071Y-14337929D01*
X16441071Y-14266500D01*
X16455357Y-14209357D01*
X16469643Y-14180786D01*
X16483928Y-14166500D01*
X16512500Y-14152214D01*
X16741071Y-14423643D02*
X16755357Y-14437929D01*
X16741071Y-14452214D01*
X16726786Y-14437929D01*
X16741071Y-14423643D01*
X16741071Y-14452214D01*
X16941071Y-14152214D02*
X16969643Y-14152214D01*
X16998214Y-14166500D01*
X17012500Y-14180786D01*
X17026786Y-14209357D01*
X17041071Y-14266500D01*
X17041071Y-14337929D01*
X17026786Y-14395071D01*
X17012500Y-14423643D01*
X16998214Y-14437929D01*
X16969643Y-14452214D01*
X16941071Y-14452214D01*
X16912500Y-14437929D01*
X16898214Y-14423643D01*
X16883928Y-14395071D01*
X16869643Y-14337929D01*
X16869643Y-14266500D01*
X16883928Y-14209357D01*
X16898214Y-14180786D01*
X16912500Y-14166500D01*
X16941071Y-14152214D01*
X17183928Y-14452214D02*
X17241071Y-14452214D01*
X17269643Y-14437929D01*
X17283928Y-14423643D01*
X17312500Y-14380786D01*
X17326786Y-14323643D01*
X17326786Y-14209357D01*
X17312500Y-14180786D01*
X17298214Y-14166500D01*
X17269643Y-14152214D01*
X17212500Y-14152214D01*
X17183928Y-14166500D01*
X17169643Y-14180786D01*
X17155357Y-14209357D01*
X17155357Y-14280786D01*
X17169643Y-14309357D01*
X17183928Y-14323643D01*
X17212500Y-14337929D01*
X17269643Y-14337929D01*
X17298214Y-14323643D01*
X17312500Y-14309357D01*
X17326786Y-14280786D01*
X17498214Y-14280786D02*
X17469643Y-14266500D01*
X17455357Y-14252214D01*
X17441071Y-14223643D01*
X17441071Y-14209357D01*
X17455357Y-14180786D01*
X17469643Y-14166500D01*
X17498214Y-14152214D01*
X17555357Y-14152214D01*
X17583928Y-14166500D01*
X17598214Y-14180786D01*
X17612500Y-14209357D01*
X17612500Y-14223643D01*
X17598214Y-14252214D01*
X17583928Y-14266500D01*
X17555357Y-14280786D01*
X17498214Y-14280786D01*
X17469643Y-14295071D01*
X17455357Y-14309357D01*
X17441071Y-14337929D01*
X17441071Y-14395071D01*
X17455357Y-14423643D01*
X17469643Y-14437929D01*
X17498214Y-14452214D01*
X17555357Y-14452214D01*
X17583928Y-14437929D01*
X17598214Y-14423643D01*
X17612500Y-14395071D01*
X17612500Y-14337929D01*
X17598214Y-14309357D01*
X17583928Y-14295071D01*
X17555357Y-14280786D01*
X17726786Y-14152214D02*
X17726786Y-14209357D01*
X17841071Y-14152214D02*
X17841071Y-14209357D01*
X18283928Y-14566500D02*
X18269643Y-14552214D01*
X18241071Y-14509357D01*
X18226786Y-14480786D01*
X18212500Y-14437929D01*
X18198214Y-14366500D01*
X18198214Y-14309357D01*
X18212500Y-14237929D01*
X18226786Y-14195071D01*
X18241071Y-14166500D01*
X18269643Y-14123643D01*
X18283928Y-14109357D01*
X18526786Y-14252214D02*
X18526786Y-14452214D01*
X18455357Y-14137929D02*
X18383928Y-14352214D01*
X18569643Y-14352214D01*
X18912500Y-14452214D02*
X18912500Y-14152214D01*
X19041071Y-14452214D02*
X19041071Y-14295071D01*
X19026786Y-14266500D01*
X18998214Y-14252214D01*
X18955357Y-14252214D01*
X18926786Y-14266500D01*
X18912500Y-14280786D01*
X19226786Y-14452214D02*
X19198214Y-14437929D01*
X19183928Y-14423643D01*
X19169643Y-14395071D01*
X19169643Y-14309357D01*
X19183928Y-14280786D01*
X19198214Y-14266500D01*
X19226786Y-14252214D01*
X19269643Y-14252214D01*
X19298214Y-14266500D01*
X19312500Y-14280786D01*
X19326786Y-14309357D01*
X19326786Y-14395071D01*
X19312500Y-14423643D01*
X19298214Y-14437929D01*
X19269643Y-14452214D01*
X19226786Y-14452214D01*
X19498214Y-14452214D02*
X19469643Y-14437929D01*
X19455357Y-14409357D01*
X19455357Y-14152214D01*
X19726786Y-14437929D02*
X19698214Y-14452214D01*
X19641071Y-14452214D01*
X19612500Y-14437929D01*
X19598214Y-14409357D01*
X19598214Y-14295071D01*
X19612500Y-14266500D01*
X19641071Y-14252214D01*
X19698214Y-14252214D01*
X19726786Y-14266500D01*
X19741071Y-14295071D01*
X19741071Y-14323643D01*
X19598214Y-14352214D01*
X19855357Y-14437929D02*
X19883928Y-14452214D01*
X19941071Y-14452214D01*
X19969643Y-14437929D01*
X19983928Y-14409357D01*
X19983928Y-14395071D01*
X19969643Y-14366500D01*
X19941071Y-14352214D01*
X19898214Y-14352214D01*
X19869643Y-14337929D01*
X19855357Y-14309357D01*
X19855357Y-14295071D01*
X19869643Y-14266500D01*
X19898214Y-14252214D01*
X19941071Y-14252214D01*
X19969643Y-14266500D01*
X20083928Y-14566500D02*
X20098214Y-14552214D01*
X20126786Y-14509357D01*
X20141071Y-14480786D01*
X20155357Y-14437929D01*
X20169643Y-14366500D01*
X20169643Y-14309357D01*
X20155357Y-14237929D01*
X20141071Y-14195071D01*
X20126786Y-14166500D01*
X20098214Y-14123643D01*
X20083928Y-14109357D01*
X13347500Y-14587500D02*
X13597500Y-14837500D01*
X13597500Y-14587500D02*
X13347500Y-14837500D01*
X13597500Y-14712500D02*
G75*
G03*
X13597500Y-14712500I-125000J0D01*
G01*
X13869643Y-14576786D02*
X13883928Y-14562500D01*
X13912500Y-14548214D01*
X13983928Y-14548214D01*
X14012500Y-14562500D01*
X14026786Y-14576786D01*
X14041071Y-14605357D01*
X14041071Y-14633929D01*
X14026786Y-14676786D01*
X13855357Y-14848214D01*
X14041071Y-14848214D01*
X14169643Y-14819643D02*
X14183928Y-14833929D01*
X14169643Y-14848214D01*
X14155357Y-14833929D01*
X14169643Y-14819643D01*
X14169643Y-14848214D01*
X14455357Y-14548214D02*
X14312500Y-14548214D01*
X14298214Y-14691071D01*
X14312500Y-14676786D01*
X14341071Y-14662500D01*
X14412500Y-14662500D01*
X14441071Y-14676786D01*
X14455357Y-14691071D01*
X14469643Y-14719643D01*
X14469643Y-14791071D01*
X14455357Y-14819643D01*
X14441071Y-14833929D01*
X14412500Y-14848214D01*
X14341071Y-14848214D01*
X14312500Y-14833929D01*
X14298214Y-14819643D01*
X14655357Y-14548214D02*
X14683928Y-14548214D01*
X14712500Y-14562500D01*
X14726786Y-14576786D01*
X14741071Y-14605357D01*
X14755357Y-14662500D01*
X14755357Y-14733929D01*
X14741071Y-14791071D01*
X14726786Y-14819643D01*
X14712500Y-14833929D01*
X14683928Y-14848214D01*
X14655357Y-14848214D01*
X14626786Y-14833929D01*
X14612500Y-14819643D01*
X14598214Y-14791071D01*
X14583928Y-14733929D01*
X14583928Y-14662500D01*
X14598214Y-14605357D01*
X14612500Y-14576786D01*
X14626786Y-14562500D01*
X14655357Y-14548214D01*
X14883928Y-14848214D02*
X14883928Y-14648214D01*
X14883928Y-14676786D02*
X14898214Y-14662500D01*
X14926786Y-14648214D01*
X14969643Y-14648214D01*
X14998214Y-14662500D01*
X15012500Y-14691071D01*
X15012500Y-14848214D01*
X15012500Y-14691071D02*
X15026786Y-14662500D01*
X15055357Y-14648214D01*
X15098214Y-14648214D01*
X15126786Y-14662500D01*
X15141071Y-14691071D01*
X15141071Y-14848214D01*
X15283928Y-14848214D02*
X15283928Y-14648214D01*
X15283928Y-14676786D02*
X15298214Y-14662500D01*
X15326786Y-14648214D01*
X15369643Y-14648214D01*
X15398214Y-14662500D01*
X15412500Y-14691071D01*
X15412500Y-14848214D01*
X15412500Y-14691071D02*
X15426786Y-14662500D01*
X15455357Y-14648214D01*
X15498214Y-14648214D01*
X15526786Y-14662500D01*
X15541071Y-14691071D01*
X15541071Y-14848214D01*
X16126786Y-14533929D02*
X15869643Y-14919643D01*
X16512500Y-14548214D02*
X16541071Y-14548214D01*
X16569643Y-14562500D01*
X16583928Y-14576786D01*
X16598214Y-14605357D01*
X16612500Y-14662500D01*
X16612500Y-14733929D01*
X16598214Y-14791071D01*
X16583928Y-14819643D01*
X16569643Y-14833929D01*
X16541071Y-14848214D01*
X16512500Y-14848214D01*
X16483928Y-14833929D01*
X16469643Y-14819643D01*
X16455357Y-14791071D01*
X16441071Y-14733929D01*
X16441071Y-14662500D01*
X16455357Y-14605357D01*
X16469643Y-14576786D01*
X16483928Y-14562500D01*
X16512500Y-14548214D01*
X16741071Y-14819643D02*
X16755357Y-14833929D01*
X16741071Y-14848214D01*
X16726786Y-14833929D01*
X16741071Y-14819643D01*
X16741071Y-14848214D01*
X16941071Y-14548214D02*
X16969643Y-14548214D01*
X16998214Y-14562500D01*
X17012500Y-14576786D01*
X17026786Y-14605357D01*
X17041071Y-14662500D01*
X17041071Y-14733929D01*
X17026786Y-14791071D01*
X17012500Y-14819643D01*
X16998214Y-14833929D01*
X16969643Y-14848214D01*
X16941071Y-14848214D01*
X16912500Y-14833929D01*
X16898214Y-14819643D01*
X16883928Y-14791071D01*
X16869643Y-14733929D01*
X16869643Y-14662500D01*
X16883928Y-14605357D01*
X16898214Y-14576786D01*
X16912500Y-14562500D01*
X16941071Y-14548214D01*
X17183928Y-14848214D02*
X17241071Y-14848214D01*
X17269643Y-14833929D01*
X17283928Y-14819643D01*
X17312500Y-14776786D01*
X17326786Y-14719643D01*
X17326786Y-14605357D01*
X17312500Y-14576786D01*
X17298214Y-14562500D01*
X17269643Y-14548214D01*
X17212500Y-14548214D01*
X17183928Y-14562500D01*
X17169643Y-14576786D01*
X17155357Y-14605357D01*
X17155357Y-14676786D01*
X17169643Y-14705357D01*
X17183928Y-14719643D01*
X17212500Y-14733929D01*
X17269643Y-14733929D01*
X17298214Y-14719643D01*
X17312500Y-14705357D01*
X17326786Y-14676786D01*
X17498214Y-14676786D02*
X17469643Y-14662500D01*
X17455357Y-14648214D01*
X17441071Y-14619643D01*
X17441071Y-14605357D01*
X17455357Y-14576786D01*
X17469643Y-14562500D01*
X17498214Y-14548214D01*
X17555357Y-14548214D01*
X17583928Y-14562500D01*
X17598214Y-14576786D01*
X17612500Y-14605357D01*
X17612500Y-14619643D01*
X17598214Y-14648214D01*
X17583928Y-14662500D01*
X17555357Y-14676786D01*
X17498214Y-14676786D01*
X17469643Y-14691071D01*
X17455357Y-14705357D01*
X17441071Y-14733929D01*
X17441071Y-14791071D01*
X17455357Y-14819643D01*
X17469643Y-14833929D01*
X17498214Y-14848214D01*
X17555357Y-14848214D01*
X17583928Y-14833929D01*
X17598214Y-14819643D01*
X17612500Y-14791071D01*
X17612500Y-14733929D01*
X17598214Y-14705357D01*
X17583928Y-14691071D01*
X17555357Y-14676786D01*
X17726786Y-14548214D02*
X17726786Y-14605357D01*
X17841071Y-14548214D02*
X17841071Y-14605357D01*
X18283928Y-14962500D02*
X18269643Y-14948214D01*
X18241071Y-14905357D01*
X18226786Y-14876786D01*
X18212500Y-14833929D01*
X18198214Y-14762500D01*
X18198214Y-14705357D01*
X18212500Y-14633929D01*
X18226786Y-14591071D01*
X18241071Y-14562500D01*
X18269643Y-14519643D01*
X18283928Y-14505357D01*
X18555357Y-14848214D02*
X18383928Y-14848214D01*
X18469643Y-14848214D02*
X18469643Y-14548214D01*
X18441071Y-14591071D01*
X18412500Y-14619643D01*
X18383928Y-14633929D01*
X18912500Y-14848214D02*
X18912500Y-14548214D01*
X19041071Y-14848214D02*
X19041071Y-14691071D01*
X19026786Y-14662500D01*
X18998214Y-14648214D01*
X18955357Y-14648214D01*
X18926786Y-14662500D01*
X18912500Y-14676786D01*
X19226786Y-14848214D02*
X19198214Y-14833929D01*
X19183928Y-14819643D01*
X19169643Y-14791071D01*
X19169643Y-14705357D01*
X19183928Y-14676786D01*
X19198214Y-14662500D01*
X19226786Y-14648214D01*
X19269643Y-14648214D01*
X19298214Y-14662500D01*
X19312500Y-14676786D01*
X19326786Y-14705357D01*
X19326786Y-14791071D01*
X19312500Y-14819643D01*
X19298214Y-14833929D01*
X19269643Y-14848214D01*
X19226786Y-14848214D01*
X19498214Y-14848214D02*
X19469643Y-14833929D01*
X19455357Y-14805357D01*
X19455357Y-14548214D01*
X19726786Y-14833929D02*
X19698214Y-14848214D01*
X19641071Y-14848214D01*
X19612500Y-14833929D01*
X19598214Y-14805357D01*
X19598214Y-14691071D01*
X19612500Y-14662500D01*
X19641071Y-14648214D01*
X19698214Y-14648214D01*
X19726786Y-14662500D01*
X19741071Y-14691071D01*
X19741071Y-14719643D01*
X19598214Y-14748214D01*
X19841071Y-14962500D02*
X19855357Y-14948214D01*
X19883928Y-14905357D01*
X19898214Y-14876786D01*
X19912500Y-14833929D01*
X19926786Y-14762500D01*
X19926786Y-14705357D01*
X19912500Y-14633929D01*
X19898214Y-14591071D01*
X19883928Y-14562500D01*
X19855357Y-14519643D01*
X19841071Y-14505357D01*
X13328500Y-14974000D02*
X13597500Y-15243000D01*
X13597500Y-14974000D02*
X13328500Y-15243000D01*
X13463000Y-14974000D02*
X13463000Y-15243000D01*
X13328500Y-15108500D02*
X13597500Y-15108500D01*
X13869643Y-14972786D02*
X13883928Y-14958500D01*
X13912500Y-14944214D01*
X13983928Y-14944214D01*
X14012500Y-14958500D01*
X14026786Y-14972786D01*
X14041071Y-15001357D01*
X14041071Y-15029929D01*
X14026786Y-15072786D01*
X13855357Y-15244214D01*
X14041071Y-15244214D01*
X14169643Y-15215643D02*
X14183928Y-15229929D01*
X14169643Y-15244214D01*
X14155357Y-15229929D01*
X14169643Y-15215643D01*
X14169643Y-15244214D01*
X14441071Y-14944214D02*
X14383928Y-14944214D01*
X14355357Y-14958500D01*
X14341071Y-14972786D01*
X14312500Y-15015643D01*
X14298214Y-15072786D01*
X14298214Y-15187071D01*
X14312500Y-15215643D01*
X14326786Y-15229929D01*
X14355357Y-15244214D01*
X14412500Y-15244214D01*
X14441071Y-15229929D01*
X14455357Y-15215643D01*
X14469643Y-15187071D01*
X14469643Y-15115643D01*
X14455357Y-15087071D01*
X14441071Y-15072786D01*
X14412500Y-15058500D01*
X14355357Y-15058500D01*
X14326786Y-15072786D01*
X14312500Y-15087071D01*
X14298214Y-15115643D01*
X14612500Y-15244214D02*
X14669643Y-15244214D01*
X14698214Y-15229929D01*
X14712500Y-15215643D01*
X14741071Y-15172786D01*
X14755357Y-15115643D01*
X14755357Y-15001357D01*
X14741071Y-14972786D01*
X14726786Y-14958500D01*
X14698214Y-14944214D01*
X14641071Y-14944214D01*
X14612500Y-14958500D01*
X14598214Y-14972786D01*
X14583928Y-15001357D01*
X14583928Y-15072786D01*
X14598214Y-15101357D01*
X14612500Y-15115643D01*
X14641071Y-15129929D01*
X14698214Y-15129929D01*
X14726786Y-15115643D01*
X14741071Y-15101357D01*
X14755357Y-15072786D01*
X14883928Y-15244214D02*
X14883928Y-15044214D01*
X14883928Y-15072786D02*
X14898214Y-15058500D01*
X14926786Y-15044214D01*
X14969643Y-15044214D01*
X14998214Y-15058500D01*
X15012500Y-15087071D01*
X15012500Y-15244214D01*
X15012500Y-15087071D02*
X15026786Y-15058500D01*
X15055357Y-15044214D01*
X15098214Y-15044214D01*
X15126786Y-15058500D01*
X15141071Y-15087071D01*
X15141071Y-15244214D01*
X15283928Y-15244214D02*
X15283928Y-15044214D01*
X15283928Y-15072786D02*
X15298214Y-15058500D01*
X15326786Y-15044214D01*
X15369643Y-15044214D01*
X15398214Y-15058500D01*
X15412500Y-15087071D01*
X15412500Y-15244214D01*
X15412500Y-15087071D02*
X15426786Y-15058500D01*
X15455357Y-15044214D01*
X15498214Y-15044214D01*
X15526786Y-15058500D01*
X15541071Y-15087071D01*
X15541071Y-15244214D01*
X16126786Y-14929929D02*
X15869643Y-15315643D01*
X16512500Y-14944214D02*
X16541071Y-14944214D01*
X16569643Y-14958500D01*
X16583928Y-14972786D01*
X16598214Y-15001357D01*
X16612500Y-15058500D01*
X16612500Y-15129929D01*
X16598214Y-15187071D01*
X16583928Y-15215643D01*
X16569643Y-15229929D01*
X16541071Y-15244214D01*
X16512500Y-15244214D01*
X16483928Y-15229929D01*
X16469643Y-15215643D01*
X16455357Y-15187071D01*
X16441071Y-15129929D01*
X16441071Y-15058500D01*
X16455357Y-15001357D01*
X16469643Y-14972786D01*
X16483928Y-14958500D01*
X16512500Y-14944214D01*
X16741071Y-15215643D02*
X16755357Y-15229929D01*
X16741071Y-15244214D01*
X16726786Y-15229929D01*
X16741071Y-15215643D01*
X16741071Y-15244214D01*
X17041071Y-15244214D02*
X16869643Y-15244214D01*
X16955357Y-15244214D02*
X16955357Y-14944214D01*
X16926786Y-14987071D01*
X16898214Y-15015643D01*
X16869643Y-15029929D01*
X17226786Y-14944214D02*
X17255357Y-14944214D01*
X17283928Y-14958500D01*
X17298214Y-14972786D01*
X17312500Y-15001357D01*
X17326786Y-15058500D01*
X17326786Y-15129929D01*
X17312500Y-15187071D01*
X17298214Y-15215643D01*
X17283928Y-15229929D01*
X17255357Y-15244214D01*
X17226786Y-15244214D01*
X17198214Y-15229929D01*
X17183928Y-15215643D01*
X17169643Y-15187071D01*
X17155357Y-15129929D01*
X17155357Y-15058500D01*
X17169643Y-15001357D01*
X17183928Y-14972786D01*
X17198214Y-14958500D01*
X17226786Y-14944214D01*
X17583928Y-14944214D02*
X17526786Y-14944214D01*
X17498214Y-14958500D01*
X17483928Y-14972786D01*
X17455357Y-15015643D01*
X17441071Y-15072786D01*
X17441071Y-15187071D01*
X17455357Y-15215643D01*
X17469643Y-15229929D01*
X17498214Y-15244214D01*
X17555357Y-15244214D01*
X17583928Y-15229929D01*
X17598214Y-15215643D01*
X17612500Y-15187071D01*
X17612500Y-15115643D01*
X17598214Y-15087071D01*
X17583928Y-15072786D01*
X17555357Y-15058500D01*
X17498214Y-15058500D01*
X17469643Y-15072786D01*
X17455357Y-15087071D01*
X17441071Y-15115643D01*
X17726786Y-14944214D02*
X17726786Y-15001357D01*
X17841071Y-14944214D02*
X17841071Y-15001357D01*
X18283928Y-15358500D02*
X18269643Y-15344214D01*
X18241071Y-15301357D01*
X18226786Y-15272786D01*
X18212500Y-15229929D01*
X18198214Y-15158500D01*
X18198214Y-15101357D01*
X18212500Y-15029929D01*
X18226786Y-14987071D01*
X18241071Y-14958500D01*
X18269643Y-14915643D01*
X18283928Y-14901357D01*
X18383928Y-14972786D02*
X18398214Y-14958500D01*
X18426786Y-14944214D01*
X18498214Y-14944214D01*
X18526786Y-14958500D01*
X18541071Y-14972786D01*
X18555357Y-15001357D01*
X18555357Y-15029929D01*
X18541071Y-15072786D01*
X18369643Y-15244214D01*
X18555357Y-15244214D01*
X18912500Y-15244214D02*
X18912500Y-14944214D01*
X19041071Y-15244214D02*
X19041071Y-15087071D01*
X19026786Y-15058500D01*
X18998214Y-15044214D01*
X18955357Y-15044214D01*
X18926786Y-15058500D01*
X18912500Y-15072786D01*
X19226786Y-15244214D02*
X19198214Y-15229929D01*
X19183928Y-15215643D01*
X19169643Y-15187071D01*
X19169643Y-15101357D01*
X19183928Y-15072786D01*
X19198214Y-15058500D01*
X19226786Y-15044214D01*
X19269643Y-15044214D01*
X19298214Y-15058500D01*
X19312500Y-15072786D01*
X19326786Y-15101357D01*
X19326786Y-15187071D01*
X19312500Y-15215643D01*
X19298214Y-15229929D01*
X19269643Y-15244214D01*
X19226786Y-15244214D01*
X19498214Y-15244214D02*
X19469643Y-15229929D01*
X19455357Y-15201357D01*
X19455357Y-14944214D01*
X19726786Y-15229929D02*
X19698214Y-15244214D01*
X19641071Y-15244214D01*
X19612500Y-15229929D01*
X19598214Y-15201357D01*
X19598214Y-15087071D01*
X19612500Y-15058500D01*
X19641071Y-15044214D01*
X19698214Y-15044214D01*
X19726786Y-15058500D01*
X19741071Y-15087071D01*
X19741071Y-15115643D01*
X19598214Y-15144214D01*
X19855357Y-15229929D02*
X19883928Y-15244214D01*
X19941071Y-15244214D01*
X19969643Y-15229929D01*
X19983928Y-15201357D01*
X19983928Y-15187071D01*
X19969643Y-15158500D01*
X19941071Y-15144214D01*
X19898214Y-15144214D01*
X19869643Y-15129929D01*
X19855357Y-15101357D01*
X19855357Y-15087071D01*
X19869643Y-15058500D01*
X19898214Y-15044214D01*
X19941071Y-15044214D01*
X19969643Y-15058500D01*
X20083928Y-15358500D02*
X20098214Y-15344214D01*
X20126786Y-15301357D01*
X20141071Y-15272786D01*
X20155357Y-15229929D01*
X20169643Y-15158500D01*
X20169643Y-15101357D01*
X20155357Y-15029929D01*
X20141071Y-14987071D01*
X20126786Y-14958500D01*
X20098214Y-14915643D01*
X20083928Y-14901357D01*
X13315500Y-15366500D02*
X13597500Y-15648500D01*
X13597500Y-15366500D02*
X13315500Y-15648500D01*
X13556203Y-15607203D02*
X13556203Y-15407797D01*
X13356797Y-15407797D01*
X13356797Y-15607203D01*
X13556203Y-15607203D01*
X13869643Y-15371786D02*
X13883928Y-15357500D01*
X13912500Y-15343214D01*
X13983928Y-15343214D01*
X14012500Y-15357500D01*
X14026786Y-15371786D01*
X14041071Y-15400357D01*
X14041071Y-15428929D01*
X14026786Y-15471786D01*
X13855357Y-15643214D01*
X14041071Y-15643214D01*
X14169643Y-15614643D02*
X14183928Y-15628929D01*
X14169643Y-15643214D01*
X14155357Y-15628929D01*
X14169643Y-15614643D01*
X14169643Y-15643214D01*
X14355357Y-15471786D02*
X14326786Y-15457500D01*
X14312500Y-15443214D01*
X14298214Y-15414643D01*
X14298214Y-15400357D01*
X14312500Y-15371786D01*
X14326786Y-15357500D01*
X14355357Y-15343214D01*
X14412500Y-15343214D01*
X14441071Y-15357500D01*
X14455357Y-15371786D01*
X14469643Y-15400357D01*
X14469643Y-15414643D01*
X14455357Y-15443214D01*
X14441071Y-15457500D01*
X14412500Y-15471786D01*
X14355357Y-15471786D01*
X14326786Y-15486071D01*
X14312500Y-15500357D01*
X14298214Y-15528929D01*
X14298214Y-15586071D01*
X14312500Y-15614643D01*
X14326786Y-15628929D01*
X14355357Y-15643214D01*
X14412500Y-15643214D01*
X14441071Y-15628929D01*
X14455357Y-15614643D01*
X14469643Y-15586071D01*
X14469643Y-15528929D01*
X14455357Y-15500357D01*
X14441071Y-15486071D01*
X14412500Y-15471786D01*
X14583928Y-15371786D02*
X14598214Y-15357500D01*
X14626786Y-15343214D01*
X14698214Y-15343214D01*
X14726786Y-15357500D01*
X14741071Y-15371786D01*
X14755357Y-15400357D01*
X14755357Y-15428929D01*
X14741071Y-15471786D01*
X14569643Y-15643214D01*
X14755357Y-15643214D01*
X14883928Y-15643214D02*
X14883928Y-15443214D01*
X14883928Y-15471786D02*
X14898214Y-15457500D01*
X14926786Y-15443214D01*
X14969643Y-15443214D01*
X14998214Y-15457500D01*
X15012500Y-15486071D01*
X15012500Y-15643214D01*
X15012500Y-15486071D02*
X15026786Y-15457500D01*
X15055357Y-15443214D01*
X15098214Y-15443214D01*
X15126786Y-15457500D01*
X15141071Y-15486071D01*
X15141071Y-15643214D01*
X15283928Y-15643214D02*
X15283928Y-15443214D01*
X15283928Y-15471786D02*
X15298214Y-15457500D01*
X15326786Y-15443214D01*
X15369643Y-15443214D01*
X15398214Y-15457500D01*
X15412500Y-15486071D01*
X15412500Y-15643214D01*
X15412500Y-15486071D02*
X15426786Y-15457500D01*
X15455357Y-15443214D01*
X15498214Y-15443214D01*
X15526786Y-15457500D01*
X15541071Y-15486071D01*
X15541071Y-15643214D01*
X16126786Y-15328929D02*
X15869643Y-15714643D01*
X16512500Y-15343214D02*
X16541071Y-15343214D01*
X16569643Y-15357500D01*
X16583928Y-15371786D01*
X16598214Y-15400357D01*
X16612500Y-15457500D01*
X16612500Y-15528929D01*
X16598214Y-15586071D01*
X16583928Y-15614643D01*
X16569643Y-15628929D01*
X16541071Y-15643214D01*
X16512500Y-15643214D01*
X16483928Y-15628929D01*
X16469643Y-15614643D01*
X16455357Y-15586071D01*
X16441071Y-15528929D01*
X16441071Y-15457500D01*
X16455357Y-15400357D01*
X16469643Y-15371786D01*
X16483928Y-15357500D01*
X16512500Y-15343214D01*
X16741071Y-15614643D02*
X16755357Y-15628929D01*
X16741071Y-15643214D01*
X16726786Y-15628929D01*
X16741071Y-15614643D01*
X16741071Y-15643214D01*
X17041071Y-15643214D02*
X16869643Y-15643214D01*
X16955357Y-15643214D02*
X16955357Y-15343214D01*
X16926786Y-15386071D01*
X16898214Y-15414643D01*
X16869643Y-15428929D01*
X17326786Y-15643214D02*
X17155357Y-15643214D01*
X17241071Y-15643214D02*
X17241071Y-15343214D01*
X17212500Y-15386071D01*
X17183928Y-15414643D01*
X17155357Y-15428929D01*
X17612500Y-15643214D02*
X17441071Y-15643214D01*
X17526786Y-15643214D02*
X17526786Y-15343214D01*
X17498214Y-15386071D01*
X17469643Y-15414643D01*
X17441071Y-15428929D01*
X17726786Y-15343214D02*
X17726786Y-15400357D01*
X17841071Y-15343214D02*
X17841071Y-15400357D01*
X18283928Y-15757500D02*
X18269643Y-15743214D01*
X18241071Y-15700357D01*
X18226786Y-15671786D01*
X18212500Y-15628929D01*
X18198214Y-15557500D01*
X18198214Y-15500357D01*
X18212500Y-15428929D01*
X18226786Y-15386071D01*
X18241071Y-15357500D01*
X18269643Y-15314643D01*
X18283928Y-15300357D01*
X18383928Y-15371786D02*
X18398214Y-15357500D01*
X18426786Y-15343214D01*
X18498214Y-15343214D01*
X18526786Y-15357500D01*
X18541071Y-15371786D01*
X18555357Y-15400357D01*
X18555357Y-15428929D01*
X18541071Y-15471786D01*
X18369643Y-15643214D01*
X18555357Y-15643214D01*
X18912500Y-15643214D02*
X18912500Y-15343214D01*
X19041071Y-15643214D02*
X19041071Y-15486071D01*
X19026786Y-15457500D01*
X18998214Y-15443214D01*
X18955357Y-15443214D01*
X18926786Y-15457500D01*
X18912500Y-15471786D01*
X19226786Y-15643214D02*
X19198214Y-15628929D01*
X19183928Y-15614643D01*
X19169643Y-15586071D01*
X19169643Y-15500357D01*
X19183928Y-15471786D01*
X19198214Y-15457500D01*
X19226786Y-15443214D01*
X19269643Y-15443214D01*
X19298214Y-15457500D01*
X19312500Y-15471786D01*
X19326786Y-15500357D01*
X19326786Y-15586071D01*
X19312500Y-15614643D01*
X19298214Y-15628929D01*
X19269643Y-15643214D01*
X19226786Y-15643214D01*
X19498214Y-15643214D02*
X19469643Y-15628929D01*
X19455357Y-15600357D01*
X19455357Y-15343214D01*
X19726786Y-15628929D02*
X19698214Y-15643214D01*
X19641071Y-15643214D01*
X19612500Y-15628929D01*
X19598214Y-15600357D01*
X19598214Y-15486071D01*
X19612500Y-15457500D01*
X19641071Y-15443214D01*
X19698214Y-15443214D01*
X19726786Y-15457500D01*
X19741071Y-15486071D01*
X19741071Y-15514643D01*
X19598214Y-15543214D01*
X19855357Y-15628929D02*
X19883928Y-15643214D01*
X19941071Y-15643214D01*
X19969643Y-15628929D01*
X19983928Y-15600357D01*
X19983928Y-15586071D01*
X19969643Y-15557500D01*
X19941071Y-15543214D01*
X19898214Y-15543214D01*
X19869643Y-15528929D01*
X19855357Y-15500357D01*
X19855357Y-15486071D01*
X19869643Y-15457500D01*
X19898214Y-15443214D01*
X19941071Y-15443214D01*
X19969643Y-15457500D01*
X20083928Y-15757500D02*
X20098214Y-15743214D01*
X20126786Y-15700357D01*
X20141071Y-15671786D01*
X20155357Y-15628929D01*
X20169643Y-15557500D01*
X20169643Y-15500357D01*
X20155357Y-15428929D01*
X20141071Y-15386071D01*
X20126786Y-15357500D01*
X20098214Y-15314643D01*
X20083928Y-15300357D01*
X13277500Y-15759500D02*
X13597500Y-16079500D01*
X13597500Y-15759500D02*
X13277500Y-16079500D01*
X13437500Y-16079500D02*
X13597500Y-15919500D01*
X13437500Y-15759500D01*
X13277500Y-15919500D01*
X13437500Y-16079500D01*
X13855357Y-15755214D02*
X14041071Y-15755214D01*
X13941071Y-15869500D01*
X13983928Y-15869500D01*
X14012500Y-15883786D01*
X14026786Y-15898071D01*
X14041071Y-15926643D01*
X14041071Y-15998071D01*
X14026786Y-16026643D01*
X14012500Y-16040929D01*
X13983928Y-16055214D01*
X13898214Y-16055214D01*
X13869643Y-16040929D01*
X13855357Y-16026643D01*
X14169643Y-16026643D02*
X14183928Y-16040929D01*
X14169643Y-16055214D01*
X14155357Y-16040929D01*
X14169643Y-16026643D01*
X14169643Y-16055214D01*
X14298214Y-15783786D02*
X14312500Y-15769500D01*
X14341071Y-15755214D01*
X14412500Y-15755214D01*
X14441071Y-15769500D01*
X14455357Y-15783786D01*
X14469643Y-15812357D01*
X14469643Y-15840929D01*
X14455357Y-15883786D01*
X14283928Y-16055214D01*
X14469643Y-16055214D01*
X14655357Y-15755214D02*
X14683928Y-15755214D01*
X14712500Y-15769500D01*
X14726786Y-15783786D01*
X14741071Y-15812357D01*
X14755357Y-15869500D01*
X14755357Y-15940929D01*
X14741071Y-15998071D01*
X14726786Y-16026643D01*
X14712500Y-16040929D01*
X14683928Y-16055214D01*
X14655357Y-16055214D01*
X14626786Y-16040929D01*
X14612500Y-16026643D01*
X14598214Y-15998071D01*
X14583928Y-15940929D01*
X14583928Y-15869500D01*
X14598214Y-15812357D01*
X14612500Y-15783786D01*
X14626786Y-15769500D01*
X14655357Y-15755214D01*
X14883928Y-16055214D02*
X14883928Y-15855214D01*
X14883928Y-15883786D02*
X14898214Y-15869500D01*
X14926786Y-15855214D01*
X14969643Y-15855214D01*
X14998214Y-15869500D01*
X15012500Y-15898071D01*
X15012500Y-16055214D01*
X15012500Y-15898071D02*
X15026786Y-15869500D01*
X15055357Y-15855214D01*
X15098214Y-15855214D01*
X15126786Y-15869500D01*
X15141071Y-15898071D01*
X15141071Y-16055214D01*
X15283928Y-16055214D02*
X15283928Y-15855214D01*
X15283928Y-15883786D02*
X15298214Y-15869500D01*
X15326786Y-15855214D01*
X15369643Y-15855214D01*
X15398214Y-15869500D01*
X15412500Y-15898071D01*
X15412500Y-16055214D01*
X15412500Y-15898071D02*
X15426786Y-15869500D01*
X15455357Y-15855214D01*
X15498214Y-15855214D01*
X15526786Y-15869500D01*
X15541071Y-15898071D01*
X15541071Y-16055214D01*
X16126786Y-15740929D02*
X15869643Y-16126643D01*
X16512500Y-15755214D02*
X16541071Y-15755214D01*
X16569643Y-15769500D01*
X16583928Y-15783786D01*
X16598214Y-15812357D01*
X16612500Y-15869500D01*
X16612500Y-15940929D01*
X16598214Y-15998071D01*
X16583928Y-16026643D01*
X16569643Y-16040929D01*
X16541071Y-16055214D01*
X16512500Y-16055214D01*
X16483928Y-16040929D01*
X16469643Y-16026643D01*
X16455357Y-15998071D01*
X16441071Y-15940929D01*
X16441071Y-15869500D01*
X16455357Y-15812357D01*
X16469643Y-15783786D01*
X16483928Y-15769500D01*
X16512500Y-15755214D01*
X16741071Y-16026643D02*
X16755357Y-16040929D01*
X16741071Y-16055214D01*
X16726786Y-16040929D01*
X16741071Y-16026643D01*
X16741071Y-16055214D01*
X17041071Y-16055214D02*
X16869643Y-16055214D01*
X16955357Y-16055214D02*
X16955357Y-15755214D01*
X16926786Y-15798071D01*
X16898214Y-15826643D01*
X16869643Y-15840929D01*
X17155357Y-15783786D02*
X17169643Y-15769500D01*
X17198214Y-15755214D01*
X17269643Y-15755214D01*
X17298214Y-15769500D01*
X17312500Y-15783786D01*
X17326786Y-15812357D01*
X17326786Y-15840929D01*
X17312500Y-15883786D01*
X17141071Y-16055214D01*
X17326786Y-16055214D01*
X17583928Y-15755214D02*
X17526786Y-15755214D01*
X17498214Y-15769500D01*
X17483928Y-15783786D01*
X17455357Y-15826643D01*
X17441071Y-15883786D01*
X17441071Y-15998071D01*
X17455357Y-16026643D01*
X17469643Y-16040929D01*
X17498214Y-16055214D01*
X17555357Y-16055214D01*
X17583928Y-16040929D01*
X17598214Y-16026643D01*
X17612500Y-15998071D01*
X17612500Y-15926643D01*
X17598214Y-15898071D01*
X17583928Y-15883786D01*
X17555357Y-15869500D01*
X17498214Y-15869500D01*
X17469643Y-15883786D01*
X17455357Y-15898071D01*
X17441071Y-15926643D01*
X17726786Y-15755214D02*
X17726786Y-15812357D01*
X17841071Y-15755214D02*
X17841071Y-15812357D01*
X18283928Y-16169500D02*
X18269643Y-16155214D01*
X18241071Y-16112357D01*
X18226786Y-16083786D01*
X18212500Y-16040929D01*
X18198214Y-15969500D01*
X18198214Y-15912357D01*
X18212500Y-15840929D01*
X18226786Y-15798071D01*
X18241071Y-15769500D01*
X18269643Y-15726643D01*
X18283928Y-15712357D01*
X18383928Y-15783786D02*
X18398214Y-15769500D01*
X18426786Y-15755214D01*
X18498214Y-15755214D01*
X18526786Y-15769500D01*
X18541071Y-15783786D01*
X18555357Y-15812357D01*
X18555357Y-15840929D01*
X18541071Y-15883786D01*
X18369643Y-16055214D01*
X18555357Y-16055214D01*
X18912500Y-16055214D02*
X18912500Y-15755214D01*
X19041071Y-16055214D02*
X19041071Y-15898071D01*
X19026786Y-15869500D01*
X18998214Y-15855214D01*
X18955357Y-15855214D01*
X18926786Y-15869500D01*
X18912500Y-15883786D01*
X19226786Y-16055214D02*
X19198214Y-16040929D01*
X19183928Y-16026643D01*
X19169643Y-15998071D01*
X19169643Y-15912357D01*
X19183928Y-15883786D01*
X19198214Y-15869500D01*
X19226786Y-15855214D01*
X19269643Y-15855214D01*
X19298214Y-15869500D01*
X19312500Y-15883786D01*
X19326786Y-15912357D01*
X19326786Y-15998071D01*
X19312500Y-16026643D01*
X19298214Y-16040929D01*
X19269643Y-16055214D01*
X19226786Y-16055214D01*
X19498214Y-16055214D02*
X19469643Y-16040929D01*
X19455357Y-16012357D01*
X19455357Y-15755214D01*
X19726786Y-16040929D02*
X19698214Y-16055214D01*
X19641071Y-16055214D01*
X19612500Y-16040929D01*
X19598214Y-16012357D01*
X19598214Y-15898071D01*
X19612500Y-15869500D01*
X19641071Y-15855214D01*
X19698214Y-15855214D01*
X19726786Y-15869500D01*
X19741071Y-15898071D01*
X19741071Y-15926643D01*
X19598214Y-15955214D01*
X19855357Y-16040929D02*
X19883928Y-16055214D01*
X19941071Y-16055214D01*
X19969643Y-16040929D01*
X19983928Y-16012357D01*
X19983928Y-15998071D01*
X19969643Y-15969500D01*
X19941071Y-15955214D01*
X19898214Y-15955214D01*
X19869643Y-15940929D01*
X19855357Y-15912357D01*
X19855357Y-15898071D01*
X19869643Y-15869500D01*
X19898214Y-15855214D01*
X19941071Y-15855214D01*
X19969643Y-15869500D01*
X20083928Y-16169500D02*
X20098214Y-16155214D01*
X20126786Y-16112357D01*
X20141071Y-16083786D01*
X20155357Y-16040929D01*
X20169643Y-15969500D01*
X20169643Y-15912357D01*
X20155357Y-15840929D01*
X20141071Y-15798071D01*
X20126786Y-15769500D01*
X20098214Y-15726643D01*
X20083928Y-15712357D01*
M02*
