%TF.GenerationSoftware,KiCad,Pcbnew,(5.1.6)-1*%
%TF.CreationDate,2023-01-27T11:01:23-05:00*%
%TF.ProjectId,Amiga-Stereo-Digitizer,416d6967-612d-4537-9465-72656f2d4469,rev?*%
%TF.SameCoordinates,Original*%
%TF.FileFunction,Copper,L2,Bot*%
%TF.FilePolarity,Positive*%
%FSLAX46Y46*%
G04 Gerber Fmt 4.6, Leading zero omitted, Abs format (unit mm)*
G04 Created by KiCad (PCBNEW (5.1.6)-1) date 2023-01-27 11:01:23*
%MOMM*%
%LPD*%
G01*
G04 APERTURE LIST*
%TA.AperFunction,ComponentPad*%
%ADD10C,5.000000*%
%TD*%
%TA.AperFunction,ComponentPad*%
%ADD11R,1.500000X1.500000*%
%TD*%
%TA.AperFunction,ComponentPad*%
%ADD12C,1.500000*%
%TD*%
%TA.AperFunction,ComponentPad*%
%ADD13C,4.800000*%
%TD*%
%TA.AperFunction,ComponentPad*%
%ADD14R,1.700000X1.700000*%
%TD*%
%TA.AperFunction,ComponentPad*%
%ADD15O,1.700000X1.700000*%
%TD*%
%TA.AperFunction,ComponentPad*%
%ADD16C,4.230000*%
%TD*%
%TA.AperFunction,ComponentPad*%
%ADD17C,4.035000*%
%TD*%
%TA.AperFunction,ComponentPad*%
%ADD18C,3.720000*%
%TD*%
%TA.AperFunction,ComponentPad*%
%ADD19C,1.200000*%
%TD*%
%TA.AperFunction,ViaPad*%
%ADD20C,0.800000*%
%TD*%
%TA.AperFunction,Conductor*%
%ADD21C,0.250000*%
%TD*%
%TA.AperFunction,Conductor*%
%ADD22C,0.500000*%
%TD*%
%TA.AperFunction,Conductor*%
%ADD23C,0.254000*%
%TD*%
G04 APERTURE END LIST*
D10*
%TO.P,REF\u002A\u002A,1*%
%TO.N,N/C*%
X144018000Y-90652600D03*
%TD*%
D11*
%TO.P,J0,1*%
%TO.N,STROBE*%
X194500000Y-107800000D03*
D12*
%TO.P,J0,2*%
%TO.N,D0*%
X194500000Y-105030000D03*
%TO.P,J0,3*%
%TO.N,D1*%
X194500000Y-102260000D03*
%TO.P,J0,4*%
%TO.N,D2*%
X194500000Y-99490000D03*
%TO.P,J0,5*%
%TO.N,D3*%
X194500000Y-96720000D03*
%TO.P,J0,6*%
%TO.N,D4*%
X194500000Y-93950000D03*
%TO.P,J0,7*%
%TO.N,D5*%
X194500000Y-91180000D03*
%TO.P,J0,8*%
%TO.N,D6*%
X194500000Y-88410000D03*
%TO.P,J0,9*%
%TO.N,D7*%
X194500000Y-85640000D03*
%TO.P,J0,10*%
%TO.N,Net-(J0-Pad10)*%
X194500000Y-82870000D03*
%TO.P,J0,11*%
%TO.N,BUSY*%
X194500000Y-80100000D03*
%TO.P,J0,12*%
%TO.N,POUT*%
X194500000Y-77330000D03*
%TO.P,J0,13*%
%TO.N,SEL*%
X194500000Y-74560000D03*
%TO.P,J0,14*%
%TO.N,VCC*%
X197040000Y-106415000D03*
%TO.P,J0,15*%
%TO.N,Net-(J0-Pad15)*%
X197040000Y-103645000D03*
%TO.P,J0,16*%
%TO.N,Net-(J0-Pad16)*%
X197040000Y-100875000D03*
%TO.P,J0,17*%
%TO.N,Net-(J0-Pad17)*%
X197040000Y-98105000D03*
%TO.P,J0,18*%
%TO.N,GND*%
X197040000Y-95335000D03*
%TO.P,J0,19*%
X197040000Y-92565000D03*
%TO.P,J0,20*%
X197040000Y-89795000D03*
%TO.P,J0,21*%
X197040000Y-87025000D03*
%TO.P,J0,22*%
X197040000Y-84255000D03*
%TO.P,J0,23*%
X197040000Y-81485000D03*
%TO.P,J0,24*%
X197040000Y-78715000D03*
%TO.P,J0,25*%
X197040000Y-75945000D03*
D13*
%TO.P,J0,MH1*%
X195770000Y-114700000D03*
%TO.P,J0,MH2*%
X195770000Y-67660000D03*
%TD*%
D14*
%TO.P,J1,1*%
%TO.N,STROBE*%
X188300000Y-83500000D03*
D15*
%TO.P,J1,2*%
%TO.N,SELECT*%
X188300000Y-80960000D03*
%TO.P,J1,3*%
%TO.N,BUSY*%
X188300000Y-78420000D03*
%TD*%
D16*
%TO.P,J2,1*%
%TO.N,GND*%
X141500000Y-101500000D03*
D17*
%TO.P,J2,2*%
%TO.N,Net-(C2-Pad2)*%
X146000000Y-101500000D03*
D18*
%TO.P,J2,MH1*%
%TO.N,GND*%
X138350000Y-105750000D03*
%TO.P,J2,MH2*%
X138350000Y-97250000D03*
%TD*%
D16*
%TO.P,J3,1*%
%TO.N,GND*%
X141500000Y-80100000D03*
D17*
%TO.P,J3,2*%
%TO.N,Net-(C4-Pad2)*%
X146000000Y-80100000D03*
D18*
%TO.P,J3,MH1*%
%TO.N,GND*%
X138350000Y-84350000D03*
%TO.P,J3,MH2*%
X138350000Y-75850000D03*
%TD*%
D19*
%TO.P,VR1,3*%
%TO.N,IN2*%
X173440000Y-75700000D03*
%TO.P,VR1,2*%
%TO.N,Net-(R12-Pad1)*%
X170900000Y-75700000D03*
%TO.P,VR1,1*%
X168360000Y-75700000D03*
%TD*%
%TO.P,VR2,1*%
%TO.N,Net-(R5-Pad1)*%
X160460000Y-98700000D03*
%TO.P,VR2,2*%
X163000000Y-98700000D03*
%TO.P,VR2,3*%
%TO.N,IN1*%
X165540000Y-98700000D03*
%TD*%
D20*
%TO.N,GND*%
X178800000Y-89800000D03*
X177600000Y-89800000D03*
X176300000Y-89800000D03*
X187300000Y-95100000D03*
X172900000Y-93100000D03*
X178400000Y-104100000D03*
X181300000Y-104100000D03*
X168000000Y-109300000D03*
X155100000Y-104900000D03*
X183910000Y-89809998D03*
X159800000Y-93200000D03*
X168600000Y-93200000D03*
X164200000Y-93200000D03*
X159800000Y-79600000D03*
X192400000Y-100800000D03*
X162400000Y-110200000D03*
X165300000Y-107500000D03*
X164700000Y-85100000D03*
%TO.N,VCC*%
X169700000Y-104200000D03*
X169700000Y-111700000D03*
X174700000Y-102200000D03*
X170500000Y-83300000D03*
X165100000Y-76400000D03*
X170500000Y-94000000D03*
%TO.N,OE*%
X180100000Y-83500000D03*
X172700000Y-98200000D03*
%TO.N,SEL*%
X190700000Y-71200000D03*
%TO.N,POUT*%
X190700000Y-73200000D03*
%TO.N,IN1*%
X165512000Y-86512000D03*
%TO.N,ALE*%
X181500000Y-83500000D03*
X191375000Y-92389847D03*
%TO.N,D3*%
X176700000Y-96900000D03*
%TO.N,D2*%
X180100000Y-100300000D03*
%TO.N,D1*%
X178800000Y-100300000D03*
%TO.N,Net-(R3-Pad2)*%
X160600000Y-88200000D03*
X158500000Y-87900000D03*
%TO.N,Net-(R5-Pad1)*%
X162300000Y-84800000D03*
%TO.N,Net-(R10-Pad2)*%
X164518558Y-82481442D03*
X158500000Y-82500000D03*
%TD*%
D21*
%TO.N,VCC*%
X169700000Y-104200000D02*
X169700000Y-111700000D01*
D22*
X174700000Y-102200000D02*
X171849999Y-99349999D01*
X171849999Y-99349999D02*
X170500000Y-98000000D01*
X170500000Y-83300000D02*
X170500000Y-81800000D01*
X170500000Y-81800000D02*
X165100000Y-76400000D01*
X170500000Y-98000000D02*
X170500000Y-94000000D01*
X170500000Y-94000000D02*
X170500000Y-83300000D01*
D21*
%TO.N,OE*%
X180100000Y-83500000D02*
X180100000Y-90800000D01*
X180100000Y-90800000D02*
X172700000Y-98200000D01*
%TO.N,SEL*%
X194060000Y-74560000D02*
X194500000Y-74560000D01*
X190700000Y-71200000D02*
X194060000Y-74560000D01*
%TO.N,POUT*%
X194500000Y-77000000D02*
X194500000Y-77330000D01*
X190700000Y-73200000D02*
X194500000Y-77000000D01*
%TO.N,IN1*%
X165540000Y-86540000D02*
X165512000Y-86512000D01*
X165540000Y-98700000D02*
X165540000Y-86540000D01*
%TO.N,ALE*%
X181500000Y-83500000D02*
X182485153Y-83500000D01*
X182485153Y-83500000D02*
X191375000Y-92389847D01*
%TO.N,D3*%
X194500000Y-96720000D02*
X176880000Y-96720000D01*
X176880000Y-96720000D02*
X176700000Y-96900000D01*
%TO.N,D2*%
X194500000Y-99490000D02*
X180910000Y-99490000D01*
X180910000Y-99490000D02*
X180100000Y-100300000D01*
%TO.N,D1*%
X194500000Y-102260000D02*
X180760000Y-102260000D01*
X180760000Y-102260000D02*
X178800000Y-100300000D01*
%TO.N,STROBE*%
X189000000Y-84200000D02*
X188300000Y-83500000D01*
X195800000Y-85000000D02*
X195000000Y-84200000D01*
X194500000Y-107800000D02*
X195800000Y-106500000D01*
X195000000Y-84200000D02*
X189000000Y-84200000D01*
X195800000Y-106500000D02*
X195800000Y-85000000D01*
%TO.N,BUSY*%
X192820000Y-78420000D02*
X194500000Y-80100000D01*
X188300000Y-78420000D02*
X192820000Y-78420000D01*
%TO.N,Net-(R3-Pad2)*%
X160600000Y-88200000D02*
X158800000Y-88200000D01*
X158800000Y-88200000D02*
X158500000Y-87900000D01*
%TO.N,Net-(R5-Pad1)*%
X163000000Y-98700000D02*
X163000000Y-85500000D01*
X163000000Y-85500000D02*
X162300000Y-84800000D01*
%TO.N,Net-(R10-Pad2)*%
X164518558Y-82481442D02*
X158518558Y-82481442D01*
X158518558Y-82481442D02*
X158500000Y-82500000D01*
%TD*%
D23*
%TO.N,GND*%
G36*
X194204705Y-65289492D02*
G01*
X193928709Y-65639104D01*
X195770000Y-67480395D01*
X197611291Y-65639104D01*
X197335295Y-65289492D01*
X196885091Y-65052000D01*
X206948000Y-65052000D01*
X206948001Y-117248000D01*
X197003229Y-117248000D01*
X197335295Y-117070508D01*
X197611291Y-116720896D01*
X195770000Y-114879605D01*
X193928709Y-116720896D01*
X194204705Y-117070508D01*
X194541170Y-117248000D01*
X136452000Y-117248000D01*
X136452000Y-114715488D01*
X192929364Y-114715488D01*
X192986968Y-115269371D01*
X193151522Y-115801373D01*
X193399492Y-116265295D01*
X193749104Y-116541291D01*
X195590395Y-114700000D01*
X195949605Y-114700000D01*
X197790896Y-116541291D01*
X198140508Y-116265295D01*
X198400333Y-115772755D01*
X198559076Y-115238990D01*
X198610636Y-114684512D01*
X198553032Y-114130629D01*
X198388478Y-113598627D01*
X198140508Y-113134705D01*
X197790896Y-112858709D01*
X195949605Y-114700000D01*
X195590395Y-114700000D01*
X193749104Y-112858709D01*
X193399492Y-113134705D01*
X193139667Y-113627245D01*
X192980924Y-114161010D01*
X192929364Y-114715488D01*
X136452000Y-114715488D01*
X136452000Y-112679104D01*
X193928709Y-112679104D01*
X195770000Y-114520395D01*
X197611291Y-112679104D01*
X197335295Y-112329492D01*
X196842755Y-112069667D01*
X196308990Y-111910924D01*
X195754512Y-111859364D01*
X195200629Y-111916968D01*
X194668627Y-112081522D01*
X194204705Y-112329492D01*
X193928709Y-112679104D01*
X136452000Y-112679104D01*
X136452000Y-107386693D01*
X136892912Y-107386693D01*
X137104040Y-107680982D01*
X137504697Y-107886954D01*
X137937838Y-108010804D01*
X138386819Y-108047772D01*
X138834384Y-107996438D01*
X139263335Y-107858774D01*
X139595960Y-107680982D01*
X139807088Y-107386693D01*
X138350000Y-105929605D01*
X136892912Y-107386693D01*
X136452000Y-107386693D01*
X136452000Y-107019622D01*
X136713307Y-107207088D01*
X138170395Y-105750000D01*
X138529605Y-105750000D01*
X139986693Y-107207088D01*
X140280982Y-106995960D01*
X140486954Y-106595303D01*
X140610804Y-106162162D01*
X140647772Y-105713181D01*
X140596438Y-105265616D01*
X140458774Y-104836665D01*
X140280982Y-104504040D01*
X139986693Y-104292912D01*
X138529605Y-105750000D01*
X138170395Y-105750000D01*
X136713307Y-104292912D01*
X136452000Y-104480378D01*
X136452000Y-104113307D01*
X136892912Y-104113307D01*
X138350000Y-105570395D01*
X139801847Y-104118548D01*
X168873000Y-104118548D01*
X168873000Y-104281452D01*
X168904782Y-104441227D01*
X168967123Y-104591731D01*
X169057628Y-104727181D01*
X169148000Y-104817553D01*
X169148001Y-111082446D01*
X169057628Y-111172819D01*
X168967123Y-111308269D01*
X168904782Y-111458773D01*
X168873000Y-111618548D01*
X168873000Y-111781452D01*
X168904782Y-111941227D01*
X168967123Y-112091731D01*
X169057628Y-112227181D01*
X169172819Y-112342372D01*
X169308269Y-112432877D01*
X169458773Y-112495218D01*
X169618548Y-112527000D01*
X169781452Y-112527000D01*
X169941227Y-112495218D01*
X170091731Y-112432877D01*
X170227181Y-112342372D01*
X170342372Y-112227181D01*
X170432877Y-112091731D01*
X170495218Y-111941227D01*
X170527000Y-111781452D01*
X170527000Y-111618548D01*
X170495218Y-111458773D01*
X170432877Y-111308269D01*
X170342372Y-111172819D01*
X170252000Y-111082447D01*
X170252000Y-104817553D01*
X170342372Y-104727181D01*
X170432877Y-104591731D01*
X170495218Y-104441227D01*
X170527000Y-104281452D01*
X170527000Y-104118548D01*
X170495218Y-103958773D01*
X170432877Y-103808269D01*
X170342372Y-103672819D01*
X170227181Y-103557628D01*
X170091731Y-103467123D01*
X169941227Y-103404782D01*
X169781452Y-103373000D01*
X169618548Y-103373000D01*
X169458773Y-103404782D01*
X169308269Y-103467123D01*
X169172819Y-103557628D01*
X169057628Y-103672819D01*
X168967123Y-103808269D01*
X168904782Y-103958773D01*
X168873000Y-104118548D01*
X139801847Y-104118548D01*
X139807088Y-104113307D01*
X139595960Y-103819018D01*
X139195303Y-103613046D01*
X138762162Y-103489196D01*
X138313181Y-103452228D01*
X137865616Y-103503562D01*
X137436665Y-103641226D01*
X137104040Y-103819018D01*
X136892912Y-104113307D01*
X136452000Y-104113307D01*
X136452000Y-103318150D01*
X139861455Y-103318150D01*
X140103222Y-103638565D01*
X140547275Y-103869971D01*
X141027940Y-104010300D01*
X141526745Y-104054159D01*
X142024523Y-103999864D01*
X142502144Y-103849501D01*
X142896778Y-103638565D01*
X143138545Y-103318150D01*
X141500000Y-101679605D01*
X139861455Y-103318150D01*
X136452000Y-103318150D01*
X136452000Y-101526745D01*
X138945841Y-101526745D01*
X139000136Y-102024523D01*
X139150499Y-102502144D01*
X139361435Y-102896778D01*
X139681850Y-103138545D01*
X141320395Y-101500000D01*
X141679605Y-101500000D01*
X143318150Y-103138545D01*
X143638565Y-102896778D01*
X143802418Y-102582355D01*
X143833712Y-102657905D01*
X144101233Y-103058278D01*
X144441722Y-103398767D01*
X144842095Y-103666288D01*
X145286966Y-103850559D01*
X145759238Y-103944500D01*
X146240762Y-103944500D01*
X146713034Y-103850559D01*
X147157905Y-103666288D01*
X147558278Y-103398767D01*
X147898767Y-103058278D01*
X148166288Y-102657905D01*
X148350559Y-102213034D01*
X148444500Y-101740762D01*
X148444500Y-101259238D01*
X148350559Y-100786966D01*
X148166288Y-100342095D01*
X147898767Y-99941722D01*
X147558278Y-99601233D01*
X147157905Y-99333712D01*
X146713034Y-99149441D01*
X146240762Y-99055500D01*
X145759238Y-99055500D01*
X145286966Y-99149441D01*
X144842095Y-99333712D01*
X144441722Y-99601233D01*
X144101233Y-99941722D01*
X143833712Y-100342095D01*
X143804256Y-100413208D01*
X143638565Y-100103222D01*
X143318150Y-99861455D01*
X141679605Y-101500000D01*
X141320395Y-101500000D01*
X139681850Y-99861455D01*
X139361435Y-100103222D01*
X139130029Y-100547275D01*
X138989700Y-101027940D01*
X138945841Y-101526745D01*
X136452000Y-101526745D01*
X136452000Y-99681850D01*
X139861455Y-99681850D01*
X141500000Y-101320395D01*
X143138545Y-99681850D01*
X142896778Y-99361435D01*
X142452725Y-99130029D01*
X141972060Y-98989700D01*
X141473255Y-98945841D01*
X140975477Y-99000136D01*
X140497856Y-99150499D01*
X140103222Y-99361435D01*
X139861455Y-99681850D01*
X136452000Y-99681850D01*
X136452000Y-98886693D01*
X136892912Y-98886693D01*
X137104040Y-99180982D01*
X137504697Y-99386954D01*
X137937838Y-99510804D01*
X138386819Y-99547772D01*
X138834384Y-99496438D01*
X139263335Y-99358774D01*
X139595960Y-99180982D01*
X139807088Y-98886693D01*
X138350000Y-97429605D01*
X136892912Y-98886693D01*
X136452000Y-98886693D01*
X136452000Y-98519622D01*
X136713307Y-98707088D01*
X138170395Y-97250000D01*
X138529605Y-97250000D01*
X139986693Y-98707088D01*
X140137566Y-98598849D01*
X159433000Y-98598849D01*
X159433000Y-98801151D01*
X159472467Y-98999565D01*
X159549885Y-99186467D01*
X159662277Y-99354674D01*
X159805326Y-99497723D01*
X159973533Y-99610115D01*
X160160435Y-99687533D01*
X160358849Y-99727000D01*
X160561151Y-99727000D01*
X160759565Y-99687533D01*
X160946467Y-99610115D01*
X161114674Y-99497723D01*
X161257723Y-99354674D01*
X161370115Y-99186467D01*
X161447533Y-98999565D01*
X161487000Y-98801151D01*
X161487000Y-98598849D01*
X161447533Y-98400435D01*
X161370115Y-98213533D01*
X161257723Y-98045326D01*
X161114674Y-97902277D01*
X160946467Y-97789885D01*
X160759565Y-97712467D01*
X160561151Y-97673000D01*
X160358849Y-97673000D01*
X160160435Y-97712467D01*
X159973533Y-97789885D01*
X159805326Y-97902277D01*
X159662277Y-98045326D01*
X159549885Y-98213533D01*
X159472467Y-98400435D01*
X159433000Y-98598849D01*
X140137566Y-98598849D01*
X140280982Y-98495960D01*
X140486954Y-98095303D01*
X140610804Y-97662162D01*
X140647772Y-97213181D01*
X140596438Y-96765616D01*
X140458774Y-96336665D01*
X140280982Y-96004040D01*
X139986693Y-95792912D01*
X138529605Y-97250000D01*
X138170395Y-97250000D01*
X136713307Y-95792912D01*
X136452000Y-95980378D01*
X136452000Y-95613307D01*
X136892912Y-95613307D01*
X138350000Y-97070395D01*
X139807088Y-95613307D01*
X139595960Y-95319018D01*
X139195303Y-95113046D01*
X138762162Y-94989196D01*
X138313181Y-94952228D01*
X137865616Y-95003562D01*
X137436665Y-95141226D01*
X137104040Y-95319018D01*
X136892912Y-95613307D01*
X136452000Y-95613307D01*
X136452000Y-90364316D01*
X141091000Y-90364316D01*
X141091000Y-90940884D01*
X141203482Y-91506375D01*
X141424126Y-92039055D01*
X141744450Y-92518454D01*
X142152146Y-92926150D01*
X142631545Y-93246474D01*
X143164225Y-93467118D01*
X143729716Y-93579600D01*
X144306284Y-93579600D01*
X144871775Y-93467118D01*
X145404455Y-93246474D01*
X145883854Y-92926150D01*
X146291550Y-92518454D01*
X146611874Y-92039055D01*
X146832518Y-91506375D01*
X146945000Y-90940884D01*
X146945000Y-90364316D01*
X146832518Y-89798825D01*
X146611874Y-89266145D01*
X146291550Y-88786746D01*
X145883854Y-88379050D01*
X145404455Y-88058726D01*
X144871775Y-87838082D01*
X144773570Y-87818548D01*
X157673000Y-87818548D01*
X157673000Y-87981452D01*
X157704782Y-88141227D01*
X157767123Y-88291731D01*
X157857628Y-88427181D01*
X157972819Y-88542372D01*
X158108269Y-88632877D01*
X158258773Y-88695218D01*
X158418548Y-88727000D01*
X158581452Y-88727000D01*
X158614221Y-88720482D01*
X158691789Y-88744012D01*
X158772891Y-88752000D01*
X158772893Y-88752000D01*
X158799999Y-88754670D01*
X158827105Y-88752000D01*
X159982447Y-88752000D01*
X160072819Y-88842372D01*
X160208269Y-88932877D01*
X160358773Y-88995218D01*
X160518548Y-89027000D01*
X160681452Y-89027000D01*
X160841227Y-88995218D01*
X160991731Y-88932877D01*
X161127181Y-88842372D01*
X161242372Y-88727181D01*
X161332877Y-88591731D01*
X161395218Y-88441227D01*
X161427000Y-88281452D01*
X161427000Y-88118548D01*
X161395218Y-87958773D01*
X161332877Y-87808269D01*
X161242372Y-87672819D01*
X161127181Y-87557628D01*
X160991731Y-87467123D01*
X160841227Y-87404782D01*
X160681452Y-87373000D01*
X160518548Y-87373000D01*
X160358773Y-87404782D01*
X160208269Y-87467123D01*
X160072819Y-87557628D01*
X159982447Y-87648000D01*
X159290756Y-87648000D01*
X159232877Y-87508269D01*
X159142372Y-87372819D01*
X159027181Y-87257628D01*
X158891731Y-87167123D01*
X158741227Y-87104782D01*
X158581452Y-87073000D01*
X158418548Y-87073000D01*
X158258773Y-87104782D01*
X158108269Y-87167123D01*
X157972819Y-87257628D01*
X157857628Y-87372819D01*
X157767123Y-87508269D01*
X157704782Y-87658773D01*
X157673000Y-87818548D01*
X144773570Y-87818548D01*
X144306284Y-87725600D01*
X143729716Y-87725600D01*
X143164225Y-87838082D01*
X142631545Y-88058726D01*
X142152146Y-88379050D01*
X141744450Y-88786746D01*
X141424126Y-89266145D01*
X141203482Y-89798825D01*
X141091000Y-90364316D01*
X136452000Y-90364316D01*
X136452000Y-85986693D01*
X136892912Y-85986693D01*
X137104040Y-86280982D01*
X137504697Y-86486954D01*
X137937838Y-86610804D01*
X138386819Y-86647772D01*
X138834384Y-86596438D01*
X139263335Y-86458774D01*
X139595960Y-86280982D01*
X139807088Y-85986693D01*
X138350000Y-84529605D01*
X136892912Y-85986693D01*
X136452000Y-85986693D01*
X136452000Y-85619622D01*
X136713307Y-85807088D01*
X138170395Y-84350000D01*
X138529605Y-84350000D01*
X139986693Y-85807088D01*
X140280982Y-85595960D01*
X140486954Y-85195303D01*
X140610804Y-84762162D01*
X140614395Y-84718548D01*
X161473000Y-84718548D01*
X161473000Y-84881452D01*
X161504782Y-85041227D01*
X161567123Y-85191731D01*
X161657628Y-85327181D01*
X161772819Y-85442372D01*
X161908269Y-85532877D01*
X162058773Y-85595218D01*
X162218548Y-85627000D01*
X162346355Y-85627000D01*
X162448001Y-85728646D01*
X162448000Y-97833673D01*
X162345326Y-97902277D01*
X162202277Y-98045326D01*
X162089885Y-98213533D01*
X162012467Y-98400435D01*
X161973000Y-98598849D01*
X161973000Y-98801151D01*
X162012467Y-98999565D01*
X162089885Y-99186467D01*
X162202277Y-99354674D01*
X162345326Y-99497723D01*
X162513533Y-99610115D01*
X162700435Y-99687533D01*
X162898849Y-99727000D01*
X163101151Y-99727000D01*
X163299565Y-99687533D01*
X163486467Y-99610115D01*
X163654674Y-99497723D01*
X163797723Y-99354674D01*
X163910115Y-99186467D01*
X163987533Y-98999565D01*
X164027000Y-98801151D01*
X164027000Y-98598849D01*
X164513000Y-98598849D01*
X164513000Y-98801151D01*
X164552467Y-98999565D01*
X164629885Y-99186467D01*
X164742277Y-99354674D01*
X164885326Y-99497723D01*
X165053533Y-99610115D01*
X165240435Y-99687533D01*
X165438849Y-99727000D01*
X165641151Y-99727000D01*
X165839565Y-99687533D01*
X166026467Y-99610115D01*
X166194674Y-99497723D01*
X166337723Y-99354674D01*
X166450115Y-99186467D01*
X166527533Y-98999565D01*
X166567000Y-98801151D01*
X166567000Y-98598849D01*
X166527533Y-98400435D01*
X166450115Y-98213533D01*
X166337723Y-98045326D01*
X166194674Y-97902277D01*
X166092000Y-97833673D01*
X166092000Y-87101553D01*
X166154372Y-87039181D01*
X166244877Y-86903731D01*
X166307218Y-86753227D01*
X166339000Y-86593452D01*
X166339000Y-86430548D01*
X166307218Y-86270773D01*
X166244877Y-86120269D01*
X166154372Y-85984819D01*
X166039181Y-85869628D01*
X165903731Y-85779123D01*
X165753227Y-85716782D01*
X165593452Y-85685000D01*
X165430548Y-85685000D01*
X165270773Y-85716782D01*
X165120269Y-85779123D01*
X164984819Y-85869628D01*
X164869628Y-85984819D01*
X164779123Y-86120269D01*
X164716782Y-86270773D01*
X164685000Y-86430548D01*
X164685000Y-86593452D01*
X164716782Y-86753227D01*
X164779123Y-86903731D01*
X164869628Y-87039181D01*
X164984819Y-87154372D01*
X164988001Y-87156498D01*
X164988000Y-97833673D01*
X164885326Y-97902277D01*
X164742277Y-98045326D01*
X164629885Y-98213533D01*
X164552467Y-98400435D01*
X164513000Y-98598849D01*
X164027000Y-98598849D01*
X163987533Y-98400435D01*
X163910115Y-98213533D01*
X163797723Y-98045326D01*
X163654674Y-97902277D01*
X163552000Y-97833673D01*
X163552000Y-85527097D01*
X163554669Y-85499999D01*
X163552000Y-85472901D01*
X163552000Y-85472891D01*
X163544012Y-85391789D01*
X163512448Y-85287737D01*
X163461191Y-85191842D01*
X163392211Y-85107789D01*
X163371154Y-85090508D01*
X163127000Y-84846355D01*
X163127000Y-84718548D01*
X163095218Y-84558773D01*
X163032877Y-84408269D01*
X162942372Y-84272819D01*
X162827181Y-84157628D01*
X162691731Y-84067123D01*
X162541227Y-84004782D01*
X162381452Y-83973000D01*
X162218548Y-83973000D01*
X162058773Y-84004782D01*
X161908269Y-84067123D01*
X161772819Y-84157628D01*
X161657628Y-84272819D01*
X161567123Y-84408269D01*
X161504782Y-84558773D01*
X161473000Y-84718548D01*
X140614395Y-84718548D01*
X140647772Y-84313181D01*
X140596438Y-83865616D01*
X140458774Y-83436665D01*
X140280982Y-83104040D01*
X139986693Y-82892912D01*
X138529605Y-84350000D01*
X138170395Y-84350000D01*
X136713307Y-82892912D01*
X136452000Y-83080378D01*
X136452000Y-82713307D01*
X136892912Y-82713307D01*
X138350000Y-84170395D01*
X139807088Y-82713307D01*
X139595960Y-82419018D01*
X139195303Y-82213046D01*
X138762162Y-82089196D01*
X138313181Y-82052228D01*
X137865616Y-82103562D01*
X137436665Y-82241226D01*
X137104040Y-82419018D01*
X136892912Y-82713307D01*
X136452000Y-82713307D01*
X136452000Y-81918150D01*
X139861455Y-81918150D01*
X140103222Y-82238565D01*
X140547275Y-82469971D01*
X141027940Y-82610300D01*
X141526745Y-82654159D01*
X142024523Y-82599864D01*
X142502144Y-82449501D01*
X142896778Y-82238565D01*
X143138545Y-81918150D01*
X141500000Y-80279605D01*
X139861455Y-81918150D01*
X136452000Y-81918150D01*
X136452000Y-80126745D01*
X138945841Y-80126745D01*
X139000136Y-80624523D01*
X139150499Y-81102144D01*
X139361435Y-81496778D01*
X139681850Y-81738545D01*
X141320395Y-80100000D01*
X141679605Y-80100000D01*
X143318150Y-81738545D01*
X143638565Y-81496778D01*
X143802418Y-81182355D01*
X143833712Y-81257905D01*
X144101233Y-81658278D01*
X144441722Y-81998767D01*
X144842095Y-82266288D01*
X145286966Y-82450559D01*
X145759238Y-82544500D01*
X146240762Y-82544500D01*
X146713034Y-82450559D01*
X146790315Y-82418548D01*
X157673000Y-82418548D01*
X157673000Y-82581452D01*
X157704782Y-82741227D01*
X157767123Y-82891731D01*
X157857628Y-83027181D01*
X157972819Y-83142372D01*
X158108269Y-83232877D01*
X158258773Y-83295218D01*
X158418548Y-83327000D01*
X158581452Y-83327000D01*
X158741227Y-83295218D01*
X158891731Y-83232877D01*
X159027181Y-83142372D01*
X159136111Y-83033442D01*
X163901005Y-83033442D01*
X163991377Y-83123814D01*
X164126827Y-83214319D01*
X164277331Y-83276660D01*
X164437106Y-83308442D01*
X164600010Y-83308442D01*
X164759785Y-83276660D01*
X164910289Y-83214319D01*
X165045739Y-83123814D01*
X165160930Y-83008623D01*
X165251435Y-82873173D01*
X165313776Y-82722669D01*
X165345558Y-82562894D01*
X165345558Y-82399990D01*
X165313776Y-82240215D01*
X165251435Y-82089711D01*
X165160930Y-81954261D01*
X165045739Y-81839070D01*
X164910289Y-81748565D01*
X164759785Y-81686224D01*
X164600010Y-81654442D01*
X164437106Y-81654442D01*
X164277331Y-81686224D01*
X164126827Y-81748565D01*
X163991377Y-81839070D01*
X163901005Y-81929442D01*
X159098995Y-81929442D01*
X159027181Y-81857628D01*
X158891731Y-81767123D01*
X158741227Y-81704782D01*
X158581452Y-81673000D01*
X158418548Y-81673000D01*
X158258773Y-81704782D01*
X158108269Y-81767123D01*
X157972819Y-81857628D01*
X157857628Y-81972819D01*
X157767123Y-82108269D01*
X157704782Y-82258773D01*
X157673000Y-82418548D01*
X146790315Y-82418548D01*
X147157905Y-82266288D01*
X147558278Y-81998767D01*
X147898767Y-81658278D01*
X148166288Y-81257905D01*
X148350559Y-80813034D01*
X148444500Y-80340762D01*
X148444500Y-79859238D01*
X148350559Y-79386966D01*
X148166288Y-78942095D01*
X147898767Y-78541722D01*
X147558278Y-78201233D01*
X147157905Y-77933712D01*
X146713034Y-77749441D01*
X146240762Y-77655500D01*
X145759238Y-77655500D01*
X145286966Y-77749441D01*
X144842095Y-77933712D01*
X144441722Y-78201233D01*
X144101233Y-78541722D01*
X143833712Y-78942095D01*
X143804256Y-79013208D01*
X143638565Y-78703222D01*
X143318150Y-78461455D01*
X141679605Y-80100000D01*
X141320395Y-80100000D01*
X139681850Y-78461455D01*
X139361435Y-78703222D01*
X139130029Y-79147275D01*
X138989700Y-79627940D01*
X138945841Y-80126745D01*
X136452000Y-80126745D01*
X136452000Y-78281850D01*
X139861455Y-78281850D01*
X141500000Y-79920395D01*
X143138545Y-78281850D01*
X142896778Y-77961435D01*
X142452725Y-77730029D01*
X141972060Y-77589700D01*
X141473255Y-77545841D01*
X140975477Y-77600136D01*
X140497856Y-77750499D01*
X140103222Y-77961435D01*
X139861455Y-78281850D01*
X136452000Y-78281850D01*
X136452000Y-77486693D01*
X136892912Y-77486693D01*
X137104040Y-77780982D01*
X137504697Y-77986954D01*
X137937838Y-78110804D01*
X138386819Y-78147772D01*
X138834384Y-78096438D01*
X139263335Y-77958774D01*
X139595960Y-77780982D01*
X139807088Y-77486693D01*
X138350000Y-76029605D01*
X136892912Y-77486693D01*
X136452000Y-77486693D01*
X136452000Y-77119622D01*
X136713307Y-77307088D01*
X138170395Y-75850000D01*
X138529605Y-75850000D01*
X139986693Y-77307088D01*
X140280982Y-77095960D01*
X140486954Y-76695303D01*
X140594681Y-76318548D01*
X164273000Y-76318548D01*
X164273000Y-76481452D01*
X164304782Y-76641227D01*
X164367123Y-76791731D01*
X164457628Y-76927181D01*
X164572819Y-77042372D01*
X164708269Y-77132877D01*
X164858773Y-77195218D01*
X164957418Y-77214840D01*
X169823001Y-82080423D01*
X169823000Y-82824643D01*
X169767123Y-82908269D01*
X169704782Y-83058773D01*
X169673000Y-83218548D01*
X169673000Y-83381452D01*
X169704782Y-83541227D01*
X169767123Y-83691731D01*
X169823001Y-83775358D01*
X169823000Y-93524643D01*
X169767123Y-93608269D01*
X169704782Y-93758773D01*
X169673000Y-93918548D01*
X169673000Y-94081452D01*
X169704782Y-94241227D01*
X169767123Y-94391731D01*
X169823001Y-94475358D01*
X169823000Y-97966755D01*
X169819726Y-98000000D01*
X169823000Y-98033245D01*
X169823000Y-98033251D01*
X169831401Y-98118548D01*
X169832796Y-98132714D01*
X169871508Y-98260329D01*
X169934372Y-98377940D01*
X169986311Y-98441227D01*
X170018973Y-98481026D01*
X170044800Y-98502222D01*
X171394800Y-99852223D01*
X171394806Y-99852228D01*
X173885160Y-102342582D01*
X173904782Y-102441227D01*
X173967123Y-102591731D01*
X174057628Y-102727181D01*
X174172819Y-102842372D01*
X174308269Y-102932877D01*
X174458773Y-102995218D01*
X174618548Y-103027000D01*
X174781452Y-103027000D01*
X174941227Y-102995218D01*
X175091731Y-102932877D01*
X175227181Y-102842372D01*
X175342372Y-102727181D01*
X175432877Y-102591731D01*
X175495218Y-102441227D01*
X175527000Y-102281452D01*
X175527000Y-102118548D01*
X175495218Y-101958773D01*
X175432877Y-101808269D01*
X175342372Y-101672819D01*
X175227181Y-101557628D01*
X175091731Y-101467123D01*
X174941227Y-101404782D01*
X174842582Y-101385160D01*
X172448303Y-98990881D01*
X172458773Y-98995218D01*
X172618548Y-99027000D01*
X172781452Y-99027000D01*
X172941227Y-98995218D01*
X173091731Y-98932877D01*
X173227181Y-98842372D01*
X173342372Y-98727181D01*
X173432877Y-98591731D01*
X173495218Y-98441227D01*
X173527000Y-98281452D01*
X173527000Y-98153644D01*
X174862096Y-96818548D01*
X175873000Y-96818548D01*
X175873000Y-96981452D01*
X175904782Y-97141227D01*
X175967123Y-97291731D01*
X176057628Y-97427181D01*
X176172819Y-97542372D01*
X176308269Y-97632877D01*
X176458773Y-97695218D01*
X176618548Y-97727000D01*
X176781452Y-97727000D01*
X176941227Y-97695218D01*
X177091731Y-97632877D01*
X177227181Y-97542372D01*
X177342372Y-97427181D01*
X177432877Y-97291731D01*
X177441050Y-97272000D01*
X193454670Y-97272000D01*
X193456956Y-97277519D01*
X193585764Y-97470294D01*
X193749706Y-97634236D01*
X193942481Y-97763044D01*
X194156682Y-97851769D01*
X194384076Y-97897000D01*
X194615924Y-97897000D01*
X194843318Y-97851769D01*
X195057519Y-97763044D01*
X195248000Y-97635769D01*
X195248000Y-98574231D01*
X195057519Y-98446956D01*
X194843318Y-98358231D01*
X194615924Y-98313000D01*
X194384076Y-98313000D01*
X194156682Y-98358231D01*
X193942481Y-98446956D01*
X193749706Y-98575764D01*
X193585764Y-98739706D01*
X193456956Y-98932481D01*
X193454670Y-98938000D01*
X180937106Y-98938000D01*
X180910000Y-98935330D01*
X180882894Y-98938000D01*
X180882891Y-98938000D01*
X180801789Y-98945988D01*
X180697737Y-98977552D01*
X180601842Y-99028809D01*
X180517789Y-99097789D01*
X180500504Y-99118851D01*
X180146355Y-99473000D01*
X180018548Y-99473000D01*
X179858773Y-99504782D01*
X179708269Y-99567123D01*
X179572819Y-99657628D01*
X179457628Y-99772819D01*
X179450000Y-99784235D01*
X179442372Y-99772819D01*
X179327181Y-99657628D01*
X179191731Y-99567123D01*
X179041227Y-99504782D01*
X178881452Y-99473000D01*
X178718548Y-99473000D01*
X178558773Y-99504782D01*
X178408269Y-99567123D01*
X178272819Y-99657628D01*
X178157628Y-99772819D01*
X178067123Y-99908269D01*
X178004782Y-100058773D01*
X177973000Y-100218548D01*
X177973000Y-100381452D01*
X178004782Y-100541227D01*
X178067123Y-100691731D01*
X178157628Y-100827181D01*
X178272819Y-100942372D01*
X178408269Y-101032877D01*
X178558773Y-101095218D01*
X178718548Y-101127000D01*
X178846356Y-101127000D01*
X180350508Y-102631154D01*
X180367789Y-102652211D01*
X180388845Y-102669491D01*
X180388846Y-102669492D01*
X180451842Y-102721191D01*
X180547737Y-102772448D01*
X180651789Y-102804012D01*
X180760000Y-102814670D01*
X180787108Y-102812000D01*
X193454670Y-102812000D01*
X193456956Y-102817519D01*
X193585764Y-103010294D01*
X193749706Y-103174236D01*
X193942481Y-103303044D01*
X194156682Y-103391769D01*
X194384076Y-103437000D01*
X194615924Y-103437000D01*
X194843318Y-103391769D01*
X195057519Y-103303044D01*
X195248000Y-103175769D01*
X195248000Y-104114231D01*
X195057519Y-103986956D01*
X194843318Y-103898231D01*
X194615924Y-103853000D01*
X194384076Y-103853000D01*
X194156682Y-103898231D01*
X193942481Y-103986956D01*
X193749706Y-104115764D01*
X193585764Y-104279706D01*
X193456956Y-104472481D01*
X193368231Y-104686682D01*
X193323000Y-104914076D01*
X193323000Y-105145924D01*
X193368231Y-105373318D01*
X193456956Y-105587519D01*
X193585764Y-105780294D01*
X193749706Y-105944236D01*
X193942481Y-106073044D01*
X194156682Y-106161769D01*
X194384076Y-106207000D01*
X194615924Y-106207000D01*
X194843318Y-106161769D01*
X195057519Y-106073044D01*
X195248000Y-105945769D01*
X195248000Y-106271354D01*
X194898421Y-106620934D01*
X193750000Y-106620934D01*
X193666293Y-106629178D01*
X193585804Y-106653595D01*
X193511624Y-106693245D01*
X193446605Y-106746605D01*
X193393245Y-106811624D01*
X193353595Y-106885804D01*
X193329178Y-106966293D01*
X193320934Y-107050000D01*
X193320934Y-108550000D01*
X193329178Y-108633707D01*
X193353595Y-108714196D01*
X193393245Y-108788376D01*
X193446605Y-108853395D01*
X193511624Y-108906755D01*
X193585804Y-108946405D01*
X193666293Y-108970822D01*
X193750000Y-108979066D01*
X195250000Y-108979066D01*
X195333707Y-108970822D01*
X195414196Y-108946405D01*
X195488376Y-108906755D01*
X195553395Y-108853395D01*
X195606755Y-108788376D01*
X195646405Y-108714196D01*
X195670822Y-108633707D01*
X195679066Y-108550000D01*
X195679066Y-107401579D01*
X196041485Y-107039161D01*
X196125764Y-107165294D01*
X196289706Y-107329236D01*
X196482481Y-107458044D01*
X196696682Y-107546769D01*
X196924076Y-107592000D01*
X197155924Y-107592000D01*
X197383318Y-107546769D01*
X197597519Y-107458044D01*
X197790294Y-107329236D01*
X197954236Y-107165294D01*
X198083044Y-106972519D01*
X198171769Y-106758318D01*
X198217000Y-106530924D01*
X198217000Y-106299076D01*
X198171769Y-106071682D01*
X198083044Y-105857481D01*
X197954236Y-105664706D01*
X197790294Y-105500764D01*
X197597519Y-105371956D01*
X197383318Y-105283231D01*
X197155924Y-105238000D01*
X196924076Y-105238000D01*
X196696682Y-105283231D01*
X196482481Y-105371956D01*
X196352000Y-105459141D01*
X196352000Y-104600859D01*
X196482481Y-104688044D01*
X196696682Y-104776769D01*
X196924076Y-104822000D01*
X197155924Y-104822000D01*
X197383318Y-104776769D01*
X197597519Y-104688044D01*
X197790294Y-104559236D01*
X197954236Y-104395294D01*
X198083044Y-104202519D01*
X198171769Y-103988318D01*
X198217000Y-103760924D01*
X198217000Y-103529076D01*
X198171769Y-103301682D01*
X198083044Y-103087481D01*
X197954236Y-102894706D01*
X197790294Y-102730764D01*
X197597519Y-102601956D01*
X197383318Y-102513231D01*
X197155924Y-102468000D01*
X196924076Y-102468000D01*
X196696682Y-102513231D01*
X196482481Y-102601956D01*
X196352000Y-102689141D01*
X196352000Y-101830859D01*
X196482481Y-101918044D01*
X196696682Y-102006769D01*
X196924076Y-102052000D01*
X197155924Y-102052000D01*
X197383318Y-102006769D01*
X197597519Y-101918044D01*
X197790294Y-101789236D01*
X197954236Y-101625294D01*
X198083044Y-101432519D01*
X198171769Y-101218318D01*
X198217000Y-100990924D01*
X198217000Y-100759076D01*
X198171769Y-100531682D01*
X198083044Y-100317481D01*
X197954236Y-100124706D01*
X197790294Y-99960764D01*
X197597519Y-99831956D01*
X197383318Y-99743231D01*
X197155924Y-99698000D01*
X196924076Y-99698000D01*
X196696682Y-99743231D01*
X196482481Y-99831956D01*
X196352000Y-99919141D01*
X196352000Y-99060859D01*
X196482481Y-99148044D01*
X196696682Y-99236769D01*
X196924076Y-99282000D01*
X197155924Y-99282000D01*
X197383318Y-99236769D01*
X197597519Y-99148044D01*
X197790294Y-99019236D01*
X197954236Y-98855294D01*
X198083044Y-98662519D01*
X198171769Y-98448318D01*
X198217000Y-98220924D01*
X198217000Y-97989076D01*
X198171769Y-97761682D01*
X198083044Y-97547481D01*
X197954236Y-97354706D01*
X197790294Y-97190764D01*
X197597519Y-97061956D01*
X197383318Y-96973231D01*
X197155924Y-96928000D01*
X196924076Y-96928000D01*
X196696682Y-96973231D01*
X196482481Y-97061956D01*
X196352000Y-97149141D01*
X196352000Y-96202607D01*
X196374314Y-96180293D01*
X196451595Y-96360936D01*
X196663051Y-96456015D01*
X196888992Y-96508014D01*
X197120738Y-96514936D01*
X197349380Y-96476512D01*
X197566133Y-96394221D01*
X197628405Y-96360936D01*
X197705687Y-96180292D01*
X197040000Y-95514605D01*
X197025858Y-95528748D01*
X196846253Y-95349143D01*
X196860395Y-95335000D01*
X197219605Y-95335000D01*
X197885292Y-96000687D01*
X198065936Y-95923405D01*
X198161015Y-95711949D01*
X198213014Y-95486008D01*
X198219936Y-95254262D01*
X198181512Y-95025620D01*
X198099221Y-94808867D01*
X198065936Y-94746595D01*
X197885292Y-94669313D01*
X197219605Y-95335000D01*
X196860395Y-95335000D01*
X196846253Y-95320858D01*
X197025858Y-95141253D01*
X197040000Y-95155395D01*
X197705687Y-94489708D01*
X197628405Y-94309064D01*
X197416949Y-94213985D01*
X197191008Y-94161986D01*
X196959262Y-94155064D01*
X196730620Y-94193488D01*
X196513867Y-94275779D01*
X196451595Y-94309064D01*
X196374314Y-94489707D01*
X196352000Y-94467393D01*
X196352000Y-93432607D01*
X196374314Y-93410293D01*
X196451595Y-93590936D01*
X196663051Y-93686015D01*
X196888992Y-93738014D01*
X197120738Y-93744936D01*
X197349380Y-93706512D01*
X197566133Y-93624221D01*
X197628405Y-93590936D01*
X197705687Y-93410292D01*
X197040000Y-92744605D01*
X197025858Y-92758748D01*
X196846253Y-92579143D01*
X196860395Y-92565000D01*
X197219605Y-92565000D01*
X197885292Y-93230687D01*
X198065936Y-93153405D01*
X198161015Y-92941949D01*
X198213014Y-92716008D01*
X198219936Y-92484262D01*
X198181512Y-92255620D01*
X198099221Y-92038867D01*
X198065936Y-91976595D01*
X197885292Y-91899313D01*
X197219605Y-92565000D01*
X196860395Y-92565000D01*
X196846253Y-92550858D01*
X197025858Y-92371253D01*
X197040000Y-92385395D01*
X197705687Y-91719708D01*
X197628405Y-91539064D01*
X197416949Y-91443985D01*
X197191008Y-91391986D01*
X196959262Y-91385064D01*
X196730620Y-91423488D01*
X196513867Y-91505779D01*
X196451595Y-91539064D01*
X196374314Y-91719707D01*
X196352000Y-91697393D01*
X196352000Y-90662607D01*
X196374314Y-90640293D01*
X196451595Y-90820936D01*
X196663051Y-90916015D01*
X196888992Y-90968014D01*
X197120738Y-90974936D01*
X197349380Y-90936512D01*
X197566133Y-90854221D01*
X197628405Y-90820936D01*
X197705687Y-90640292D01*
X197040000Y-89974605D01*
X197025858Y-89988748D01*
X196846253Y-89809143D01*
X196860395Y-89795000D01*
X197219605Y-89795000D01*
X197885292Y-90460687D01*
X198065936Y-90383405D01*
X198161015Y-90171949D01*
X198213014Y-89946008D01*
X198219936Y-89714262D01*
X198181512Y-89485620D01*
X198099221Y-89268867D01*
X198065936Y-89206595D01*
X197885292Y-89129313D01*
X197219605Y-89795000D01*
X196860395Y-89795000D01*
X196846253Y-89780858D01*
X197025858Y-89601253D01*
X197040000Y-89615395D01*
X197705687Y-88949708D01*
X197628405Y-88769064D01*
X197416949Y-88673985D01*
X197191008Y-88621986D01*
X196959262Y-88615064D01*
X196730620Y-88653488D01*
X196513867Y-88735779D01*
X196451595Y-88769064D01*
X196374314Y-88949707D01*
X196352000Y-88927393D01*
X196352000Y-87892607D01*
X196374314Y-87870293D01*
X196451595Y-88050936D01*
X196663051Y-88146015D01*
X196888992Y-88198014D01*
X197120738Y-88204936D01*
X197349380Y-88166512D01*
X197566133Y-88084221D01*
X197628405Y-88050936D01*
X197705687Y-87870292D01*
X197040000Y-87204605D01*
X197025858Y-87218748D01*
X196846253Y-87039143D01*
X196860395Y-87025000D01*
X197219605Y-87025000D01*
X197885292Y-87690687D01*
X198065936Y-87613405D01*
X198161015Y-87401949D01*
X198213014Y-87176008D01*
X198219936Y-86944262D01*
X198181512Y-86715620D01*
X198099221Y-86498867D01*
X198065936Y-86436595D01*
X197885292Y-86359313D01*
X197219605Y-87025000D01*
X196860395Y-87025000D01*
X196846253Y-87010858D01*
X197025858Y-86831253D01*
X197040000Y-86845395D01*
X197705687Y-86179708D01*
X197628405Y-85999064D01*
X197416949Y-85903985D01*
X197191008Y-85851986D01*
X196959262Y-85845064D01*
X196730620Y-85883488D01*
X196513867Y-85965779D01*
X196451595Y-85999064D01*
X196374314Y-86179707D01*
X196352000Y-86157393D01*
X196352000Y-85122607D01*
X196374314Y-85100293D01*
X196451595Y-85280936D01*
X196663051Y-85376015D01*
X196888992Y-85428014D01*
X197120738Y-85434936D01*
X197349380Y-85396512D01*
X197566133Y-85314221D01*
X197628405Y-85280936D01*
X197705687Y-85100292D01*
X197040000Y-84434605D01*
X197025858Y-84448748D01*
X196846253Y-84269143D01*
X196860395Y-84255000D01*
X197219605Y-84255000D01*
X197885292Y-84920687D01*
X198065936Y-84843405D01*
X198161015Y-84631949D01*
X198213014Y-84406008D01*
X198219936Y-84174262D01*
X198181512Y-83945620D01*
X198099221Y-83728867D01*
X198065936Y-83666595D01*
X197885292Y-83589313D01*
X197219605Y-84255000D01*
X196860395Y-84255000D01*
X196194708Y-83589313D01*
X196014064Y-83666595D01*
X195918985Y-83878051D01*
X195866986Y-84103992D01*
X195861697Y-84281052D01*
X195409500Y-83828856D01*
X195392211Y-83807789D01*
X195308158Y-83738809D01*
X195300053Y-83734477D01*
X195414236Y-83620294D01*
X195543044Y-83427519D01*
X195550421Y-83409708D01*
X196374313Y-83409708D01*
X197040000Y-84075395D01*
X197705687Y-83409708D01*
X197628405Y-83229064D01*
X197416949Y-83133985D01*
X197191008Y-83081986D01*
X196959262Y-83075064D01*
X196730620Y-83113488D01*
X196513867Y-83195779D01*
X196451595Y-83229064D01*
X196374313Y-83409708D01*
X195550421Y-83409708D01*
X195631769Y-83213318D01*
X195677000Y-82985924D01*
X195677000Y-82754076D01*
X195631769Y-82526682D01*
X195550422Y-82330292D01*
X196374313Y-82330292D01*
X196451595Y-82510936D01*
X196663051Y-82606015D01*
X196888992Y-82658014D01*
X197120738Y-82664936D01*
X197349380Y-82626512D01*
X197566133Y-82544221D01*
X197628405Y-82510936D01*
X197705687Y-82330292D01*
X197040000Y-81664605D01*
X196374313Y-82330292D01*
X195550422Y-82330292D01*
X195543044Y-82312481D01*
X195414236Y-82119706D01*
X195250294Y-81955764D01*
X195057519Y-81826956D01*
X194843318Y-81738231D01*
X194615924Y-81693000D01*
X194384076Y-81693000D01*
X194156682Y-81738231D01*
X193942481Y-81826956D01*
X193749706Y-81955764D01*
X193585764Y-82119706D01*
X193456956Y-82312481D01*
X193368231Y-82526682D01*
X193323000Y-82754076D01*
X193323000Y-82985924D01*
X193368231Y-83213318D01*
X193456956Y-83427519D01*
X193585764Y-83620294D01*
X193613470Y-83648000D01*
X189579066Y-83648000D01*
X189579066Y-82650000D01*
X189570822Y-82566293D01*
X189546405Y-82485804D01*
X189506755Y-82411624D01*
X189453395Y-82346605D01*
X189388376Y-82293245D01*
X189314196Y-82253595D01*
X189233707Y-82229178D01*
X189150000Y-82220934D01*
X188506544Y-82220934D01*
X188672487Y-82187926D01*
X188904886Y-82091663D01*
X189114040Y-81951911D01*
X189291911Y-81774040D01*
X189431093Y-81565738D01*
X195860064Y-81565738D01*
X195898488Y-81794380D01*
X195980779Y-82011133D01*
X196014064Y-82073405D01*
X196194708Y-82150687D01*
X196860395Y-81485000D01*
X197219605Y-81485000D01*
X197885292Y-82150687D01*
X198065936Y-82073405D01*
X198161015Y-81861949D01*
X198213014Y-81636008D01*
X198219936Y-81404262D01*
X198181512Y-81175620D01*
X198099221Y-80958867D01*
X198065936Y-80896595D01*
X197885292Y-80819313D01*
X197219605Y-81485000D01*
X196860395Y-81485000D01*
X196194708Y-80819313D01*
X196014064Y-80896595D01*
X195918985Y-81108051D01*
X195866986Y-81333992D01*
X195860064Y-81565738D01*
X189431093Y-81565738D01*
X189431663Y-81564886D01*
X189527926Y-81332487D01*
X189577000Y-81085774D01*
X189577000Y-80834226D01*
X189527926Y-80587513D01*
X189431663Y-80355114D01*
X189291911Y-80145960D01*
X189114040Y-79968089D01*
X188904886Y-79828337D01*
X188672487Y-79732074D01*
X188460966Y-79690000D01*
X188672487Y-79647926D01*
X188904886Y-79551663D01*
X189114040Y-79411911D01*
X189291911Y-79234040D01*
X189431663Y-79024886D01*
X189453569Y-78972000D01*
X192591356Y-78972000D01*
X193370517Y-79751162D01*
X193368231Y-79756682D01*
X193323000Y-79984076D01*
X193323000Y-80215924D01*
X193368231Y-80443318D01*
X193456956Y-80657519D01*
X193585764Y-80850294D01*
X193749706Y-81014236D01*
X193942481Y-81143044D01*
X194156682Y-81231769D01*
X194384076Y-81277000D01*
X194615924Y-81277000D01*
X194843318Y-81231769D01*
X195057519Y-81143044D01*
X195250294Y-81014236D01*
X195414236Y-80850294D01*
X195543044Y-80657519D01*
X195550421Y-80639708D01*
X196374313Y-80639708D01*
X197040000Y-81305395D01*
X197705687Y-80639708D01*
X197628405Y-80459064D01*
X197416949Y-80363985D01*
X197191008Y-80311986D01*
X196959262Y-80305064D01*
X196730620Y-80343488D01*
X196513867Y-80425779D01*
X196451595Y-80459064D01*
X196374313Y-80639708D01*
X195550421Y-80639708D01*
X195631769Y-80443318D01*
X195677000Y-80215924D01*
X195677000Y-79984076D01*
X195631769Y-79756682D01*
X195550422Y-79560292D01*
X196374313Y-79560292D01*
X196451595Y-79740936D01*
X196663051Y-79836015D01*
X196888992Y-79888014D01*
X197120738Y-79894936D01*
X197349380Y-79856512D01*
X197566133Y-79774221D01*
X197628405Y-79740936D01*
X197705687Y-79560292D01*
X197040000Y-78894605D01*
X196374313Y-79560292D01*
X195550422Y-79560292D01*
X195543044Y-79542481D01*
X195414236Y-79349706D01*
X195250294Y-79185764D01*
X195057519Y-79056956D01*
X194843318Y-78968231D01*
X194615924Y-78923000D01*
X194384076Y-78923000D01*
X194156682Y-78968231D01*
X194151162Y-78970517D01*
X193976383Y-78795738D01*
X195860064Y-78795738D01*
X195898488Y-79024380D01*
X195980779Y-79241133D01*
X196014064Y-79303405D01*
X196194708Y-79380687D01*
X196860395Y-78715000D01*
X197219605Y-78715000D01*
X197885292Y-79380687D01*
X198065936Y-79303405D01*
X198161015Y-79091949D01*
X198213014Y-78866008D01*
X198219936Y-78634262D01*
X198181512Y-78405620D01*
X198099221Y-78188867D01*
X198065936Y-78126595D01*
X197885292Y-78049313D01*
X197219605Y-78715000D01*
X196860395Y-78715000D01*
X196194708Y-78049313D01*
X196014064Y-78126595D01*
X195918985Y-78338051D01*
X195866986Y-78563992D01*
X195860064Y-78795738D01*
X193976383Y-78795738D01*
X193229500Y-78048856D01*
X193212211Y-78027789D01*
X193128158Y-77958809D01*
X193032263Y-77907552D01*
X192928211Y-77875988D01*
X192847109Y-77868000D01*
X192847106Y-77868000D01*
X192820000Y-77865330D01*
X192792894Y-77868000D01*
X189453569Y-77868000D01*
X189431663Y-77815114D01*
X189291911Y-77605960D01*
X189114040Y-77428089D01*
X188904886Y-77288337D01*
X188672487Y-77192074D01*
X188425774Y-77143000D01*
X188174226Y-77143000D01*
X187927513Y-77192074D01*
X187695114Y-77288337D01*
X187485960Y-77428089D01*
X187308089Y-77605960D01*
X187168337Y-77815114D01*
X187072074Y-78047513D01*
X187023000Y-78294226D01*
X187023000Y-78545774D01*
X187072074Y-78792487D01*
X187168337Y-79024886D01*
X187308089Y-79234040D01*
X187485960Y-79411911D01*
X187695114Y-79551663D01*
X187927513Y-79647926D01*
X188139034Y-79690000D01*
X187927513Y-79732074D01*
X187695114Y-79828337D01*
X187485960Y-79968089D01*
X187308089Y-80145960D01*
X187168337Y-80355114D01*
X187072074Y-80587513D01*
X187023000Y-80834226D01*
X187023000Y-81085774D01*
X187072074Y-81332487D01*
X187168337Y-81564886D01*
X187308089Y-81774040D01*
X187485960Y-81951911D01*
X187695114Y-82091663D01*
X187927513Y-82187926D01*
X188093456Y-82220934D01*
X187450000Y-82220934D01*
X187366293Y-82229178D01*
X187285804Y-82253595D01*
X187211624Y-82293245D01*
X187146605Y-82346605D01*
X187093245Y-82411624D01*
X187053595Y-82485804D01*
X187029178Y-82566293D01*
X187020934Y-82650000D01*
X187020934Y-84350000D01*
X187029178Y-84433707D01*
X187053595Y-84514196D01*
X187093245Y-84588376D01*
X187146605Y-84653395D01*
X187211624Y-84706755D01*
X187285804Y-84746405D01*
X187366293Y-84770822D01*
X187450000Y-84779066D01*
X189150000Y-84779066D01*
X189233707Y-84770822D01*
X189295752Y-84752000D01*
X193723470Y-84752000D01*
X193585764Y-84889706D01*
X193456956Y-85082481D01*
X193368231Y-85296682D01*
X193323000Y-85524076D01*
X193323000Y-85755924D01*
X193368231Y-85983318D01*
X193456956Y-86197519D01*
X193585764Y-86390294D01*
X193749706Y-86554236D01*
X193942481Y-86683044D01*
X194156682Y-86771769D01*
X194384076Y-86817000D01*
X194615924Y-86817000D01*
X194843318Y-86771769D01*
X195057519Y-86683044D01*
X195248001Y-86555768D01*
X195248001Y-87494232D01*
X195057519Y-87366956D01*
X194843318Y-87278231D01*
X194615924Y-87233000D01*
X194384076Y-87233000D01*
X194156682Y-87278231D01*
X193942481Y-87366956D01*
X193749706Y-87495764D01*
X193585764Y-87659706D01*
X193456956Y-87852481D01*
X193368231Y-88066682D01*
X193323000Y-88294076D01*
X193323000Y-88525924D01*
X193368231Y-88753318D01*
X193456956Y-88967519D01*
X193585764Y-89160294D01*
X193749706Y-89324236D01*
X193942481Y-89453044D01*
X194156682Y-89541769D01*
X194384076Y-89587000D01*
X194615924Y-89587000D01*
X194843318Y-89541769D01*
X195057519Y-89453044D01*
X195248001Y-89325768D01*
X195248001Y-90264232D01*
X195057519Y-90136956D01*
X194843318Y-90048231D01*
X194615924Y-90003000D01*
X194384076Y-90003000D01*
X194156682Y-90048231D01*
X193942481Y-90136956D01*
X193749706Y-90265764D01*
X193585764Y-90429706D01*
X193456956Y-90622481D01*
X193368231Y-90836682D01*
X193323000Y-91064076D01*
X193323000Y-91295924D01*
X193368231Y-91523318D01*
X193456956Y-91737519D01*
X193585764Y-91930294D01*
X193749706Y-92094236D01*
X193942481Y-92223044D01*
X194156682Y-92311769D01*
X194384076Y-92357000D01*
X194615924Y-92357000D01*
X194843318Y-92311769D01*
X195057519Y-92223044D01*
X195248001Y-92095768D01*
X195248001Y-93034232D01*
X195057519Y-92906956D01*
X194843318Y-92818231D01*
X194615924Y-92773000D01*
X194384076Y-92773000D01*
X194156682Y-92818231D01*
X193942481Y-92906956D01*
X193749706Y-93035764D01*
X193585764Y-93199706D01*
X193456956Y-93392481D01*
X193368231Y-93606682D01*
X193323000Y-93834076D01*
X193323000Y-94065924D01*
X193368231Y-94293318D01*
X193456956Y-94507519D01*
X193585764Y-94700294D01*
X193749706Y-94864236D01*
X193942481Y-94993044D01*
X194156682Y-95081769D01*
X194384076Y-95127000D01*
X194615924Y-95127000D01*
X194843318Y-95081769D01*
X195057519Y-94993044D01*
X195248001Y-94865768D01*
X195248000Y-95804232D01*
X195057519Y-95676956D01*
X194843318Y-95588231D01*
X194615924Y-95543000D01*
X194384076Y-95543000D01*
X194156682Y-95588231D01*
X193942481Y-95676956D01*
X193749706Y-95805764D01*
X193585764Y-95969706D01*
X193456956Y-96162481D01*
X193454670Y-96168000D01*
X177093044Y-96168000D01*
X177091731Y-96167123D01*
X176941227Y-96104782D01*
X176781452Y-96073000D01*
X176618548Y-96073000D01*
X176458773Y-96104782D01*
X176308269Y-96167123D01*
X176172819Y-96257628D01*
X176057628Y-96372819D01*
X175967123Y-96508269D01*
X175904782Y-96658773D01*
X175873000Y-96818548D01*
X174862096Y-96818548D01*
X180471154Y-91209492D01*
X180492211Y-91192211D01*
X180514279Y-91165321D01*
X180561191Y-91108159D01*
X180612447Y-91012264D01*
X180612448Y-91012263D01*
X180644012Y-90908211D01*
X180652000Y-90827109D01*
X180652000Y-90827099D01*
X180654669Y-90800001D01*
X180652000Y-90772903D01*
X180652000Y-84117553D01*
X180742372Y-84027181D01*
X180800000Y-83940935D01*
X180857628Y-84027181D01*
X180972819Y-84142372D01*
X181108269Y-84232877D01*
X181258773Y-84295218D01*
X181418548Y-84327000D01*
X181581452Y-84327000D01*
X181741227Y-84295218D01*
X181891731Y-84232877D01*
X182027181Y-84142372D01*
X182117553Y-84052000D01*
X182256509Y-84052000D01*
X190548000Y-92343493D01*
X190548000Y-92471299D01*
X190579782Y-92631074D01*
X190642123Y-92781578D01*
X190732628Y-92917028D01*
X190847819Y-93032219D01*
X190983269Y-93122724D01*
X191133773Y-93185065D01*
X191293548Y-93216847D01*
X191456452Y-93216847D01*
X191616227Y-93185065D01*
X191766731Y-93122724D01*
X191902181Y-93032219D01*
X192017372Y-92917028D01*
X192107877Y-92781578D01*
X192170218Y-92631074D01*
X192202000Y-92471299D01*
X192202000Y-92308395D01*
X192170218Y-92148620D01*
X192107877Y-91998116D01*
X192017372Y-91862666D01*
X191902181Y-91747475D01*
X191766731Y-91656970D01*
X191616227Y-91594629D01*
X191456452Y-91562847D01*
X191328646Y-91562847D01*
X182894654Y-83128857D01*
X182877364Y-83107789D01*
X182793311Y-83038809D01*
X182697416Y-82987552D01*
X182593364Y-82955988D01*
X182512262Y-82948000D01*
X182512259Y-82948000D01*
X182485153Y-82945330D01*
X182458047Y-82948000D01*
X182117553Y-82948000D01*
X182027181Y-82857628D01*
X181891731Y-82767123D01*
X181741227Y-82704782D01*
X181581452Y-82673000D01*
X181418548Y-82673000D01*
X181258773Y-82704782D01*
X181108269Y-82767123D01*
X180972819Y-82857628D01*
X180857628Y-82972819D01*
X180800000Y-83059065D01*
X180742372Y-82972819D01*
X180627181Y-82857628D01*
X180491731Y-82767123D01*
X180341227Y-82704782D01*
X180181452Y-82673000D01*
X180018548Y-82673000D01*
X179858773Y-82704782D01*
X179708269Y-82767123D01*
X179572819Y-82857628D01*
X179457628Y-82972819D01*
X179367123Y-83108269D01*
X179304782Y-83258773D01*
X179273000Y-83418548D01*
X179273000Y-83581452D01*
X179304782Y-83741227D01*
X179367123Y-83891731D01*
X179457628Y-84027181D01*
X179548000Y-84117553D01*
X179548001Y-90571353D01*
X172746356Y-97373000D01*
X172618548Y-97373000D01*
X172458773Y-97404782D01*
X172308269Y-97467123D01*
X172172819Y-97557628D01*
X172057628Y-97672819D01*
X171967123Y-97808269D01*
X171904782Y-97958773D01*
X171873000Y-98118548D01*
X171873000Y-98281452D01*
X171904782Y-98441227D01*
X171909118Y-98451696D01*
X171177000Y-97719578D01*
X171177000Y-94475357D01*
X171232877Y-94391731D01*
X171295218Y-94241227D01*
X171327000Y-94081452D01*
X171327000Y-93918548D01*
X171295218Y-93758773D01*
X171232877Y-93608269D01*
X171177000Y-93524643D01*
X171177000Y-83775357D01*
X171232877Y-83691731D01*
X171295218Y-83541227D01*
X171327000Y-83381452D01*
X171327000Y-83218548D01*
X171295218Y-83058773D01*
X171232877Y-82908269D01*
X171177000Y-82824643D01*
X171177000Y-81833241D01*
X171180274Y-81799999D01*
X171177000Y-81766757D01*
X171177000Y-81766748D01*
X171167204Y-81667285D01*
X171128492Y-81539670D01*
X171065628Y-81422059D01*
X170981027Y-81318973D01*
X170955196Y-81297774D01*
X165914840Y-76257418D01*
X165895218Y-76158773D01*
X165832877Y-76008269D01*
X165742372Y-75872819D01*
X165627181Y-75757628D01*
X165491731Y-75667123D01*
X165341227Y-75604782D01*
X165311401Y-75598849D01*
X167333000Y-75598849D01*
X167333000Y-75801151D01*
X167372467Y-75999565D01*
X167449885Y-76186467D01*
X167562277Y-76354674D01*
X167705326Y-76497723D01*
X167873533Y-76610115D01*
X168060435Y-76687533D01*
X168258849Y-76727000D01*
X168461151Y-76727000D01*
X168659565Y-76687533D01*
X168846467Y-76610115D01*
X169014674Y-76497723D01*
X169157723Y-76354674D01*
X169270115Y-76186467D01*
X169347533Y-75999565D01*
X169387000Y-75801151D01*
X169387000Y-75598849D01*
X169873000Y-75598849D01*
X169873000Y-75801151D01*
X169912467Y-75999565D01*
X169989885Y-76186467D01*
X170102277Y-76354674D01*
X170245326Y-76497723D01*
X170413533Y-76610115D01*
X170600435Y-76687533D01*
X170798849Y-76727000D01*
X171001151Y-76727000D01*
X171199565Y-76687533D01*
X171386467Y-76610115D01*
X171554674Y-76497723D01*
X171697723Y-76354674D01*
X171810115Y-76186467D01*
X171887533Y-75999565D01*
X171927000Y-75801151D01*
X171927000Y-75598849D01*
X172413000Y-75598849D01*
X172413000Y-75801151D01*
X172452467Y-75999565D01*
X172529885Y-76186467D01*
X172642277Y-76354674D01*
X172785326Y-76497723D01*
X172953533Y-76610115D01*
X173140435Y-76687533D01*
X173338849Y-76727000D01*
X173541151Y-76727000D01*
X173739565Y-76687533D01*
X173926467Y-76610115D01*
X174094674Y-76497723D01*
X174237723Y-76354674D01*
X174350115Y-76186467D01*
X174427533Y-75999565D01*
X174467000Y-75801151D01*
X174467000Y-75598849D01*
X174427533Y-75400435D01*
X174350115Y-75213533D01*
X174237723Y-75045326D01*
X174094674Y-74902277D01*
X173926467Y-74789885D01*
X173739565Y-74712467D01*
X173541151Y-74673000D01*
X173338849Y-74673000D01*
X173140435Y-74712467D01*
X172953533Y-74789885D01*
X172785326Y-74902277D01*
X172642277Y-75045326D01*
X172529885Y-75213533D01*
X172452467Y-75400435D01*
X172413000Y-75598849D01*
X171927000Y-75598849D01*
X171887533Y-75400435D01*
X171810115Y-75213533D01*
X171697723Y-75045326D01*
X171554674Y-74902277D01*
X171386467Y-74789885D01*
X171199565Y-74712467D01*
X171001151Y-74673000D01*
X170798849Y-74673000D01*
X170600435Y-74712467D01*
X170413533Y-74789885D01*
X170245326Y-74902277D01*
X170102277Y-75045326D01*
X169989885Y-75213533D01*
X169912467Y-75400435D01*
X169873000Y-75598849D01*
X169387000Y-75598849D01*
X169347533Y-75400435D01*
X169270115Y-75213533D01*
X169157723Y-75045326D01*
X169014674Y-74902277D01*
X168846467Y-74789885D01*
X168659565Y-74712467D01*
X168461151Y-74673000D01*
X168258849Y-74673000D01*
X168060435Y-74712467D01*
X167873533Y-74789885D01*
X167705326Y-74902277D01*
X167562277Y-75045326D01*
X167449885Y-75213533D01*
X167372467Y-75400435D01*
X167333000Y-75598849D01*
X165311401Y-75598849D01*
X165181452Y-75573000D01*
X165018548Y-75573000D01*
X164858773Y-75604782D01*
X164708269Y-75667123D01*
X164572819Y-75757628D01*
X164457628Y-75872819D01*
X164367123Y-76008269D01*
X164304782Y-76158773D01*
X164273000Y-76318548D01*
X140594681Y-76318548D01*
X140610804Y-76262162D01*
X140647772Y-75813181D01*
X140596438Y-75365616D01*
X140458774Y-74936665D01*
X140280982Y-74604040D01*
X139986693Y-74392912D01*
X138529605Y-75850000D01*
X138170395Y-75850000D01*
X136713307Y-74392912D01*
X136452000Y-74580378D01*
X136452000Y-74213307D01*
X136892912Y-74213307D01*
X138350000Y-75670395D01*
X139807088Y-74213307D01*
X139595960Y-73919018D01*
X139195303Y-73713046D01*
X138762162Y-73589196D01*
X138313181Y-73552228D01*
X137865616Y-73603562D01*
X137436665Y-73741226D01*
X137104040Y-73919018D01*
X136892912Y-74213307D01*
X136452000Y-74213307D01*
X136452000Y-71118548D01*
X189873000Y-71118548D01*
X189873000Y-71281452D01*
X189904782Y-71441227D01*
X189967123Y-71591731D01*
X190057628Y-71727181D01*
X190172819Y-71842372D01*
X190308269Y-71932877D01*
X190458773Y-71995218D01*
X190618548Y-72027000D01*
X190746356Y-72027000D01*
X193323000Y-74603646D01*
X193323000Y-74675924D01*
X193368231Y-74903318D01*
X193456956Y-75117519D01*
X193575343Y-75294697D01*
X191527000Y-73246356D01*
X191527000Y-73118548D01*
X191495218Y-72958773D01*
X191432877Y-72808269D01*
X191342372Y-72672819D01*
X191227181Y-72557628D01*
X191091731Y-72467123D01*
X190941227Y-72404782D01*
X190781452Y-72373000D01*
X190618548Y-72373000D01*
X190458773Y-72404782D01*
X190308269Y-72467123D01*
X190172819Y-72557628D01*
X190057628Y-72672819D01*
X189967123Y-72808269D01*
X189904782Y-72958773D01*
X189873000Y-73118548D01*
X189873000Y-73281452D01*
X189904782Y-73441227D01*
X189967123Y-73591731D01*
X190057628Y-73727181D01*
X190172819Y-73842372D01*
X190308269Y-73932877D01*
X190458773Y-73995218D01*
X190618548Y-74027000D01*
X190746356Y-74027000D01*
X193470927Y-76751572D01*
X193456956Y-76772481D01*
X193368231Y-76986682D01*
X193323000Y-77214076D01*
X193323000Y-77445924D01*
X193368231Y-77673318D01*
X193456956Y-77887519D01*
X193585764Y-78080294D01*
X193749706Y-78244236D01*
X193942481Y-78373044D01*
X194156682Y-78461769D01*
X194384076Y-78507000D01*
X194615924Y-78507000D01*
X194843318Y-78461769D01*
X195057519Y-78373044D01*
X195250294Y-78244236D01*
X195414236Y-78080294D01*
X195543044Y-77887519D01*
X195550421Y-77869708D01*
X196374313Y-77869708D01*
X197040000Y-78535395D01*
X197705687Y-77869708D01*
X197628405Y-77689064D01*
X197416949Y-77593985D01*
X197191008Y-77541986D01*
X196959262Y-77535064D01*
X196730620Y-77573488D01*
X196513867Y-77655779D01*
X196451595Y-77689064D01*
X196374313Y-77869708D01*
X195550421Y-77869708D01*
X195631769Y-77673318D01*
X195677000Y-77445924D01*
X195677000Y-77214076D01*
X195631769Y-76986682D01*
X195550422Y-76790292D01*
X196374313Y-76790292D01*
X196451595Y-76970936D01*
X196663051Y-77066015D01*
X196888992Y-77118014D01*
X197120738Y-77124936D01*
X197349380Y-77086512D01*
X197566133Y-77004221D01*
X197628405Y-76970936D01*
X197705687Y-76790292D01*
X197040000Y-76124605D01*
X196374313Y-76790292D01*
X195550422Y-76790292D01*
X195543044Y-76772481D01*
X195414236Y-76579706D01*
X195250294Y-76415764D01*
X195057519Y-76286956D01*
X194843318Y-76198231D01*
X194615924Y-76153000D01*
X194433646Y-76153000D01*
X194306384Y-76025738D01*
X195860064Y-76025738D01*
X195898488Y-76254380D01*
X195980779Y-76471133D01*
X196014064Y-76533405D01*
X196194708Y-76610687D01*
X196860395Y-75945000D01*
X197219605Y-75945000D01*
X197885292Y-76610687D01*
X198065936Y-76533405D01*
X198161015Y-76321949D01*
X198213014Y-76096008D01*
X198219936Y-75864262D01*
X198181512Y-75635620D01*
X198099221Y-75418867D01*
X198065936Y-75356595D01*
X197885292Y-75279313D01*
X197219605Y-75945000D01*
X196860395Y-75945000D01*
X196194708Y-75279313D01*
X196014064Y-75356595D01*
X195918985Y-75568051D01*
X195866986Y-75793992D01*
X195860064Y-76025738D01*
X194306384Y-76025738D01*
X193765303Y-75484658D01*
X193942481Y-75603044D01*
X194156682Y-75691769D01*
X194384076Y-75737000D01*
X194615924Y-75737000D01*
X194843318Y-75691769D01*
X195057519Y-75603044D01*
X195250294Y-75474236D01*
X195414236Y-75310294D01*
X195543044Y-75117519D01*
X195550421Y-75099708D01*
X196374313Y-75099708D01*
X197040000Y-75765395D01*
X197705687Y-75099708D01*
X197628405Y-74919064D01*
X197416949Y-74823985D01*
X197191008Y-74771986D01*
X196959262Y-74765064D01*
X196730620Y-74803488D01*
X196513867Y-74885779D01*
X196451595Y-74919064D01*
X196374313Y-75099708D01*
X195550421Y-75099708D01*
X195631769Y-74903318D01*
X195677000Y-74675924D01*
X195677000Y-74444076D01*
X195631769Y-74216682D01*
X195543044Y-74002481D01*
X195414236Y-73809706D01*
X195250294Y-73645764D01*
X195057519Y-73516956D01*
X194843318Y-73428231D01*
X194615924Y-73383000D01*
X194384076Y-73383000D01*
X194156682Y-73428231D01*
X193942481Y-73516956D01*
X193855632Y-73574986D01*
X191527000Y-71246356D01*
X191527000Y-71118548D01*
X191495218Y-70958773D01*
X191432877Y-70808269D01*
X191342372Y-70672819D01*
X191227181Y-70557628D01*
X191091731Y-70467123D01*
X190941227Y-70404782D01*
X190781452Y-70373000D01*
X190618548Y-70373000D01*
X190458773Y-70404782D01*
X190308269Y-70467123D01*
X190172819Y-70557628D01*
X190057628Y-70672819D01*
X189967123Y-70808269D01*
X189904782Y-70958773D01*
X189873000Y-71118548D01*
X136452000Y-71118548D01*
X136452000Y-69680896D01*
X193928709Y-69680896D01*
X194204705Y-70030508D01*
X194697245Y-70290333D01*
X195231010Y-70449076D01*
X195785488Y-70500636D01*
X196339371Y-70443032D01*
X196871373Y-70278478D01*
X197335295Y-70030508D01*
X197611291Y-69680896D01*
X195770000Y-67839605D01*
X193928709Y-69680896D01*
X136452000Y-69680896D01*
X136452000Y-67675488D01*
X192929364Y-67675488D01*
X192986968Y-68229371D01*
X193151522Y-68761373D01*
X193399492Y-69225295D01*
X193749104Y-69501291D01*
X195590395Y-67660000D01*
X195949605Y-67660000D01*
X197790896Y-69501291D01*
X198140508Y-69225295D01*
X198400333Y-68732755D01*
X198559076Y-68198990D01*
X198610636Y-67644512D01*
X198553032Y-67090629D01*
X198388478Y-66558627D01*
X198140508Y-66094705D01*
X197790896Y-65818709D01*
X195949605Y-67660000D01*
X195590395Y-67660000D01*
X193749104Y-65818709D01*
X193399492Y-66094705D01*
X193139667Y-66587245D01*
X192980924Y-67121010D01*
X192929364Y-67675488D01*
X136452000Y-67675488D01*
X136452000Y-65052000D01*
X194649024Y-65052000D01*
X194204705Y-65289492D01*
G37*
X194204705Y-65289492D02*
X193928709Y-65639104D01*
X195770000Y-67480395D01*
X197611291Y-65639104D01*
X197335295Y-65289492D01*
X196885091Y-65052000D01*
X206948000Y-65052000D01*
X206948001Y-117248000D01*
X197003229Y-117248000D01*
X197335295Y-117070508D01*
X197611291Y-116720896D01*
X195770000Y-114879605D01*
X193928709Y-116720896D01*
X194204705Y-117070508D01*
X194541170Y-117248000D01*
X136452000Y-117248000D01*
X136452000Y-114715488D01*
X192929364Y-114715488D01*
X192986968Y-115269371D01*
X193151522Y-115801373D01*
X193399492Y-116265295D01*
X193749104Y-116541291D01*
X195590395Y-114700000D01*
X195949605Y-114700000D01*
X197790896Y-116541291D01*
X198140508Y-116265295D01*
X198400333Y-115772755D01*
X198559076Y-115238990D01*
X198610636Y-114684512D01*
X198553032Y-114130629D01*
X198388478Y-113598627D01*
X198140508Y-113134705D01*
X197790896Y-112858709D01*
X195949605Y-114700000D01*
X195590395Y-114700000D01*
X193749104Y-112858709D01*
X193399492Y-113134705D01*
X193139667Y-113627245D01*
X192980924Y-114161010D01*
X192929364Y-114715488D01*
X136452000Y-114715488D01*
X136452000Y-112679104D01*
X193928709Y-112679104D01*
X195770000Y-114520395D01*
X197611291Y-112679104D01*
X197335295Y-112329492D01*
X196842755Y-112069667D01*
X196308990Y-111910924D01*
X195754512Y-111859364D01*
X195200629Y-111916968D01*
X194668627Y-112081522D01*
X194204705Y-112329492D01*
X193928709Y-112679104D01*
X136452000Y-112679104D01*
X136452000Y-107386693D01*
X136892912Y-107386693D01*
X137104040Y-107680982D01*
X137504697Y-107886954D01*
X137937838Y-108010804D01*
X138386819Y-108047772D01*
X138834384Y-107996438D01*
X139263335Y-107858774D01*
X139595960Y-107680982D01*
X139807088Y-107386693D01*
X138350000Y-105929605D01*
X136892912Y-107386693D01*
X136452000Y-107386693D01*
X136452000Y-107019622D01*
X136713307Y-107207088D01*
X138170395Y-105750000D01*
X138529605Y-105750000D01*
X139986693Y-107207088D01*
X140280982Y-106995960D01*
X140486954Y-106595303D01*
X140610804Y-106162162D01*
X140647772Y-105713181D01*
X140596438Y-105265616D01*
X140458774Y-104836665D01*
X140280982Y-104504040D01*
X139986693Y-104292912D01*
X138529605Y-105750000D01*
X138170395Y-105750000D01*
X136713307Y-104292912D01*
X136452000Y-104480378D01*
X136452000Y-104113307D01*
X136892912Y-104113307D01*
X138350000Y-105570395D01*
X139801847Y-104118548D01*
X168873000Y-104118548D01*
X168873000Y-104281452D01*
X168904782Y-104441227D01*
X168967123Y-104591731D01*
X169057628Y-104727181D01*
X169148000Y-104817553D01*
X169148001Y-111082446D01*
X169057628Y-111172819D01*
X168967123Y-111308269D01*
X168904782Y-111458773D01*
X168873000Y-111618548D01*
X168873000Y-111781452D01*
X168904782Y-111941227D01*
X168967123Y-112091731D01*
X169057628Y-112227181D01*
X169172819Y-112342372D01*
X169308269Y-112432877D01*
X169458773Y-112495218D01*
X169618548Y-112527000D01*
X169781452Y-112527000D01*
X169941227Y-112495218D01*
X170091731Y-112432877D01*
X170227181Y-112342372D01*
X170342372Y-112227181D01*
X170432877Y-112091731D01*
X170495218Y-111941227D01*
X170527000Y-111781452D01*
X170527000Y-111618548D01*
X170495218Y-111458773D01*
X170432877Y-111308269D01*
X170342372Y-111172819D01*
X170252000Y-111082447D01*
X170252000Y-104817553D01*
X170342372Y-104727181D01*
X170432877Y-104591731D01*
X170495218Y-104441227D01*
X170527000Y-104281452D01*
X170527000Y-104118548D01*
X170495218Y-103958773D01*
X170432877Y-103808269D01*
X170342372Y-103672819D01*
X170227181Y-103557628D01*
X170091731Y-103467123D01*
X169941227Y-103404782D01*
X169781452Y-103373000D01*
X169618548Y-103373000D01*
X169458773Y-103404782D01*
X169308269Y-103467123D01*
X169172819Y-103557628D01*
X169057628Y-103672819D01*
X168967123Y-103808269D01*
X168904782Y-103958773D01*
X168873000Y-104118548D01*
X139801847Y-104118548D01*
X139807088Y-104113307D01*
X139595960Y-103819018D01*
X139195303Y-103613046D01*
X138762162Y-103489196D01*
X138313181Y-103452228D01*
X137865616Y-103503562D01*
X137436665Y-103641226D01*
X137104040Y-103819018D01*
X136892912Y-104113307D01*
X136452000Y-104113307D01*
X136452000Y-103318150D01*
X139861455Y-103318150D01*
X140103222Y-103638565D01*
X140547275Y-103869971D01*
X141027940Y-104010300D01*
X141526745Y-104054159D01*
X142024523Y-103999864D01*
X142502144Y-103849501D01*
X142896778Y-103638565D01*
X143138545Y-103318150D01*
X141500000Y-101679605D01*
X139861455Y-103318150D01*
X136452000Y-103318150D01*
X136452000Y-101526745D01*
X138945841Y-101526745D01*
X139000136Y-102024523D01*
X139150499Y-102502144D01*
X139361435Y-102896778D01*
X139681850Y-103138545D01*
X141320395Y-101500000D01*
X141679605Y-101500000D01*
X143318150Y-103138545D01*
X143638565Y-102896778D01*
X143802418Y-102582355D01*
X143833712Y-102657905D01*
X144101233Y-103058278D01*
X144441722Y-103398767D01*
X144842095Y-103666288D01*
X145286966Y-103850559D01*
X145759238Y-103944500D01*
X146240762Y-103944500D01*
X146713034Y-103850559D01*
X147157905Y-103666288D01*
X147558278Y-103398767D01*
X147898767Y-103058278D01*
X148166288Y-102657905D01*
X148350559Y-102213034D01*
X148444500Y-101740762D01*
X148444500Y-101259238D01*
X148350559Y-100786966D01*
X148166288Y-100342095D01*
X147898767Y-99941722D01*
X147558278Y-99601233D01*
X147157905Y-99333712D01*
X146713034Y-99149441D01*
X146240762Y-99055500D01*
X145759238Y-99055500D01*
X145286966Y-99149441D01*
X144842095Y-99333712D01*
X144441722Y-99601233D01*
X144101233Y-99941722D01*
X143833712Y-100342095D01*
X143804256Y-100413208D01*
X143638565Y-100103222D01*
X143318150Y-99861455D01*
X141679605Y-101500000D01*
X141320395Y-101500000D01*
X139681850Y-99861455D01*
X139361435Y-100103222D01*
X139130029Y-100547275D01*
X138989700Y-101027940D01*
X138945841Y-101526745D01*
X136452000Y-101526745D01*
X136452000Y-99681850D01*
X139861455Y-99681850D01*
X141500000Y-101320395D01*
X143138545Y-99681850D01*
X142896778Y-99361435D01*
X142452725Y-99130029D01*
X141972060Y-98989700D01*
X141473255Y-98945841D01*
X140975477Y-99000136D01*
X140497856Y-99150499D01*
X140103222Y-99361435D01*
X139861455Y-99681850D01*
X136452000Y-99681850D01*
X136452000Y-98886693D01*
X136892912Y-98886693D01*
X137104040Y-99180982D01*
X137504697Y-99386954D01*
X137937838Y-99510804D01*
X138386819Y-99547772D01*
X138834384Y-99496438D01*
X139263335Y-99358774D01*
X139595960Y-99180982D01*
X139807088Y-98886693D01*
X138350000Y-97429605D01*
X136892912Y-98886693D01*
X136452000Y-98886693D01*
X136452000Y-98519622D01*
X136713307Y-98707088D01*
X138170395Y-97250000D01*
X138529605Y-97250000D01*
X139986693Y-98707088D01*
X140137566Y-98598849D01*
X159433000Y-98598849D01*
X159433000Y-98801151D01*
X159472467Y-98999565D01*
X159549885Y-99186467D01*
X159662277Y-99354674D01*
X159805326Y-99497723D01*
X159973533Y-99610115D01*
X160160435Y-99687533D01*
X160358849Y-99727000D01*
X160561151Y-99727000D01*
X160759565Y-99687533D01*
X160946467Y-99610115D01*
X161114674Y-99497723D01*
X161257723Y-99354674D01*
X161370115Y-99186467D01*
X161447533Y-98999565D01*
X161487000Y-98801151D01*
X161487000Y-98598849D01*
X161447533Y-98400435D01*
X161370115Y-98213533D01*
X161257723Y-98045326D01*
X161114674Y-97902277D01*
X160946467Y-97789885D01*
X160759565Y-97712467D01*
X160561151Y-97673000D01*
X160358849Y-97673000D01*
X160160435Y-97712467D01*
X159973533Y-97789885D01*
X159805326Y-97902277D01*
X159662277Y-98045326D01*
X159549885Y-98213533D01*
X159472467Y-98400435D01*
X159433000Y-98598849D01*
X140137566Y-98598849D01*
X140280982Y-98495960D01*
X140486954Y-98095303D01*
X140610804Y-97662162D01*
X140647772Y-97213181D01*
X140596438Y-96765616D01*
X140458774Y-96336665D01*
X140280982Y-96004040D01*
X139986693Y-95792912D01*
X138529605Y-97250000D01*
X138170395Y-97250000D01*
X136713307Y-95792912D01*
X136452000Y-95980378D01*
X136452000Y-95613307D01*
X136892912Y-95613307D01*
X138350000Y-97070395D01*
X139807088Y-95613307D01*
X139595960Y-95319018D01*
X139195303Y-95113046D01*
X138762162Y-94989196D01*
X138313181Y-94952228D01*
X137865616Y-95003562D01*
X137436665Y-95141226D01*
X137104040Y-95319018D01*
X136892912Y-95613307D01*
X136452000Y-95613307D01*
X136452000Y-90364316D01*
X141091000Y-90364316D01*
X141091000Y-90940884D01*
X141203482Y-91506375D01*
X141424126Y-92039055D01*
X141744450Y-92518454D01*
X142152146Y-92926150D01*
X142631545Y-93246474D01*
X143164225Y-93467118D01*
X143729716Y-93579600D01*
X144306284Y-93579600D01*
X144871775Y-93467118D01*
X145404455Y-93246474D01*
X145883854Y-92926150D01*
X146291550Y-92518454D01*
X146611874Y-92039055D01*
X146832518Y-91506375D01*
X146945000Y-90940884D01*
X146945000Y-90364316D01*
X146832518Y-89798825D01*
X146611874Y-89266145D01*
X146291550Y-88786746D01*
X145883854Y-88379050D01*
X145404455Y-88058726D01*
X144871775Y-87838082D01*
X144773570Y-87818548D01*
X157673000Y-87818548D01*
X157673000Y-87981452D01*
X157704782Y-88141227D01*
X157767123Y-88291731D01*
X157857628Y-88427181D01*
X157972819Y-88542372D01*
X158108269Y-88632877D01*
X158258773Y-88695218D01*
X158418548Y-88727000D01*
X158581452Y-88727000D01*
X158614221Y-88720482D01*
X158691789Y-88744012D01*
X158772891Y-88752000D01*
X158772893Y-88752000D01*
X158799999Y-88754670D01*
X158827105Y-88752000D01*
X159982447Y-88752000D01*
X160072819Y-88842372D01*
X160208269Y-88932877D01*
X160358773Y-88995218D01*
X160518548Y-89027000D01*
X160681452Y-89027000D01*
X160841227Y-88995218D01*
X160991731Y-88932877D01*
X161127181Y-88842372D01*
X161242372Y-88727181D01*
X161332877Y-88591731D01*
X161395218Y-88441227D01*
X161427000Y-88281452D01*
X161427000Y-88118548D01*
X161395218Y-87958773D01*
X161332877Y-87808269D01*
X161242372Y-87672819D01*
X161127181Y-87557628D01*
X160991731Y-87467123D01*
X160841227Y-87404782D01*
X160681452Y-87373000D01*
X160518548Y-87373000D01*
X160358773Y-87404782D01*
X160208269Y-87467123D01*
X160072819Y-87557628D01*
X159982447Y-87648000D01*
X159290756Y-87648000D01*
X159232877Y-87508269D01*
X159142372Y-87372819D01*
X159027181Y-87257628D01*
X158891731Y-87167123D01*
X158741227Y-87104782D01*
X158581452Y-87073000D01*
X158418548Y-87073000D01*
X158258773Y-87104782D01*
X158108269Y-87167123D01*
X157972819Y-87257628D01*
X157857628Y-87372819D01*
X157767123Y-87508269D01*
X157704782Y-87658773D01*
X157673000Y-87818548D01*
X144773570Y-87818548D01*
X144306284Y-87725600D01*
X143729716Y-87725600D01*
X143164225Y-87838082D01*
X142631545Y-88058726D01*
X142152146Y-88379050D01*
X141744450Y-88786746D01*
X141424126Y-89266145D01*
X141203482Y-89798825D01*
X141091000Y-90364316D01*
X136452000Y-90364316D01*
X136452000Y-85986693D01*
X136892912Y-85986693D01*
X137104040Y-86280982D01*
X137504697Y-86486954D01*
X137937838Y-86610804D01*
X138386819Y-86647772D01*
X138834384Y-86596438D01*
X139263335Y-86458774D01*
X139595960Y-86280982D01*
X139807088Y-85986693D01*
X138350000Y-84529605D01*
X136892912Y-85986693D01*
X136452000Y-85986693D01*
X136452000Y-85619622D01*
X136713307Y-85807088D01*
X138170395Y-84350000D01*
X138529605Y-84350000D01*
X139986693Y-85807088D01*
X140280982Y-85595960D01*
X140486954Y-85195303D01*
X140610804Y-84762162D01*
X140614395Y-84718548D01*
X161473000Y-84718548D01*
X161473000Y-84881452D01*
X161504782Y-85041227D01*
X161567123Y-85191731D01*
X161657628Y-85327181D01*
X161772819Y-85442372D01*
X161908269Y-85532877D01*
X162058773Y-85595218D01*
X162218548Y-85627000D01*
X162346355Y-85627000D01*
X162448001Y-85728646D01*
X162448000Y-97833673D01*
X162345326Y-97902277D01*
X162202277Y-98045326D01*
X162089885Y-98213533D01*
X162012467Y-98400435D01*
X161973000Y-98598849D01*
X161973000Y-98801151D01*
X162012467Y-98999565D01*
X162089885Y-99186467D01*
X162202277Y-99354674D01*
X162345326Y-99497723D01*
X162513533Y-99610115D01*
X162700435Y-99687533D01*
X162898849Y-99727000D01*
X163101151Y-99727000D01*
X163299565Y-99687533D01*
X163486467Y-99610115D01*
X163654674Y-99497723D01*
X163797723Y-99354674D01*
X163910115Y-99186467D01*
X163987533Y-98999565D01*
X164027000Y-98801151D01*
X164027000Y-98598849D01*
X164513000Y-98598849D01*
X164513000Y-98801151D01*
X164552467Y-98999565D01*
X164629885Y-99186467D01*
X164742277Y-99354674D01*
X164885326Y-99497723D01*
X165053533Y-99610115D01*
X165240435Y-99687533D01*
X165438849Y-99727000D01*
X165641151Y-99727000D01*
X165839565Y-99687533D01*
X166026467Y-99610115D01*
X166194674Y-99497723D01*
X166337723Y-99354674D01*
X166450115Y-99186467D01*
X166527533Y-98999565D01*
X166567000Y-98801151D01*
X166567000Y-98598849D01*
X166527533Y-98400435D01*
X166450115Y-98213533D01*
X166337723Y-98045326D01*
X166194674Y-97902277D01*
X166092000Y-97833673D01*
X166092000Y-87101553D01*
X166154372Y-87039181D01*
X166244877Y-86903731D01*
X166307218Y-86753227D01*
X166339000Y-86593452D01*
X166339000Y-86430548D01*
X166307218Y-86270773D01*
X166244877Y-86120269D01*
X166154372Y-85984819D01*
X166039181Y-85869628D01*
X165903731Y-85779123D01*
X165753227Y-85716782D01*
X165593452Y-85685000D01*
X165430548Y-85685000D01*
X165270773Y-85716782D01*
X165120269Y-85779123D01*
X164984819Y-85869628D01*
X164869628Y-85984819D01*
X164779123Y-86120269D01*
X164716782Y-86270773D01*
X164685000Y-86430548D01*
X164685000Y-86593452D01*
X164716782Y-86753227D01*
X164779123Y-86903731D01*
X164869628Y-87039181D01*
X164984819Y-87154372D01*
X164988001Y-87156498D01*
X164988000Y-97833673D01*
X164885326Y-97902277D01*
X164742277Y-98045326D01*
X164629885Y-98213533D01*
X164552467Y-98400435D01*
X164513000Y-98598849D01*
X164027000Y-98598849D01*
X163987533Y-98400435D01*
X163910115Y-98213533D01*
X163797723Y-98045326D01*
X163654674Y-97902277D01*
X163552000Y-97833673D01*
X163552000Y-85527097D01*
X163554669Y-85499999D01*
X163552000Y-85472901D01*
X163552000Y-85472891D01*
X163544012Y-85391789D01*
X163512448Y-85287737D01*
X163461191Y-85191842D01*
X163392211Y-85107789D01*
X163371154Y-85090508D01*
X163127000Y-84846355D01*
X163127000Y-84718548D01*
X163095218Y-84558773D01*
X163032877Y-84408269D01*
X162942372Y-84272819D01*
X162827181Y-84157628D01*
X162691731Y-84067123D01*
X162541227Y-84004782D01*
X162381452Y-83973000D01*
X162218548Y-83973000D01*
X162058773Y-84004782D01*
X161908269Y-84067123D01*
X161772819Y-84157628D01*
X161657628Y-84272819D01*
X161567123Y-84408269D01*
X161504782Y-84558773D01*
X161473000Y-84718548D01*
X140614395Y-84718548D01*
X140647772Y-84313181D01*
X140596438Y-83865616D01*
X140458774Y-83436665D01*
X140280982Y-83104040D01*
X139986693Y-82892912D01*
X138529605Y-84350000D01*
X138170395Y-84350000D01*
X136713307Y-82892912D01*
X136452000Y-83080378D01*
X136452000Y-82713307D01*
X136892912Y-82713307D01*
X138350000Y-84170395D01*
X139807088Y-82713307D01*
X139595960Y-82419018D01*
X139195303Y-82213046D01*
X138762162Y-82089196D01*
X138313181Y-82052228D01*
X137865616Y-82103562D01*
X137436665Y-82241226D01*
X137104040Y-82419018D01*
X136892912Y-82713307D01*
X136452000Y-82713307D01*
X136452000Y-81918150D01*
X139861455Y-81918150D01*
X140103222Y-82238565D01*
X140547275Y-82469971D01*
X141027940Y-82610300D01*
X141526745Y-82654159D01*
X142024523Y-82599864D01*
X142502144Y-82449501D01*
X142896778Y-82238565D01*
X143138545Y-81918150D01*
X141500000Y-80279605D01*
X139861455Y-81918150D01*
X136452000Y-81918150D01*
X136452000Y-80126745D01*
X138945841Y-80126745D01*
X139000136Y-80624523D01*
X139150499Y-81102144D01*
X139361435Y-81496778D01*
X139681850Y-81738545D01*
X141320395Y-80100000D01*
X141679605Y-80100000D01*
X143318150Y-81738545D01*
X143638565Y-81496778D01*
X143802418Y-81182355D01*
X143833712Y-81257905D01*
X144101233Y-81658278D01*
X144441722Y-81998767D01*
X144842095Y-82266288D01*
X145286966Y-82450559D01*
X145759238Y-82544500D01*
X146240762Y-82544500D01*
X146713034Y-82450559D01*
X146790315Y-82418548D01*
X157673000Y-82418548D01*
X157673000Y-82581452D01*
X157704782Y-82741227D01*
X157767123Y-82891731D01*
X157857628Y-83027181D01*
X157972819Y-83142372D01*
X158108269Y-83232877D01*
X158258773Y-83295218D01*
X158418548Y-83327000D01*
X158581452Y-83327000D01*
X158741227Y-83295218D01*
X158891731Y-83232877D01*
X159027181Y-83142372D01*
X159136111Y-83033442D01*
X163901005Y-83033442D01*
X163991377Y-83123814D01*
X164126827Y-83214319D01*
X164277331Y-83276660D01*
X164437106Y-83308442D01*
X164600010Y-83308442D01*
X164759785Y-83276660D01*
X164910289Y-83214319D01*
X165045739Y-83123814D01*
X165160930Y-83008623D01*
X165251435Y-82873173D01*
X165313776Y-82722669D01*
X165345558Y-82562894D01*
X165345558Y-82399990D01*
X165313776Y-82240215D01*
X165251435Y-82089711D01*
X165160930Y-81954261D01*
X165045739Y-81839070D01*
X164910289Y-81748565D01*
X164759785Y-81686224D01*
X164600010Y-81654442D01*
X164437106Y-81654442D01*
X164277331Y-81686224D01*
X164126827Y-81748565D01*
X163991377Y-81839070D01*
X163901005Y-81929442D01*
X159098995Y-81929442D01*
X159027181Y-81857628D01*
X158891731Y-81767123D01*
X158741227Y-81704782D01*
X158581452Y-81673000D01*
X158418548Y-81673000D01*
X158258773Y-81704782D01*
X158108269Y-81767123D01*
X157972819Y-81857628D01*
X157857628Y-81972819D01*
X157767123Y-82108269D01*
X157704782Y-82258773D01*
X157673000Y-82418548D01*
X146790315Y-82418548D01*
X147157905Y-82266288D01*
X147558278Y-81998767D01*
X147898767Y-81658278D01*
X148166288Y-81257905D01*
X148350559Y-80813034D01*
X148444500Y-80340762D01*
X148444500Y-79859238D01*
X148350559Y-79386966D01*
X148166288Y-78942095D01*
X147898767Y-78541722D01*
X147558278Y-78201233D01*
X147157905Y-77933712D01*
X146713034Y-77749441D01*
X146240762Y-77655500D01*
X145759238Y-77655500D01*
X145286966Y-77749441D01*
X144842095Y-77933712D01*
X144441722Y-78201233D01*
X144101233Y-78541722D01*
X143833712Y-78942095D01*
X143804256Y-79013208D01*
X143638565Y-78703222D01*
X143318150Y-78461455D01*
X141679605Y-80100000D01*
X141320395Y-80100000D01*
X139681850Y-78461455D01*
X139361435Y-78703222D01*
X139130029Y-79147275D01*
X138989700Y-79627940D01*
X138945841Y-80126745D01*
X136452000Y-80126745D01*
X136452000Y-78281850D01*
X139861455Y-78281850D01*
X141500000Y-79920395D01*
X143138545Y-78281850D01*
X142896778Y-77961435D01*
X142452725Y-77730029D01*
X141972060Y-77589700D01*
X141473255Y-77545841D01*
X140975477Y-77600136D01*
X140497856Y-77750499D01*
X140103222Y-77961435D01*
X139861455Y-78281850D01*
X136452000Y-78281850D01*
X136452000Y-77486693D01*
X136892912Y-77486693D01*
X137104040Y-77780982D01*
X137504697Y-77986954D01*
X137937838Y-78110804D01*
X138386819Y-78147772D01*
X138834384Y-78096438D01*
X139263335Y-77958774D01*
X139595960Y-77780982D01*
X139807088Y-77486693D01*
X138350000Y-76029605D01*
X136892912Y-77486693D01*
X136452000Y-77486693D01*
X136452000Y-77119622D01*
X136713307Y-77307088D01*
X138170395Y-75850000D01*
X138529605Y-75850000D01*
X139986693Y-77307088D01*
X140280982Y-77095960D01*
X140486954Y-76695303D01*
X140594681Y-76318548D01*
X164273000Y-76318548D01*
X164273000Y-76481452D01*
X164304782Y-76641227D01*
X164367123Y-76791731D01*
X164457628Y-76927181D01*
X164572819Y-77042372D01*
X164708269Y-77132877D01*
X164858773Y-77195218D01*
X164957418Y-77214840D01*
X169823001Y-82080423D01*
X169823000Y-82824643D01*
X169767123Y-82908269D01*
X169704782Y-83058773D01*
X169673000Y-83218548D01*
X169673000Y-83381452D01*
X169704782Y-83541227D01*
X169767123Y-83691731D01*
X169823001Y-83775358D01*
X169823000Y-93524643D01*
X169767123Y-93608269D01*
X169704782Y-93758773D01*
X169673000Y-93918548D01*
X169673000Y-94081452D01*
X169704782Y-94241227D01*
X169767123Y-94391731D01*
X169823001Y-94475358D01*
X169823000Y-97966755D01*
X169819726Y-98000000D01*
X169823000Y-98033245D01*
X169823000Y-98033251D01*
X169831401Y-98118548D01*
X169832796Y-98132714D01*
X169871508Y-98260329D01*
X169934372Y-98377940D01*
X169986311Y-98441227D01*
X170018973Y-98481026D01*
X170044800Y-98502222D01*
X171394800Y-99852223D01*
X171394806Y-99852228D01*
X173885160Y-102342582D01*
X173904782Y-102441227D01*
X173967123Y-102591731D01*
X174057628Y-102727181D01*
X174172819Y-102842372D01*
X174308269Y-102932877D01*
X174458773Y-102995218D01*
X174618548Y-103027000D01*
X174781452Y-103027000D01*
X174941227Y-102995218D01*
X175091731Y-102932877D01*
X175227181Y-102842372D01*
X175342372Y-102727181D01*
X175432877Y-102591731D01*
X175495218Y-102441227D01*
X175527000Y-102281452D01*
X175527000Y-102118548D01*
X175495218Y-101958773D01*
X175432877Y-101808269D01*
X175342372Y-101672819D01*
X175227181Y-101557628D01*
X175091731Y-101467123D01*
X174941227Y-101404782D01*
X174842582Y-101385160D01*
X172448303Y-98990881D01*
X172458773Y-98995218D01*
X172618548Y-99027000D01*
X172781452Y-99027000D01*
X172941227Y-98995218D01*
X173091731Y-98932877D01*
X173227181Y-98842372D01*
X173342372Y-98727181D01*
X173432877Y-98591731D01*
X173495218Y-98441227D01*
X173527000Y-98281452D01*
X173527000Y-98153644D01*
X174862096Y-96818548D01*
X175873000Y-96818548D01*
X175873000Y-96981452D01*
X175904782Y-97141227D01*
X175967123Y-97291731D01*
X176057628Y-97427181D01*
X176172819Y-97542372D01*
X176308269Y-97632877D01*
X176458773Y-97695218D01*
X176618548Y-97727000D01*
X176781452Y-97727000D01*
X176941227Y-97695218D01*
X177091731Y-97632877D01*
X177227181Y-97542372D01*
X177342372Y-97427181D01*
X177432877Y-97291731D01*
X177441050Y-97272000D01*
X193454670Y-97272000D01*
X193456956Y-97277519D01*
X193585764Y-97470294D01*
X193749706Y-97634236D01*
X193942481Y-97763044D01*
X194156682Y-97851769D01*
X194384076Y-97897000D01*
X194615924Y-97897000D01*
X194843318Y-97851769D01*
X195057519Y-97763044D01*
X195248000Y-97635769D01*
X195248000Y-98574231D01*
X195057519Y-98446956D01*
X194843318Y-98358231D01*
X194615924Y-98313000D01*
X194384076Y-98313000D01*
X194156682Y-98358231D01*
X193942481Y-98446956D01*
X193749706Y-98575764D01*
X193585764Y-98739706D01*
X193456956Y-98932481D01*
X193454670Y-98938000D01*
X180937106Y-98938000D01*
X180910000Y-98935330D01*
X180882894Y-98938000D01*
X180882891Y-98938000D01*
X180801789Y-98945988D01*
X180697737Y-98977552D01*
X180601842Y-99028809D01*
X180517789Y-99097789D01*
X180500504Y-99118851D01*
X180146355Y-99473000D01*
X180018548Y-99473000D01*
X179858773Y-99504782D01*
X179708269Y-99567123D01*
X179572819Y-99657628D01*
X179457628Y-99772819D01*
X179450000Y-99784235D01*
X179442372Y-99772819D01*
X179327181Y-99657628D01*
X179191731Y-99567123D01*
X179041227Y-99504782D01*
X178881452Y-99473000D01*
X178718548Y-99473000D01*
X178558773Y-99504782D01*
X178408269Y-99567123D01*
X178272819Y-99657628D01*
X178157628Y-99772819D01*
X178067123Y-99908269D01*
X178004782Y-100058773D01*
X177973000Y-100218548D01*
X177973000Y-100381452D01*
X178004782Y-100541227D01*
X178067123Y-100691731D01*
X178157628Y-100827181D01*
X178272819Y-100942372D01*
X178408269Y-101032877D01*
X178558773Y-101095218D01*
X178718548Y-101127000D01*
X178846356Y-101127000D01*
X180350508Y-102631154D01*
X180367789Y-102652211D01*
X180388845Y-102669491D01*
X180388846Y-102669492D01*
X180451842Y-102721191D01*
X180547737Y-102772448D01*
X180651789Y-102804012D01*
X180760000Y-102814670D01*
X180787108Y-102812000D01*
X193454670Y-102812000D01*
X193456956Y-102817519D01*
X193585764Y-103010294D01*
X193749706Y-103174236D01*
X193942481Y-103303044D01*
X194156682Y-103391769D01*
X194384076Y-103437000D01*
X194615924Y-103437000D01*
X194843318Y-103391769D01*
X195057519Y-103303044D01*
X195248000Y-103175769D01*
X195248000Y-104114231D01*
X195057519Y-103986956D01*
X194843318Y-103898231D01*
X194615924Y-103853000D01*
X194384076Y-103853000D01*
X194156682Y-103898231D01*
X193942481Y-103986956D01*
X193749706Y-104115764D01*
X193585764Y-104279706D01*
X193456956Y-104472481D01*
X193368231Y-104686682D01*
X193323000Y-104914076D01*
X193323000Y-105145924D01*
X193368231Y-105373318D01*
X193456956Y-105587519D01*
X193585764Y-105780294D01*
X193749706Y-105944236D01*
X193942481Y-106073044D01*
X194156682Y-106161769D01*
X194384076Y-106207000D01*
X194615924Y-106207000D01*
X194843318Y-106161769D01*
X195057519Y-106073044D01*
X195248000Y-105945769D01*
X195248000Y-106271354D01*
X194898421Y-106620934D01*
X193750000Y-106620934D01*
X193666293Y-106629178D01*
X193585804Y-106653595D01*
X193511624Y-106693245D01*
X193446605Y-106746605D01*
X193393245Y-106811624D01*
X193353595Y-106885804D01*
X193329178Y-106966293D01*
X193320934Y-107050000D01*
X193320934Y-108550000D01*
X193329178Y-108633707D01*
X193353595Y-108714196D01*
X193393245Y-108788376D01*
X193446605Y-108853395D01*
X193511624Y-108906755D01*
X193585804Y-108946405D01*
X193666293Y-108970822D01*
X193750000Y-108979066D01*
X195250000Y-108979066D01*
X195333707Y-108970822D01*
X195414196Y-108946405D01*
X195488376Y-108906755D01*
X195553395Y-108853395D01*
X195606755Y-108788376D01*
X195646405Y-108714196D01*
X195670822Y-108633707D01*
X195679066Y-108550000D01*
X195679066Y-107401579D01*
X196041485Y-107039161D01*
X196125764Y-107165294D01*
X196289706Y-107329236D01*
X196482481Y-107458044D01*
X196696682Y-107546769D01*
X196924076Y-107592000D01*
X197155924Y-107592000D01*
X197383318Y-107546769D01*
X197597519Y-107458044D01*
X197790294Y-107329236D01*
X197954236Y-107165294D01*
X198083044Y-106972519D01*
X198171769Y-106758318D01*
X198217000Y-106530924D01*
X198217000Y-106299076D01*
X198171769Y-106071682D01*
X198083044Y-105857481D01*
X197954236Y-105664706D01*
X197790294Y-105500764D01*
X197597519Y-105371956D01*
X197383318Y-105283231D01*
X197155924Y-105238000D01*
X196924076Y-105238000D01*
X196696682Y-105283231D01*
X196482481Y-105371956D01*
X196352000Y-105459141D01*
X196352000Y-104600859D01*
X196482481Y-104688044D01*
X196696682Y-104776769D01*
X196924076Y-104822000D01*
X197155924Y-104822000D01*
X197383318Y-104776769D01*
X197597519Y-104688044D01*
X197790294Y-104559236D01*
X197954236Y-104395294D01*
X198083044Y-104202519D01*
X198171769Y-103988318D01*
X198217000Y-103760924D01*
X198217000Y-103529076D01*
X198171769Y-103301682D01*
X198083044Y-103087481D01*
X197954236Y-102894706D01*
X197790294Y-102730764D01*
X197597519Y-102601956D01*
X197383318Y-102513231D01*
X197155924Y-102468000D01*
X196924076Y-102468000D01*
X196696682Y-102513231D01*
X196482481Y-102601956D01*
X196352000Y-102689141D01*
X196352000Y-101830859D01*
X196482481Y-101918044D01*
X196696682Y-102006769D01*
X196924076Y-102052000D01*
X197155924Y-102052000D01*
X197383318Y-102006769D01*
X197597519Y-101918044D01*
X197790294Y-101789236D01*
X197954236Y-101625294D01*
X198083044Y-101432519D01*
X198171769Y-101218318D01*
X198217000Y-100990924D01*
X198217000Y-100759076D01*
X198171769Y-100531682D01*
X198083044Y-100317481D01*
X197954236Y-100124706D01*
X197790294Y-99960764D01*
X197597519Y-99831956D01*
X197383318Y-99743231D01*
X197155924Y-99698000D01*
X196924076Y-99698000D01*
X196696682Y-99743231D01*
X196482481Y-99831956D01*
X196352000Y-99919141D01*
X196352000Y-99060859D01*
X196482481Y-99148044D01*
X196696682Y-99236769D01*
X196924076Y-99282000D01*
X197155924Y-99282000D01*
X197383318Y-99236769D01*
X197597519Y-99148044D01*
X197790294Y-99019236D01*
X197954236Y-98855294D01*
X198083044Y-98662519D01*
X198171769Y-98448318D01*
X198217000Y-98220924D01*
X198217000Y-97989076D01*
X198171769Y-97761682D01*
X198083044Y-97547481D01*
X197954236Y-97354706D01*
X197790294Y-97190764D01*
X197597519Y-97061956D01*
X197383318Y-96973231D01*
X197155924Y-96928000D01*
X196924076Y-96928000D01*
X196696682Y-96973231D01*
X196482481Y-97061956D01*
X196352000Y-97149141D01*
X196352000Y-96202607D01*
X196374314Y-96180293D01*
X196451595Y-96360936D01*
X196663051Y-96456015D01*
X196888992Y-96508014D01*
X197120738Y-96514936D01*
X197349380Y-96476512D01*
X197566133Y-96394221D01*
X197628405Y-96360936D01*
X197705687Y-96180292D01*
X197040000Y-95514605D01*
X197025858Y-95528748D01*
X196846253Y-95349143D01*
X196860395Y-95335000D01*
X197219605Y-95335000D01*
X197885292Y-96000687D01*
X198065936Y-95923405D01*
X198161015Y-95711949D01*
X198213014Y-95486008D01*
X198219936Y-95254262D01*
X198181512Y-95025620D01*
X198099221Y-94808867D01*
X198065936Y-94746595D01*
X197885292Y-94669313D01*
X197219605Y-95335000D01*
X196860395Y-95335000D01*
X196846253Y-95320858D01*
X197025858Y-95141253D01*
X197040000Y-95155395D01*
X197705687Y-94489708D01*
X197628405Y-94309064D01*
X197416949Y-94213985D01*
X197191008Y-94161986D01*
X196959262Y-94155064D01*
X196730620Y-94193488D01*
X196513867Y-94275779D01*
X196451595Y-94309064D01*
X196374314Y-94489707D01*
X196352000Y-94467393D01*
X196352000Y-93432607D01*
X196374314Y-93410293D01*
X196451595Y-93590936D01*
X196663051Y-93686015D01*
X196888992Y-93738014D01*
X197120738Y-93744936D01*
X197349380Y-93706512D01*
X197566133Y-93624221D01*
X197628405Y-93590936D01*
X197705687Y-93410292D01*
X197040000Y-92744605D01*
X197025858Y-92758748D01*
X196846253Y-92579143D01*
X196860395Y-92565000D01*
X197219605Y-92565000D01*
X197885292Y-93230687D01*
X198065936Y-93153405D01*
X198161015Y-92941949D01*
X198213014Y-92716008D01*
X198219936Y-92484262D01*
X198181512Y-92255620D01*
X198099221Y-92038867D01*
X198065936Y-91976595D01*
X197885292Y-91899313D01*
X197219605Y-92565000D01*
X196860395Y-92565000D01*
X196846253Y-92550858D01*
X197025858Y-92371253D01*
X197040000Y-92385395D01*
X197705687Y-91719708D01*
X197628405Y-91539064D01*
X197416949Y-91443985D01*
X197191008Y-91391986D01*
X196959262Y-91385064D01*
X196730620Y-91423488D01*
X196513867Y-91505779D01*
X196451595Y-91539064D01*
X196374314Y-91719707D01*
X196352000Y-91697393D01*
X196352000Y-90662607D01*
X196374314Y-90640293D01*
X196451595Y-90820936D01*
X196663051Y-90916015D01*
X196888992Y-90968014D01*
X197120738Y-90974936D01*
X197349380Y-90936512D01*
X197566133Y-90854221D01*
X197628405Y-90820936D01*
X197705687Y-90640292D01*
X197040000Y-89974605D01*
X197025858Y-89988748D01*
X196846253Y-89809143D01*
X196860395Y-89795000D01*
X197219605Y-89795000D01*
X197885292Y-90460687D01*
X198065936Y-90383405D01*
X198161015Y-90171949D01*
X198213014Y-89946008D01*
X198219936Y-89714262D01*
X198181512Y-89485620D01*
X198099221Y-89268867D01*
X198065936Y-89206595D01*
X197885292Y-89129313D01*
X197219605Y-89795000D01*
X196860395Y-89795000D01*
X196846253Y-89780858D01*
X197025858Y-89601253D01*
X197040000Y-89615395D01*
X197705687Y-88949708D01*
X197628405Y-88769064D01*
X197416949Y-88673985D01*
X197191008Y-88621986D01*
X196959262Y-88615064D01*
X196730620Y-88653488D01*
X196513867Y-88735779D01*
X196451595Y-88769064D01*
X196374314Y-88949707D01*
X196352000Y-88927393D01*
X196352000Y-87892607D01*
X196374314Y-87870293D01*
X196451595Y-88050936D01*
X196663051Y-88146015D01*
X196888992Y-88198014D01*
X197120738Y-88204936D01*
X197349380Y-88166512D01*
X197566133Y-88084221D01*
X197628405Y-88050936D01*
X197705687Y-87870292D01*
X197040000Y-87204605D01*
X197025858Y-87218748D01*
X196846253Y-87039143D01*
X196860395Y-87025000D01*
X197219605Y-87025000D01*
X197885292Y-87690687D01*
X198065936Y-87613405D01*
X198161015Y-87401949D01*
X198213014Y-87176008D01*
X198219936Y-86944262D01*
X198181512Y-86715620D01*
X198099221Y-86498867D01*
X198065936Y-86436595D01*
X197885292Y-86359313D01*
X197219605Y-87025000D01*
X196860395Y-87025000D01*
X196846253Y-87010858D01*
X197025858Y-86831253D01*
X197040000Y-86845395D01*
X197705687Y-86179708D01*
X197628405Y-85999064D01*
X197416949Y-85903985D01*
X197191008Y-85851986D01*
X196959262Y-85845064D01*
X196730620Y-85883488D01*
X196513867Y-85965779D01*
X196451595Y-85999064D01*
X196374314Y-86179707D01*
X196352000Y-86157393D01*
X196352000Y-85122607D01*
X196374314Y-85100293D01*
X196451595Y-85280936D01*
X196663051Y-85376015D01*
X196888992Y-85428014D01*
X197120738Y-85434936D01*
X197349380Y-85396512D01*
X197566133Y-85314221D01*
X197628405Y-85280936D01*
X197705687Y-85100292D01*
X197040000Y-84434605D01*
X197025858Y-84448748D01*
X196846253Y-84269143D01*
X196860395Y-84255000D01*
X197219605Y-84255000D01*
X197885292Y-84920687D01*
X198065936Y-84843405D01*
X198161015Y-84631949D01*
X198213014Y-84406008D01*
X198219936Y-84174262D01*
X198181512Y-83945620D01*
X198099221Y-83728867D01*
X198065936Y-83666595D01*
X197885292Y-83589313D01*
X197219605Y-84255000D01*
X196860395Y-84255000D01*
X196194708Y-83589313D01*
X196014064Y-83666595D01*
X195918985Y-83878051D01*
X195866986Y-84103992D01*
X195861697Y-84281052D01*
X195409500Y-83828856D01*
X195392211Y-83807789D01*
X195308158Y-83738809D01*
X195300053Y-83734477D01*
X195414236Y-83620294D01*
X195543044Y-83427519D01*
X195550421Y-83409708D01*
X196374313Y-83409708D01*
X197040000Y-84075395D01*
X197705687Y-83409708D01*
X197628405Y-83229064D01*
X197416949Y-83133985D01*
X197191008Y-83081986D01*
X196959262Y-83075064D01*
X196730620Y-83113488D01*
X196513867Y-83195779D01*
X196451595Y-83229064D01*
X196374313Y-83409708D01*
X195550421Y-83409708D01*
X195631769Y-83213318D01*
X195677000Y-82985924D01*
X195677000Y-82754076D01*
X195631769Y-82526682D01*
X195550422Y-82330292D01*
X196374313Y-82330292D01*
X196451595Y-82510936D01*
X196663051Y-82606015D01*
X196888992Y-82658014D01*
X197120738Y-82664936D01*
X197349380Y-82626512D01*
X197566133Y-82544221D01*
X197628405Y-82510936D01*
X197705687Y-82330292D01*
X197040000Y-81664605D01*
X196374313Y-82330292D01*
X195550422Y-82330292D01*
X195543044Y-82312481D01*
X195414236Y-82119706D01*
X195250294Y-81955764D01*
X195057519Y-81826956D01*
X194843318Y-81738231D01*
X194615924Y-81693000D01*
X194384076Y-81693000D01*
X194156682Y-81738231D01*
X193942481Y-81826956D01*
X193749706Y-81955764D01*
X193585764Y-82119706D01*
X193456956Y-82312481D01*
X193368231Y-82526682D01*
X193323000Y-82754076D01*
X193323000Y-82985924D01*
X193368231Y-83213318D01*
X193456956Y-83427519D01*
X193585764Y-83620294D01*
X193613470Y-83648000D01*
X189579066Y-83648000D01*
X189579066Y-82650000D01*
X189570822Y-82566293D01*
X189546405Y-82485804D01*
X189506755Y-82411624D01*
X189453395Y-82346605D01*
X189388376Y-82293245D01*
X189314196Y-82253595D01*
X189233707Y-82229178D01*
X189150000Y-82220934D01*
X188506544Y-82220934D01*
X188672487Y-82187926D01*
X188904886Y-82091663D01*
X189114040Y-81951911D01*
X189291911Y-81774040D01*
X189431093Y-81565738D01*
X195860064Y-81565738D01*
X195898488Y-81794380D01*
X195980779Y-82011133D01*
X196014064Y-82073405D01*
X196194708Y-82150687D01*
X196860395Y-81485000D01*
X197219605Y-81485000D01*
X197885292Y-82150687D01*
X198065936Y-82073405D01*
X198161015Y-81861949D01*
X198213014Y-81636008D01*
X198219936Y-81404262D01*
X198181512Y-81175620D01*
X198099221Y-80958867D01*
X198065936Y-80896595D01*
X197885292Y-80819313D01*
X197219605Y-81485000D01*
X196860395Y-81485000D01*
X196194708Y-80819313D01*
X196014064Y-80896595D01*
X195918985Y-81108051D01*
X195866986Y-81333992D01*
X195860064Y-81565738D01*
X189431093Y-81565738D01*
X189431663Y-81564886D01*
X189527926Y-81332487D01*
X189577000Y-81085774D01*
X189577000Y-80834226D01*
X189527926Y-80587513D01*
X189431663Y-80355114D01*
X189291911Y-80145960D01*
X189114040Y-79968089D01*
X188904886Y-79828337D01*
X188672487Y-79732074D01*
X188460966Y-79690000D01*
X188672487Y-79647926D01*
X188904886Y-79551663D01*
X189114040Y-79411911D01*
X189291911Y-79234040D01*
X189431663Y-79024886D01*
X189453569Y-78972000D01*
X192591356Y-78972000D01*
X193370517Y-79751162D01*
X193368231Y-79756682D01*
X193323000Y-79984076D01*
X193323000Y-80215924D01*
X193368231Y-80443318D01*
X193456956Y-80657519D01*
X193585764Y-80850294D01*
X193749706Y-81014236D01*
X193942481Y-81143044D01*
X194156682Y-81231769D01*
X194384076Y-81277000D01*
X194615924Y-81277000D01*
X194843318Y-81231769D01*
X195057519Y-81143044D01*
X195250294Y-81014236D01*
X195414236Y-80850294D01*
X195543044Y-80657519D01*
X195550421Y-80639708D01*
X196374313Y-80639708D01*
X197040000Y-81305395D01*
X197705687Y-80639708D01*
X197628405Y-80459064D01*
X197416949Y-80363985D01*
X197191008Y-80311986D01*
X196959262Y-80305064D01*
X196730620Y-80343488D01*
X196513867Y-80425779D01*
X196451595Y-80459064D01*
X196374313Y-80639708D01*
X195550421Y-80639708D01*
X195631769Y-80443318D01*
X195677000Y-80215924D01*
X195677000Y-79984076D01*
X195631769Y-79756682D01*
X195550422Y-79560292D01*
X196374313Y-79560292D01*
X196451595Y-79740936D01*
X196663051Y-79836015D01*
X196888992Y-79888014D01*
X197120738Y-79894936D01*
X197349380Y-79856512D01*
X197566133Y-79774221D01*
X197628405Y-79740936D01*
X197705687Y-79560292D01*
X197040000Y-78894605D01*
X196374313Y-79560292D01*
X195550422Y-79560292D01*
X195543044Y-79542481D01*
X195414236Y-79349706D01*
X195250294Y-79185764D01*
X195057519Y-79056956D01*
X194843318Y-78968231D01*
X194615924Y-78923000D01*
X194384076Y-78923000D01*
X194156682Y-78968231D01*
X194151162Y-78970517D01*
X193976383Y-78795738D01*
X195860064Y-78795738D01*
X195898488Y-79024380D01*
X195980779Y-79241133D01*
X196014064Y-79303405D01*
X196194708Y-79380687D01*
X196860395Y-78715000D01*
X197219605Y-78715000D01*
X197885292Y-79380687D01*
X198065936Y-79303405D01*
X198161015Y-79091949D01*
X198213014Y-78866008D01*
X198219936Y-78634262D01*
X198181512Y-78405620D01*
X198099221Y-78188867D01*
X198065936Y-78126595D01*
X197885292Y-78049313D01*
X197219605Y-78715000D01*
X196860395Y-78715000D01*
X196194708Y-78049313D01*
X196014064Y-78126595D01*
X195918985Y-78338051D01*
X195866986Y-78563992D01*
X195860064Y-78795738D01*
X193976383Y-78795738D01*
X193229500Y-78048856D01*
X193212211Y-78027789D01*
X193128158Y-77958809D01*
X193032263Y-77907552D01*
X192928211Y-77875988D01*
X192847109Y-77868000D01*
X192847106Y-77868000D01*
X192820000Y-77865330D01*
X192792894Y-77868000D01*
X189453569Y-77868000D01*
X189431663Y-77815114D01*
X189291911Y-77605960D01*
X189114040Y-77428089D01*
X188904886Y-77288337D01*
X188672487Y-77192074D01*
X188425774Y-77143000D01*
X188174226Y-77143000D01*
X187927513Y-77192074D01*
X187695114Y-77288337D01*
X187485960Y-77428089D01*
X187308089Y-77605960D01*
X187168337Y-77815114D01*
X187072074Y-78047513D01*
X187023000Y-78294226D01*
X187023000Y-78545774D01*
X187072074Y-78792487D01*
X187168337Y-79024886D01*
X187308089Y-79234040D01*
X187485960Y-79411911D01*
X187695114Y-79551663D01*
X187927513Y-79647926D01*
X188139034Y-79690000D01*
X187927513Y-79732074D01*
X187695114Y-79828337D01*
X187485960Y-79968089D01*
X187308089Y-80145960D01*
X187168337Y-80355114D01*
X187072074Y-80587513D01*
X187023000Y-80834226D01*
X187023000Y-81085774D01*
X187072074Y-81332487D01*
X187168337Y-81564886D01*
X187308089Y-81774040D01*
X187485960Y-81951911D01*
X187695114Y-82091663D01*
X187927513Y-82187926D01*
X188093456Y-82220934D01*
X187450000Y-82220934D01*
X187366293Y-82229178D01*
X187285804Y-82253595D01*
X187211624Y-82293245D01*
X187146605Y-82346605D01*
X187093245Y-82411624D01*
X187053595Y-82485804D01*
X187029178Y-82566293D01*
X187020934Y-82650000D01*
X187020934Y-84350000D01*
X187029178Y-84433707D01*
X187053595Y-84514196D01*
X187093245Y-84588376D01*
X187146605Y-84653395D01*
X187211624Y-84706755D01*
X187285804Y-84746405D01*
X187366293Y-84770822D01*
X187450000Y-84779066D01*
X189150000Y-84779066D01*
X189233707Y-84770822D01*
X189295752Y-84752000D01*
X193723470Y-84752000D01*
X193585764Y-84889706D01*
X193456956Y-85082481D01*
X193368231Y-85296682D01*
X193323000Y-85524076D01*
X193323000Y-85755924D01*
X193368231Y-85983318D01*
X193456956Y-86197519D01*
X193585764Y-86390294D01*
X193749706Y-86554236D01*
X193942481Y-86683044D01*
X194156682Y-86771769D01*
X194384076Y-86817000D01*
X194615924Y-86817000D01*
X194843318Y-86771769D01*
X195057519Y-86683044D01*
X195248001Y-86555768D01*
X195248001Y-87494232D01*
X195057519Y-87366956D01*
X194843318Y-87278231D01*
X194615924Y-87233000D01*
X194384076Y-87233000D01*
X194156682Y-87278231D01*
X193942481Y-87366956D01*
X193749706Y-87495764D01*
X193585764Y-87659706D01*
X193456956Y-87852481D01*
X193368231Y-88066682D01*
X193323000Y-88294076D01*
X193323000Y-88525924D01*
X193368231Y-88753318D01*
X193456956Y-88967519D01*
X193585764Y-89160294D01*
X193749706Y-89324236D01*
X193942481Y-89453044D01*
X194156682Y-89541769D01*
X194384076Y-89587000D01*
X194615924Y-89587000D01*
X194843318Y-89541769D01*
X195057519Y-89453044D01*
X195248001Y-89325768D01*
X195248001Y-90264232D01*
X195057519Y-90136956D01*
X194843318Y-90048231D01*
X194615924Y-90003000D01*
X194384076Y-90003000D01*
X194156682Y-90048231D01*
X193942481Y-90136956D01*
X193749706Y-90265764D01*
X193585764Y-90429706D01*
X193456956Y-90622481D01*
X193368231Y-90836682D01*
X193323000Y-91064076D01*
X193323000Y-91295924D01*
X193368231Y-91523318D01*
X193456956Y-91737519D01*
X193585764Y-91930294D01*
X193749706Y-92094236D01*
X193942481Y-92223044D01*
X194156682Y-92311769D01*
X194384076Y-92357000D01*
X194615924Y-92357000D01*
X194843318Y-92311769D01*
X195057519Y-92223044D01*
X195248001Y-92095768D01*
X195248001Y-93034232D01*
X195057519Y-92906956D01*
X194843318Y-92818231D01*
X194615924Y-92773000D01*
X194384076Y-92773000D01*
X194156682Y-92818231D01*
X193942481Y-92906956D01*
X193749706Y-93035764D01*
X193585764Y-93199706D01*
X193456956Y-93392481D01*
X193368231Y-93606682D01*
X193323000Y-93834076D01*
X193323000Y-94065924D01*
X193368231Y-94293318D01*
X193456956Y-94507519D01*
X193585764Y-94700294D01*
X193749706Y-94864236D01*
X193942481Y-94993044D01*
X194156682Y-95081769D01*
X194384076Y-95127000D01*
X194615924Y-95127000D01*
X194843318Y-95081769D01*
X195057519Y-94993044D01*
X195248001Y-94865768D01*
X195248000Y-95804232D01*
X195057519Y-95676956D01*
X194843318Y-95588231D01*
X194615924Y-95543000D01*
X194384076Y-95543000D01*
X194156682Y-95588231D01*
X193942481Y-95676956D01*
X193749706Y-95805764D01*
X193585764Y-95969706D01*
X193456956Y-96162481D01*
X193454670Y-96168000D01*
X177093044Y-96168000D01*
X177091731Y-96167123D01*
X176941227Y-96104782D01*
X176781452Y-96073000D01*
X176618548Y-96073000D01*
X176458773Y-96104782D01*
X176308269Y-96167123D01*
X176172819Y-96257628D01*
X176057628Y-96372819D01*
X175967123Y-96508269D01*
X175904782Y-96658773D01*
X175873000Y-96818548D01*
X174862096Y-96818548D01*
X180471154Y-91209492D01*
X180492211Y-91192211D01*
X180514279Y-91165321D01*
X180561191Y-91108159D01*
X180612447Y-91012264D01*
X180612448Y-91012263D01*
X180644012Y-90908211D01*
X180652000Y-90827109D01*
X180652000Y-90827099D01*
X180654669Y-90800001D01*
X180652000Y-90772903D01*
X180652000Y-84117553D01*
X180742372Y-84027181D01*
X180800000Y-83940935D01*
X180857628Y-84027181D01*
X180972819Y-84142372D01*
X181108269Y-84232877D01*
X181258773Y-84295218D01*
X181418548Y-84327000D01*
X181581452Y-84327000D01*
X181741227Y-84295218D01*
X181891731Y-84232877D01*
X182027181Y-84142372D01*
X182117553Y-84052000D01*
X182256509Y-84052000D01*
X190548000Y-92343493D01*
X190548000Y-92471299D01*
X190579782Y-92631074D01*
X190642123Y-92781578D01*
X190732628Y-92917028D01*
X190847819Y-93032219D01*
X190983269Y-93122724D01*
X191133773Y-93185065D01*
X191293548Y-93216847D01*
X191456452Y-93216847D01*
X191616227Y-93185065D01*
X191766731Y-93122724D01*
X191902181Y-93032219D01*
X192017372Y-92917028D01*
X192107877Y-92781578D01*
X192170218Y-92631074D01*
X192202000Y-92471299D01*
X192202000Y-92308395D01*
X192170218Y-92148620D01*
X192107877Y-91998116D01*
X192017372Y-91862666D01*
X191902181Y-91747475D01*
X191766731Y-91656970D01*
X191616227Y-91594629D01*
X191456452Y-91562847D01*
X191328646Y-91562847D01*
X182894654Y-83128857D01*
X182877364Y-83107789D01*
X182793311Y-83038809D01*
X182697416Y-82987552D01*
X182593364Y-82955988D01*
X182512262Y-82948000D01*
X182512259Y-82948000D01*
X182485153Y-82945330D01*
X182458047Y-82948000D01*
X182117553Y-82948000D01*
X182027181Y-82857628D01*
X181891731Y-82767123D01*
X181741227Y-82704782D01*
X181581452Y-82673000D01*
X181418548Y-82673000D01*
X181258773Y-82704782D01*
X181108269Y-82767123D01*
X180972819Y-82857628D01*
X180857628Y-82972819D01*
X180800000Y-83059065D01*
X180742372Y-82972819D01*
X180627181Y-82857628D01*
X180491731Y-82767123D01*
X180341227Y-82704782D01*
X180181452Y-82673000D01*
X180018548Y-82673000D01*
X179858773Y-82704782D01*
X179708269Y-82767123D01*
X179572819Y-82857628D01*
X179457628Y-82972819D01*
X179367123Y-83108269D01*
X179304782Y-83258773D01*
X179273000Y-83418548D01*
X179273000Y-83581452D01*
X179304782Y-83741227D01*
X179367123Y-83891731D01*
X179457628Y-84027181D01*
X179548000Y-84117553D01*
X179548001Y-90571353D01*
X172746356Y-97373000D01*
X172618548Y-97373000D01*
X172458773Y-97404782D01*
X172308269Y-97467123D01*
X172172819Y-97557628D01*
X172057628Y-97672819D01*
X171967123Y-97808269D01*
X171904782Y-97958773D01*
X171873000Y-98118548D01*
X171873000Y-98281452D01*
X171904782Y-98441227D01*
X171909118Y-98451696D01*
X171177000Y-97719578D01*
X171177000Y-94475357D01*
X171232877Y-94391731D01*
X171295218Y-94241227D01*
X171327000Y-94081452D01*
X171327000Y-93918548D01*
X171295218Y-93758773D01*
X171232877Y-93608269D01*
X171177000Y-93524643D01*
X171177000Y-83775357D01*
X171232877Y-83691731D01*
X171295218Y-83541227D01*
X171327000Y-83381452D01*
X171327000Y-83218548D01*
X171295218Y-83058773D01*
X171232877Y-82908269D01*
X171177000Y-82824643D01*
X171177000Y-81833241D01*
X171180274Y-81799999D01*
X171177000Y-81766757D01*
X171177000Y-81766748D01*
X171167204Y-81667285D01*
X171128492Y-81539670D01*
X171065628Y-81422059D01*
X170981027Y-81318973D01*
X170955196Y-81297774D01*
X165914840Y-76257418D01*
X165895218Y-76158773D01*
X165832877Y-76008269D01*
X165742372Y-75872819D01*
X165627181Y-75757628D01*
X165491731Y-75667123D01*
X165341227Y-75604782D01*
X165311401Y-75598849D01*
X167333000Y-75598849D01*
X167333000Y-75801151D01*
X167372467Y-75999565D01*
X167449885Y-76186467D01*
X167562277Y-76354674D01*
X167705326Y-76497723D01*
X167873533Y-76610115D01*
X168060435Y-76687533D01*
X168258849Y-76727000D01*
X168461151Y-76727000D01*
X168659565Y-76687533D01*
X168846467Y-76610115D01*
X169014674Y-76497723D01*
X169157723Y-76354674D01*
X169270115Y-76186467D01*
X169347533Y-75999565D01*
X169387000Y-75801151D01*
X169387000Y-75598849D01*
X169873000Y-75598849D01*
X169873000Y-75801151D01*
X169912467Y-75999565D01*
X169989885Y-76186467D01*
X170102277Y-76354674D01*
X170245326Y-76497723D01*
X170413533Y-76610115D01*
X170600435Y-76687533D01*
X170798849Y-76727000D01*
X171001151Y-76727000D01*
X171199565Y-76687533D01*
X171386467Y-76610115D01*
X171554674Y-76497723D01*
X171697723Y-76354674D01*
X171810115Y-76186467D01*
X171887533Y-75999565D01*
X171927000Y-75801151D01*
X171927000Y-75598849D01*
X172413000Y-75598849D01*
X172413000Y-75801151D01*
X172452467Y-75999565D01*
X172529885Y-76186467D01*
X172642277Y-76354674D01*
X172785326Y-76497723D01*
X172953533Y-76610115D01*
X173140435Y-76687533D01*
X173338849Y-76727000D01*
X173541151Y-76727000D01*
X173739565Y-76687533D01*
X173926467Y-76610115D01*
X174094674Y-76497723D01*
X174237723Y-76354674D01*
X174350115Y-76186467D01*
X174427533Y-75999565D01*
X174467000Y-75801151D01*
X174467000Y-75598849D01*
X174427533Y-75400435D01*
X174350115Y-75213533D01*
X174237723Y-75045326D01*
X174094674Y-74902277D01*
X173926467Y-74789885D01*
X173739565Y-74712467D01*
X173541151Y-74673000D01*
X173338849Y-74673000D01*
X173140435Y-74712467D01*
X172953533Y-74789885D01*
X172785326Y-74902277D01*
X172642277Y-75045326D01*
X172529885Y-75213533D01*
X172452467Y-75400435D01*
X172413000Y-75598849D01*
X171927000Y-75598849D01*
X171887533Y-75400435D01*
X171810115Y-75213533D01*
X171697723Y-75045326D01*
X171554674Y-74902277D01*
X171386467Y-74789885D01*
X171199565Y-74712467D01*
X171001151Y-74673000D01*
X170798849Y-74673000D01*
X170600435Y-74712467D01*
X170413533Y-74789885D01*
X170245326Y-74902277D01*
X170102277Y-75045326D01*
X169989885Y-75213533D01*
X169912467Y-75400435D01*
X169873000Y-75598849D01*
X169387000Y-75598849D01*
X169347533Y-75400435D01*
X169270115Y-75213533D01*
X169157723Y-75045326D01*
X169014674Y-74902277D01*
X168846467Y-74789885D01*
X168659565Y-74712467D01*
X168461151Y-74673000D01*
X168258849Y-74673000D01*
X168060435Y-74712467D01*
X167873533Y-74789885D01*
X167705326Y-74902277D01*
X167562277Y-75045326D01*
X167449885Y-75213533D01*
X167372467Y-75400435D01*
X167333000Y-75598849D01*
X165311401Y-75598849D01*
X165181452Y-75573000D01*
X165018548Y-75573000D01*
X164858773Y-75604782D01*
X164708269Y-75667123D01*
X164572819Y-75757628D01*
X164457628Y-75872819D01*
X164367123Y-76008269D01*
X164304782Y-76158773D01*
X164273000Y-76318548D01*
X140594681Y-76318548D01*
X140610804Y-76262162D01*
X140647772Y-75813181D01*
X140596438Y-75365616D01*
X140458774Y-74936665D01*
X140280982Y-74604040D01*
X139986693Y-74392912D01*
X138529605Y-75850000D01*
X138170395Y-75850000D01*
X136713307Y-74392912D01*
X136452000Y-74580378D01*
X136452000Y-74213307D01*
X136892912Y-74213307D01*
X138350000Y-75670395D01*
X139807088Y-74213307D01*
X139595960Y-73919018D01*
X139195303Y-73713046D01*
X138762162Y-73589196D01*
X138313181Y-73552228D01*
X137865616Y-73603562D01*
X137436665Y-73741226D01*
X137104040Y-73919018D01*
X136892912Y-74213307D01*
X136452000Y-74213307D01*
X136452000Y-71118548D01*
X189873000Y-71118548D01*
X189873000Y-71281452D01*
X189904782Y-71441227D01*
X189967123Y-71591731D01*
X190057628Y-71727181D01*
X190172819Y-71842372D01*
X190308269Y-71932877D01*
X190458773Y-71995218D01*
X190618548Y-72027000D01*
X190746356Y-72027000D01*
X193323000Y-74603646D01*
X193323000Y-74675924D01*
X193368231Y-74903318D01*
X193456956Y-75117519D01*
X193575343Y-75294697D01*
X191527000Y-73246356D01*
X191527000Y-73118548D01*
X191495218Y-72958773D01*
X191432877Y-72808269D01*
X191342372Y-72672819D01*
X191227181Y-72557628D01*
X191091731Y-72467123D01*
X190941227Y-72404782D01*
X190781452Y-72373000D01*
X190618548Y-72373000D01*
X190458773Y-72404782D01*
X190308269Y-72467123D01*
X190172819Y-72557628D01*
X190057628Y-72672819D01*
X189967123Y-72808269D01*
X189904782Y-72958773D01*
X189873000Y-73118548D01*
X189873000Y-73281452D01*
X189904782Y-73441227D01*
X189967123Y-73591731D01*
X190057628Y-73727181D01*
X190172819Y-73842372D01*
X190308269Y-73932877D01*
X190458773Y-73995218D01*
X190618548Y-74027000D01*
X190746356Y-74027000D01*
X193470927Y-76751572D01*
X193456956Y-76772481D01*
X193368231Y-76986682D01*
X193323000Y-77214076D01*
X193323000Y-77445924D01*
X193368231Y-77673318D01*
X193456956Y-77887519D01*
X193585764Y-78080294D01*
X193749706Y-78244236D01*
X193942481Y-78373044D01*
X194156682Y-78461769D01*
X194384076Y-78507000D01*
X194615924Y-78507000D01*
X194843318Y-78461769D01*
X195057519Y-78373044D01*
X195250294Y-78244236D01*
X195414236Y-78080294D01*
X195543044Y-77887519D01*
X195550421Y-77869708D01*
X196374313Y-77869708D01*
X197040000Y-78535395D01*
X197705687Y-77869708D01*
X197628405Y-77689064D01*
X197416949Y-77593985D01*
X197191008Y-77541986D01*
X196959262Y-77535064D01*
X196730620Y-77573488D01*
X196513867Y-77655779D01*
X196451595Y-77689064D01*
X196374313Y-77869708D01*
X195550421Y-77869708D01*
X195631769Y-77673318D01*
X195677000Y-77445924D01*
X195677000Y-77214076D01*
X195631769Y-76986682D01*
X195550422Y-76790292D01*
X196374313Y-76790292D01*
X196451595Y-76970936D01*
X196663051Y-77066015D01*
X196888992Y-77118014D01*
X197120738Y-77124936D01*
X197349380Y-77086512D01*
X197566133Y-77004221D01*
X197628405Y-76970936D01*
X197705687Y-76790292D01*
X197040000Y-76124605D01*
X196374313Y-76790292D01*
X195550422Y-76790292D01*
X195543044Y-76772481D01*
X195414236Y-76579706D01*
X195250294Y-76415764D01*
X195057519Y-76286956D01*
X194843318Y-76198231D01*
X194615924Y-76153000D01*
X194433646Y-76153000D01*
X194306384Y-76025738D01*
X195860064Y-76025738D01*
X195898488Y-76254380D01*
X195980779Y-76471133D01*
X196014064Y-76533405D01*
X196194708Y-76610687D01*
X196860395Y-75945000D01*
X197219605Y-75945000D01*
X197885292Y-76610687D01*
X198065936Y-76533405D01*
X198161015Y-76321949D01*
X198213014Y-76096008D01*
X198219936Y-75864262D01*
X198181512Y-75635620D01*
X198099221Y-75418867D01*
X198065936Y-75356595D01*
X197885292Y-75279313D01*
X197219605Y-75945000D01*
X196860395Y-75945000D01*
X196194708Y-75279313D01*
X196014064Y-75356595D01*
X195918985Y-75568051D01*
X195866986Y-75793992D01*
X195860064Y-76025738D01*
X194306384Y-76025738D01*
X193765303Y-75484658D01*
X193942481Y-75603044D01*
X194156682Y-75691769D01*
X194384076Y-75737000D01*
X194615924Y-75737000D01*
X194843318Y-75691769D01*
X195057519Y-75603044D01*
X195250294Y-75474236D01*
X195414236Y-75310294D01*
X195543044Y-75117519D01*
X195550421Y-75099708D01*
X196374313Y-75099708D01*
X197040000Y-75765395D01*
X197705687Y-75099708D01*
X197628405Y-74919064D01*
X197416949Y-74823985D01*
X197191008Y-74771986D01*
X196959262Y-74765064D01*
X196730620Y-74803488D01*
X196513867Y-74885779D01*
X196451595Y-74919064D01*
X196374313Y-75099708D01*
X195550421Y-75099708D01*
X195631769Y-74903318D01*
X195677000Y-74675924D01*
X195677000Y-74444076D01*
X195631769Y-74216682D01*
X195543044Y-74002481D01*
X195414236Y-73809706D01*
X195250294Y-73645764D01*
X195057519Y-73516956D01*
X194843318Y-73428231D01*
X194615924Y-73383000D01*
X194384076Y-73383000D01*
X194156682Y-73428231D01*
X193942481Y-73516956D01*
X193855632Y-73574986D01*
X191527000Y-71246356D01*
X191527000Y-71118548D01*
X191495218Y-70958773D01*
X191432877Y-70808269D01*
X191342372Y-70672819D01*
X191227181Y-70557628D01*
X191091731Y-70467123D01*
X190941227Y-70404782D01*
X190781452Y-70373000D01*
X190618548Y-70373000D01*
X190458773Y-70404782D01*
X190308269Y-70467123D01*
X190172819Y-70557628D01*
X190057628Y-70672819D01*
X189967123Y-70808269D01*
X189904782Y-70958773D01*
X189873000Y-71118548D01*
X136452000Y-71118548D01*
X136452000Y-69680896D01*
X193928709Y-69680896D01*
X194204705Y-70030508D01*
X194697245Y-70290333D01*
X195231010Y-70449076D01*
X195785488Y-70500636D01*
X196339371Y-70443032D01*
X196871373Y-70278478D01*
X197335295Y-70030508D01*
X197611291Y-69680896D01*
X195770000Y-67839605D01*
X193928709Y-69680896D01*
X136452000Y-69680896D01*
X136452000Y-67675488D01*
X192929364Y-67675488D01*
X192986968Y-68229371D01*
X193151522Y-68761373D01*
X193399492Y-69225295D01*
X193749104Y-69501291D01*
X195590395Y-67660000D01*
X195949605Y-67660000D01*
X197790896Y-69501291D01*
X198140508Y-69225295D01*
X198400333Y-68732755D01*
X198559076Y-68198990D01*
X198610636Y-67644512D01*
X198553032Y-67090629D01*
X198388478Y-66558627D01*
X198140508Y-66094705D01*
X197790896Y-65818709D01*
X195949605Y-67660000D01*
X195590395Y-67660000D01*
X193749104Y-65818709D01*
X193399492Y-66094705D01*
X193139667Y-66587245D01*
X192980924Y-67121010D01*
X192929364Y-67675488D01*
X136452000Y-67675488D01*
X136452000Y-65052000D01*
X194649024Y-65052000D01*
X194204705Y-65289492D01*
G36*
X193456956Y-100047519D02*
G01*
X193585764Y-100240294D01*
X193749706Y-100404236D01*
X193942481Y-100533044D01*
X194156682Y-100621769D01*
X194384076Y-100667000D01*
X194615924Y-100667000D01*
X194843318Y-100621769D01*
X195057519Y-100533044D01*
X195248000Y-100405769D01*
X195248000Y-101344231D01*
X195057519Y-101216956D01*
X194843318Y-101128231D01*
X194615924Y-101083000D01*
X194384076Y-101083000D01*
X194156682Y-101128231D01*
X193942481Y-101216956D01*
X193749706Y-101345764D01*
X193585764Y-101509706D01*
X193456956Y-101702481D01*
X193454670Y-101708000D01*
X180988646Y-101708000D01*
X180365718Y-101085073D01*
X180491731Y-101032877D01*
X180627181Y-100942372D01*
X180742372Y-100827181D01*
X180832877Y-100691731D01*
X180895218Y-100541227D01*
X180927000Y-100381452D01*
X180927000Y-100253645D01*
X181138645Y-100042000D01*
X193454670Y-100042000D01*
X193456956Y-100047519D01*
G37*
X193456956Y-100047519D02*
X193585764Y-100240294D01*
X193749706Y-100404236D01*
X193942481Y-100533044D01*
X194156682Y-100621769D01*
X194384076Y-100667000D01*
X194615924Y-100667000D01*
X194843318Y-100621769D01*
X195057519Y-100533044D01*
X195248000Y-100405769D01*
X195248000Y-101344231D01*
X195057519Y-101216956D01*
X194843318Y-101128231D01*
X194615924Y-101083000D01*
X194384076Y-101083000D01*
X194156682Y-101128231D01*
X193942481Y-101216956D01*
X193749706Y-101345764D01*
X193585764Y-101509706D01*
X193456956Y-101702481D01*
X193454670Y-101708000D01*
X180988646Y-101708000D01*
X180365718Y-101085073D01*
X180491731Y-101032877D01*
X180627181Y-100942372D01*
X180742372Y-100827181D01*
X180832877Y-100691731D01*
X180895218Y-100541227D01*
X180927000Y-100381452D01*
X180927000Y-100253645D01*
X181138645Y-100042000D01*
X193454670Y-100042000D01*
X193456956Y-100047519D01*
%TD*%
M02*
