%TF.GenerationSoftware,KiCad,Pcbnew,(5.1.6)-1*%
%TF.CreationDate,2023-01-27T11:01:23-05:00*%
%TF.ProjectId,Amiga-Stereo-Digitizer,416d6967-612d-4537-9465-72656f2d4469,rev?*%
%TF.SameCoordinates,Original*%
%TF.FileFunction,Soldermask,Top*%
%TF.FilePolarity,Negative*%
%FSLAX46Y46*%
G04 Gerber Fmt 4.6, Leading zero omitted, Abs format (unit mm)*
G04 Created by KiCad (PCBNEW (5.1.6)-1) date 2023-01-27 11:01:23*
%MOMM*%
%LPD*%
G01*
G04 APERTURE LIST*
%ADD10C,5.100000*%
%ADD11R,0.820000X0.520000*%
%ADD12R,1.628000X0.750000*%
%ADD13R,1.550000X0.550000*%
%ADD14R,1.600000X1.600000*%
%ADD15C,1.600000*%
%ADD16C,4.900000*%
%ADD17R,1.800000X1.800000*%
%ADD18O,1.800000X1.800000*%
%ADD19C,4.330000*%
%ADD20C,4.135000*%
%ADD21C,3.820000*%
%ADD22R,0.750000X1.625000*%
%ADD23C,1.300000*%
%ADD24R,0.800000X2.025000*%
%ADD25R,2.025000X0.800000*%
G04 APERTURE END LIST*
D10*
%TO.C,REF\u002A\u002A*%
X144018000Y-90652600D03*
%TD*%
%TO.C,C1*%
G36*
G01*
X157025000Y-89778262D02*
X157025000Y-88821738D01*
G75*
G02*
X157296738Y-88550000I271738J0D01*
G01*
X158003262Y-88550000D01*
G75*
G02*
X158275000Y-88821738I0J-271738D01*
G01*
X158275000Y-89778262D01*
G75*
G02*
X158003262Y-90050000I-271738J0D01*
G01*
X157296738Y-90050000D01*
G75*
G02*
X157025000Y-89778262I0J271738D01*
G01*
G37*
G36*
G01*
X154975000Y-89778262D02*
X154975000Y-88821738D01*
G75*
G02*
X155246738Y-88550000I271738J0D01*
G01*
X155953262Y-88550000D01*
G75*
G02*
X156225000Y-88821738I0J-271738D01*
G01*
X156225000Y-89778262D01*
G75*
G02*
X155953262Y-90050000I-271738J0D01*
G01*
X155246738Y-90050000D01*
G75*
G02*
X154975000Y-89778262I0J271738D01*
G01*
G37*
%TD*%
%TO.C,C2*%
G36*
G01*
X150725000Y-101021738D02*
X150725000Y-101978262D01*
G75*
G02*
X150453262Y-102250000I-271738J0D01*
G01*
X149746738Y-102250000D01*
G75*
G02*
X149475000Y-101978262I0J271738D01*
G01*
X149475000Y-101021738D01*
G75*
G02*
X149746738Y-100750000I271738J0D01*
G01*
X150453262Y-100750000D01*
G75*
G02*
X150725000Y-101021738I0J-271738D01*
G01*
G37*
G36*
G01*
X152775000Y-101021738D02*
X152775000Y-101978262D01*
G75*
G02*
X152503262Y-102250000I-271738J0D01*
G01*
X151796738Y-102250000D01*
G75*
G02*
X151525000Y-101978262I0J271738D01*
G01*
X151525000Y-101021738D01*
G75*
G02*
X151796738Y-100750000I271738J0D01*
G01*
X152503262Y-100750000D01*
G75*
G02*
X152775000Y-101021738I0J-271738D01*
G01*
G37*
%TD*%
%TO.C,C3*%
G36*
G01*
X154925000Y-78778262D02*
X154925000Y-77821738D01*
G75*
G02*
X155196738Y-77550000I271738J0D01*
G01*
X155903262Y-77550000D01*
G75*
G02*
X156175000Y-77821738I0J-271738D01*
G01*
X156175000Y-78778262D01*
G75*
G02*
X155903262Y-79050000I-271738J0D01*
G01*
X155196738Y-79050000D01*
G75*
G02*
X154925000Y-78778262I0J271738D01*
G01*
G37*
G36*
G01*
X156975000Y-78778262D02*
X156975000Y-77821738D01*
G75*
G02*
X157246738Y-77550000I271738J0D01*
G01*
X157953262Y-77550000D01*
G75*
G02*
X158225000Y-77821738I0J-271738D01*
G01*
X158225000Y-78778262D01*
G75*
G02*
X157953262Y-79050000I-271738J0D01*
G01*
X157246738Y-79050000D01*
G75*
G02*
X156975000Y-78778262I0J271738D01*
G01*
G37*
%TD*%
%TO.C,C4*%
G36*
G01*
X152775000Y-79621738D02*
X152775000Y-80578262D01*
G75*
G02*
X152503262Y-80850000I-271738J0D01*
G01*
X151796738Y-80850000D01*
G75*
G02*
X151525000Y-80578262I0J271738D01*
G01*
X151525000Y-79621738D01*
G75*
G02*
X151796738Y-79350000I271738J0D01*
G01*
X152503262Y-79350000D01*
G75*
G02*
X152775000Y-79621738I0J-271738D01*
G01*
G37*
G36*
G01*
X150725000Y-79621738D02*
X150725000Y-80578262D01*
G75*
G02*
X150453262Y-80850000I-271738J0D01*
G01*
X149746738Y-80850000D01*
G75*
G02*
X149475000Y-80578262I0J271738D01*
G01*
X149475000Y-79621738D01*
G75*
G02*
X149746738Y-79350000I271738J0D01*
G01*
X150453262Y-79350000D01*
G75*
G02*
X150725000Y-79621738I0J-271738D01*
G01*
G37*
%TD*%
%TO.C,C5*%
G36*
G01*
X160278262Y-92275000D02*
X159321738Y-92275000D01*
G75*
G02*
X159050000Y-92003262I0J271738D01*
G01*
X159050000Y-91296738D01*
G75*
G02*
X159321738Y-91025000I271738J0D01*
G01*
X160278262Y-91025000D01*
G75*
G02*
X160550000Y-91296738I0J-271738D01*
G01*
X160550000Y-92003262D01*
G75*
G02*
X160278262Y-92275000I-271738J0D01*
G01*
G37*
G36*
G01*
X160278262Y-90225000D02*
X159321738Y-90225000D01*
G75*
G02*
X159050000Y-89953262I0J271738D01*
G01*
X159050000Y-89246738D01*
G75*
G02*
X159321738Y-88975000I271738J0D01*
G01*
X160278262Y-88975000D01*
G75*
G02*
X160550000Y-89246738I0J-271738D01*
G01*
X160550000Y-89953262D01*
G75*
G02*
X160278262Y-90225000I-271738J0D01*
G01*
G37*
%TD*%
%TO.C,C7*%
G36*
G01*
X157375000Y-105721738D02*
X157375000Y-106678262D01*
G75*
G02*
X157103262Y-106950000I-271738J0D01*
G01*
X156396738Y-106950000D01*
G75*
G02*
X156125000Y-106678262I0J271738D01*
G01*
X156125000Y-105721738D01*
G75*
G02*
X156396738Y-105450000I271738J0D01*
G01*
X157103262Y-105450000D01*
G75*
G02*
X157375000Y-105721738I0J-271738D01*
G01*
G37*
G36*
G01*
X159425000Y-105721738D02*
X159425000Y-106678262D01*
G75*
G02*
X159153262Y-106950000I-271738J0D01*
G01*
X158446738Y-106950000D01*
G75*
G02*
X158175000Y-106678262I0J271738D01*
G01*
X158175000Y-105721738D01*
G75*
G02*
X158446738Y-105450000I271738J0D01*
G01*
X159153262Y-105450000D01*
G75*
G02*
X159425000Y-105721738I0J-271738D01*
G01*
G37*
%TD*%
%TO.C,C8*%
G36*
G01*
X159425000Y-103121738D02*
X159425000Y-104078262D01*
G75*
G02*
X159153262Y-104350000I-271738J0D01*
G01*
X158446738Y-104350000D01*
G75*
G02*
X158175000Y-104078262I0J271738D01*
G01*
X158175000Y-103121738D01*
G75*
G02*
X158446738Y-102850000I271738J0D01*
G01*
X159153262Y-102850000D01*
G75*
G02*
X159425000Y-103121738I0J-271738D01*
G01*
G37*
G36*
G01*
X157375000Y-103121738D02*
X157375000Y-104078262D01*
G75*
G02*
X157103262Y-104350000I-271738J0D01*
G01*
X156396738Y-104350000D01*
G75*
G02*
X156125000Y-104078262I0J271738D01*
G01*
X156125000Y-103121738D01*
G75*
G02*
X156396738Y-102850000I271738J0D01*
G01*
X157103262Y-102850000D01*
G75*
G02*
X157375000Y-103121738I0J-271738D01*
G01*
G37*
%TD*%
D11*
%TO.C,D1*%
X187200000Y-71200000D03*
X189600000Y-71200000D03*
%TD*%
%TO.C,D2*%
X189600000Y-73200000D03*
X187200000Y-73200000D03*
%TD*%
D12*
%TO.C,IC1*%
X168011000Y-108005000D03*
X168011000Y-106735000D03*
X168011000Y-105465000D03*
X168011000Y-104195000D03*
X162589000Y-104195000D03*
X162589000Y-105465000D03*
X162589000Y-106735000D03*
X162589000Y-108005000D03*
%TD*%
D13*
%TO.C,IC4*%
X183025000Y-84150000D03*
X183025000Y-83500000D03*
X183025000Y-82850000D03*
X183025000Y-82200000D03*
X183025000Y-81550000D03*
X183025000Y-80900000D03*
X183025000Y-80250000D03*
X177175000Y-80250000D03*
X177175000Y-80900000D03*
X177175000Y-81550000D03*
X177175000Y-82200000D03*
X177175000Y-82850000D03*
X177175000Y-83500000D03*
X177175000Y-84150000D03*
%TD*%
D14*
%TO.C,J0*%
X194500000Y-107800000D03*
D15*
X194500000Y-105030000D03*
X194500000Y-102260000D03*
X194500000Y-99490000D03*
X194500000Y-96720000D03*
X194500000Y-93950000D03*
X194500000Y-91180000D03*
X194500000Y-88410000D03*
X194500000Y-85640000D03*
X194500000Y-82870000D03*
X194500000Y-80100000D03*
X194500000Y-77330000D03*
X194500000Y-74560000D03*
X197040000Y-106415000D03*
X197040000Y-103645000D03*
X197040000Y-100875000D03*
X197040000Y-98105000D03*
X197040000Y-95335000D03*
X197040000Y-92565000D03*
X197040000Y-89795000D03*
X197040000Y-87025000D03*
X197040000Y-84255000D03*
X197040000Y-81485000D03*
X197040000Y-78715000D03*
X197040000Y-75945000D03*
D16*
X195770000Y-114700000D03*
X195770000Y-67660000D03*
%TD*%
D17*
%TO.C,J1*%
X188300000Y-83500000D03*
D18*
X188300000Y-80960000D03*
X188300000Y-78420000D03*
%TD*%
D19*
%TO.C,J2*%
X141500000Y-101500000D03*
D20*
X146000000Y-101500000D03*
D21*
X138350000Y-105750000D03*
X138350000Y-97250000D03*
%TD*%
D19*
%TO.C,J3*%
X141500000Y-80100000D03*
D20*
X146000000Y-80100000D03*
D21*
X138350000Y-84350000D03*
X138350000Y-75850000D03*
%TD*%
%TO.C,R1*%
G36*
G01*
X157025000Y-91978262D02*
X157025000Y-91021738D01*
G75*
G02*
X157296738Y-90750000I271738J0D01*
G01*
X158003262Y-90750000D01*
G75*
G02*
X158275000Y-91021738I0J-271738D01*
G01*
X158275000Y-91978262D01*
G75*
G02*
X158003262Y-92250000I-271738J0D01*
G01*
X157296738Y-92250000D01*
G75*
G02*
X157025000Y-91978262I0J271738D01*
G01*
G37*
G36*
G01*
X154975000Y-91978262D02*
X154975000Y-91021738D01*
G75*
G02*
X155246738Y-90750000I271738J0D01*
G01*
X155953262Y-90750000D01*
G75*
G02*
X156225000Y-91021738I0J-271738D01*
G01*
X156225000Y-91978262D01*
G75*
G02*
X155953262Y-92250000I-271738J0D01*
G01*
X155246738Y-92250000D01*
G75*
G02*
X154975000Y-91978262I0J271738D01*
G01*
G37*
%TD*%
%TO.C,R2*%
G36*
G01*
X158275000Y-93221738D02*
X158275000Y-94178262D01*
G75*
G02*
X158003262Y-94450000I-271738J0D01*
G01*
X157296738Y-94450000D01*
G75*
G02*
X157025000Y-94178262I0J271738D01*
G01*
X157025000Y-93221738D01*
G75*
G02*
X157296738Y-92950000I271738J0D01*
G01*
X158003262Y-92950000D01*
G75*
G02*
X158275000Y-93221738I0J-271738D01*
G01*
G37*
G36*
G01*
X156225000Y-93221738D02*
X156225000Y-94178262D01*
G75*
G02*
X155953262Y-94450000I-271738J0D01*
G01*
X155246738Y-94450000D01*
G75*
G02*
X154975000Y-94178262I0J271738D01*
G01*
X154975000Y-93221738D01*
G75*
G02*
X155246738Y-92950000I271738J0D01*
G01*
X155953262Y-92950000D01*
G75*
G02*
X156225000Y-93221738I0J-271738D01*
G01*
G37*
%TD*%
%TO.C,R3*%
G36*
G01*
X162478262Y-92275000D02*
X161521738Y-92275000D01*
G75*
G02*
X161250000Y-92003262I0J271738D01*
G01*
X161250000Y-91296738D01*
G75*
G02*
X161521738Y-91025000I271738J0D01*
G01*
X162478262Y-91025000D01*
G75*
G02*
X162750000Y-91296738I0J-271738D01*
G01*
X162750000Y-92003262D01*
G75*
G02*
X162478262Y-92275000I-271738J0D01*
G01*
G37*
G36*
G01*
X162478262Y-90225000D02*
X161521738Y-90225000D01*
G75*
G02*
X161250000Y-89953262I0J271738D01*
G01*
X161250000Y-89246738D01*
G75*
G02*
X161521738Y-88975000I271738J0D01*
G01*
X162478262Y-88975000D01*
G75*
G02*
X162750000Y-89246738I0J-271738D01*
G01*
X162750000Y-89953262D01*
G75*
G02*
X162478262Y-90225000I-271738J0D01*
G01*
G37*
%TD*%
%TO.C,R4*%
G36*
G01*
X163721738Y-91025000D02*
X164678262Y-91025000D01*
G75*
G02*
X164950000Y-91296738I0J-271738D01*
G01*
X164950000Y-92003262D01*
G75*
G02*
X164678262Y-92275000I-271738J0D01*
G01*
X163721738Y-92275000D01*
G75*
G02*
X163450000Y-92003262I0J271738D01*
G01*
X163450000Y-91296738D01*
G75*
G02*
X163721738Y-91025000I271738J0D01*
G01*
G37*
G36*
G01*
X163721738Y-88975000D02*
X164678262Y-88975000D01*
G75*
G02*
X164950000Y-89246738I0J-271738D01*
G01*
X164950000Y-89953262D01*
G75*
G02*
X164678262Y-90225000I-271738J0D01*
G01*
X163721738Y-90225000D01*
G75*
G02*
X163450000Y-89953262I0J271738D01*
G01*
X163450000Y-89246738D01*
G75*
G02*
X163721738Y-88975000I271738J0D01*
G01*
G37*
%TD*%
%TO.C,R5*%
G36*
G01*
X152225000Y-86421738D02*
X152225000Y-87378262D01*
G75*
G02*
X151953262Y-87650000I-271738J0D01*
G01*
X151246738Y-87650000D01*
G75*
G02*
X150975000Y-87378262I0J271738D01*
G01*
X150975000Y-86421738D01*
G75*
G02*
X151246738Y-86150000I271738J0D01*
G01*
X151953262Y-86150000D01*
G75*
G02*
X152225000Y-86421738I0J-271738D01*
G01*
G37*
G36*
G01*
X154275000Y-86421738D02*
X154275000Y-87378262D01*
G75*
G02*
X154003262Y-87650000I-271738J0D01*
G01*
X153296738Y-87650000D01*
G75*
G02*
X153025000Y-87378262I0J271738D01*
G01*
X153025000Y-86421738D01*
G75*
G02*
X153296738Y-86150000I271738J0D01*
G01*
X154003262Y-86150000D01*
G75*
G02*
X154275000Y-86421738I0J-271738D01*
G01*
G37*
%TD*%
%TO.C,R6*%
G36*
G01*
X166878262Y-92275000D02*
X165921738Y-92275000D01*
G75*
G02*
X165650000Y-92003262I0J271738D01*
G01*
X165650000Y-91296738D01*
G75*
G02*
X165921738Y-91025000I271738J0D01*
G01*
X166878262Y-91025000D01*
G75*
G02*
X167150000Y-91296738I0J-271738D01*
G01*
X167150000Y-92003262D01*
G75*
G02*
X166878262Y-92275000I-271738J0D01*
G01*
G37*
G36*
G01*
X166878262Y-90225000D02*
X165921738Y-90225000D01*
G75*
G02*
X165650000Y-89953262I0J271738D01*
G01*
X165650000Y-89246738D01*
G75*
G02*
X165921738Y-88975000I271738J0D01*
G01*
X166878262Y-88975000D01*
G75*
G02*
X167150000Y-89246738I0J-271738D01*
G01*
X167150000Y-89953262D01*
G75*
G02*
X166878262Y-90225000I-271738J0D01*
G01*
G37*
%TD*%
%TO.C,R7*%
G36*
G01*
X168121738Y-91025000D02*
X169078262Y-91025000D01*
G75*
G02*
X169350000Y-91296738I0J-271738D01*
G01*
X169350000Y-92003262D01*
G75*
G02*
X169078262Y-92275000I-271738J0D01*
G01*
X168121738Y-92275000D01*
G75*
G02*
X167850000Y-92003262I0J271738D01*
G01*
X167850000Y-91296738D01*
G75*
G02*
X168121738Y-91025000I271738J0D01*
G01*
G37*
G36*
G01*
X168121738Y-88975000D02*
X169078262Y-88975000D01*
G75*
G02*
X169350000Y-89246738I0J-271738D01*
G01*
X169350000Y-89953262D01*
G75*
G02*
X169078262Y-90225000I-271738J0D01*
G01*
X168121738Y-90225000D01*
G75*
G02*
X167850000Y-89953262I0J271738D01*
G01*
X167850000Y-89246738D01*
G75*
G02*
X168121738Y-88975000I271738J0D01*
G01*
G37*
%TD*%
%TO.C,R8*%
G36*
G01*
X154925000Y-76578262D02*
X154925000Y-75621738D01*
G75*
G02*
X155196738Y-75350000I271738J0D01*
G01*
X155903262Y-75350000D01*
G75*
G02*
X156175000Y-75621738I0J-271738D01*
G01*
X156175000Y-76578262D01*
G75*
G02*
X155903262Y-76850000I-271738J0D01*
G01*
X155196738Y-76850000D01*
G75*
G02*
X154925000Y-76578262I0J271738D01*
G01*
G37*
G36*
G01*
X156975000Y-76578262D02*
X156975000Y-75621738D01*
G75*
G02*
X157246738Y-75350000I271738J0D01*
G01*
X157953262Y-75350000D01*
G75*
G02*
X158225000Y-75621738I0J-271738D01*
G01*
X158225000Y-76578262D01*
G75*
G02*
X157953262Y-76850000I-271738J0D01*
G01*
X157246738Y-76850000D01*
G75*
G02*
X156975000Y-76578262I0J271738D01*
G01*
G37*
%TD*%
%TO.C,R9*%
G36*
G01*
X158225000Y-73421738D02*
X158225000Y-74378262D01*
G75*
G02*
X157953262Y-74650000I-271738J0D01*
G01*
X157246738Y-74650000D01*
G75*
G02*
X156975000Y-74378262I0J271738D01*
G01*
X156975000Y-73421738D01*
G75*
G02*
X157246738Y-73150000I271738J0D01*
G01*
X157953262Y-73150000D01*
G75*
G02*
X158225000Y-73421738I0J-271738D01*
G01*
G37*
G36*
G01*
X156175000Y-73421738D02*
X156175000Y-74378262D01*
G75*
G02*
X155903262Y-74650000I-271738J0D01*
G01*
X155196738Y-74650000D01*
G75*
G02*
X154925000Y-74378262I0J271738D01*
G01*
X154925000Y-73421738D01*
G75*
G02*
X155196738Y-73150000I271738J0D01*
G01*
X155903262Y-73150000D01*
G75*
G02*
X156175000Y-73421738I0J-271738D01*
G01*
G37*
%TD*%
%TO.C,R10*%
G36*
G01*
X166525000Y-82821738D02*
X166525000Y-83778262D01*
G75*
G02*
X166253262Y-84050000I-271738J0D01*
G01*
X165546738Y-84050000D01*
G75*
G02*
X165275000Y-83778262I0J271738D01*
G01*
X165275000Y-82821738D01*
G75*
G02*
X165546738Y-82550000I271738J0D01*
G01*
X166253262Y-82550000D01*
G75*
G02*
X166525000Y-82821738I0J-271738D01*
G01*
G37*
G36*
G01*
X168575000Y-82821738D02*
X168575000Y-83778262D01*
G75*
G02*
X168303262Y-84050000I-271738J0D01*
G01*
X167596738Y-84050000D01*
G75*
G02*
X167325000Y-83778262I0J271738D01*
G01*
X167325000Y-82821738D01*
G75*
G02*
X167596738Y-82550000I271738J0D01*
G01*
X168303262Y-82550000D01*
G75*
G02*
X168575000Y-82821738I0J-271738D01*
G01*
G37*
%TD*%
%TO.C,R11*%
G36*
G01*
X165225000Y-81478262D02*
X165225000Y-80521738D01*
G75*
G02*
X165496738Y-80250000I271738J0D01*
G01*
X166203262Y-80250000D01*
G75*
G02*
X166475000Y-80521738I0J-271738D01*
G01*
X166475000Y-81478262D01*
G75*
G02*
X166203262Y-81750000I-271738J0D01*
G01*
X165496738Y-81750000D01*
G75*
G02*
X165225000Y-81478262I0J271738D01*
G01*
G37*
G36*
G01*
X167275000Y-81478262D02*
X167275000Y-80521738D01*
G75*
G02*
X167546738Y-80250000I271738J0D01*
G01*
X168253262Y-80250000D01*
G75*
G02*
X168525000Y-80521738I0J-271738D01*
G01*
X168525000Y-81478262D01*
G75*
G02*
X168253262Y-81750000I-271738J0D01*
G01*
X167546738Y-81750000D01*
G75*
G02*
X167275000Y-81478262I0J271738D01*
G01*
G37*
%TD*%
%TO.C,R12*%
G36*
G01*
X153078262Y-85450000D02*
X152121738Y-85450000D01*
G75*
G02*
X151850000Y-85178262I0J271738D01*
G01*
X151850000Y-84471738D01*
G75*
G02*
X152121738Y-84200000I271738J0D01*
G01*
X153078262Y-84200000D01*
G75*
G02*
X153350000Y-84471738I0J-271738D01*
G01*
X153350000Y-85178262D01*
G75*
G02*
X153078262Y-85450000I-271738J0D01*
G01*
G37*
G36*
G01*
X153078262Y-83400000D02*
X152121738Y-83400000D01*
G75*
G02*
X151850000Y-83128262I0J271738D01*
G01*
X151850000Y-82421738D01*
G75*
G02*
X152121738Y-82150000I271738J0D01*
G01*
X153078262Y-82150000D01*
G75*
G02*
X153350000Y-82421738I0J-271738D01*
G01*
X153350000Y-83128262D01*
G75*
G02*
X153078262Y-83400000I-271738J0D01*
G01*
G37*
%TD*%
%TO.C,R13*%
G36*
G01*
X162721738Y-75775000D02*
X163678262Y-75775000D01*
G75*
G02*
X163950000Y-76046738I0J-271738D01*
G01*
X163950000Y-76753262D01*
G75*
G02*
X163678262Y-77025000I-271738J0D01*
G01*
X162721738Y-77025000D01*
G75*
G02*
X162450000Y-76753262I0J271738D01*
G01*
X162450000Y-76046738D01*
G75*
G02*
X162721738Y-75775000I271738J0D01*
G01*
G37*
G36*
G01*
X162721738Y-77825000D02*
X163678262Y-77825000D01*
G75*
G02*
X163950000Y-78096738I0J-271738D01*
G01*
X163950000Y-78803262D01*
G75*
G02*
X163678262Y-79075000I-271738J0D01*
G01*
X162721738Y-79075000D01*
G75*
G02*
X162450000Y-78803262I0J271738D01*
G01*
X162450000Y-78096738D01*
G75*
G02*
X162721738Y-77825000I271738J0D01*
G01*
G37*
%TD*%
%TO.C,R14*%
G36*
G01*
X161478262Y-77000000D02*
X160521738Y-77000000D01*
G75*
G02*
X160250000Y-76728262I0J271738D01*
G01*
X160250000Y-76021738D01*
G75*
G02*
X160521738Y-75750000I271738J0D01*
G01*
X161478262Y-75750000D01*
G75*
G02*
X161750000Y-76021738I0J-271738D01*
G01*
X161750000Y-76728262D01*
G75*
G02*
X161478262Y-77000000I-271738J0D01*
G01*
G37*
G36*
G01*
X161478262Y-79050000D02*
X160521738Y-79050000D01*
G75*
G02*
X160250000Y-78778262I0J271738D01*
G01*
X160250000Y-78071738D01*
G75*
G02*
X160521738Y-77800000I271738J0D01*
G01*
X161478262Y-77800000D01*
G75*
G02*
X161750000Y-78071738I0J-271738D01*
G01*
X161750000Y-78778262D01*
G75*
G02*
X161478262Y-79050000I-271738J0D01*
G01*
G37*
%TD*%
%TO.C,R15*%
G36*
G01*
X159475000Y-108321738D02*
X159475000Y-109278262D01*
G75*
G02*
X159203262Y-109550000I-271738J0D01*
G01*
X158496738Y-109550000D01*
G75*
G02*
X158225000Y-109278262I0J271738D01*
G01*
X158225000Y-108321738D01*
G75*
G02*
X158496738Y-108050000I271738J0D01*
G01*
X159203262Y-108050000D01*
G75*
G02*
X159475000Y-108321738I0J-271738D01*
G01*
G37*
G36*
G01*
X157425000Y-108321738D02*
X157425000Y-109278262D01*
G75*
G02*
X157153262Y-109550000I-271738J0D01*
G01*
X156446738Y-109550000D01*
G75*
G02*
X156175000Y-109278262I0J271738D01*
G01*
X156175000Y-108321738D01*
G75*
G02*
X156446738Y-108050000I271738J0D01*
G01*
X157153262Y-108050000D01*
G75*
G02*
X157425000Y-108321738I0J-271738D01*
G01*
G37*
%TD*%
%TO.C,R16*%
G36*
G01*
X165575000Y-110778262D02*
X165575000Y-109821738D01*
G75*
G02*
X165846738Y-109550000I271738J0D01*
G01*
X166553262Y-109550000D01*
G75*
G02*
X166825000Y-109821738I0J-271738D01*
G01*
X166825000Y-110778262D01*
G75*
G02*
X166553262Y-111050000I-271738J0D01*
G01*
X165846738Y-111050000D01*
G75*
G02*
X165575000Y-110778262I0J271738D01*
G01*
G37*
G36*
G01*
X163525000Y-110778262D02*
X163525000Y-109821738D01*
G75*
G02*
X163796738Y-109550000I271738J0D01*
G01*
X164503262Y-109550000D01*
G75*
G02*
X164775000Y-109821738I0J-271738D01*
G01*
X164775000Y-110778262D01*
G75*
G02*
X164503262Y-111050000I-271738J0D01*
G01*
X163796738Y-111050000D01*
G75*
G02*
X163525000Y-110778262I0J271738D01*
G01*
G37*
%TD*%
%TO.C,R17*%
G36*
G01*
X188775000Y-69578262D02*
X188775000Y-68621738D01*
G75*
G02*
X189046738Y-68350000I271738J0D01*
G01*
X189753262Y-68350000D01*
G75*
G02*
X190025000Y-68621738I0J-271738D01*
G01*
X190025000Y-69578262D01*
G75*
G02*
X189753262Y-69850000I-271738J0D01*
G01*
X189046738Y-69850000D01*
G75*
G02*
X188775000Y-69578262I0J271738D01*
G01*
G37*
G36*
G01*
X186725000Y-69578262D02*
X186725000Y-68621738D01*
G75*
G02*
X186996738Y-68350000I271738J0D01*
G01*
X187703262Y-68350000D01*
G75*
G02*
X187975000Y-68621738I0J-271738D01*
G01*
X187975000Y-69578262D01*
G75*
G02*
X187703262Y-69850000I-271738J0D01*
G01*
X186996738Y-69850000D01*
G75*
G02*
X186725000Y-69578262I0J271738D01*
G01*
G37*
%TD*%
D22*
%TO.C,U3*%
X155990000Y-86512000D03*
X157260000Y-86512000D03*
X158530000Y-86512000D03*
X159800000Y-86512000D03*
X161070000Y-86512000D03*
X162340000Y-86512000D03*
X163610000Y-86512000D03*
X163610000Y-81088000D03*
X162340000Y-81088000D03*
X161070000Y-81088000D03*
X159800000Y-81088000D03*
X158530000Y-81088000D03*
X157260000Y-81088000D03*
X155990000Y-81088000D03*
%TD*%
D23*
%TO.C,VR1*%
X173440000Y-75700000D03*
X170900000Y-75700000D03*
X168360000Y-75700000D03*
%TD*%
%TO.C,VR2*%
X160460000Y-98700000D03*
X163000000Y-98700000D03*
X165540000Y-98700000D03*
%TD*%
D24*
%TO.C,IC2*%
X180100000Y-91577500D03*
X178830000Y-91577500D03*
X177560000Y-91577500D03*
X176290000Y-91577500D03*
X181370000Y-91577500D03*
X182640000Y-91577500D03*
X183910000Y-91577500D03*
D25*
X174777500Y-93090000D03*
X174777500Y-94360000D03*
X174777500Y-95630000D03*
X174777500Y-96900000D03*
X174777500Y-98170000D03*
X174777500Y-99440000D03*
X174777500Y-100710000D03*
D24*
X176290000Y-102222500D03*
X177560000Y-102222500D03*
X178830000Y-102222500D03*
X180100000Y-102222500D03*
X181370000Y-102222500D03*
X182640000Y-102222500D03*
X183910000Y-102222500D03*
D25*
X185422500Y-100710000D03*
X185422500Y-99440000D03*
X185422500Y-98170000D03*
X185422500Y-96900000D03*
X185422500Y-95630000D03*
X185422500Y-94360000D03*
X185422500Y-93090000D03*
%TD*%
%TO.C,C6*%
G36*
G01*
X189175000Y-110318750D02*
X189175000Y-111281250D01*
G75*
G02*
X188906250Y-111550000I-268750J0D01*
G01*
X188368750Y-111550000D01*
G75*
G02*
X188100000Y-111281250I0J268750D01*
G01*
X188100000Y-110318750D01*
G75*
G02*
X188368750Y-110050000I268750J0D01*
G01*
X188906250Y-110050000D01*
G75*
G02*
X189175000Y-110318750I0J-268750D01*
G01*
G37*
G36*
G01*
X187300000Y-110318750D02*
X187300000Y-111281250D01*
G75*
G02*
X187031250Y-111550000I-268750J0D01*
G01*
X186493750Y-111550000D01*
G75*
G02*
X186225000Y-111281250I0J268750D01*
G01*
X186225000Y-110318750D01*
G75*
G02*
X186493750Y-110050000I268750J0D01*
G01*
X187031250Y-110050000D01*
G75*
G02*
X187300000Y-110318750I0J-268750D01*
G01*
G37*
%TD*%
M02*
