%TF.GenerationSoftware,KiCad,Pcbnew,(5.1.6)-1*%
%TF.CreationDate,2022-10-16T07:02:28-04:00*%
%TF.ProjectId,Amiga-Stereo-Digitizer,416d6967-612d-4537-9465-72656f2d4469,rev?*%
%TF.SameCoordinates,Original*%
%TF.FileFunction,Soldermask,Bot*%
%TF.FilePolarity,Negative*%
%FSLAX46Y46*%
G04 Gerber Fmt 4.6, Leading zero omitted, Abs format (unit mm)*
G04 Created by KiCad (PCBNEW (5.1.6)-1) date 2022-10-16 07:02:28*
%MOMM*%
%LPD*%
G01*
G04 APERTURE LIST*
%ADD10C,0.900000*%
%ADD11C,5.100000*%
%ADD12R,1.600000X1.600000*%
%ADD13C,1.600000*%
%ADD14C,4.900000*%
%ADD15R,1.800000X1.800000*%
%ADD16O,1.800000X1.800000*%
%ADD17C,4.330000*%
%ADD18C,4.135000*%
%ADD19C,3.820000*%
%ADD20C,1.300000*%
G04 APERTURE END LIST*
D10*
%TO.C,REF\u002A\u002A*%
X150450825Y-89474175D03*
X149125000Y-88925000D03*
X147799175Y-89474175D03*
X147250000Y-90800000D03*
X147799175Y-92125825D03*
X149125000Y-92675000D03*
X150450825Y-92125825D03*
X151000000Y-90800000D03*
D11*
X149125000Y-90800000D03*
%TD*%
D12*
%TO.C,J0*%
X194500000Y-107800000D03*
D13*
X194500000Y-105030000D03*
X194500000Y-102260000D03*
X194500000Y-99490000D03*
X194500000Y-96720000D03*
X194500000Y-93950000D03*
X194500000Y-91180000D03*
X194500000Y-88410000D03*
X194500000Y-85640000D03*
X194500000Y-82870000D03*
X194500000Y-80100000D03*
X194500000Y-77330000D03*
X194500000Y-74560000D03*
X197040000Y-106415000D03*
X197040000Y-103645000D03*
X197040000Y-100875000D03*
X197040000Y-98105000D03*
X197040000Y-95335000D03*
X197040000Y-92565000D03*
X197040000Y-89795000D03*
X197040000Y-87025000D03*
X197040000Y-84255000D03*
X197040000Y-81485000D03*
X197040000Y-78715000D03*
X197040000Y-75945000D03*
D14*
X195770000Y-114700000D03*
X195770000Y-67660000D03*
%TD*%
D15*
%TO.C,J1*%
X188300000Y-83500000D03*
D16*
X188300000Y-80960000D03*
X188300000Y-78420000D03*
%TD*%
D17*
%TO.C,J2*%
X141500000Y-101500000D03*
D18*
X146000000Y-101500000D03*
D19*
X138350000Y-105750000D03*
X138350000Y-97250000D03*
%TD*%
D17*
%TO.C,J3*%
X141500000Y-80100000D03*
D18*
X146000000Y-80100000D03*
D19*
X138350000Y-84350000D03*
X138350000Y-75850000D03*
%TD*%
D20*
%TO.C,VR1*%
X173440000Y-75700000D03*
X170900000Y-75700000D03*
X168360000Y-75700000D03*
%TD*%
%TO.C,VR2*%
X160460000Y-98700000D03*
X163000000Y-98700000D03*
X165540000Y-98700000D03*
%TD*%
M02*
