%FSLAX45Y45*%
G04 Gerber Fmt 4.5, Leading zero omitted, Abs format (unit mm)*
G04 Created by KiCad (PCBNEW (5.1.6)-1) date 2023-01-27 11:01:26*
%MOMM*%
%LPD*%
G01*
G04 APERTURE LIST*
%TA.AperFunction,Profile*%
%ADD10C,0.050000*%
%TD*%
%ADD11C,0.200000*%
%ADD12C,0.300000*%
G04 APERTURE END LIST*
D10*
X13600000Y-6460000D02*
X13600000Y-6560000D01*
X20740000Y-6460000D02*
X13600000Y-6460000D01*
X13600000Y-11770000D02*
X13600000Y-6560000D01*
X20740000Y-11770000D02*
X13600000Y-11770000D01*
X20740000Y-6460000D02*
X20740000Y-11770000D01*
D11*
X15490000Y-10470000D02*
X15530000Y-10510000D01*
X15530000Y-10470000D02*
X15490000Y-10510000D01*
X15830000Y-8230000D02*
X15870000Y-8270000D01*
X15870000Y-8230000D02*
X15830000Y-8270000D01*
X15830000Y-8770000D02*
X15870000Y-8810000D01*
X15870000Y-8770000D02*
X15830000Y-8810000D01*
X15960000Y-7940000D02*
X16000000Y-7980000D01*
X16000000Y-7940000D02*
X15960000Y-7980000D01*
X15960000Y-9300000D02*
X16000000Y-9340000D01*
X16000000Y-9300000D02*
X15960000Y-9340000D01*
X16040000Y-8800000D02*
X16080000Y-8840000D01*
X16080000Y-8800000D02*
X16040000Y-8840000D01*
X16210000Y-8460000D02*
X16250000Y-8500000D01*
X16250000Y-8460000D02*
X16210000Y-8500000D01*
X16220000Y-11000000D02*
X16260000Y-11040000D01*
X16260000Y-11000000D02*
X16220000Y-11040000D01*
X16400000Y-9300000D02*
X16440000Y-9340000D01*
X16440000Y-9300000D02*
X16400000Y-9340000D01*
X16431856Y-8228144D02*
X16471856Y-8268144D01*
X16471856Y-8228144D02*
X16431856Y-8268144D01*
X16450000Y-8490000D02*
X16490000Y-8530000D01*
X16490000Y-8490000D02*
X16450000Y-8530000D01*
X16490000Y-7620000D02*
X16530000Y-7660000D01*
X16530000Y-7620000D02*
X16490000Y-7660000D01*
X16510000Y-10730000D02*
X16550000Y-10770000D01*
X16550000Y-10730000D02*
X16510000Y-10770000D01*
X16531200Y-8631200D02*
X16571200Y-8671200D01*
X16571200Y-8631200D02*
X16531200Y-8671200D01*
X16780000Y-10910000D02*
X16820000Y-10950000D01*
X16820000Y-10910000D02*
X16780000Y-10950000D01*
X16840000Y-9300000D02*
X16880000Y-9340000D01*
X16880000Y-9300000D02*
X16840000Y-9340000D01*
X16950000Y-10400000D02*
X16990000Y-10440000D01*
X16990000Y-10400000D02*
X16950000Y-10440000D01*
X16950000Y-11150000D02*
X16990000Y-11190000D01*
X16990000Y-11150000D02*
X16950000Y-11190000D01*
X17030000Y-8310000D02*
X17070000Y-8350000D01*
X17070000Y-8310000D02*
X17030000Y-8350000D01*
X17030000Y-9380000D02*
X17070000Y-9420000D01*
X17070000Y-9380000D02*
X17030000Y-9420000D01*
X17250000Y-9800000D02*
X17290000Y-9840000D01*
X17290000Y-9800000D02*
X17250000Y-9840000D01*
X17270000Y-9290000D02*
X17310000Y-9330000D01*
X17310000Y-9290000D02*
X17270000Y-9330000D01*
X17450000Y-10200000D02*
X17490000Y-10240000D01*
X17490000Y-10200000D02*
X17450000Y-10240000D01*
X17610000Y-8960000D02*
X17650000Y-9000000D01*
X17650000Y-8960000D02*
X17610000Y-9000000D01*
X17650000Y-9670000D02*
X17690000Y-9710000D01*
X17690000Y-9670000D02*
X17650000Y-9710000D01*
X17740000Y-8960000D02*
X17780000Y-9000000D01*
X17780000Y-8960000D02*
X17740000Y-9000000D01*
X17820000Y-10390000D02*
X17860000Y-10430000D01*
X17860000Y-10390000D02*
X17820000Y-10430000D01*
X17860000Y-8960000D02*
X17900000Y-9000000D01*
X17900000Y-8960000D02*
X17860000Y-9000000D01*
X17860000Y-10010000D02*
X17900000Y-10050000D01*
X17900000Y-10010000D02*
X17860000Y-10050000D01*
X17990000Y-8330000D02*
X18030000Y-8370000D01*
X18030000Y-8330000D02*
X17990000Y-8370000D01*
X17990000Y-10010000D02*
X18030000Y-10050000D01*
X18030000Y-10010000D02*
X17990000Y-10050000D01*
X18110000Y-10390000D02*
X18150000Y-10430000D01*
X18150000Y-10390000D02*
X18110000Y-10430000D01*
X18130000Y-8330000D02*
X18170000Y-8370000D01*
X18170000Y-8330000D02*
X18130000Y-8370000D01*
X18371000Y-8961000D02*
X18411000Y-9001000D01*
X18411000Y-8961000D02*
X18371000Y-9001000D01*
X18710000Y-9490000D02*
X18750000Y-9530000D01*
X18750000Y-9490000D02*
X18710000Y-9530000D01*
X19050000Y-7100000D02*
X19090000Y-7140000D01*
X19090000Y-7100000D02*
X19050000Y-7140000D01*
X19050000Y-7300000D02*
X19090000Y-7340000D01*
X19090000Y-7300000D02*
X19050000Y-7340000D01*
X19117500Y-9218985D02*
X19157500Y-9258985D01*
X19157500Y-9218985D02*
X19117500Y-9258985D01*
X19220000Y-10060000D02*
X19260000Y-10100000D01*
X19260000Y-10060000D02*
X19220000Y-10100000D01*
X16871000Y-7570000D02*
G75*
G03*
X16871000Y-7570000I-35000J0D01*
G01*
X17125000Y-7570000D02*
G75*
G03*
X17125000Y-7570000I-35000J0D01*
G01*
X17379000Y-7570000D02*
G75*
G03*
X17379000Y-7570000I-35000J0D01*
G01*
X16081000Y-9870000D02*
G75*
G03*
X16081000Y-9870000I-35000J0D01*
G01*
X16335000Y-9870000D02*
G75*
G03*
X16335000Y-9870000I-35000J0D01*
G01*
X16589000Y-9870000D02*
G75*
G03*
X16589000Y-9870000I-35000J0D01*
G01*
X18830000Y-7792000D02*
X18830000Y-7892000D01*
X18780000Y-7842000D02*
X18880000Y-7842000D01*
X18830000Y-8046000D02*
X18830000Y-8146000D01*
X18780000Y-8096000D02*
X18880000Y-8096000D01*
X18830000Y-8300000D02*
X18830000Y-8400000D01*
X18780000Y-8350000D02*
X18880000Y-8350000D01*
X19450000Y-7406000D02*
X19450000Y-7506000D01*
X19400000Y-7456000D02*
X19500000Y-7456000D01*
X19450000Y-7683000D02*
X19450000Y-7783000D01*
X19400000Y-7733000D02*
X19500000Y-7733000D01*
X19450000Y-7960000D02*
X19450000Y-8060000D01*
X19400000Y-8010000D02*
X19500000Y-8010000D01*
X19450000Y-8237000D02*
X19450000Y-8337000D01*
X19400000Y-8287000D02*
X19500000Y-8287000D01*
X19450000Y-8514000D02*
X19450000Y-8614000D01*
X19400000Y-8564000D02*
X19500000Y-8564000D01*
X19450000Y-8791000D02*
X19450000Y-8891000D01*
X19400000Y-8841000D02*
X19500000Y-8841000D01*
X19450000Y-9068000D02*
X19450000Y-9168000D01*
X19400000Y-9118000D02*
X19500000Y-9118000D01*
X19450000Y-9345000D02*
X19450000Y-9445000D01*
X19400000Y-9395000D02*
X19500000Y-9395000D01*
X19450000Y-9622000D02*
X19450000Y-9722000D01*
X19400000Y-9672000D02*
X19500000Y-9672000D01*
X19450000Y-9899000D02*
X19450000Y-9999000D01*
X19400000Y-9949000D02*
X19500000Y-9949000D01*
X19450000Y-10176000D02*
X19450000Y-10276000D01*
X19400000Y-10226000D02*
X19500000Y-10226000D01*
X19450000Y-10453000D02*
X19450000Y-10553000D01*
X19400000Y-10503000D02*
X19500000Y-10503000D01*
X19450000Y-10730000D02*
X19450000Y-10830000D01*
X19400000Y-10780000D02*
X19500000Y-10780000D01*
X19704000Y-7544500D02*
X19704000Y-7644500D01*
X19654000Y-7594500D02*
X19754000Y-7594500D01*
X19704000Y-7821500D02*
X19704000Y-7921500D01*
X19654000Y-7871500D02*
X19754000Y-7871500D01*
X19704000Y-8098500D02*
X19704000Y-8198500D01*
X19654000Y-8148500D02*
X19754000Y-8148500D01*
X19704000Y-8375500D02*
X19704000Y-8475500D01*
X19654000Y-8425500D02*
X19754000Y-8425500D01*
X19704000Y-8652500D02*
X19704000Y-8752500D01*
X19654000Y-8702500D02*
X19754000Y-8702500D01*
X19704000Y-8929500D02*
X19704000Y-9029500D01*
X19654000Y-8979500D02*
X19754000Y-8979500D01*
X19704000Y-9206500D02*
X19704000Y-9306500D01*
X19654000Y-9256500D02*
X19754000Y-9256500D01*
X19704000Y-9483500D02*
X19704000Y-9583500D01*
X19654000Y-9533500D02*
X19754000Y-9533500D01*
X19704000Y-9760500D02*
X19704000Y-9860500D01*
X19654000Y-9810500D02*
X19754000Y-9810500D01*
X19704000Y-10037500D02*
X19704000Y-10137500D01*
X19654000Y-10087500D02*
X19754000Y-10087500D01*
X19704000Y-10314500D02*
X19704000Y-10414500D01*
X19654000Y-10364500D02*
X19754000Y-10364500D01*
X19704000Y-10591500D02*
X19704000Y-10691500D01*
X19654000Y-10641500D02*
X19754000Y-10641500D01*
X13922682Y-9812682D02*
X13922682Y-9637318D01*
X13747318Y-9637318D01*
X13747318Y-9812682D01*
X13922682Y-9812682D01*
X13922682Y-10662682D02*
X13922682Y-10487318D01*
X13747318Y-10487318D01*
X13747318Y-10662682D01*
X13922682Y-10662682D01*
X13922682Y-7672682D02*
X13922682Y-7497318D01*
X13747318Y-7497318D01*
X13747318Y-7672682D01*
X13922682Y-7672682D01*
X13922682Y-8522682D02*
X13922682Y-8347318D01*
X13747318Y-8347318D01*
X13747318Y-8522682D01*
X13922682Y-8522682D01*
X14401800Y-9190260D02*
X14526800Y-9065260D01*
X14401800Y-8940260D01*
X14276800Y-9065260D01*
X14401800Y-9190260D01*
X14465500Y-10015500D02*
X14734500Y-10284500D01*
X14734500Y-10015500D02*
X14465500Y-10284500D01*
X14734500Y-10150000D02*
G75*
G03*
X14734500Y-10150000I-134500J0D01*
G01*
X14465500Y-7875500D02*
X14734500Y-8144500D01*
X14734500Y-7875500D02*
X14465500Y-8144500D01*
X14734500Y-8010000D02*
G75*
G03*
X14734500Y-8010000I-134500J0D01*
G01*
X14009000Y-10009000D02*
X14291000Y-10291000D01*
X14291000Y-10009000D02*
X14009000Y-10291000D01*
X14150000Y-10009000D02*
X14150000Y-10291000D01*
X14009000Y-10150000D02*
X14291000Y-10150000D01*
X14009000Y-7869000D02*
X14291000Y-8151000D01*
X14291000Y-7869000D02*
X14009000Y-8151000D01*
X14150000Y-7869000D02*
X14150000Y-8151000D01*
X14009000Y-8010000D02*
X14291000Y-8010000D01*
X19417000Y-6606000D02*
X19737000Y-6926000D01*
X19737000Y-6606000D02*
X19417000Y-6926000D01*
X19690138Y-6879138D02*
X19690138Y-6652862D01*
X19463862Y-6652862D01*
X19463862Y-6879138D01*
X19690138Y-6879138D01*
X19417000Y-11310000D02*
X19737000Y-11630000D01*
X19737000Y-11310000D02*
X19417000Y-11630000D01*
X19690138Y-11583138D02*
X19690138Y-11356862D01*
X19463862Y-11356862D01*
X19463862Y-11583138D01*
X19690138Y-11583138D01*
D12*
X13883928Y-12238214D02*
X13883928Y-11938214D01*
X13955357Y-11938214D01*
X13998214Y-11952500D01*
X14026786Y-11981071D01*
X14041071Y-12009643D01*
X14055357Y-12066786D01*
X14055357Y-12109643D01*
X14041071Y-12166786D01*
X14026786Y-12195357D01*
X13998214Y-12223929D01*
X13955357Y-12238214D01*
X13883928Y-12238214D01*
X14183928Y-12238214D02*
X14183928Y-12038214D01*
X14183928Y-12095357D02*
X14198214Y-12066786D01*
X14212500Y-12052500D01*
X14241071Y-12038214D01*
X14269643Y-12038214D01*
X14369643Y-12238214D02*
X14369643Y-12038214D01*
X14369643Y-11938214D02*
X14355357Y-11952500D01*
X14369643Y-11966786D01*
X14383928Y-11952500D01*
X14369643Y-11938214D01*
X14369643Y-11966786D01*
X14555357Y-12238214D02*
X14526786Y-12223929D01*
X14512500Y-12195357D01*
X14512500Y-11938214D01*
X14712500Y-12238214D02*
X14683928Y-12223929D01*
X14669643Y-12195357D01*
X14669643Y-11938214D01*
X15055357Y-12238214D02*
X15055357Y-11938214D01*
X15155357Y-12152500D01*
X15255357Y-11938214D01*
X15255357Y-12238214D01*
X15526786Y-12238214D02*
X15526786Y-12081071D01*
X15512500Y-12052500D01*
X15483928Y-12038214D01*
X15426786Y-12038214D01*
X15398214Y-12052500D01*
X15526786Y-12223929D02*
X15498214Y-12238214D01*
X15426786Y-12238214D01*
X15398214Y-12223929D01*
X15383928Y-12195357D01*
X15383928Y-12166786D01*
X15398214Y-12138214D01*
X15426786Y-12123929D01*
X15498214Y-12123929D01*
X15526786Y-12109643D01*
X15669643Y-12038214D02*
X15669643Y-12338214D01*
X15669643Y-12052500D02*
X15698214Y-12038214D01*
X15755357Y-12038214D01*
X15783928Y-12052500D01*
X15798214Y-12066786D01*
X15812500Y-12095357D01*
X15812500Y-12181071D01*
X15798214Y-12209643D01*
X15783928Y-12223929D01*
X15755357Y-12238214D01*
X15698214Y-12238214D01*
X15669643Y-12223929D01*
X15941071Y-12209643D02*
X15955357Y-12223929D01*
X15941071Y-12238214D01*
X15926786Y-12223929D01*
X15941071Y-12209643D01*
X15941071Y-12238214D01*
X15941071Y-12052500D02*
X15955357Y-12066786D01*
X15941071Y-12081071D01*
X15926786Y-12066786D01*
X15941071Y-12052500D01*
X15941071Y-12081071D01*
X13557500Y-12712500D02*
X13597500Y-12752500D01*
X13597500Y-12712500D02*
X13557500Y-12752500D01*
X13941071Y-12568214D02*
X13969643Y-12568214D01*
X13998214Y-12582500D01*
X14012500Y-12596786D01*
X14026786Y-12625357D01*
X14041071Y-12682500D01*
X14041071Y-12753929D01*
X14026786Y-12811071D01*
X14012500Y-12839643D01*
X13998214Y-12853929D01*
X13969643Y-12868214D01*
X13941071Y-12868214D01*
X13912500Y-12853929D01*
X13898214Y-12839643D01*
X13883928Y-12811071D01*
X13869643Y-12753929D01*
X13869643Y-12682500D01*
X13883928Y-12625357D01*
X13898214Y-12596786D01*
X13912500Y-12582500D01*
X13941071Y-12568214D01*
X14169643Y-12839643D02*
X14183928Y-12853929D01*
X14169643Y-12868214D01*
X14155357Y-12853929D01*
X14169643Y-12839643D01*
X14169643Y-12868214D01*
X14441071Y-12668214D02*
X14441071Y-12868214D01*
X14369643Y-12553929D02*
X14298214Y-12768214D01*
X14483928Y-12768214D01*
X14655357Y-12568214D02*
X14683928Y-12568214D01*
X14712500Y-12582500D01*
X14726786Y-12596786D01*
X14741071Y-12625357D01*
X14755357Y-12682500D01*
X14755357Y-12753929D01*
X14741071Y-12811071D01*
X14726786Y-12839643D01*
X14712500Y-12853929D01*
X14683928Y-12868214D01*
X14655357Y-12868214D01*
X14626786Y-12853929D01*
X14612500Y-12839643D01*
X14598214Y-12811071D01*
X14583928Y-12753929D01*
X14583928Y-12682500D01*
X14598214Y-12625357D01*
X14612500Y-12596786D01*
X14626786Y-12582500D01*
X14655357Y-12568214D01*
X14883928Y-12868214D02*
X14883928Y-12668214D01*
X14883928Y-12696786D02*
X14898214Y-12682500D01*
X14926786Y-12668214D01*
X14969643Y-12668214D01*
X14998214Y-12682500D01*
X15012500Y-12711071D01*
X15012500Y-12868214D01*
X15012500Y-12711071D02*
X15026786Y-12682500D01*
X15055357Y-12668214D01*
X15098214Y-12668214D01*
X15126786Y-12682500D01*
X15141071Y-12711071D01*
X15141071Y-12868214D01*
X15283928Y-12868214D02*
X15283928Y-12668214D01*
X15283928Y-12696786D02*
X15298214Y-12682500D01*
X15326786Y-12668214D01*
X15369643Y-12668214D01*
X15398214Y-12682500D01*
X15412500Y-12711071D01*
X15412500Y-12868214D01*
X15412500Y-12711071D02*
X15426786Y-12682500D01*
X15455357Y-12668214D01*
X15498214Y-12668214D01*
X15526786Y-12682500D01*
X15541071Y-12711071D01*
X15541071Y-12868214D01*
X16126786Y-12553929D02*
X15869643Y-12939643D01*
X16512500Y-12568214D02*
X16541071Y-12568214D01*
X16569643Y-12582500D01*
X16583928Y-12596786D01*
X16598214Y-12625357D01*
X16612500Y-12682500D01*
X16612500Y-12753929D01*
X16598214Y-12811071D01*
X16583928Y-12839643D01*
X16569643Y-12853929D01*
X16541071Y-12868214D01*
X16512500Y-12868214D01*
X16483928Y-12853929D01*
X16469643Y-12839643D01*
X16455357Y-12811071D01*
X16441071Y-12753929D01*
X16441071Y-12682500D01*
X16455357Y-12625357D01*
X16469643Y-12596786D01*
X16483928Y-12582500D01*
X16512500Y-12568214D01*
X16741071Y-12839643D02*
X16755357Y-12853929D01*
X16741071Y-12868214D01*
X16726786Y-12853929D01*
X16741071Y-12839643D01*
X16741071Y-12868214D01*
X16941071Y-12568214D02*
X16969643Y-12568214D01*
X16998214Y-12582500D01*
X17012500Y-12596786D01*
X17026786Y-12625357D01*
X17041071Y-12682500D01*
X17041071Y-12753929D01*
X17026786Y-12811071D01*
X17012500Y-12839643D01*
X16998214Y-12853929D01*
X16969643Y-12868214D01*
X16941071Y-12868214D01*
X16912500Y-12853929D01*
X16898214Y-12839643D01*
X16883928Y-12811071D01*
X16869643Y-12753929D01*
X16869643Y-12682500D01*
X16883928Y-12625357D01*
X16898214Y-12596786D01*
X16912500Y-12582500D01*
X16941071Y-12568214D01*
X17326786Y-12868214D02*
X17155357Y-12868214D01*
X17241071Y-12868214D02*
X17241071Y-12568214D01*
X17212500Y-12611071D01*
X17183928Y-12639643D01*
X17155357Y-12653929D01*
X17583928Y-12568214D02*
X17526786Y-12568214D01*
X17498214Y-12582500D01*
X17483928Y-12596786D01*
X17455357Y-12639643D01*
X17441071Y-12696786D01*
X17441071Y-12811071D01*
X17455357Y-12839643D01*
X17469643Y-12853929D01*
X17498214Y-12868214D01*
X17555357Y-12868214D01*
X17583928Y-12853929D01*
X17598214Y-12839643D01*
X17612500Y-12811071D01*
X17612500Y-12739643D01*
X17598214Y-12711071D01*
X17583928Y-12696786D01*
X17555357Y-12682500D01*
X17498214Y-12682500D01*
X17469643Y-12696786D01*
X17455357Y-12711071D01*
X17441071Y-12739643D01*
X17726786Y-12568214D02*
X17726786Y-12625357D01*
X17841071Y-12568214D02*
X17841071Y-12625357D01*
X18283928Y-12982500D02*
X18269643Y-12968214D01*
X18241071Y-12925357D01*
X18226786Y-12896786D01*
X18212500Y-12853929D01*
X18198214Y-12782500D01*
X18198214Y-12725357D01*
X18212500Y-12653929D01*
X18226786Y-12611071D01*
X18241071Y-12582500D01*
X18269643Y-12539643D01*
X18283928Y-12525357D01*
X18369643Y-12568214D02*
X18555357Y-12568214D01*
X18455357Y-12682500D01*
X18498214Y-12682500D01*
X18526786Y-12696786D01*
X18541071Y-12711071D01*
X18555357Y-12739643D01*
X18555357Y-12811071D01*
X18541071Y-12839643D01*
X18526786Y-12853929D01*
X18498214Y-12868214D01*
X18412500Y-12868214D01*
X18383928Y-12853929D01*
X18369643Y-12839643D01*
X18698214Y-12868214D02*
X18755357Y-12868214D01*
X18783928Y-12853929D01*
X18798214Y-12839643D01*
X18826786Y-12796786D01*
X18841071Y-12739643D01*
X18841071Y-12625357D01*
X18826786Y-12596786D01*
X18812500Y-12582500D01*
X18783928Y-12568214D01*
X18726786Y-12568214D01*
X18698214Y-12582500D01*
X18683928Y-12596786D01*
X18669643Y-12625357D01*
X18669643Y-12696786D01*
X18683928Y-12725357D01*
X18698214Y-12739643D01*
X18726786Y-12753929D01*
X18783928Y-12753929D01*
X18812500Y-12739643D01*
X18826786Y-12725357D01*
X18841071Y-12696786D01*
X19198214Y-12868214D02*
X19198214Y-12568214D01*
X19326786Y-12868214D02*
X19326786Y-12711071D01*
X19312500Y-12682500D01*
X19283928Y-12668214D01*
X19241071Y-12668214D01*
X19212500Y-12682500D01*
X19198214Y-12696786D01*
X19512500Y-12868214D02*
X19483928Y-12853929D01*
X19469643Y-12839643D01*
X19455357Y-12811071D01*
X19455357Y-12725357D01*
X19469643Y-12696786D01*
X19483928Y-12682500D01*
X19512500Y-12668214D01*
X19555357Y-12668214D01*
X19583928Y-12682500D01*
X19598214Y-12696786D01*
X19612500Y-12725357D01*
X19612500Y-12811071D01*
X19598214Y-12839643D01*
X19583928Y-12853929D01*
X19555357Y-12868214D01*
X19512500Y-12868214D01*
X19783928Y-12868214D02*
X19755357Y-12853929D01*
X19741071Y-12825357D01*
X19741071Y-12568214D01*
X20012500Y-12853929D02*
X19983928Y-12868214D01*
X19926786Y-12868214D01*
X19898214Y-12853929D01*
X19883928Y-12825357D01*
X19883928Y-12711071D01*
X19898214Y-12682500D01*
X19926786Y-12668214D01*
X19983928Y-12668214D01*
X20012500Y-12682500D01*
X20026786Y-12711071D01*
X20026786Y-12739643D01*
X19883928Y-12768214D01*
X20141071Y-12853929D02*
X20169643Y-12868214D01*
X20226786Y-12868214D01*
X20255357Y-12853929D01*
X20269643Y-12825357D01*
X20269643Y-12811071D01*
X20255357Y-12782500D01*
X20226786Y-12768214D01*
X20183928Y-12768214D01*
X20155357Y-12753929D01*
X20141071Y-12725357D01*
X20141071Y-12711071D01*
X20155357Y-12682500D01*
X20183928Y-12668214D01*
X20226786Y-12668214D01*
X20255357Y-12682500D01*
X20369643Y-12982500D02*
X20383928Y-12968214D01*
X20412500Y-12925357D01*
X20426786Y-12896786D01*
X20441071Y-12853929D01*
X20455357Y-12782500D01*
X20455357Y-12725357D01*
X20441071Y-12653929D01*
X20426786Y-12611071D01*
X20412500Y-12582500D01*
X20383928Y-12539643D01*
X20369643Y-12525357D01*
X13597500Y-13128500D02*
G75*
G03*
X13597500Y-13128500I-35000J0D01*
G01*
X13941071Y-12964214D02*
X13969643Y-12964214D01*
X13998214Y-12978500D01*
X14012500Y-12992786D01*
X14026786Y-13021357D01*
X14041071Y-13078500D01*
X14041071Y-13149929D01*
X14026786Y-13207071D01*
X14012500Y-13235643D01*
X13998214Y-13249929D01*
X13969643Y-13264214D01*
X13941071Y-13264214D01*
X13912500Y-13249929D01*
X13898214Y-13235643D01*
X13883928Y-13207071D01*
X13869643Y-13149929D01*
X13869643Y-13078500D01*
X13883928Y-13021357D01*
X13898214Y-12992786D01*
X13912500Y-12978500D01*
X13941071Y-12964214D01*
X14169643Y-13235643D02*
X14183928Y-13249929D01*
X14169643Y-13264214D01*
X14155357Y-13249929D01*
X14169643Y-13235643D01*
X14169643Y-13264214D01*
X14283928Y-12964214D02*
X14483928Y-12964214D01*
X14355357Y-13264214D01*
X14655357Y-12964214D02*
X14683928Y-12964214D01*
X14712500Y-12978500D01*
X14726786Y-12992786D01*
X14741071Y-13021357D01*
X14755357Y-13078500D01*
X14755357Y-13149929D01*
X14741071Y-13207071D01*
X14726786Y-13235643D01*
X14712500Y-13249929D01*
X14683928Y-13264214D01*
X14655357Y-13264214D01*
X14626786Y-13249929D01*
X14612500Y-13235643D01*
X14598214Y-13207071D01*
X14583928Y-13149929D01*
X14583928Y-13078500D01*
X14598214Y-13021357D01*
X14612500Y-12992786D01*
X14626786Y-12978500D01*
X14655357Y-12964214D01*
X14883928Y-13264214D02*
X14883928Y-13064214D01*
X14883928Y-13092786D02*
X14898214Y-13078500D01*
X14926786Y-13064214D01*
X14969643Y-13064214D01*
X14998214Y-13078500D01*
X15012500Y-13107071D01*
X15012500Y-13264214D01*
X15012500Y-13107071D02*
X15026786Y-13078500D01*
X15055357Y-13064214D01*
X15098214Y-13064214D01*
X15126786Y-13078500D01*
X15141071Y-13107071D01*
X15141071Y-13264214D01*
X15283928Y-13264214D02*
X15283928Y-13064214D01*
X15283928Y-13092786D02*
X15298214Y-13078500D01*
X15326786Y-13064214D01*
X15369643Y-13064214D01*
X15398214Y-13078500D01*
X15412500Y-13107071D01*
X15412500Y-13264214D01*
X15412500Y-13107071D02*
X15426786Y-13078500D01*
X15455357Y-13064214D01*
X15498214Y-13064214D01*
X15526786Y-13078500D01*
X15541071Y-13107071D01*
X15541071Y-13264214D01*
X16126786Y-12949929D02*
X15869643Y-13335643D01*
X16512500Y-12964214D02*
X16541071Y-12964214D01*
X16569643Y-12978500D01*
X16583928Y-12992786D01*
X16598214Y-13021357D01*
X16612500Y-13078500D01*
X16612500Y-13149929D01*
X16598214Y-13207071D01*
X16583928Y-13235643D01*
X16569643Y-13249929D01*
X16541071Y-13264214D01*
X16512500Y-13264214D01*
X16483928Y-13249929D01*
X16469643Y-13235643D01*
X16455357Y-13207071D01*
X16441071Y-13149929D01*
X16441071Y-13078500D01*
X16455357Y-13021357D01*
X16469643Y-12992786D01*
X16483928Y-12978500D01*
X16512500Y-12964214D01*
X16741071Y-13235643D02*
X16755357Y-13249929D01*
X16741071Y-13264214D01*
X16726786Y-13249929D01*
X16741071Y-13235643D01*
X16741071Y-13264214D01*
X16941071Y-12964214D02*
X16969643Y-12964214D01*
X16998214Y-12978500D01*
X17012500Y-12992786D01*
X17026786Y-13021357D01*
X17041071Y-13078500D01*
X17041071Y-13149929D01*
X17026786Y-13207071D01*
X17012500Y-13235643D01*
X16998214Y-13249929D01*
X16969643Y-13264214D01*
X16941071Y-13264214D01*
X16912500Y-13249929D01*
X16898214Y-13235643D01*
X16883928Y-13207071D01*
X16869643Y-13149929D01*
X16869643Y-13078500D01*
X16883928Y-13021357D01*
X16898214Y-12992786D01*
X16912500Y-12978500D01*
X16941071Y-12964214D01*
X17155357Y-12992786D02*
X17169643Y-12978500D01*
X17198214Y-12964214D01*
X17269643Y-12964214D01*
X17298214Y-12978500D01*
X17312500Y-12992786D01*
X17326786Y-13021357D01*
X17326786Y-13049929D01*
X17312500Y-13092786D01*
X17141071Y-13264214D01*
X17326786Y-13264214D01*
X17498214Y-13092786D02*
X17469643Y-13078500D01*
X17455357Y-13064214D01*
X17441071Y-13035643D01*
X17441071Y-13021357D01*
X17455357Y-12992786D01*
X17469643Y-12978500D01*
X17498214Y-12964214D01*
X17555357Y-12964214D01*
X17583928Y-12978500D01*
X17598214Y-12992786D01*
X17612500Y-13021357D01*
X17612500Y-13035643D01*
X17598214Y-13064214D01*
X17583928Y-13078500D01*
X17555357Y-13092786D01*
X17498214Y-13092786D01*
X17469643Y-13107071D01*
X17455357Y-13121357D01*
X17441071Y-13149929D01*
X17441071Y-13207071D01*
X17455357Y-13235643D01*
X17469643Y-13249929D01*
X17498214Y-13264214D01*
X17555357Y-13264214D01*
X17583928Y-13249929D01*
X17598214Y-13235643D01*
X17612500Y-13207071D01*
X17612500Y-13149929D01*
X17598214Y-13121357D01*
X17583928Y-13107071D01*
X17555357Y-13092786D01*
X17726786Y-12964214D02*
X17726786Y-13021357D01*
X17841071Y-12964214D02*
X17841071Y-13021357D01*
X18283928Y-13378500D02*
X18269643Y-13364214D01*
X18241071Y-13321357D01*
X18226786Y-13292786D01*
X18212500Y-13249929D01*
X18198214Y-13178500D01*
X18198214Y-13121357D01*
X18212500Y-13049929D01*
X18226786Y-13007071D01*
X18241071Y-12978500D01*
X18269643Y-12935643D01*
X18283928Y-12921357D01*
X18526786Y-12964214D02*
X18469643Y-12964214D01*
X18441071Y-12978500D01*
X18426786Y-12992786D01*
X18398214Y-13035643D01*
X18383928Y-13092786D01*
X18383928Y-13207071D01*
X18398214Y-13235643D01*
X18412500Y-13249929D01*
X18441071Y-13264214D01*
X18498214Y-13264214D01*
X18526786Y-13249929D01*
X18541071Y-13235643D01*
X18555357Y-13207071D01*
X18555357Y-13135643D01*
X18541071Y-13107071D01*
X18526786Y-13092786D01*
X18498214Y-13078500D01*
X18441071Y-13078500D01*
X18412500Y-13092786D01*
X18398214Y-13107071D01*
X18383928Y-13135643D01*
X18912500Y-13264214D02*
X18912500Y-12964214D01*
X19041071Y-13264214D02*
X19041071Y-13107071D01*
X19026786Y-13078500D01*
X18998214Y-13064214D01*
X18955357Y-13064214D01*
X18926786Y-13078500D01*
X18912500Y-13092786D01*
X19226786Y-13264214D02*
X19198214Y-13249929D01*
X19183928Y-13235643D01*
X19169643Y-13207071D01*
X19169643Y-13121357D01*
X19183928Y-13092786D01*
X19198214Y-13078500D01*
X19226786Y-13064214D01*
X19269643Y-13064214D01*
X19298214Y-13078500D01*
X19312500Y-13092786D01*
X19326786Y-13121357D01*
X19326786Y-13207071D01*
X19312500Y-13235643D01*
X19298214Y-13249929D01*
X19269643Y-13264214D01*
X19226786Y-13264214D01*
X19498214Y-13264214D02*
X19469643Y-13249929D01*
X19455357Y-13221357D01*
X19455357Y-12964214D01*
X19726786Y-13249929D02*
X19698214Y-13264214D01*
X19641071Y-13264214D01*
X19612500Y-13249929D01*
X19598214Y-13221357D01*
X19598214Y-13107071D01*
X19612500Y-13078500D01*
X19641071Y-13064214D01*
X19698214Y-13064214D01*
X19726786Y-13078500D01*
X19741071Y-13107071D01*
X19741071Y-13135643D01*
X19598214Y-13164214D01*
X19855357Y-13249929D02*
X19883928Y-13264214D01*
X19941071Y-13264214D01*
X19969643Y-13249929D01*
X19983928Y-13221357D01*
X19983928Y-13207071D01*
X19969643Y-13178500D01*
X19941071Y-13164214D01*
X19898214Y-13164214D01*
X19869643Y-13149929D01*
X19855357Y-13121357D01*
X19855357Y-13107071D01*
X19869643Y-13078500D01*
X19898214Y-13064214D01*
X19941071Y-13064214D01*
X19969643Y-13078500D01*
X20083928Y-13378500D02*
X20098214Y-13364214D01*
X20126786Y-13321357D01*
X20141071Y-13292786D01*
X20155357Y-13249929D01*
X20169643Y-13178500D01*
X20169643Y-13121357D01*
X20155357Y-13049929D01*
X20141071Y-13007071D01*
X20126786Y-12978500D01*
X20098214Y-12935643D01*
X20083928Y-12921357D01*
X13547500Y-13474500D02*
X13547500Y-13574500D01*
X13497500Y-13524500D02*
X13597500Y-13524500D01*
X14041071Y-13660214D02*
X13869643Y-13660214D01*
X13955357Y-13660214D02*
X13955357Y-13360214D01*
X13926786Y-13403071D01*
X13898214Y-13431643D01*
X13869643Y-13445929D01*
X14169643Y-13631643D02*
X14183928Y-13645929D01*
X14169643Y-13660214D01*
X14155357Y-13645929D01*
X14169643Y-13631643D01*
X14169643Y-13660214D01*
X14369643Y-13360214D02*
X14398214Y-13360214D01*
X14426786Y-13374500D01*
X14441071Y-13388786D01*
X14455357Y-13417357D01*
X14469643Y-13474500D01*
X14469643Y-13545929D01*
X14455357Y-13603071D01*
X14441071Y-13631643D01*
X14426786Y-13645929D01*
X14398214Y-13660214D01*
X14369643Y-13660214D01*
X14341071Y-13645929D01*
X14326786Y-13631643D01*
X14312500Y-13603071D01*
X14298214Y-13545929D01*
X14298214Y-13474500D01*
X14312500Y-13417357D01*
X14326786Y-13388786D01*
X14341071Y-13374500D01*
X14369643Y-13360214D01*
X14655357Y-13360214D02*
X14683928Y-13360214D01*
X14712500Y-13374500D01*
X14726786Y-13388786D01*
X14741071Y-13417357D01*
X14755357Y-13474500D01*
X14755357Y-13545929D01*
X14741071Y-13603071D01*
X14726786Y-13631643D01*
X14712500Y-13645929D01*
X14683928Y-13660214D01*
X14655357Y-13660214D01*
X14626786Y-13645929D01*
X14612500Y-13631643D01*
X14598214Y-13603071D01*
X14583928Y-13545929D01*
X14583928Y-13474500D01*
X14598214Y-13417357D01*
X14612500Y-13388786D01*
X14626786Y-13374500D01*
X14655357Y-13360214D01*
X14883928Y-13660214D02*
X14883928Y-13460214D01*
X14883928Y-13488786D02*
X14898214Y-13474500D01*
X14926786Y-13460214D01*
X14969643Y-13460214D01*
X14998214Y-13474500D01*
X15012500Y-13503071D01*
X15012500Y-13660214D01*
X15012500Y-13503071D02*
X15026786Y-13474500D01*
X15055357Y-13460214D01*
X15098214Y-13460214D01*
X15126786Y-13474500D01*
X15141071Y-13503071D01*
X15141071Y-13660214D01*
X15283928Y-13660214D02*
X15283928Y-13460214D01*
X15283928Y-13488786D02*
X15298214Y-13474500D01*
X15326786Y-13460214D01*
X15369643Y-13460214D01*
X15398214Y-13474500D01*
X15412500Y-13503071D01*
X15412500Y-13660214D01*
X15412500Y-13503071D02*
X15426786Y-13474500D01*
X15455357Y-13460214D01*
X15498214Y-13460214D01*
X15526786Y-13474500D01*
X15541071Y-13503071D01*
X15541071Y-13660214D01*
X16126786Y-13345929D02*
X15869643Y-13731643D01*
X16512500Y-13360214D02*
X16541071Y-13360214D01*
X16569643Y-13374500D01*
X16583928Y-13388786D01*
X16598214Y-13417357D01*
X16612500Y-13474500D01*
X16612500Y-13545929D01*
X16598214Y-13603071D01*
X16583928Y-13631643D01*
X16569643Y-13645929D01*
X16541071Y-13660214D01*
X16512500Y-13660214D01*
X16483928Y-13645929D01*
X16469643Y-13631643D01*
X16455357Y-13603071D01*
X16441071Y-13545929D01*
X16441071Y-13474500D01*
X16455357Y-13417357D01*
X16469643Y-13388786D01*
X16483928Y-13374500D01*
X16512500Y-13360214D01*
X16741071Y-13631643D02*
X16755357Y-13645929D01*
X16741071Y-13660214D01*
X16726786Y-13645929D01*
X16741071Y-13631643D01*
X16741071Y-13660214D01*
X16941071Y-13360214D02*
X16969643Y-13360214D01*
X16998214Y-13374500D01*
X17012500Y-13388786D01*
X17026786Y-13417357D01*
X17041071Y-13474500D01*
X17041071Y-13545929D01*
X17026786Y-13603071D01*
X17012500Y-13631643D01*
X16998214Y-13645929D01*
X16969643Y-13660214D01*
X16941071Y-13660214D01*
X16912500Y-13645929D01*
X16898214Y-13631643D01*
X16883928Y-13603071D01*
X16869643Y-13545929D01*
X16869643Y-13474500D01*
X16883928Y-13417357D01*
X16898214Y-13388786D01*
X16912500Y-13374500D01*
X16941071Y-13360214D01*
X17141071Y-13360214D02*
X17326786Y-13360214D01*
X17226786Y-13474500D01*
X17269643Y-13474500D01*
X17298214Y-13488786D01*
X17312500Y-13503071D01*
X17326786Y-13531643D01*
X17326786Y-13603071D01*
X17312500Y-13631643D01*
X17298214Y-13645929D01*
X17269643Y-13660214D01*
X17183928Y-13660214D01*
X17155357Y-13645929D01*
X17141071Y-13631643D01*
X17469643Y-13660214D02*
X17526786Y-13660214D01*
X17555357Y-13645929D01*
X17569643Y-13631643D01*
X17598214Y-13588786D01*
X17612500Y-13531643D01*
X17612500Y-13417357D01*
X17598214Y-13388786D01*
X17583928Y-13374500D01*
X17555357Y-13360214D01*
X17498214Y-13360214D01*
X17469643Y-13374500D01*
X17455357Y-13388786D01*
X17441071Y-13417357D01*
X17441071Y-13488786D01*
X17455357Y-13517357D01*
X17469643Y-13531643D01*
X17498214Y-13545929D01*
X17555357Y-13545929D01*
X17583928Y-13531643D01*
X17598214Y-13517357D01*
X17612500Y-13488786D01*
X17726786Y-13360214D02*
X17726786Y-13417357D01*
X17841071Y-13360214D02*
X17841071Y-13417357D01*
X18283928Y-13774500D02*
X18269643Y-13760214D01*
X18241071Y-13717357D01*
X18226786Y-13688786D01*
X18212500Y-13645929D01*
X18198214Y-13574500D01*
X18198214Y-13517357D01*
X18212500Y-13445929D01*
X18226786Y-13403071D01*
X18241071Y-13374500D01*
X18269643Y-13331643D01*
X18283928Y-13317357D01*
X18383928Y-13388786D02*
X18398214Y-13374500D01*
X18426786Y-13360214D01*
X18498214Y-13360214D01*
X18526786Y-13374500D01*
X18541071Y-13388786D01*
X18555357Y-13417357D01*
X18555357Y-13445929D01*
X18541071Y-13488786D01*
X18369643Y-13660214D01*
X18555357Y-13660214D01*
X18726786Y-13488786D02*
X18698214Y-13474500D01*
X18683928Y-13460214D01*
X18669643Y-13431643D01*
X18669643Y-13417357D01*
X18683928Y-13388786D01*
X18698214Y-13374500D01*
X18726786Y-13360214D01*
X18783928Y-13360214D01*
X18812500Y-13374500D01*
X18826786Y-13388786D01*
X18841071Y-13417357D01*
X18841071Y-13431643D01*
X18826786Y-13460214D01*
X18812500Y-13474500D01*
X18783928Y-13488786D01*
X18726786Y-13488786D01*
X18698214Y-13503071D01*
X18683928Y-13517357D01*
X18669643Y-13545929D01*
X18669643Y-13603071D01*
X18683928Y-13631643D01*
X18698214Y-13645929D01*
X18726786Y-13660214D01*
X18783928Y-13660214D01*
X18812500Y-13645929D01*
X18826786Y-13631643D01*
X18841071Y-13603071D01*
X18841071Y-13545929D01*
X18826786Y-13517357D01*
X18812500Y-13503071D01*
X18783928Y-13488786D01*
X19198214Y-13660214D02*
X19198214Y-13360214D01*
X19326786Y-13660214D02*
X19326786Y-13503071D01*
X19312500Y-13474500D01*
X19283928Y-13460214D01*
X19241071Y-13460214D01*
X19212500Y-13474500D01*
X19198214Y-13488786D01*
X19512500Y-13660214D02*
X19483928Y-13645929D01*
X19469643Y-13631643D01*
X19455357Y-13603071D01*
X19455357Y-13517357D01*
X19469643Y-13488786D01*
X19483928Y-13474500D01*
X19512500Y-13460214D01*
X19555357Y-13460214D01*
X19583928Y-13474500D01*
X19598214Y-13488786D01*
X19612500Y-13517357D01*
X19612500Y-13603071D01*
X19598214Y-13631643D01*
X19583928Y-13645929D01*
X19555357Y-13660214D01*
X19512500Y-13660214D01*
X19783928Y-13660214D02*
X19755357Y-13645929D01*
X19741071Y-13617357D01*
X19741071Y-13360214D01*
X20012500Y-13645929D02*
X19983928Y-13660214D01*
X19926786Y-13660214D01*
X19898214Y-13645929D01*
X19883928Y-13617357D01*
X19883928Y-13503071D01*
X19898214Y-13474500D01*
X19926786Y-13460214D01*
X19983928Y-13460214D01*
X20012500Y-13474500D01*
X20026786Y-13503071D01*
X20026786Y-13531643D01*
X19883928Y-13560214D01*
X20141071Y-13645929D02*
X20169643Y-13660214D01*
X20226786Y-13660214D01*
X20255357Y-13645929D01*
X20269643Y-13617357D01*
X20269643Y-13603071D01*
X20255357Y-13574500D01*
X20226786Y-13560214D01*
X20183928Y-13560214D01*
X20155357Y-13545929D01*
X20141071Y-13517357D01*
X20141071Y-13503071D01*
X20155357Y-13474500D01*
X20183928Y-13460214D01*
X20226786Y-13460214D01*
X20255357Y-13474500D01*
X20369643Y-13774500D02*
X20383928Y-13760214D01*
X20412500Y-13717357D01*
X20426786Y-13688786D01*
X20441071Y-13645929D01*
X20455357Y-13574500D01*
X20455357Y-13517357D01*
X20441071Y-13445929D01*
X20426786Y-13403071D01*
X20412500Y-13374500D01*
X20383928Y-13331643D01*
X20369643Y-13317357D01*
X13561182Y-14008182D02*
X13561182Y-13832818D01*
X13385818Y-13832818D01*
X13385818Y-14008182D01*
X13561182Y-14008182D01*
X13869643Y-13784786D02*
X13883928Y-13770500D01*
X13912500Y-13756214D01*
X13983928Y-13756214D01*
X14012500Y-13770500D01*
X14026786Y-13784786D01*
X14041071Y-13813357D01*
X14041071Y-13841929D01*
X14026786Y-13884786D01*
X13855357Y-14056214D01*
X14041071Y-14056214D01*
X14169643Y-14027643D02*
X14183928Y-14041929D01*
X14169643Y-14056214D01*
X14155357Y-14041929D01*
X14169643Y-14027643D01*
X14169643Y-14056214D01*
X14441071Y-13856214D02*
X14441071Y-14056214D01*
X14369643Y-13741929D02*
X14298214Y-13956214D01*
X14483928Y-13956214D01*
X14641071Y-13884786D02*
X14612500Y-13870500D01*
X14598214Y-13856214D01*
X14583928Y-13827643D01*
X14583928Y-13813357D01*
X14598214Y-13784786D01*
X14612500Y-13770500D01*
X14641071Y-13756214D01*
X14698214Y-13756214D01*
X14726786Y-13770500D01*
X14741071Y-13784786D01*
X14755357Y-13813357D01*
X14755357Y-13827643D01*
X14741071Y-13856214D01*
X14726786Y-13870500D01*
X14698214Y-13884786D01*
X14641071Y-13884786D01*
X14612500Y-13899071D01*
X14598214Y-13913357D01*
X14583928Y-13941929D01*
X14583928Y-13999071D01*
X14598214Y-14027643D01*
X14612500Y-14041929D01*
X14641071Y-14056214D01*
X14698214Y-14056214D01*
X14726786Y-14041929D01*
X14741071Y-14027643D01*
X14755357Y-13999071D01*
X14755357Y-13941929D01*
X14741071Y-13913357D01*
X14726786Y-13899071D01*
X14698214Y-13884786D01*
X14883928Y-14056214D02*
X14883928Y-13856214D01*
X14883928Y-13884786D02*
X14898214Y-13870500D01*
X14926786Y-13856214D01*
X14969643Y-13856214D01*
X14998214Y-13870500D01*
X15012500Y-13899071D01*
X15012500Y-14056214D01*
X15012500Y-13899071D02*
X15026786Y-13870500D01*
X15055357Y-13856214D01*
X15098214Y-13856214D01*
X15126786Y-13870500D01*
X15141071Y-13899071D01*
X15141071Y-14056214D01*
X15283928Y-14056214D02*
X15283928Y-13856214D01*
X15283928Y-13884786D02*
X15298214Y-13870500D01*
X15326786Y-13856214D01*
X15369643Y-13856214D01*
X15398214Y-13870500D01*
X15412500Y-13899071D01*
X15412500Y-14056214D01*
X15412500Y-13899071D02*
X15426786Y-13870500D01*
X15455357Y-13856214D01*
X15498214Y-13856214D01*
X15526786Y-13870500D01*
X15541071Y-13899071D01*
X15541071Y-14056214D01*
X16126786Y-13741929D02*
X15869643Y-14127643D01*
X16512500Y-13756214D02*
X16541071Y-13756214D01*
X16569643Y-13770500D01*
X16583928Y-13784786D01*
X16598214Y-13813357D01*
X16612500Y-13870500D01*
X16612500Y-13941929D01*
X16598214Y-13999071D01*
X16583928Y-14027643D01*
X16569643Y-14041929D01*
X16541071Y-14056214D01*
X16512500Y-14056214D01*
X16483928Y-14041929D01*
X16469643Y-14027643D01*
X16455357Y-13999071D01*
X16441071Y-13941929D01*
X16441071Y-13870500D01*
X16455357Y-13813357D01*
X16469643Y-13784786D01*
X16483928Y-13770500D01*
X16512500Y-13756214D01*
X16741071Y-14027643D02*
X16755357Y-14041929D01*
X16741071Y-14056214D01*
X16726786Y-14041929D01*
X16741071Y-14027643D01*
X16741071Y-14056214D01*
X16941071Y-13756214D02*
X16969643Y-13756214D01*
X16998214Y-13770500D01*
X17012500Y-13784786D01*
X17026786Y-13813357D01*
X17041071Y-13870500D01*
X17041071Y-13941929D01*
X17026786Y-13999071D01*
X17012500Y-14027643D01*
X16998214Y-14041929D01*
X16969643Y-14056214D01*
X16941071Y-14056214D01*
X16912500Y-14041929D01*
X16898214Y-14027643D01*
X16883928Y-13999071D01*
X16869643Y-13941929D01*
X16869643Y-13870500D01*
X16883928Y-13813357D01*
X16898214Y-13784786D01*
X16912500Y-13770500D01*
X16941071Y-13756214D01*
X17183928Y-14056214D02*
X17241071Y-14056214D01*
X17269643Y-14041929D01*
X17283928Y-14027643D01*
X17312500Y-13984786D01*
X17326786Y-13927643D01*
X17326786Y-13813357D01*
X17312500Y-13784786D01*
X17298214Y-13770500D01*
X17269643Y-13756214D01*
X17212500Y-13756214D01*
X17183928Y-13770500D01*
X17169643Y-13784786D01*
X17155357Y-13813357D01*
X17155357Y-13884786D01*
X17169643Y-13913357D01*
X17183928Y-13927643D01*
X17212500Y-13941929D01*
X17269643Y-13941929D01*
X17298214Y-13927643D01*
X17312500Y-13913357D01*
X17326786Y-13884786D01*
X17498214Y-13884786D02*
X17469643Y-13870500D01*
X17455357Y-13856214D01*
X17441071Y-13827643D01*
X17441071Y-13813357D01*
X17455357Y-13784786D01*
X17469643Y-13770500D01*
X17498214Y-13756214D01*
X17555357Y-13756214D01*
X17583928Y-13770500D01*
X17598214Y-13784786D01*
X17612500Y-13813357D01*
X17612500Y-13827643D01*
X17598214Y-13856214D01*
X17583928Y-13870500D01*
X17555357Y-13884786D01*
X17498214Y-13884786D01*
X17469643Y-13899071D01*
X17455357Y-13913357D01*
X17441071Y-13941929D01*
X17441071Y-13999071D01*
X17455357Y-14027643D01*
X17469643Y-14041929D01*
X17498214Y-14056214D01*
X17555357Y-14056214D01*
X17583928Y-14041929D01*
X17598214Y-14027643D01*
X17612500Y-13999071D01*
X17612500Y-13941929D01*
X17598214Y-13913357D01*
X17583928Y-13899071D01*
X17555357Y-13884786D01*
X17726786Y-13756214D02*
X17726786Y-13813357D01*
X17841071Y-13756214D02*
X17841071Y-13813357D01*
X18283928Y-14170500D02*
X18269643Y-14156214D01*
X18241071Y-14113357D01*
X18226786Y-14084786D01*
X18212500Y-14041929D01*
X18198214Y-13970500D01*
X18198214Y-13913357D01*
X18212500Y-13841929D01*
X18226786Y-13799071D01*
X18241071Y-13770500D01*
X18269643Y-13727643D01*
X18283928Y-13713357D01*
X18526786Y-13856214D02*
X18526786Y-14056214D01*
X18455357Y-13741929D02*
X18383928Y-13956214D01*
X18569643Y-13956214D01*
X18912500Y-14056214D02*
X18912500Y-13756214D01*
X19041071Y-14056214D02*
X19041071Y-13899071D01*
X19026786Y-13870500D01*
X18998214Y-13856214D01*
X18955357Y-13856214D01*
X18926786Y-13870500D01*
X18912500Y-13884786D01*
X19226786Y-14056214D02*
X19198214Y-14041929D01*
X19183928Y-14027643D01*
X19169643Y-13999071D01*
X19169643Y-13913357D01*
X19183928Y-13884786D01*
X19198214Y-13870500D01*
X19226786Y-13856214D01*
X19269643Y-13856214D01*
X19298214Y-13870500D01*
X19312500Y-13884786D01*
X19326786Y-13913357D01*
X19326786Y-13999071D01*
X19312500Y-14027643D01*
X19298214Y-14041929D01*
X19269643Y-14056214D01*
X19226786Y-14056214D01*
X19498214Y-14056214D02*
X19469643Y-14041929D01*
X19455357Y-14013357D01*
X19455357Y-13756214D01*
X19726786Y-14041929D02*
X19698214Y-14056214D01*
X19641071Y-14056214D01*
X19612500Y-14041929D01*
X19598214Y-14013357D01*
X19598214Y-13899071D01*
X19612500Y-13870500D01*
X19641071Y-13856214D01*
X19698214Y-13856214D01*
X19726786Y-13870500D01*
X19741071Y-13899071D01*
X19741071Y-13927643D01*
X19598214Y-13956214D01*
X19855357Y-14041929D02*
X19883928Y-14056214D01*
X19941071Y-14056214D01*
X19969643Y-14041929D01*
X19983928Y-14013357D01*
X19983928Y-13999071D01*
X19969643Y-13970500D01*
X19941071Y-13956214D01*
X19898214Y-13956214D01*
X19869643Y-13941929D01*
X19855357Y-13913357D01*
X19855357Y-13899071D01*
X19869643Y-13870500D01*
X19898214Y-13856214D01*
X19941071Y-13856214D01*
X19969643Y-13870500D01*
X20083928Y-14170500D02*
X20098214Y-14156214D01*
X20126786Y-14113357D01*
X20141071Y-14084786D01*
X20155357Y-14041929D01*
X20169643Y-13970500D01*
X20169643Y-13913357D01*
X20155357Y-13841929D01*
X20141071Y-13799071D01*
X20126786Y-13770500D01*
X20098214Y-13727643D01*
X20083928Y-13713357D01*
X13472500Y-14441500D02*
X13597500Y-14316500D01*
X13472500Y-14191500D01*
X13347500Y-14316500D01*
X13472500Y-14441500D01*
X13869643Y-14180786D02*
X13883928Y-14166500D01*
X13912500Y-14152214D01*
X13983928Y-14152214D01*
X14012500Y-14166500D01*
X14026786Y-14180786D01*
X14041071Y-14209357D01*
X14041071Y-14237929D01*
X14026786Y-14280786D01*
X13855357Y-14452214D01*
X14041071Y-14452214D01*
X14169643Y-14423643D02*
X14183928Y-14437929D01*
X14169643Y-14452214D01*
X14155357Y-14437929D01*
X14169643Y-14423643D01*
X14169643Y-14452214D01*
X14455357Y-14152214D02*
X14312500Y-14152214D01*
X14298214Y-14295071D01*
X14312500Y-14280786D01*
X14341071Y-14266500D01*
X14412500Y-14266500D01*
X14441071Y-14280786D01*
X14455357Y-14295071D01*
X14469643Y-14323643D01*
X14469643Y-14395071D01*
X14455357Y-14423643D01*
X14441071Y-14437929D01*
X14412500Y-14452214D01*
X14341071Y-14452214D01*
X14312500Y-14437929D01*
X14298214Y-14423643D01*
X14655357Y-14152214D02*
X14683928Y-14152214D01*
X14712500Y-14166500D01*
X14726786Y-14180786D01*
X14741071Y-14209357D01*
X14755357Y-14266500D01*
X14755357Y-14337929D01*
X14741071Y-14395071D01*
X14726786Y-14423643D01*
X14712500Y-14437929D01*
X14683928Y-14452214D01*
X14655357Y-14452214D01*
X14626786Y-14437929D01*
X14612500Y-14423643D01*
X14598214Y-14395071D01*
X14583928Y-14337929D01*
X14583928Y-14266500D01*
X14598214Y-14209357D01*
X14612500Y-14180786D01*
X14626786Y-14166500D01*
X14655357Y-14152214D01*
X14883928Y-14452214D02*
X14883928Y-14252214D01*
X14883928Y-14280786D02*
X14898214Y-14266500D01*
X14926786Y-14252214D01*
X14969643Y-14252214D01*
X14998214Y-14266500D01*
X15012500Y-14295071D01*
X15012500Y-14452214D01*
X15012500Y-14295071D02*
X15026786Y-14266500D01*
X15055357Y-14252214D01*
X15098214Y-14252214D01*
X15126786Y-14266500D01*
X15141071Y-14295071D01*
X15141071Y-14452214D01*
X15283928Y-14452214D02*
X15283928Y-14252214D01*
X15283928Y-14280786D02*
X15298214Y-14266500D01*
X15326786Y-14252214D01*
X15369643Y-14252214D01*
X15398214Y-14266500D01*
X15412500Y-14295071D01*
X15412500Y-14452214D01*
X15412500Y-14295071D02*
X15426786Y-14266500D01*
X15455357Y-14252214D01*
X15498214Y-14252214D01*
X15526786Y-14266500D01*
X15541071Y-14295071D01*
X15541071Y-14452214D01*
X16126786Y-14137929D02*
X15869643Y-14523643D01*
X16512500Y-14152214D02*
X16541071Y-14152214D01*
X16569643Y-14166500D01*
X16583928Y-14180786D01*
X16598214Y-14209357D01*
X16612500Y-14266500D01*
X16612500Y-14337929D01*
X16598214Y-14395071D01*
X16583928Y-14423643D01*
X16569643Y-14437929D01*
X16541071Y-14452214D01*
X16512500Y-14452214D01*
X16483928Y-14437929D01*
X16469643Y-14423643D01*
X16455357Y-14395071D01*
X16441071Y-14337929D01*
X16441071Y-14266500D01*
X16455357Y-14209357D01*
X16469643Y-14180786D01*
X16483928Y-14166500D01*
X16512500Y-14152214D01*
X16741071Y-14423643D02*
X16755357Y-14437929D01*
X16741071Y-14452214D01*
X16726786Y-14437929D01*
X16741071Y-14423643D01*
X16741071Y-14452214D01*
X16941071Y-14152214D02*
X16969643Y-14152214D01*
X16998214Y-14166500D01*
X17012500Y-14180786D01*
X17026786Y-14209357D01*
X17041071Y-14266500D01*
X17041071Y-14337929D01*
X17026786Y-14395071D01*
X17012500Y-14423643D01*
X16998214Y-14437929D01*
X16969643Y-14452214D01*
X16941071Y-14452214D01*
X16912500Y-14437929D01*
X16898214Y-14423643D01*
X16883928Y-14395071D01*
X16869643Y-14337929D01*
X16869643Y-14266500D01*
X16883928Y-14209357D01*
X16898214Y-14180786D01*
X16912500Y-14166500D01*
X16941071Y-14152214D01*
X17183928Y-14452214D02*
X17241071Y-14452214D01*
X17269643Y-14437929D01*
X17283928Y-14423643D01*
X17312500Y-14380786D01*
X17326786Y-14323643D01*
X17326786Y-14209357D01*
X17312500Y-14180786D01*
X17298214Y-14166500D01*
X17269643Y-14152214D01*
X17212500Y-14152214D01*
X17183928Y-14166500D01*
X17169643Y-14180786D01*
X17155357Y-14209357D01*
X17155357Y-14280786D01*
X17169643Y-14309357D01*
X17183928Y-14323643D01*
X17212500Y-14337929D01*
X17269643Y-14337929D01*
X17298214Y-14323643D01*
X17312500Y-14309357D01*
X17326786Y-14280786D01*
X17498214Y-14280786D02*
X17469643Y-14266500D01*
X17455357Y-14252214D01*
X17441071Y-14223643D01*
X17441071Y-14209357D01*
X17455357Y-14180786D01*
X17469643Y-14166500D01*
X17498214Y-14152214D01*
X17555357Y-14152214D01*
X17583928Y-14166500D01*
X17598214Y-14180786D01*
X17612500Y-14209357D01*
X17612500Y-14223643D01*
X17598214Y-14252214D01*
X17583928Y-14266500D01*
X17555357Y-14280786D01*
X17498214Y-14280786D01*
X17469643Y-14295071D01*
X17455357Y-14309357D01*
X17441071Y-14337929D01*
X17441071Y-14395071D01*
X17455357Y-14423643D01*
X17469643Y-14437929D01*
X17498214Y-14452214D01*
X17555357Y-14452214D01*
X17583928Y-14437929D01*
X17598214Y-14423643D01*
X17612500Y-14395071D01*
X17612500Y-14337929D01*
X17598214Y-14309357D01*
X17583928Y-14295071D01*
X17555357Y-14280786D01*
X17726786Y-14152214D02*
X17726786Y-14209357D01*
X17841071Y-14152214D02*
X17841071Y-14209357D01*
X18283928Y-14566500D02*
X18269643Y-14552214D01*
X18241071Y-14509357D01*
X18226786Y-14480786D01*
X18212500Y-14437929D01*
X18198214Y-14366500D01*
X18198214Y-14309357D01*
X18212500Y-14237929D01*
X18226786Y-14195071D01*
X18241071Y-14166500D01*
X18269643Y-14123643D01*
X18283928Y-14109357D01*
X18555357Y-14452214D02*
X18383928Y-14452214D01*
X18469643Y-14452214D02*
X18469643Y-14152214D01*
X18441071Y-14195071D01*
X18412500Y-14223643D01*
X18383928Y-14237929D01*
X18912500Y-14452214D02*
X18912500Y-14152214D01*
X19041071Y-14452214D02*
X19041071Y-14295071D01*
X19026786Y-14266500D01*
X18998214Y-14252214D01*
X18955357Y-14252214D01*
X18926786Y-14266500D01*
X18912500Y-14280786D01*
X19226786Y-14452214D02*
X19198214Y-14437929D01*
X19183928Y-14423643D01*
X19169643Y-14395071D01*
X19169643Y-14309357D01*
X19183928Y-14280786D01*
X19198214Y-14266500D01*
X19226786Y-14252214D01*
X19269643Y-14252214D01*
X19298214Y-14266500D01*
X19312500Y-14280786D01*
X19326786Y-14309357D01*
X19326786Y-14395071D01*
X19312500Y-14423643D01*
X19298214Y-14437929D01*
X19269643Y-14452214D01*
X19226786Y-14452214D01*
X19498214Y-14452214D02*
X19469643Y-14437929D01*
X19455357Y-14409357D01*
X19455357Y-14152214D01*
X19726786Y-14437929D02*
X19698214Y-14452214D01*
X19641071Y-14452214D01*
X19612500Y-14437929D01*
X19598214Y-14409357D01*
X19598214Y-14295071D01*
X19612500Y-14266500D01*
X19641071Y-14252214D01*
X19698214Y-14252214D01*
X19726786Y-14266500D01*
X19741071Y-14295071D01*
X19741071Y-14323643D01*
X19598214Y-14352214D01*
X19841071Y-14566500D02*
X19855357Y-14552214D01*
X19883928Y-14509357D01*
X19898214Y-14480786D01*
X19912500Y-14437929D01*
X19926786Y-14366500D01*
X19926786Y-14309357D01*
X19912500Y-14237929D01*
X19898214Y-14195071D01*
X19883928Y-14166500D01*
X19855357Y-14123643D01*
X19841071Y-14109357D01*
X13328500Y-14578000D02*
X13597500Y-14847000D01*
X13597500Y-14578000D02*
X13328500Y-14847000D01*
X13597500Y-14712500D02*
G75*
G03*
X13597500Y-14712500I-134500J0D01*
G01*
X13869643Y-14576786D02*
X13883928Y-14562500D01*
X13912500Y-14548214D01*
X13983928Y-14548214D01*
X14012500Y-14562500D01*
X14026786Y-14576786D01*
X14041071Y-14605357D01*
X14041071Y-14633929D01*
X14026786Y-14676786D01*
X13855357Y-14848214D01*
X14041071Y-14848214D01*
X14169643Y-14819643D02*
X14183928Y-14833929D01*
X14169643Y-14848214D01*
X14155357Y-14833929D01*
X14169643Y-14819643D01*
X14169643Y-14848214D01*
X14441071Y-14548214D02*
X14383928Y-14548214D01*
X14355357Y-14562500D01*
X14341071Y-14576786D01*
X14312500Y-14619643D01*
X14298214Y-14676786D01*
X14298214Y-14791071D01*
X14312500Y-14819643D01*
X14326786Y-14833929D01*
X14355357Y-14848214D01*
X14412500Y-14848214D01*
X14441071Y-14833929D01*
X14455357Y-14819643D01*
X14469643Y-14791071D01*
X14469643Y-14719643D01*
X14455357Y-14691071D01*
X14441071Y-14676786D01*
X14412500Y-14662500D01*
X14355357Y-14662500D01*
X14326786Y-14676786D01*
X14312500Y-14691071D01*
X14298214Y-14719643D01*
X14612500Y-14848214D02*
X14669643Y-14848214D01*
X14698214Y-14833929D01*
X14712500Y-14819643D01*
X14741071Y-14776786D01*
X14755357Y-14719643D01*
X14755357Y-14605357D01*
X14741071Y-14576786D01*
X14726786Y-14562500D01*
X14698214Y-14548214D01*
X14641071Y-14548214D01*
X14612500Y-14562500D01*
X14598214Y-14576786D01*
X14583928Y-14605357D01*
X14583928Y-14676786D01*
X14598214Y-14705357D01*
X14612500Y-14719643D01*
X14641071Y-14733929D01*
X14698214Y-14733929D01*
X14726786Y-14719643D01*
X14741071Y-14705357D01*
X14755357Y-14676786D01*
X14883928Y-14848214D02*
X14883928Y-14648214D01*
X14883928Y-14676786D02*
X14898214Y-14662500D01*
X14926786Y-14648214D01*
X14969643Y-14648214D01*
X14998214Y-14662500D01*
X15012500Y-14691071D01*
X15012500Y-14848214D01*
X15012500Y-14691071D02*
X15026786Y-14662500D01*
X15055357Y-14648214D01*
X15098214Y-14648214D01*
X15126786Y-14662500D01*
X15141071Y-14691071D01*
X15141071Y-14848214D01*
X15283928Y-14848214D02*
X15283928Y-14648214D01*
X15283928Y-14676786D02*
X15298214Y-14662500D01*
X15326786Y-14648214D01*
X15369643Y-14648214D01*
X15398214Y-14662500D01*
X15412500Y-14691071D01*
X15412500Y-14848214D01*
X15412500Y-14691071D02*
X15426786Y-14662500D01*
X15455357Y-14648214D01*
X15498214Y-14648214D01*
X15526786Y-14662500D01*
X15541071Y-14691071D01*
X15541071Y-14848214D01*
X16126786Y-14533929D02*
X15869643Y-14919643D01*
X16512500Y-14548214D02*
X16541071Y-14548214D01*
X16569643Y-14562500D01*
X16583928Y-14576786D01*
X16598214Y-14605357D01*
X16612500Y-14662500D01*
X16612500Y-14733929D01*
X16598214Y-14791071D01*
X16583928Y-14819643D01*
X16569643Y-14833929D01*
X16541071Y-14848214D01*
X16512500Y-14848214D01*
X16483928Y-14833929D01*
X16469643Y-14819643D01*
X16455357Y-14791071D01*
X16441071Y-14733929D01*
X16441071Y-14662500D01*
X16455357Y-14605357D01*
X16469643Y-14576786D01*
X16483928Y-14562500D01*
X16512500Y-14548214D01*
X16741071Y-14819643D02*
X16755357Y-14833929D01*
X16741071Y-14848214D01*
X16726786Y-14833929D01*
X16741071Y-14819643D01*
X16741071Y-14848214D01*
X17041071Y-14848214D02*
X16869643Y-14848214D01*
X16955357Y-14848214D02*
X16955357Y-14548214D01*
X16926786Y-14591071D01*
X16898214Y-14619643D01*
X16869643Y-14633929D01*
X17226786Y-14548214D02*
X17255357Y-14548214D01*
X17283928Y-14562500D01*
X17298214Y-14576786D01*
X17312500Y-14605357D01*
X17326786Y-14662500D01*
X17326786Y-14733929D01*
X17312500Y-14791071D01*
X17298214Y-14819643D01*
X17283928Y-14833929D01*
X17255357Y-14848214D01*
X17226786Y-14848214D01*
X17198214Y-14833929D01*
X17183928Y-14819643D01*
X17169643Y-14791071D01*
X17155357Y-14733929D01*
X17155357Y-14662500D01*
X17169643Y-14605357D01*
X17183928Y-14576786D01*
X17198214Y-14562500D01*
X17226786Y-14548214D01*
X17583928Y-14548214D02*
X17526786Y-14548214D01*
X17498214Y-14562500D01*
X17483928Y-14576786D01*
X17455357Y-14619643D01*
X17441071Y-14676786D01*
X17441071Y-14791071D01*
X17455357Y-14819643D01*
X17469643Y-14833929D01*
X17498214Y-14848214D01*
X17555357Y-14848214D01*
X17583928Y-14833929D01*
X17598214Y-14819643D01*
X17612500Y-14791071D01*
X17612500Y-14719643D01*
X17598214Y-14691071D01*
X17583928Y-14676786D01*
X17555357Y-14662500D01*
X17498214Y-14662500D01*
X17469643Y-14676786D01*
X17455357Y-14691071D01*
X17441071Y-14719643D01*
X17726786Y-14548214D02*
X17726786Y-14605357D01*
X17841071Y-14548214D02*
X17841071Y-14605357D01*
X18283928Y-14962500D02*
X18269643Y-14948214D01*
X18241071Y-14905357D01*
X18226786Y-14876786D01*
X18212500Y-14833929D01*
X18198214Y-14762500D01*
X18198214Y-14705357D01*
X18212500Y-14633929D01*
X18226786Y-14591071D01*
X18241071Y-14562500D01*
X18269643Y-14519643D01*
X18283928Y-14505357D01*
X18383928Y-14576786D02*
X18398214Y-14562500D01*
X18426786Y-14548214D01*
X18498214Y-14548214D01*
X18526786Y-14562500D01*
X18541071Y-14576786D01*
X18555357Y-14605357D01*
X18555357Y-14633929D01*
X18541071Y-14676786D01*
X18369643Y-14848214D01*
X18555357Y-14848214D01*
X18912500Y-14848214D02*
X18912500Y-14548214D01*
X19041071Y-14848214D02*
X19041071Y-14691071D01*
X19026786Y-14662500D01*
X18998214Y-14648214D01*
X18955357Y-14648214D01*
X18926786Y-14662500D01*
X18912500Y-14676786D01*
X19226786Y-14848214D02*
X19198214Y-14833929D01*
X19183928Y-14819643D01*
X19169643Y-14791071D01*
X19169643Y-14705357D01*
X19183928Y-14676786D01*
X19198214Y-14662500D01*
X19226786Y-14648214D01*
X19269643Y-14648214D01*
X19298214Y-14662500D01*
X19312500Y-14676786D01*
X19326786Y-14705357D01*
X19326786Y-14791071D01*
X19312500Y-14819643D01*
X19298214Y-14833929D01*
X19269643Y-14848214D01*
X19226786Y-14848214D01*
X19498214Y-14848214D02*
X19469643Y-14833929D01*
X19455357Y-14805357D01*
X19455357Y-14548214D01*
X19726786Y-14833929D02*
X19698214Y-14848214D01*
X19641071Y-14848214D01*
X19612500Y-14833929D01*
X19598214Y-14805357D01*
X19598214Y-14691071D01*
X19612500Y-14662500D01*
X19641071Y-14648214D01*
X19698214Y-14648214D01*
X19726786Y-14662500D01*
X19741071Y-14691071D01*
X19741071Y-14719643D01*
X19598214Y-14748214D01*
X19855357Y-14833929D02*
X19883928Y-14848214D01*
X19941071Y-14848214D01*
X19969643Y-14833929D01*
X19983928Y-14805357D01*
X19983928Y-14791071D01*
X19969643Y-14762500D01*
X19941071Y-14748214D01*
X19898214Y-14748214D01*
X19869643Y-14733929D01*
X19855357Y-14705357D01*
X19855357Y-14691071D01*
X19869643Y-14662500D01*
X19898214Y-14648214D01*
X19941071Y-14648214D01*
X19969643Y-14662500D01*
X20083928Y-14962500D02*
X20098214Y-14948214D01*
X20126786Y-14905357D01*
X20141071Y-14876786D01*
X20155357Y-14833929D01*
X20169643Y-14762500D01*
X20169643Y-14705357D01*
X20155357Y-14633929D01*
X20141071Y-14591071D01*
X20126786Y-14562500D01*
X20098214Y-14519643D01*
X20083928Y-14505357D01*
X13315500Y-14970500D02*
X13597500Y-15252500D01*
X13597500Y-14970500D02*
X13315500Y-15252500D01*
X13456500Y-14970500D02*
X13456500Y-15252500D01*
X13315500Y-15111500D02*
X13597500Y-15111500D01*
X13869643Y-14975786D02*
X13883928Y-14961500D01*
X13912500Y-14947214D01*
X13983928Y-14947214D01*
X14012500Y-14961500D01*
X14026786Y-14975786D01*
X14041071Y-15004357D01*
X14041071Y-15032929D01*
X14026786Y-15075786D01*
X13855357Y-15247214D01*
X14041071Y-15247214D01*
X14169643Y-15218643D02*
X14183928Y-15232929D01*
X14169643Y-15247214D01*
X14155357Y-15232929D01*
X14169643Y-15218643D01*
X14169643Y-15247214D01*
X14355357Y-15075786D02*
X14326786Y-15061500D01*
X14312500Y-15047214D01*
X14298214Y-15018643D01*
X14298214Y-15004357D01*
X14312500Y-14975786D01*
X14326786Y-14961500D01*
X14355357Y-14947214D01*
X14412500Y-14947214D01*
X14441071Y-14961500D01*
X14455357Y-14975786D01*
X14469643Y-15004357D01*
X14469643Y-15018643D01*
X14455357Y-15047214D01*
X14441071Y-15061500D01*
X14412500Y-15075786D01*
X14355357Y-15075786D01*
X14326786Y-15090071D01*
X14312500Y-15104357D01*
X14298214Y-15132929D01*
X14298214Y-15190071D01*
X14312500Y-15218643D01*
X14326786Y-15232929D01*
X14355357Y-15247214D01*
X14412500Y-15247214D01*
X14441071Y-15232929D01*
X14455357Y-15218643D01*
X14469643Y-15190071D01*
X14469643Y-15132929D01*
X14455357Y-15104357D01*
X14441071Y-15090071D01*
X14412500Y-15075786D01*
X14583928Y-14975786D02*
X14598214Y-14961500D01*
X14626786Y-14947214D01*
X14698214Y-14947214D01*
X14726786Y-14961500D01*
X14741071Y-14975786D01*
X14755357Y-15004357D01*
X14755357Y-15032929D01*
X14741071Y-15075786D01*
X14569643Y-15247214D01*
X14755357Y-15247214D01*
X14883928Y-15247214D02*
X14883928Y-15047214D01*
X14883928Y-15075786D02*
X14898214Y-15061500D01*
X14926786Y-15047214D01*
X14969643Y-15047214D01*
X14998214Y-15061500D01*
X15012500Y-15090071D01*
X15012500Y-15247214D01*
X15012500Y-15090071D02*
X15026786Y-15061500D01*
X15055357Y-15047214D01*
X15098214Y-15047214D01*
X15126786Y-15061500D01*
X15141071Y-15090071D01*
X15141071Y-15247214D01*
X15283928Y-15247214D02*
X15283928Y-15047214D01*
X15283928Y-15075786D02*
X15298214Y-15061500D01*
X15326786Y-15047214D01*
X15369643Y-15047214D01*
X15398214Y-15061500D01*
X15412500Y-15090071D01*
X15412500Y-15247214D01*
X15412500Y-15090071D02*
X15426786Y-15061500D01*
X15455357Y-15047214D01*
X15498214Y-15047214D01*
X15526786Y-15061500D01*
X15541071Y-15090071D01*
X15541071Y-15247214D01*
X16126786Y-14932929D02*
X15869643Y-15318643D01*
X16512500Y-14947214D02*
X16541071Y-14947214D01*
X16569643Y-14961500D01*
X16583928Y-14975786D01*
X16598214Y-15004357D01*
X16612500Y-15061500D01*
X16612500Y-15132929D01*
X16598214Y-15190071D01*
X16583928Y-15218643D01*
X16569643Y-15232929D01*
X16541071Y-15247214D01*
X16512500Y-15247214D01*
X16483928Y-15232929D01*
X16469643Y-15218643D01*
X16455357Y-15190071D01*
X16441071Y-15132929D01*
X16441071Y-15061500D01*
X16455357Y-15004357D01*
X16469643Y-14975786D01*
X16483928Y-14961500D01*
X16512500Y-14947214D01*
X16741071Y-15218643D02*
X16755357Y-15232929D01*
X16741071Y-15247214D01*
X16726786Y-15232929D01*
X16741071Y-15218643D01*
X16741071Y-15247214D01*
X17041071Y-15247214D02*
X16869643Y-15247214D01*
X16955357Y-15247214D02*
X16955357Y-14947214D01*
X16926786Y-14990071D01*
X16898214Y-15018643D01*
X16869643Y-15032929D01*
X17326786Y-15247214D02*
X17155357Y-15247214D01*
X17241071Y-15247214D02*
X17241071Y-14947214D01*
X17212500Y-14990071D01*
X17183928Y-15018643D01*
X17155357Y-15032929D01*
X17612500Y-15247214D02*
X17441071Y-15247214D01*
X17526786Y-15247214D02*
X17526786Y-14947214D01*
X17498214Y-14990071D01*
X17469643Y-15018643D01*
X17441071Y-15032929D01*
X17726786Y-14947214D02*
X17726786Y-15004357D01*
X17841071Y-14947214D02*
X17841071Y-15004357D01*
X18283928Y-15361500D02*
X18269643Y-15347214D01*
X18241071Y-15304357D01*
X18226786Y-15275786D01*
X18212500Y-15232929D01*
X18198214Y-15161500D01*
X18198214Y-15104357D01*
X18212500Y-15032929D01*
X18226786Y-14990071D01*
X18241071Y-14961500D01*
X18269643Y-14918643D01*
X18283928Y-14904357D01*
X18383928Y-14975786D02*
X18398214Y-14961500D01*
X18426786Y-14947214D01*
X18498214Y-14947214D01*
X18526786Y-14961500D01*
X18541071Y-14975786D01*
X18555357Y-15004357D01*
X18555357Y-15032929D01*
X18541071Y-15075786D01*
X18369643Y-15247214D01*
X18555357Y-15247214D01*
X18912500Y-15247214D02*
X18912500Y-14947214D01*
X19041071Y-15247214D02*
X19041071Y-15090071D01*
X19026786Y-15061500D01*
X18998214Y-15047214D01*
X18955357Y-15047214D01*
X18926786Y-15061500D01*
X18912500Y-15075786D01*
X19226786Y-15247214D02*
X19198214Y-15232929D01*
X19183928Y-15218643D01*
X19169643Y-15190071D01*
X19169643Y-15104357D01*
X19183928Y-15075786D01*
X19198214Y-15061500D01*
X19226786Y-15047214D01*
X19269643Y-15047214D01*
X19298214Y-15061500D01*
X19312500Y-15075786D01*
X19326786Y-15104357D01*
X19326786Y-15190071D01*
X19312500Y-15218643D01*
X19298214Y-15232929D01*
X19269643Y-15247214D01*
X19226786Y-15247214D01*
X19498214Y-15247214D02*
X19469643Y-15232929D01*
X19455357Y-15204357D01*
X19455357Y-14947214D01*
X19726786Y-15232929D02*
X19698214Y-15247214D01*
X19641071Y-15247214D01*
X19612500Y-15232929D01*
X19598214Y-15204357D01*
X19598214Y-15090071D01*
X19612500Y-15061500D01*
X19641071Y-15047214D01*
X19698214Y-15047214D01*
X19726786Y-15061500D01*
X19741071Y-15090071D01*
X19741071Y-15118643D01*
X19598214Y-15147214D01*
X19855357Y-15232929D02*
X19883928Y-15247214D01*
X19941071Y-15247214D01*
X19969643Y-15232929D01*
X19983928Y-15204357D01*
X19983928Y-15190071D01*
X19969643Y-15161500D01*
X19941071Y-15147214D01*
X19898214Y-15147214D01*
X19869643Y-15132929D01*
X19855357Y-15104357D01*
X19855357Y-15090071D01*
X19869643Y-15061500D01*
X19898214Y-15047214D01*
X19941071Y-15047214D01*
X19969643Y-15061500D01*
X20083928Y-15361500D02*
X20098214Y-15347214D01*
X20126786Y-15304357D01*
X20141071Y-15275786D01*
X20155357Y-15232929D01*
X20169643Y-15161500D01*
X20169643Y-15104357D01*
X20155357Y-15032929D01*
X20141071Y-14990071D01*
X20126786Y-14961500D01*
X20098214Y-14918643D01*
X20083928Y-14904357D01*
X13277500Y-15363500D02*
X13597500Y-15683500D01*
X13597500Y-15363500D02*
X13277500Y-15683500D01*
X13550638Y-15636638D02*
X13550638Y-15410362D01*
X13324362Y-15410362D01*
X13324362Y-15636638D01*
X13550638Y-15636638D01*
X13855357Y-15359214D02*
X14041071Y-15359214D01*
X13941071Y-15473500D01*
X13983928Y-15473500D01*
X14012500Y-15487786D01*
X14026786Y-15502071D01*
X14041071Y-15530643D01*
X14041071Y-15602071D01*
X14026786Y-15630643D01*
X14012500Y-15644929D01*
X13983928Y-15659214D01*
X13898214Y-15659214D01*
X13869643Y-15644929D01*
X13855357Y-15630643D01*
X14169643Y-15630643D02*
X14183928Y-15644929D01*
X14169643Y-15659214D01*
X14155357Y-15644929D01*
X14169643Y-15630643D01*
X14169643Y-15659214D01*
X14298214Y-15387786D02*
X14312500Y-15373500D01*
X14341071Y-15359214D01*
X14412500Y-15359214D01*
X14441071Y-15373500D01*
X14455357Y-15387786D01*
X14469643Y-15416357D01*
X14469643Y-15444929D01*
X14455357Y-15487786D01*
X14283928Y-15659214D01*
X14469643Y-15659214D01*
X14655357Y-15359214D02*
X14683928Y-15359214D01*
X14712500Y-15373500D01*
X14726786Y-15387786D01*
X14741071Y-15416357D01*
X14755357Y-15473500D01*
X14755357Y-15544929D01*
X14741071Y-15602071D01*
X14726786Y-15630643D01*
X14712500Y-15644929D01*
X14683928Y-15659214D01*
X14655357Y-15659214D01*
X14626786Y-15644929D01*
X14612500Y-15630643D01*
X14598214Y-15602071D01*
X14583928Y-15544929D01*
X14583928Y-15473500D01*
X14598214Y-15416357D01*
X14612500Y-15387786D01*
X14626786Y-15373500D01*
X14655357Y-15359214D01*
X14883928Y-15659214D02*
X14883928Y-15459214D01*
X14883928Y-15487786D02*
X14898214Y-15473500D01*
X14926786Y-15459214D01*
X14969643Y-15459214D01*
X14998214Y-15473500D01*
X15012500Y-15502071D01*
X15012500Y-15659214D01*
X15012500Y-15502071D02*
X15026786Y-15473500D01*
X15055357Y-15459214D01*
X15098214Y-15459214D01*
X15126786Y-15473500D01*
X15141071Y-15502071D01*
X15141071Y-15659214D01*
X15283928Y-15659214D02*
X15283928Y-15459214D01*
X15283928Y-15487786D02*
X15298214Y-15473500D01*
X15326786Y-15459214D01*
X15369643Y-15459214D01*
X15398214Y-15473500D01*
X15412500Y-15502071D01*
X15412500Y-15659214D01*
X15412500Y-15502071D02*
X15426786Y-15473500D01*
X15455357Y-15459214D01*
X15498214Y-15459214D01*
X15526786Y-15473500D01*
X15541071Y-15502071D01*
X15541071Y-15659214D01*
X16126786Y-15344929D02*
X15869643Y-15730643D01*
X16512500Y-15359214D02*
X16541071Y-15359214D01*
X16569643Y-15373500D01*
X16583928Y-15387786D01*
X16598214Y-15416357D01*
X16612500Y-15473500D01*
X16612500Y-15544929D01*
X16598214Y-15602071D01*
X16583928Y-15630643D01*
X16569643Y-15644929D01*
X16541071Y-15659214D01*
X16512500Y-15659214D01*
X16483928Y-15644929D01*
X16469643Y-15630643D01*
X16455357Y-15602071D01*
X16441071Y-15544929D01*
X16441071Y-15473500D01*
X16455357Y-15416357D01*
X16469643Y-15387786D01*
X16483928Y-15373500D01*
X16512500Y-15359214D01*
X16741071Y-15630643D02*
X16755357Y-15644929D01*
X16741071Y-15659214D01*
X16726786Y-15644929D01*
X16741071Y-15630643D01*
X16741071Y-15659214D01*
X17041071Y-15659214D02*
X16869643Y-15659214D01*
X16955357Y-15659214D02*
X16955357Y-15359214D01*
X16926786Y-15402071D01*
X16898214Y-15430643D01*
X16869643Y-15444929D01*
X17155357Y-15387786D02*
X17169643Y-15373500D01*
X17198214Y-15359214D01*
X17269643Y-15359214D01*
X17298214Y-15373500D01*
X17312500Y-15387786D01*
X17326786Y-15416357D01*
X17326786Y-15444929D01*
X17312500Y-15487786D01*
X17141071Y-15659214D01*
X17326786Y-15659214D01*
X17583928Y-15359214D02*
X17526786Y-15359214D01*
X17498214Y-15373500D01*
X17483928Y-15387786D01*
X17455357Y-15430643D01*
X17441071Y-15487786D01*
X17441071Y-15602071D01*
X17455357Y-15630643D01*
X17469643Y-15644929D01*
X17498214Y-15659214D01*
X17555357Y-15659214D01*
X17583928Y-15644929D01*
X17598214Y-15630643D01*
X17612500Y-15602071D01*
X17612500Y-15530643D01*
X17598214Y-15502071D01*
X17583928Y-15487786D01*
X17555357Y-15473500D01*
X17498214Y-15473500D01*
X17469643Y-15487786D01*
X17455357Y-15502071D01*
X17441071Y-15530643D01*
X17726786Y-15359214D02*
X17726786Y-15416357D01*
X17841071Y-15359214D02*
X17841071Y-15416357D01*
X18283928Y-15773500D02*
X18269643Y-15759214D01*
X18241071Y-15716357D01*
X18226786Y-15687786D01*
X18212500Y-15644929D01*
X18198214Y-15573500D01*
X18198214Y-15516357D01*
X18212500Y-15444929D01*
X18226786Y-15402071D01*
X18241071Y-15373500D01*
X18269643Y-15330643D01*
X18283928Y-15316357D01*
X18383928Y-15387786D02*
X18398214Y-15373500D01*
X18426786Y-15359214D01*
X18498214Y-15359214D01*
X18526786Y-15373500D01*
X18541071Y-15387786D01*
X18555357Y-15416357D01*
X18555357Y-15444929D01*
X18541071Y-15487786D01*
X18369643Y-15659214D01*
X18555357Y-15659214D01*
X18912500Y-15659214D02*
X18912500Y-15359214D01*
X19041071Y-15659214D02*
X19041071Y-15502071D01*
X19026786Y-15473500D01*
X18998214Y-15459214D01*
X18955357Y-15459214D01*
X18926786Y-15473500D01*
X18912500Y-15487786D01*
X19226786Y-15659214D02*
X19198214Y-15644929D01*
X19183928Y-15630643D01*
X19169643Y-15602071D01*
X19169643Y-15516357D01*
X19183928Y-15487786D01*
X19198214Y-15473500D01*
X19226786Y-15459214D01*
X19269643Y-15459214D01*
X19298214Y-15473500D01*
X19312500Y-15487786D01*
X19326786Y-15516357D01*
X19326786Y-15602071D01*
X19312500Y-15630643D01*
X19298214Y-15644929D01*
X19269643Y-15659214D01*
X19226786Y-15659214D01*
X19498214Y-15659214D02*
X19469643Y-15644929D01*
X19455357Y-15616357D01*
X19455357Y-15359214D01*
X19726786Y-15644929D02*
X19698214Y-15659214D01*
X19641071Y-15659214D01*
X19612500Y-15644929D01*
X19598214Y-15616357D01*
X19598214Y-15502071D01*
X19612500Y-15473500D01*
X19641071Y-15459214D01*
X19698214Y-15459214D01*
X19726786Y-15473500D01*
X19741071Y-15502071D01*
X19741071Y-15530643D01*
X19598214Y-15559214D01*
X19855357Y-15644929D02*
X19883928Y-15659214D01*
X19941071Y-15659214D01*
X19969643Y-15644929D01*
X19983928Y-15616357D01*
X19983928Y-15602071D01*
X19969643Y-15573500D01*
X19941071Y-15559214D01*
X19898214Y-15559214D01*
X19869643Y-15544929D01*
X19855357Y-15516357D01*
X19855357Y-15502071D01*
X19869643Y-15473500D01*
X19898214Y-15459214D01*
X19941071Y-15459214D01*
X19969643Y-15473500D01*
X20083928Y-15773500D02*
X20098214Y-15759214D01*
X20126786Y-15716357D01*
X20141071Y-15687786D01*
X20155357Y-15644929D01*
X20169643Y-15573500D01*
X20169643Y-15516357D01*
X20155357Y-15444929D01*
X20141071Y-15402071D01*
X20126786Y-15373500D01*
X20098214Y-15330643D01*
X20083928Y-15316357D01*
M02*
