%FSLAX45Y45*%
G04 Gerber Fmt 4.5, Leading zero omitted, Abs format (unit mm)*
G04 Created by KiCad (PCBNEW (5.1.6)-1) date 2023-01-27 11:01:26*
%MOMM*%
%LPD*%
G01*
G04 APERTURE LIST*
%TA.AperFunction,Profile*%
%ADD10C,0.050000*%
%TD*%
%ADD11C,0.200000*%
%ADD12C,0.300000*%
G04 APERTURE END LIST*
D10*
X13600000Y-6460000D02*
X13600000Y-6560000D01*
X20740000Y-6460000D02*
X13600000Y-6460000D01*
X13600000Y-11770000D02*
X13600000Y-6560000D01*
X20740000Y-11770000D02*
X13600000Y-11770000D01*
X20740000Y-6460000D02*
X20740000Y-11770000D01*
D11*
D12*
X13883928Y-12238214D02*
X13883928Y-11938214D01*
X13955357Y-11938214D01*
X13998214Y-11952500D01*
X14026786Y-11981071D01*
X14041071Y-12009643D01*
X14055357Y-12066786D01*
X14055357Y-12109643D01*
X14041071Y-12166786D01*
X14026786Y-12195357D01*
X13998214Y-12223929D01*
X13955357Y-12238214D01*
X13883928Y-12238214D01*
X14183928Y-12238214D02*
X14183928Y-12038214D01*
X14183928Y-12095357D02*
X14198214Y-12066786D01*
X14212500Y-12052500D01*
X14241071Y-12038214D01*
X14269643Y-12038214D01*
X14369643Y-12238214D02*
X14369643Y-12038214D01*
X14369643Y-11938214D02*
X14355357Y-11952500D01*
X14369643Y-11966786D01*
X14383928Y-11952500D01*
X14369643Y-11938214D01*
X14369643Y-11966786D01*
X14555357Y-12238214D02*
X14526786Y-12223929D01*
X14512500Y-12195357D01*
X14512500Y-11938214D01*
X14712500Y-12238214D02*
X14683928Y-12223929D01*
X14669643Y-12195357D01*
X14669643Y-11938214D01*
X15055357Y-12238214D02*
X15055357Y-11938214D01*
X15155357Y-12152500D01*
X15255357Y-11938214D01*
X15255357Y-12238214D01*
X15526786Y-12238214D02*
X15526786Y-12081071D01*
X15512500Y-12052500D01*
X15483928Y-12038214D01*
X15426786Y-12038214D01*
X15398214Y-12052500D01*
X15526786Y-12223929D02*
X15498214Y-12238214D01*
X15426786Y-12238214D01*
X15398214Y-12223929D01*
X15383928Y-12195357D01*
X15383928Y-12166786D01*
X15398214Y-12138214D01*
X15426786Y-12123929D01*
X15498214Y-12123929D01*
X15526786Y-12109643D01*
X15669643Y-12038214D02*
X15669643Y-12338214D01*
X15669643Y-12052500D02*
X15698214Y-12038214D01*
X15755357Y-12038214D01*
X15783928Y-12052500D01*
X15798214Y-12066786D01*
X15812500Y-12095357D01*
X15812500Y-12181071D01*
X15798214Y-12209643D01*
X15783928Y-12223929D01*
X15755357Y-12238214D01*
X15698214Y-12238214D01*
X15669643Y-12223929D01*
X15941071Y-12209643D02*
X15955357Y-12223929D01*
X15941071Y-12238214D01*
X15926786Y-12223929D01*
X15941071Y-12209643D01*
X15941071Y-12238214D01*
X15941071Y-12052500D02*
X15955357Y-12066786D01*
X15941071Y-12081071D01*
X15926786Y-12066786D01*
X15941071Y-12052500D01*
X15941071Y-12081071D01*
M02*
