M48
; DRILL file {KiCad (5.1.6)-1} date 01/27/23 11:01:25
; FORMAT={-:-/ absolute / metric / decimal}
; #@! TF.CreationDate,2023-01-27T11:01:25-05:00
; #@! TF.GenerationSoftware,Kicad,Pcbnew,(5.1.6)-1
; #@! TF.FileFunction,Plated,1,2,PTH
FMAT,2
METRIC
T1C0.400
T2C0.700
T3C1.000
T4C2.480
T5C2.500
T6C2.690
T7C2.820
T8C3.200
%
G90
G05
T1
X155.1Y-104.9
X158.5Y-82.5
X158.5Y-87.9
X159.8Y-79.6
X159.8Y-93.2
X160.6Y-88.2
X162.3Y-84.8
X162.4Y-110.2
X164.2Y-93.2
X164.519Y-82.481
X164.7Y-85.1
X165.1Y-76.4
X165.3Y-107.5
X165.512Y-86.512
X168.0Y-109.3
X168.6Y-93.2
X169.7Y-104.2
X169.7Y-111.7
X170.5Y-83.3
X170.5Y-94.0
X172.7Y-98.2
X172.9Y-93.1
X174.7Y-102.2
X176.3Y-89.8
X176.7Y-96.9
X177.6Y-89.8
X178.4Y-104.1
X178.8Y-89.8
X178.8Y-100.3
X180.1Y-83.5
X180.1Y-100.3
X181.3Y-104.1
X181.5Y-83.5
X183.91Y-89.81
X187.3Y-95.1
X190.7Y-71.2
X190.7Y-73.2
X191.375Y-92.39
X192.4Y-100.8
T2
X168.36Y-75.7
X170.9Y-75.7
X173.44Y-75.7
X160.46Y-98.7
X163.0Y-98.7
X165.54Y-98.7
T3
X188.3Y-78.42
X188.3Y-80.96
X188.3Y-83.5
X194.5Y-74.56
X194.5Y-77.33
X194.5Y-80.1
X194.5Y-82.87
X194.5Y-85.64
X194.5Y-88.41
X194.5Y-91.18
X194.5Y-93.95
X194.5Y-96.72
X194.5Y-99.49
X194.5Y-102.26
X194.5Y-105.03
X194.5Y-107.8
X197.04Y-75.945
X197.04Y-78.715
X197.04Y-81.485
X197.04Y-84.255
X197.04Y-87.025
X197.04Y-89.795
X197.04Y-92.565
X197.04Y-95.335
X197.04Y-98.105
X197.04Y-100.875
X197.04Y-103.645
X197.04Y-106.415
T4
X138.35Y-97.25
X138.35Y-105.75
X138.35Y-75.85
X138.35Y-84.35
T5
X144.018Y-90.653
T6
X146.0Y-101.5
X146.0Y-80.1
T7
X141.5Y-101.5
X141.5Y-80.1
T8
X195.77Y-67.66
X195.77Y-114.7
T0
M30
